<svg width="200" height="60" viewBox="0 0 200 60" fill="none" xmlns="http://www.w3.org/2000/svg">
<rect x="1.8" y="1.8" width="196.4" height="56.4" rx="28.2" fill="#2D8F55" stroke="#0A6249" stroke-width="3.6"/>
<path d="M34.6581 38.2002C33.4781 38.1202 31.9181 37.1002 31.058 34.1602C30.498 32.2602 30.138 28.9602 30.198 24.8002C30.218 24.5402 30.398 24.3002 30.678 24.2602C31.438 24.1202 32.1981 24.1402 32.9381 24.3002C33.198 24.3602 33.3781 24.6002 33.3781 24.8602C33.338 27.2202 33.4381 29.5002 33.638 31.0002C33.8381 32.4402 34.1181 33.5002 34.4581 34.2602C34.5581 34.4602 34.6981 34.6602 34.798 34.8002C34.8781 34.7402 34.938 34.6602 34.9981 34.5802C35.538 33.7602 36.0781 32.5002 36.4981 30.8402C36.8981 29.2402 37.1781 27.0402 37.2381 24.8002C37.2381 24.5402 37.4181 24.3202 37.6781 24.2802C38.4181 24.1202 39.1781 24.1402 39.978 24.3202C40.2381 24.3802 40.4181 24.6002 40.3981 24.8802C40.3981 24.8802 40.3981 24.8802 40.3981 24.9002C40.2981 28.7802 39.5581 32.2202 38.6781 34.3402C37.9981 36.0002 37.1581 37.0802 36.4581 37.6202C35.8381 38.0802 35.2181 38.2402 34.6581 38.2002ZM45.5668 38.4802C42.2668 38.4002 40.7668 35.9602 40.6668 32.9002C40.5868 30.5002 41.4468 27.7602 42.7268 26.0602C43.6668 24.8002 44.8468 24.0602 46.0268 23.9802C47.5068 23.8802 48.5868 24.4602 49.3868 25.2802C50.8268 26.8002 51.1068 29.4202 51.1068 29.4202C51.1068 29.4202 51.3268 31.0002 51.0468 32.8202C50.9468 33.6202 50.7268 34.4402 50.3868 35.2002C50.0068 36.0202 49.4068 36.8602 48.5868 37.4802C47.7668 38.1202 46.7468 38.5202 45.5668 38.4802ZM43.9068 31.5802C43.8068 32.4002 43.8068 33.2002 43.9868 33.9002C44.2068 34.6802 44.7068 35.2802 45.6468 35.3202C46.0468 35.3202 46.3868 35.1802 46.6468 34.9602C47.0468 34.6802 47.3268 34.2602 47.5068 33.8602C47.7868 33.2602 47.9068 32.5602 47.9668 31.9402C48.0868 30.7602 47.9468 29.7202 47.9468 29.7002C47.9468 29.7002 47.8668 28.5602 47.2868 27.7202C47.0668 27.4002 46.7468 27.1202 46.2468 27.1402C45.8068 27.1802 45.4068 27.6002 45.0868 28.1002C44.4468 29.0202 44.0668 30.3202 43.9068 31.5802ZM53.6145 38.1402C53.1745 38.1602 52.7545 37.9802 52.4545 37.6602C52.1545 37.3402 51.9945 36.9202 52.0145 36.4802C52.0145 36.4802 52.4945 26.2802 52.5545 24.8202C52.5745 24.5402 52.7745 24.3202 53.0345 24.2802C53.8345 24.1602 54.5945 24.2002 55.2945 24.3602C55.5545 24.4202 55.7345 24.6602 55.7345 24.9402C55.6745 26.2602 55.2545 34.9602 55.2545 34.9602C55.2545 34.9602 59.5945 34.9202 60.8945 34.9202C61.1145 34.9202 61.3345 35.0402 61.4145 35.2602C61.7545 36.1002 61.6945 36.9202 61.4145 37.7002C61.3345 37.9202 61.1345 38.0802 60.8945 38.0802C59.3345 38.1002 53.6145 38.1402 53.6145 38.1402ZM60.1005 27.6002C59.8605 27.6002 59.6605 27.4802 59.5805 27.2802C59.1405 26.3402 59.1805 25.5202 59.5205 24.7602C59.6205 24.5602 59.8205 24.4402 60.0205 24.4202C61.6805 24.4002 68.8806 24.3202 69.2006 24.3002C69.4406 24.3002 69.6806 24.4802 69.7406 24.7202C69.9806 25.5002 69.9806 26.3002 69.7806 27.0602C69.7206 27.3002 69.5006 27.4802 69.2406 27.4802C69.2406 27.4802 67.9206 27.5002 66.2806 27.5202C66.1806 30.0802 65.9206 35.9602 65.8606 37.5202C65.8606 37.7602 65.6806 37.9802 65.4406 38.0402C64.6406 38.2802 63.8206 38.2602 63.0406 37.9602C62.8206 37.8602 62.6806 37.6402 62.7005 37.4002L63.1006 27.5602C61.5806 27.5802 60.3206 27.6002 60.1005 27.6002ZM69.5434 37.9802C69.3034 37.9202 69.1234 37.6802 69.1434 37.4202C69.1434 37.3202 69.1434 37.2202 69.1434 37.1602C69.3034 33.3802 69.9034 29.9002 70.7634 27.7002C71.3434 26.1802 72.1034 25.1402 72.8834 24.6202C73.6434 24.0802 74.4834 23.9402 75.3434 24.1802C76.0034 24.3602 76.6034 24.7802 77.1034 25.4602C77.6234 26.1802 78.0434 27.2602 78.3234 28.5202C79.0034 31.6602 78.9634 36.1602 78.9234 37.5402C78.9234 37.8002 78.7434 38.0202 78.4834 38.0802C77.7034 38.2602 76.9034 38.2402 76.1434 37.9802C75.9034 37.9002 75.7634 37.6802 75.7634 37.4402C75.7634 36.9802 75.7834 36.1802 75.7634 35.2002C75.5234 35.2202 75.2634 35.2402 75.0234 35.2602C74.1434 35.3802 73.2834 35.5202 72.4034 35.7002C72.3634 36.3002 72.3234 36.9202 72.3034 37.5202C72.2834 37.7802 72.1234 38.0002 71.8634 38.0602C71.1034 38.2202 70.3234 38.2002 69.5434 37.9802ZM73.0234 31.2002C72.9434 31.5802 72.8634 31.9802 72.8034 32.4002C73.4034 32.2802 74.0234 32.2002 74.6434 32.1202C74.9834 32.0802 75.3034 32.0602 75.6234 32.0202C75.6034 31.8602 75.6034 31.7002 75.5834 31.5402C75.4434 30.3002 75.2634 29.1002 74.9434 28.1602C74.8434 27.9002 74.7434 27.6802 74.6434 27.4802C74.6234 27.4402 74.5834 27.4002 74.5634 27.3602C74.4434 27.4802 74.2834 27.6802 74.1834 27.8402C73.7034 28.6402 73.3234 29.8002 73.0234 31.2002ZM80.1088 37.9802C79.8888 37.8802 79.7288 37.6602 79.7488 37.4202C79.8088 36.1602 80.3088 25.3802 80.3088 25.1402C80.3288 24.6802 80.7088 24.3202 81.1688 24.3002C81.5288 24.2802 81.8888 24.2802 82.0488 24.2802C83.3088 24.2802 84.7288 24.3602 85.9088 24.6602C87.5888 25.0802 88.8088 25.9602 89.2888 27.1802C89.7888 28.4802 89.4288 29.8802 88.3888 31.1602C88.1088 31.5202 87.7688 31.8802 87.3888 32.2002C87.8888 32.7202 88.3488 33.3002 88.7688 33.9202C89.4488 34.9202 89.7688 35.5002 90.2088 36.6602C90.2888 36.8602 90.2488 37.1002 90.0688 37.2602C89.4288 37.8802 88.6488 38.1602 87.7688 38.1402C87.5488 38.1402 87.3288 38.0002 87.2488 37.7802C87.0688 37.3202 86.6688 36.4202 86.1488 35.7002C85.7288 35.1202 85.2888 34.6002 84.8088 34.1202C83.9688 34.6402 83.2888 35.0202 83.0288 35.1402C82.9688 36.2002 82.9288 37.0802 82.9088 37.5402C82.9088 37.7802 82.7488 38.0002 82.5088 38.0602C81.6888 38.3002 80.8888 38.2802 80.1088 37.9802ZM83.3888 27.4802L83.2088 31.4002C83.7488 31.0602 84.3488 30.6402 84.8888 30.1802C85.3688 29.8002 85.8088 29.3802 86.0888 28.9402C86.2288 28.7202 86.4088 28.5402 86.3288 28.3202C86.2288 28.0402 85.8488 27.9602 85.4888 27.8402C84.8888 27.6402 84.2088 27.5402 83.5088 27.4802C83.4688 27.4802 83.4288 27.4802 83.3888 27.4802ZM96.477 37.9802C96.237 37.9202 96.057 37.6802 96.077 37.4202C96.077 37.3202 96.077 37.2202 96.077 37.1602C96.237 33.3802 96.837 29.9002 97.697 27.7002C98.277 26.1802 99.037 25.1402 99.817 24.6202C100.577 24.0802 101.417 23.9402 102.277 24.1802C102.937 24.3602 103.537 24.7802 104.037 25.4602C104.557 26.1802 104.977 27.2602 105.257 28.5202C105.937 31.6602 105.897 36.1602 105.857 37.5402C105.857 37.8002 105.677 38.0202 105.417 38.0802C104.637 38.2602 103.837 38.2402 103.077 37.9802C102.837 37.9002 102.697 37.6802 102.697 37.4402C102.697 36.9802 102.717 36.1802 102.697 35.2002C102.457 35.2202 102.197 35.2402 101.957 35.2602C101.077 35.3802 100.217 35.5202 99.337 35.7002C99.297 36.3002 99.257 36.9202 99.237 37.5202C99.217 37.7802 99.057 38.0002 98.797 38.0602C98.037 38.2202 97.257 38.2002 96.477 37.9802ZM99.957 31.2002C99.877 31.5802 99.797 31.9802 99.737 32.4002C100.337 32.2802 100.957 32.2002 101.577 32.1202C101.917 32.0802 102.237 32.0602 102.557 32.0202C102.537 31.8602 102.537 31.7002 102.517 31.5402C102.377 30.3002 102.197 29.1002 101.877 28.1602C101.777 27.9002 101.677 27.6802 101.577 27.4802C101.557 27.4402 101.517 27.4002 101.497 27.3602C101.377 27.4802 101.217 27.6802 101.117 27.8402C100.637 28.6402 100.257 29.8002 99.957 31.2002ZM111.582 38.4802C108.282 38.4002 106.782 35.9602 106.682 32.9002C106.602 30.5002 107.462 27.7602 108.742 26.0602C109.682 24.8002 110.862 24.0602 112.042 23.9802C113.522 23.8802 114.602 24.4602 115.402 25.2802C116.842 26.8002 117.122 29.4202 117.122 29.4202C117.122 29.4202 117.342 31.0002 117.062 32.8202C116.962 33.6202 116.742 34.4402 116.402 35.2002C116.022 36.0202 115.422 36.8602 114.602 37.4802C113.782 38.1202 112.762 38.5202 111.582 38.4802ZM109.922 31.5802C109.822 32.4002 109.822 33.2002 110.002 33.9002C110.222 34.6802 110.722 35.2802 111.662 35.3202C112.062 35.3202 112.402 35.1802 112.662 34.9602C113.062 34.6802 113.342 34.2602 113.522 33.8602C113.802 33.2602 113.922 32.5602 113.982 31.9402C114.102 30.7602 113.962 29.7202 113.962 29.7002C113.962 29.7002 113.882 28.5602 113.302 27.7202C113.082 27.4002 112.762 27.1202 112.262 27.1402C111.822 27.1802 111.422 27.6002 111.102 28.1002C110.462 29.0202 110.082 30.3202 109.922 31.5802ZM123.39 37.9802C123.17 37.8802 123.03 37.6602 123.03 37.4202C123.11 35.5202 123.47 26.8802 123.57 24.8202C123.57 24.5402 123.77 24.3202 124.05 24.2802C124.83 24.1602 125.59 24.2002 126.29 24.3602C126.49 24.4202 126.65 24.5602 126.71 24.7402L129.11 30.7602L132.17 24.6402C132.23 24.4602 132.41 24.3002 132.61 24.2802C133.41 24.1602 134.15 24.2002 134.87 24.3602C135.13 24.4202 135.31 24.6602 135.29 24.9402C135.21 27.0002 134.85 35.6002 134.77 37.5402C134.75 37.7802 134.59 38.0002 134.37 38.0602C133.53 38.2802 132.73 38.2802 131.97 37.9802C131.73 37.8802 131.59 37.6602 131.59 37.4202C131.63 36.6202 131.71 34.6402 131.81 32.4402L130.51 35.0202C130.41 35.2402 130.21 35.4002 129.97 35.4602C129.31 35.6602 128.61 35.6602 127.85 35.3802C127.61 35.3002 127.43 35.1202 127.35 34.8802C127.17 34.4402 126.81 33.5802 126.41 32.5602C126.31 34.7402 126.23 36.7402 126.19 37.5402C126.19 37.7802 126.03 38.0002 125.79 38.0602C124.97 38.3002 124.17 38.2802 123.39 37.9802ZM136.776 37.2602C136.176 36.5202 136.116 35.5002 136.116 35.5002C136.116 35.4602 136.116 35.4002 136.116 35.3602C136.116 35.3602 136.396 28.3802 136.456 25.5602C136.476 24.6802 136.996 24.4002 137.636 24.4002C139.856 24.3802 144.496 24.3202 144.816 24.3202C145.076 24.3002 145.296 24.4802 145.376 24.7202C145.596 25.5002 145.616 26.3002 145.416 27.0602C145.356 27.3002 145.136 27.4802 144.876 27.4802L139.556 27.5602L139.456 30.3002C140.716 30.1002 142.036 29.8802 142.576 29.8002C142.816 29.7602 143.056 29.8802 143.156 30.1002C143.516 30.8402 143.636 31.6202 143.516 32.4602C143.496 32.7002 143.296 32.9002 143.056 32.9402L139.356 33.5202L139.296 35.1802C139.796 35.2602 140.656 35.1602 141.536 35.0402C142.456 34.9002 143.396 34.7002 144.156 34.4602C144.336 34.4002 144.536 34.4402 144.676 34.5602C145.396 35.1202 145.676 35.9402 145.536 37.0202C145.496 37.2202 145.356 37.4002 145.156 37.4802C144.036 37.8202 142.596 38.1202 141.276 38.2602C139.936 38.4002 138.736 38.3402 138.056 38.1202C137.496 37.9602 137.076 37.6402 136.776 37.2602ZM146.73 37.9602C146.51 37.8602 146.37 37.6402 146.37 37.4002C146.45 35.5002 146.81 26.8602 146.91 24.8002C146.91 24.5202 147.11 24.3002 147.39 24.2602C148.03 24.1602 148.65 24.1802 149.23 24.2602C149.65 24.3402 149.97 24.6602 150.05 25.0602C150.43 25.7202 151.35 28.2402 152.41 30.6402C152.73 31.2602 153.07 31.8802 153.43 32.4802C153.57 29.4602 153.71 26.0002 153.77 24.8002C153.77 24.5202 153.97 24.3002 154.23 24.2602C155.03 24.1402 155.79 24.1802 156.49 24.3402C156.75 24.4002 156.93 24.6402 156.93 24.9202C156.83 26.9802 156.47 35.5802 156.39 37.5202C156.39 37.7602 156.21 37.9802 155.99 38.0402C155.17 38.2802 154.37 38.2602 153.59 37.9602C153.47 37.9202 153.39 37.8402 153.33 37.7602C151.91 36.1002 150.73 34.2602 149.75 32.4002C149.67 34.6402 149.57 36.7002 149.53 37.5202C149.53 37.7602 149.37 37.9802 149.13 38.0402C148.31 38.2802 147.51 38.2602 146.73 37.9602ZM162.757 38.2002C161.317 38.1602 160.237 37.6402 159.417 36.8402C158.337 35.7602 157.777 34.1202 157.737 32.3002C157.737 32.3002 158.017 26.4402 158.097 24.7802C158.097 24.5202 158.297 24.3002 158.557 24.2402C159.337 24.1202 160.097 24.1802 160.837 24.3802C161.097 24.4602 161.257 24.7002 161.257 24.9602C161.177 26.5802 160.897 32.2202 160.897 32.2202C160.917 33.0202 161.077 33.7802 161.457 34.3402C161.737 34.7602 162.197 35.0202 162.857 35.0202C163.137 35.0402 163.397 34.9402 163.617 34.8002C163.897 34.6202 164.117 34.3402 164.277 34.0402C164.617 33.4202 164.697 32.1402 164.737 30.7002C164.817 28.7602 164.777 26.6002 164.797 24.9802C164.797 24.7202 164.977 24.5002 165.237 24.4402C165.957 24.2802 166.717 24.3202 167.537 24.5202C167.777 24.5802 167.957 24.8202 167.957 25.0802C167.937 27.0002 168.017 29.7202 167.857 31.9202C167.737 33.4802 167.477 34.8002 167.077 35.5602C166.657 36.3202 166.077 36.9802 165.377 37.4402C164.637 37.9402 163.757 38.2202 162.757 38.2002Z" fill="white"/>
</svg>
