<svg width="360" height="249" viewBox="0 0 360 249" fill="none" xmlns="http://www.w3.org/2000/svg">
<path d="M309.674 71.6332L342.808 89.5085C344.818 90.5927 345.514 93.1368 344.336 95.0929L322.304 131.666C321.787 132.524 321.611 133.545 321.81 134.526L327.855 164.286C327.951 164.758 328.131 165.209 328.388 165.617L351.66 202.663C352.2 203.522 352.393 204.554 352.2 205.551L347.183 231.471C346.795 233.478 344.955 234.869 342.918 234.696L291.793 230.364C289.475 230.167 287.813 228.043 288.181 225.746L292.793 196.916C293.17 194.561 291.415 192.401 289.033 192.289L222.396 189.137C220.668 189.055 219.189 187.872 218.729 186.205L214.026 169.155C213.084 165.742 208.499 165.145 206.715 168.204L198.658 182.015C197.941 183.244 196.625 184 195.203 184H157.5C155.291 184 153.5 185.791 153.5 188V205.721C153.5 207.628 154.846 209.269 156.716 209.643L173.843 213.068C176.275 213.555 177.683 216.116 176.79 218.431L168.958 238.723C168.156 240.801 165.809 241.824 163.741 240.996L115.014 221.506C113.496 220.898 112.5 219.427 112.5 217.792V203.272C112.5 200.479 109.711 198.546 107.096 199.527L69.6325 213.575C68.894 213.852 68.0901 213.905 67.3219 213.726L50.0939 209.72C48.2822 209.298 47 207.684 47 205.823V194.041C47 191.464 44.6 189.56 42.0911 190.145L34.2882 191.966C32.8756 192.296 31.3952 191.835 30.4195 190.761L8.56727 166.724C7.59859 165.658 7.27744 164.154 7.7264 162.786L16.7301 135.346C17.202 133.908 18.4454 132.859 19.9426 132.637L51.368 127.966C53.2033 127.693 54.61 126.194 54.7657 124.345L58.4455 80.647C58.4816 80.2185 58.4483 79.7869 58.347 79.369L51.4949 51.1041C50.9544 48.8744 52.3962 46.6478 54.652 46.2289L83.5268 40.8665C84.7685 40.6359 86.0462 41.0052 86.9733 41.8628L103.581 57.2245C104.747 58.3032 106.441 58.5896 107.896 57.9543L129.649 48.4623C131.546 47.6343 132.498 45.4953 131.844 43.5313L125.381 24.1426C124.639 21.9158 125.964 19.5314 128.248 18.9868L175.037 7.82609C177.011 7.35514 179.025 8.43765 179.722 10.3442L196.315 55.756C196.996 57.6194 198.939 58.7022 200.882 58.3002L224.325 53.45C225.678 53.1701 226.79 52.212 227.268 50.9158L232.107 37.7811C232.875 35.6974 235.193 34.6378 237.271 35.4209L265.454 46.0408C266.991 46.6197 268.725 46.201 269.828 44.9849L283.439 29.9779C285.364 27.8548 288.832 28.3865 290.033 30.9889L307.941 69.7891C308.304 70.5751 308.912 71.2222 309.674 71.6332Z" stroke="#353236" stroke-width="15" stroke-linecap="round"/>
</svg>
