<svg width="340" height="328" viewBox="0 0 340 328" fill="none" xmlns="http://www.w3.org/2000/svg">
<path d="M295.032 168.03L286.063 209.379C285.43 212.296 281.229 212.173 280.768 209.224L277.932 191.081C277.796 190.212 277.245 189.464 276.455 189.077L244.599 173.468C244.23 173.287 243.824 173.193 243.413 173.193H232.797C231.094 173.193 229.818 171.631 230.157 169.962L232.924 156.354L235.814 136.77C235.905 136.15 235.778 135.518 235.454 134.982L219.717 108.969C219.543 108.681 219.424 108.363 219.367 108.031L215.908 87.9032C215.805 87.305 215.907 86.6896 216.198 86.1567L228.802 63.0481C229.432 61.8935 230.804 61.3624 232.047 61.7916L257.755 70.667C258.038 70.7646 258.335 70.8145 258.634 70.8145H286.194C286.809 70.8145 287.406 71.025 287.885 71.4111L319.408 96.8227C319.887 97.2088 320.484 97.4194 321.099 97.4194H329.656C330.972 97.4194 332.095 98.3694 332.313 99.6666L337.251 129.022C337.406 129.941 337.074 130.875 336.375 131.491L310.045 154.67L295.931 166.539C295.475 166.923 295.158 167.447 295.032 168.03Z" stroke="#009F64" stroke-width="5" stroke-linecap="round"/>
<path d="M198.26 42.2447L227.738 59.6632C228.996 60.4068 229.432 62.0183 228.72 63.2949L215.974 86.1508C215.668 86.6996 215.563 87.3381 215.678 87.9559L219.411 108.023C219.47 108.338 219.585 108.641 219.75 108.916L235.502 135.171C235.824 135.707 235.949 136.338 235.857 136.956L233.381 153.46C233.168 154.882 231.876 155.886 230.445 155.741L196.159 152.269C194.687 152.12 193.61 150.812 193.748 149.339L195.261 133.069C195.395 131.633 194.373 130.346 192.944 130.15L149.409 124.193C148.527 124.072 147.762 123.524 147.364 122.728L142.815 113.629C141.953 111.906 139.613 111.618 138.359 113.081L131.806 120.726C131.295 121.323 130.547 121.667 129.761 121.667H105.694C104.206 121.667 103 122.873 103 124.361L103 135.64C103 136.76 103.692 137.763 104.739 138.16L114.985 142.046C116.374 142.573 117.075 144.126 116.55 145.517L111.647 158.499C111.114 159.91 109.526 160.609 108.126 160.049L75.3251 146.928C74.3022 146.519 73.6315 145.529 73.6315 144.427V134.647C73.6315 132.766 71.7526 131.464 69.9913 132.125L44.7584 141.587C44.261 141.773 43.7196 141.809 43.2021 141.688L31.5984 138.99C30.3781 138.706 29.5145 137.619 29.5145 136.366V128.43C29.5145 126.694 27.898 125.412 26.2081 125.806L20.9525 127.032C20.001 127.254 19.004 126.944 18.3468 126.221L3.62837 110.031C2.97593 109.313 2.75962 108.3 3.06201 107.378L9.12639 88.8964C9.44425 87.9277 10.2817 87.2214 11.2901 87.0715L32.4565 83.9252C33.6926 83.7414 34.6401 82.7317 34.745 81.4864L37.2235 52.0541C37.2478 51.7655 37.2254 51.4748 37.1572 51.1933L32.542 32.1557C32.1779 30.6539 33.149 29.1542 34.6684 28.8721L54.1168 25.2602C54.9531 25.1049 55.8137 25.3537 56.4382 25.9313L67.6238 36.278C68.4093 37.0046 69.5502 37.1975 70.5308 36.7696L85.1819 30.3764C86.46 29.8187 87.1013 28.3779 86.6603 27.0551L82.3073 13.996C81.8073 12.4961 82.7003 10.8902 84.2381 10.5233L115.753 3.00612C117.082 2.68891 118.439 3.41803 118.908 4.70215L130.084 35.2889C130.543 36.544 131.852 37.2733 133.161 37.0026L148.95 33.7358C149.861 33.5473 150.611 32.9019 150.933 32.0289L154.192 23.1821C154.709 21.7786 156.27 21.065 157.67 21.5924L177.065 28.9006C177.882 29.2085 178.797 29.1014 179.521 28.6132L192.003 20.1959C193.75 19.0174 196.113 20.2115 196.201 22.3174L196.939 40.0374C196.977 40.9495 197.474 41.7803 198.26 42.2447Z" stroke="#009F64" stroke-width="5" stroke-linecap="round"/>
<path d="M117.722 184.769L110.946 161.976C110.772 161.389 110.803 160.76 111.034 160.192L117.015 145.512C117.597 144.083 116.862 142.458 115.405 141.951L104.403 138.124C103.32 137.747 102.594 136.726 102.594 135.58V124.361C102.594 122.873 103.8 121.667 105.288 121.667H129.621C130.42 121.667 131.179 121.312 131.691 120.697L138.293 112.775C139.551 111.265 141.95 111.567 142.795 113.341L147.093 122.368C147.485 123.191 148.267 123.76 149.17 123.88L193.283 129.741C194.729 129.933 195.759 131.241 195.607 132.692L193.807 149.923C193.651 151.421 194.753 152.757 196.253 152.887L229.367 155.767C230.925 155.902 232.041 157.332 231.793 158.876L229.557 172.856L222.771 200.643C222.589 201.391 222.096 202.024 221.416 202.385L189.27 219.422C188.965 219.584 188.693 219.803 188.47 220.068L161.579 252.038C160.227 253.646 157.638 253.157 156.965 251.167L151.035 233.622C150.665 232.528 149.638 231.791 148.482 231.791H136.413C135.004 231.791 133.832 230.704 133.727 229.298L131.006 193.021C130.93 192.013 130.297 191.132 129.365 190.739L119.259 186.484C118.516 186.171 117.952 185.542 117.722 184.769Z" stroke="#009F64" stroke-width="5" stroke-linecap="round"/>
<path d="M256.792 248.2L222.619 250.415C222.092 250.449 221.587 250.638 221.166 250.957L213.675 256.635C212.43 257.579 210.645 257.269 209.791 255.961L201.463 243.2C201.12 242.673 200.602 242.284 200.001 242.098L180.782 236.167C178.966 235.607 178.285 233.393 179.472 231.91L188.65 220.437C188.881 220.149 189.168 219.911 189.495 219.738L220.773 203.195C221.435 202.845 221.921 202.235 222.116 201.512L229.003 175.852C229.3 174.744 230.268 173.945 231.413 173.863L242.781 173.051C243.252 173.018 243.724 173.109 244.149 173.315L276.242 188.889C277.031 189.272 277.584 190.015 277.725 190.88L280.839 210.01C280.943 210.649 280.814 211.303 280.475 211.854L258.912 246.923C258.455 247.668 257.664 248.144 256.792 248.2Z" fill="#009F64" stroke="#009F64" stroke-width="5" stroke-linecap="round"/>
<path d="M162.608 275.034L159.913 259.46C159.868 259.201 159.785 258.95 159.668 258.715L158.668 256.716C158.162 255.703 158.343 254.481 159.122 253.658L174.825 237.083C175.547 236.321 176.648 236.048 177.643 236.384L200.096 243.969C200.638 244.153 201.109 244.504 201.438 244.974L210.459 257.821C211.328 259.06 211.007 260.771 209.748 261.611L201.941 266.815C201.299 267.244 200.871 267.927 200.766 268.691L197.697 291.097C197.611 291.727 197.304 292.307 196.832 292.733L161.808 324.317C160.718 325.3 159.041 325.229 158.038 324.158L136.892 301.583C135.827 300.446 135.946 298.645 137.151 297.657L161.661 277.577C162.412 276.962 162.774 275.99 162.608 275.034Z" stroke="#009F64" stroke-width="5" stroke-linecap="round"/>
</svg>
