<svg width="308" height="117" viewBox="0 0 308 117" fill="none" xmlns="http://www.w3.org/2000/svg">
<path d="M26.2617 94.737C25.5214 93.4614 26.8133 92.055 28.147 92.6845L31.9121 94.4617C32.5085 94.7432 33.2031 94.6173 33.6325 94.1499L36.343 91.199C37.3032 90.1537 39.0977 91.0007 38.9618 92.4351L38.5782 96.4843C38.5174 97.1258 38.8801 97.7507 39.4765 98.0323L43.2416 99.8094C44.5753 100.439 44.3924 102.369 42.9747 102.626L38.9726 103.351C38.3386 103.466 37.8681 103.978 37.8074 104.62L37.4237 108.669C37.2878 110.103 35.3803 110.449 34.64 109.174L32.5502 105.573C32.2191 105.002 31.5657 104.694 30.9317 104.809L26.9296 105.534C25.5119 105.791 24.5158 104.075 25.476 103.029L28.1866 100.079C28.616 99.6111 28.6826 98.9084 28.3515 98.3379L26.2617 94.737Z" fill="#FFAB1B"/>
<path d="M6.26169 57.737C5.5214 56.4614 6.81332 55.055 8.14704 55.6845L11.9121 57.4617C12.5085 57.7432 13.2031 57.6173 13.6325 57.1499L16.343 54.199C17.3032 53.1537 19.0977 54.0007 18.9618 55.4351L18.5782 59.4843C18.5174 60.1258 18.8801 60.7507 19.4765 61.0323L23.2416 62.8094C24.5753 63.439 24.3924 65.3689 22.9747 65.6259L18.9726 66.3513C18.3386 66.4662 17.8681 66.9783 17.8074 67.6198L17.4237 71.669C17.2878 73.1033 15.3803 73.4491 14.64 72.1735L12.5502 68.5726C12.2191 68.0022 11.5657 67.6937 10.9317 67.8087L6.92958 68.534C5.51186 68.791 4.51581 67.0747 5.476 66.0294L8.18656 63.0786C8.61597 62.6111 8.68255 61.9084 8.35148 61.3379L6.26169 57.737Z" fill="#FFAB1B"/>
<path d="M33.2617 8.73701C32.5214 7.46143 33.8133 6.05498 35.147 6.68452L38.9121 8.46168C39.5085 8.74322 40.2031 8.61733 40.6325 8.14985L43.343 5.199C44.3032 4.15369 46.0977 5.00073 45.9618 6.43512L45.5782 10.4843C45.5174 11.1258 45.8801 11.7507 46.4765 12.0323L50.2416 13.8094C51.5753 14.439 51.3924 16.3689 49.9747 16.6259L45.9726 17.3513C45.3386 17.4662 44.8681 17.9783 44.8074 18.6198L44.4237 22.669C44.2878 24.1033 42.3803 24.4491 41.64 23.1735L39.5502 19.5726C39.2191 19.0022 38.5657 18.6937 37.9317 18.8087L33.9296 19.534C32.5119 19.791 31.5158 18.0747 32.476 17.0294L35.1866 14.0786C35.616 13.6111 35.6826 12.9084 35.3515 12.3379L33.2617 8.73701Z" fill="#FFAB1B"/>
<path d="M281.262 98.737C280.521 97.4614 281.813 96.055 283.147 96.6845L286.912 98.4617C287.509 98.7432 288.203 98.6173 288.632 98.1499L291.343 95.199C292.303 94.1537 294.098 95.0007 293.962 96.4351L293.578 100.484C293.517 101.126 293.88 101.751 294.477 102.032L298.242 103.809C299.575 104.439 299.392 106.369 297.975 106.626L293.973 107.351C293.339 107.466 292.868 107.978 292.807 108.62L292.424 112.669C292.288 114.103 290.38 114.449 289.64 113.174L287.55 109.573C287.219 109.002 286.566 108.694 285.932 108.809L281.93 109.534C280.512 109.791 279.516 108.075 280.476 107.029L283.187 104.079C283.616 103.611 283.683 102.908 283.351 102.338L281.262 98.737Z" fill="#FFAB1B"/>
<path d="M269.262 8.73701C268.521 7.46143 269.813 6.05498 271.147 6.68452L274.912 8.46168C275.509 8.74322 276.203 8.61733 276.632 8.14985L279.343 5.199C280.303 4.15369 282.098 5.00073 281.962 6.43512L281.578 10.4843C281.517 11.1258 281.88 11.7507 282.477 12.0323L286.242 13.8094C287.575 14.439 287.392 16.3689 285.975 16.6259L281.973 17.3513C281.339 17.4662 280.868 17.9783 280.807 18.6198L280.424 22.669C280.288 24.1033 278.38 24.4491 277.64 23.1735L275.55 19.5726C275.219 19.0022 274.566 18.6937 273.932 18.8087L269.93 19.534C268.512 19.791 267.516 18.0747 268.476 17.0294L271.187 14.0786C271.616 13.6111 271.683 12.9084 271.351 12.3379L269.262 8.73701Z" fill="#FFAB1B"/>
<path d="M287.262 49.737C286.521 48.4614 287.813 47.055 289.147 47.6845L292.912 49.4617C293.509 49.7432 294.203 49.6173 294.632 49.1499L297.343 46.199C298.303 45.1537 300.098 46.0007 299.962 47.4351L299.578 51.4843C299.517 52.1258 299.88 52.7507 300.477 53.0323L304.242 54.8094C305.575 55.439 305.392 57.3689 303.975 57.6259L299.973 58.3513C299.339 58.4662 298.868 58.9783 298.807 59.6198L298.424 63.669C298.288 65.1033 296.38 65.4491 295.64 64.1735L293.55 60.5726C293.219 60.0022 292.566 59.6937 291.932 59.8087L287.93 60.534C286.512 60.791 285.516 59.0747 286.476 58.0294L289.187 55.0786C289.616 54.6111 289.683 53.9084 289.351 53.3379L287.262 49.737Z" fill="#FFAB1B"/>
</svg>
