<svg width="40" height="40" viewBox="0 0 40 40" fill="none" xmlns="http://www.w3.org/2000/svg">
<circle cx="20" cy="20" r="20" fill="#E2062D"/>
<path d="M14.2849 27.6381C14.4155 26.6148 14.938 25.2215 15.787 23.9153C16.3531 22.9792 17.0933 21.9777 17.8552 20.9545C17.0497 19.7136 16.266 18.4727 15.6782 17.3188C15.0904 16.165 14.6985 15.0765 14.5243 14.1186C14.4808 13.792 14.7203 13.4872 15.0251 13.4437C15.8523 13.2913 16.6796 13.2695 17.4851 13.3784C17.7246 13.4219 17.9423 13.6178 17.9859 13.8791C18.0076 14.0097 18.0294 14.1621 18.0729 14.2927C18.356 15.2071 18.9438 16.2738 19.6404 17.4059C19.771 17.6236 19.9017 17.8413 20.0541 18.059C20.4895 17.4712 20.9031 16.8616 21.2732 16.2956C21.8392 15.3813 22.3182 14.5975 22.4488 13.9226C22.4706 13.6832 22.6447 13.4872 22.8842 13.4219C23.6897 13.1824 24.5388 13.226 25.4096 13.4001C25.7144 13.4654 25.9321 13.7485 25.8886 14.0533C25.8668 14.2274 25.8668 14.4016 25.8232 14.5322C25.6491 15.4466 25.2354 16.4915 24.5823 17.5801C23.9074 18.7121 23.0148 19.9531 22.0787 21.194C22.7536 22.1954 23.3849 23.1751 23.8857 24.0677C24.5823 25.3086 25.1048 26.6366 25.279 27.6163C25.3443 27.9428 25.1048 28.2259 24.8 28.2912C23.9292 28.4436 23.0802 28.4436 22.2964 28.2476C22.0787 28.2041 21.8828 28.0082 21.8392 27.7904C21.6868 27.072 21.1426 26.0706 20.5765 25.1562C20.3806 24.8079 20.1411 24.4378 19.9017 24.0677C19.6186 24.4813 19.3139 24.895 19.0526 25.2868C18.6172 25.9617 18.2253 26.5713 17.9859 27.1373C17.8988 27.3115 17.8117 27.551 17.7681 27.7904C17.7246 28.0299 17.5287 28.2259 17.2674 28.2694C16.3966 28.4218 15.5693 28.4436 14.7638 28.3129C14.459 28.2476 14.2631 27.9646 14.2849 27.6381Z" fill="#FCFCFE"/>
</svg>
