<svg width="393" height="852" viewBox="0 0 393 852" fill="none" xmlns="http://www.w3.org/2000/svg">
<g clip-path="url(#clip0_1366_499)">
<rect width="393" height="852" fill="#282529"/>
<path d="M332.772 80.7067C330.897 82.4713 329.132 84.2911 327.23 85.8903C325.658 87.2138 323.839 88.1237 321.771 88.4821C321.688 88.5097 321.633 88.5097 321.55 88.5373C319.262 89.3093 318.958 89.1714 317.966 86.8829C316.642 83.8224 315.953 80.6239 315.705 77.205C315.098 77.0671 314.491 76.9292 313.912 76.7914C308.894 75.4403 304.758 72.5452 300.926 69.1814C297.645 66.2862 295.025 62.8948 293.178 58.8968C292.709 57.8766 293.233 57.1322 293.978 56.6083C295.218 55.6984 296.514 54.8161 297.893 54.0716C300.898 52.4173 304.041 51.1765 307.488 50.8181C308.508 50.7078 309.528 50.7905 310.686 50.7905C309.446 48.2538 308.701 45.6896 308.536 43.015C308.315 39.6512 308.839 36.4252 310.356 33.4198C310.962 32.2342 311.817 31.1589 312.589 30.056C312.672 29.9181 313.251 29.9457 313.333 30.0835C313.582 30.3868 313.664 30.8004 313.802 31.1864C314.161 32.2618 314.519 33.3371 314.96 34.6881C316.67 30.7728 319.565 28.567 323.618 27.1333C322.515 26.5818 321.743 26.0579 320.861 25.7546C320.006 25.4789 319.317 25.148 319.289 24.1554C319.289 23.1353 319.951 22.6665 320.861 22.4459C322.791 22.0048 324.721 21.3155 326.679 21.1225C335.005 20.2126 342.698 24.4312 346.586 31.8482C346.751 32.179 346.917 32.5099 347.137 32.8959C350.529 29.2012 354.83 27.1608 359.517 25.8649C362.219 25.1205 364.922 24.7069 367.734 25.0377C368.975 25.1756 369.692 25.6719 370.216 26.9678C372.807 33.2544 372.339 39.5133 370.326 45.7723C369.471 48.4468 368.368 51.0386 367.238 53.6029C366.686 54.8712 365.859 56.0293 365.115 57.3252C365.308 57.5733 365.721 57.9042 365.887 58.3178C366.08 58.8692 366.355 59.7515 366.08 59.9997C365.638 60.4684 364.839 60.689 364.177 60.7717C363.571 60.8269 362.909 60.5787 362.247 60.4684C362.992 61.9022 363.819 63.1705 364.343 64.5492C364.866 65.9554 365.115 67.4443 365.473 68.9608C366.107 68.7126 366.824 68.4093 367.513 68.1336C369.057 67.527 369.967 68.106 369.802 69.7604C369.664 71.3596 369.416 73.0139 368.947 74.558C365.252 86.7175 351.687 92.8937 340.603 87.5447C337.652 86.1109 335.226 84.0429 333.268 81.4235C333.103 81.1754 332.882 80.8721 332.772 80.7067ZM324.418 24.4587C324.748 24.762 324.997 24.9826 325.245 25.2308C329.987 29.8354 334.04 34.9639 336.301 41.2504C337.79 45.3311 338.259 49.4394 336.053 53.4926C335.584 54.3749 335.033 54.7334 334.151 54.5955C329.077 53.9062 324.39 52.2518 320.888 48.3917C318.986 46.2962 317.304 43.9801 315.787 41.5813C314.409 39.403 313.444 37.0042 312.341 34.7709C309.804 40.4784 311.072 49.4119 317.58 54.7885C323.866 59.9997 333.241 59.9997 339.582 54.7885C346.034 49.4946 347.882 40.3405 343.939 33.0889C339.803 25.3962 331.09 22.7217 324.418 24.4587ZM362.44 58.5935C362.413 58.5108 362.385 58.4281 362.33 58.4005C357.339 55.4502 352.321 52.6103 346.172 53.1893C345.428 53.2444 344.959 53.5202 344.546 54.0716C342.533 56.6634 340.106 58.9244 336.991 59.8618C334.151 60.7442 333.351 62.5088 332.965 65.073C332.028 71.1666 333.048 76.7086 337.349 81.2857C344.656 89.006 357.256 87.7928 363.598 78.8593C365.308 76.4329 366.466 73.7308 366.934 70.7806C366.797 70.753 366.741 70.7254 366.714 70.753C366.025 71.1941 365.363 71.6629 364.673 72.104C360.51 74.8061 356.374 77.5082 351.521 78.8869C345.704 80.5688 340.437 79.2177 335.447 76.1296C334.454 75.523 334.371 74.944 334.923 73.8687C335.033 73.6757 335.116 73.4551 335.171 73.2621C336.274 69.0986 338.728 65.8451 342.229 63.4738C348.323 59.3655 355.078 57.7939 362.44 58.5935ZM362.909 55.5054C367.265 47.5369 369.747 39.2652 368.285 29.9181C359.986 35.2947 353.782 42.436 348.433 50.5975C353.948 50.3769 358.359 52.8584 362.909 55.5054ZM349.012 66.1208C349.205 69.5122 349.757 73.1242 353.7 74.944C354.058 75.1094 354.637 75.1646 354.94 74.9992C357.284 73.7308 359.573 72.3798 361.916 71.1114C362.771 70.6427 363.102 69.9534 362.992 69.1262C362.578 66.1208 361.751 63.2257 359.187 61.268C358.8 60.9647 358.166 60.7442 357.698 60.7993C355.823 61.0475 353.948 61.2956 352.156 61.7643C349.012 62.6191 349.205 61.8471 349.012 66.1208ZM321.771 43.7871C324.776 43.7043 327.147 42.7669 329.105 40.8092C330.952 38.9619 331.145 36.8388 329.656 34.7433C328.636 33.2819 327.506 31.9309 326.486 30.4695C325.989 29.7802 325.438 29.6699 324.693 29.8354C320.971 30.6625 318.296 32.9235 316.256 36.0116C316.091 36.2598 316.173 36.8112 316.339 37.0869C317.442 38.9343 318.6 40.7265 319.675 42.5739C320.227 43.4838 320.916 43.9801 321.771 43.7871ZM317.331 61.3232C311.955 61.2129 306.992 62.7845 302.194 65.6245C306.165 69.1538 310.328 72.1316 315.401 73.4827C316.063 69.3468 316.697 65.4039 317.331 61.3232ZM316.422 57.9593C315.208 56.6083 313.885 55.3124 312.754 53.8786C312.148 53.079 311.514 52.886 310.604 52.9963C306.137 53.5202 302.001 55.0091 298.196 57.4079C297.424 57.9042 296.735 58.4556 295.908 59.0622C297.534 60.8545 299.078 62.5088 300.622 64.1907C305.089 59.531 310.686 58.2351 316.422 57.9593ZM346.779 63.6117C341.899 65.6796 338.728 69.2641 336.356 73.7032C339.913 76.7362 347.854 78.17 350.722 76.3502C346.696 73.0415 345.952 68.6851 346.779 63.6117ZM348.654 45.5793C353.231 38.5759 358.883 33.0062 365.473 28.2913C364.646 28.2362 363.901 28.2913 363.129 28.374C357.698 29.0633 352.955 31.5173 348.378 34.3573C348.158 34.4951 348.047 35.0741 348.102 35.4326C348.378 37.6384 348.764 39.8166 348.957 41.9948C349.04 43.0978 348.792 44.2007 348.654 45.5793ZM319.868 81.5338C320.006 81.3684 320.144 81.2857 320.171 81.1754C321.44 77.3704 322.874 73.5654 323.921 69.7052C324.583 67.3064 324.721 64.7698 325.052 62.2882C325.079 62.0125 324.914 61.4611 324.693 61.4059C323.315 60.9372 321.908 60.5511 320.475 60.1376C319.758 67.2237 318.159 74.2823 319.868 81.5338ZM327.699 61.7368C328.691 66.176 327.395 70.1464 326.044 74.1168C325.024 77.1222 324.004 80.1276 323.011 83.1606C322.818 83.7396 322.736 84.3462 322.57 85.201C325.769 83.0779 328.388 80.7894 330.401 77.8391C330.759 77.3152 330.842 76.9292 330.621 76.3502C329.463 73.2621 329.022 70.0361 329.546 66.755C329.822 65.0455 330.291 63.3911 330.677 61.7643C329.794 61.7368 328.829 61.7368 327.699 61.7368ZM334.757 51.8658C335.088 47.9505 334.564 44.3385 332.937 40.7265C331.89 42.629 330.484 44.0076 328.664 44.8072C326.899 45.5793 324.969 46.0204 323.177 46.5719C326.155 49.7427 330.235 51.0938 334.757 51.8658Z" fill="black"/>
<path d="M324.418 24.4588C331.09 22.7217 339.803 25.3962 343.966 33.0614C347.882 40.313 346.034 49.467 339.61 54.761C333.268 59.9722 323.894 59.9722 317.607 54.761C311.072 49.3568 309.804 40.4233 312.368 34.7433C313.471 36.9767 314.464 39.3755 315.815 41.5537C317.331 43.9525 319.013 46.2686 320.916 48.3641C324.445 52.2519 329.132 53.9062 334.178 54.568C335.061 54.6783 335.612 54.3474 336.081 53.4651C338.287 49.3843 337.79 45.276 336.329 41.2229C334.04 34.9363 329.987 29.8078 325.272 25.2032C324.997 24.9827 324.748 24.7621 324.418 24.4588Z" fill="#E2062D"/>
<path d="M362.44 58.5936C355.078 57.794 348.323 59.3932 342.257 63.5015C338.755 65.8727 336.301 69.1263 335.198 73.2897C335.143 73.5103 335.06 73.7033 334.95 73.8963C334.426 74.9441 334.509 75.5231 335.474 76.1573C340.465 79.2454 345.731 80.5964 351.549 78.9145C356.374 77.5083 360.537 74.8062 364.701 72.1317C365.39 71.6905 366.052 71.2218 366.741 70.7806C366.769 70.753 366.824 70.7806 366.962 70.8082C366.493 73.786 365.363 76.4605 363.626 78.8869C357.284 87.848 344.683 89.0612 337.377 81.3133C333.048 76.7363 332.027 71.1942 332.993 65.1007C333.379 62.5364 334.178 60.7442 337.018 59.8895C340.134 58.9244 342.56 56.6635 344.573 54.0992C345.014 53.5478 345.455 53.2996 346.2 53.2169C352.348 52.6379 357.367 55.4779 362.357 58.4281C362.385 58.4006 362.385 58.5108 362.44 58.5936Z" fill="#E2062D"/>
<path d="M362.909 55.5054C358.387 52.8585 353.948 50.377 348.433 50.5975C353.782 42.4361 359.986 35.2948 368.285 29.9182C369.747 39.2652 367.265 47.5646 362.909 55.5054Z" fill="#2D8F55"/>
<path d="M349.012 66.1209C349.205 61.8471 349.012 62.6192 352.156 61.792C353.975 61.2957 355.85 61.0751 357.698 60.827C358.166 60.7718 358.8 60.9924 359.186 61.2957C361.751 63.2809 362.578 66.1485 362.992 69.1539C363.102 69.981 362.771 70.6704 361.916 71.1391C359.573 72.4074 357.284 73.7585 354.94 75.0268C354.637 75.1922 354.058 75.1371 353.7 74.9717C349.757 73.1243 349.205 69.5399 349.012 66.1209Z" fill="#112830"/>
<path d="M321.771 43.7871C320.916 44.0076 320.226 43.5113 319.675 42.5739C318.572 40.7265 317.414 38.9343 316.339 37.0869C316.173 36.8112 316.091 36.2598 316.256 36.0116C318.324 32.9235 320.971 30.635 324.693 29.8354C325.465 29.6699 326.017 29.7802 326.485 30.4695C327.506 31.9033 328.636 33.2819 329.656 34.7433C331.118 36.8664 330.925 38.9619 329.105 40.8092C327.147 42.7393 324.776 43.6768 321.771 43.7871Z" fill="#112830"/>
<path d="M317.331 61.3232C316.697 65.3763 316.063 69.3468 315.401 73.4827C310.328 72.1316 306.165 69.1538 302.194 65.6245C306.992 62.8121 311.955 61.2405 317.331 61.3232Z" fill="#2D8F55"/>
<path d="M316.422 57.9594C310.659 58.2351 305.089 59.531 300.623 64.1907C299.078 62.5088 297.562 60.8269 295.908 59.0623C296.735 58.4557 297.424 57.8766 298.196 57.4079C302.001 55.0091 306.109 53.4926 310.604 52.9963C311.514 52.886 312.12 53.079 312.754 53.8786C313.885 55.3124 315.208 56.6083 316.422 57.9594Z" fill="#2D8F55"/>
<path d="M346.779 63.6116C345.952 68.685 346.696 73.0414 350.722 76.3501C347.827 78.1699 339.913 76.7361 336.356 73.7032C338.7 69.2916 341.898 65.6796 346.779 63.6116Z" fill="white"/>
<path d="M348.654 45.5792C348.792 44.2005 349.04 43.0976 348.957 42.0223C348.764 39.8165 348.378 37.6383 348.102 35.46C348.075 35.1016 348.158 34.5226 348.378 34.3847C352.955 31.5448 357.698 29.0908 363.129 28.4015C363.874 28.3188 364.646 28.2636 365.473 28.3188C358.883 33.0337 353.231 38.6033 348.654 45.5792Z" fill="#2D8F55"/>
<path d="M319.868 81.5339C318.159 74.2823 319.73 67.2237 320.475 60.0825C321.909 60.496 323.315 60.8821 324.693 61.3508C324.886 61.4335 325.079 61.9574 325.052 62.2331C324.721 64.7146 324.583 67.2513 323.921 69.6501C322.846 73.5378 321.44 77.3153 320.171 81.1203C320.144 81.2581 320.006 81.3684 319.868 81.5339Z" fill="#2D8F55"/>
<path d="M327.699 61.7368H330.676C330.29 63.3911 329.822 65.0455 329.546 66.7274C329.022 70.0085 329.463 73.2345 330.621 76.3226C330.842 76.9016 330.759 77.2877 330.401 77.8115C328.388 80.7618 325.769 83.0503 322.57 85.1734C322.763 84.3186 322.846 83.712 323.011 83.133C324.004 80.1276 325.024 77.0946 326.044 74.0892C327.395 70.1464 328.691 66.1759 327.699 61.7368Z" fill="#2D8F55"/>
<path d="M334.757 51.8658C330.235 51.0938 326.182 49.7428 323.149 46.5443C324.941 45.9929 326.872 45.5517 328.636 44.7797C330.456 44.0077 331.862 42.6015 332.91 40.699C334.564 44.3661 335.088 47.9781 334.757 51.8658Z" fill="white"/>
<path d="M22.9581 167.489C22.723 167.097 22.527 166.862 22.3702 166.587C19.2741 161.806 17.6672 156.593 18.3727 150.832C19.1565 144.483 22.527 139.819 27.6219 136.214C30.0518 134.489 32.6777 133.274 35.5387 132.608C42.9068 130.844 49.2167 133 54.6643 138.016C56.1928 139.427 57.3686 141.191 58.6619 142.798C58.8187 142.994 58.9363 143.229 59.2106 143.582C59.3674 143.19 59.4849 142.955 59.5633 142.719C60.0728 141.544 60.7783 140.564 62.0324 140.094C63.2474 139.623 64.2663 140.094 64.6975 141.269C64.8934 141.779 65.011 142.327 65.0502 142.876C65.8732 149.539 66.6571 156.162 67.4801 162.786C67.6369 163.961 67.2841 164.549 66.2259 165.059C65.9124 165.216 65.6381 165.411 65.3637 165.568C57.1726 170.977 48.9815 176.385 40.7904 181.794C40.5945 181.911 40.3985 182.068 40.2025 182.186C38.8308 183.244 38.5173 183.244 36.9888 182.342C31.3452 179.089 25.7407 175.797 20.0971 172.544C19.5876 172.27 19.1173 171.917 18.6862 171.525C17.7848 170.702 17.7848 169.566 18.6078 168.664C19.47 167.724 20.6066 167.449 21.8215 167.41C22.1351 167.489 22.4486 167.489 22.9581 167.489ZM29.1504 169.135C29.1896 168.704 29.1896 168.547 29.2288 168.351C29.6207 166.626 29.8167 164.863 30.4046 163.217C31.306 160.669 33.7359 159.102 36.4009 159.18C37.6159 159.219 38.87 159.572 40.085 159.925C41.2999 160.277 42.3581 160.512 43.5338 159.768C44.7488 158.984 45.3759 158.004 45.3759 156.593C45.3759 156.201 45.3759 155.809 45.4151 155.418C45.8854 150.832 49.1775 148.324 53.2534 148.872C54.7427 149.068 56.232 149.539 57.7213 149.852H58.0348C57.9565 149.46 57.8389 149.147 57.7997 148.794C57.251 146.364 55.8793 144.326 54.3116 142.484C49.4518 136.801 43.4555 133.94 35.9306 135.312C32.8737 135.861 29.8559 136.762 27.5436 139.153C24.6042 142.171 22.2918 145.502 21.6648 149.813C20.7242 155.966 22.4486 161.375 26.1326 166.274C26.9165 167.293 28.053 168.077 29.1504 169.135ZM62.1892 144.013C62.1108 144.013 61.9932 143.974 61.9148 143.974C61.8364 144.797 61.7581 145.62 61.7189 146.443C61.6405 147.658 61.7189 148.951 61.4837 150.127C61.0134 152.478 59.4066 153.223 57.1334 152.557C55.6441 152.125 54.0373 151.851 52.5088 151.694C50.6276 151.498 49.0991 152.517 48.5112 154.32C48.2369 155.143 48.1585 156.084 48.1585 156.946C48.1977 161.257 43.4946 164.353 39.6147 162.59C39.3403 162.472 39.066 162.394 38.7916 162.276C36.009 161.14 33.6183 162.237 32.8345 165.137C32.4425 166.587 32.2074 168.077 31.9722 169.527C31.7371 171.212 30.8749 172.192 29.1504 172.27C28.3666 172.309 27.5827 172.152 26.8381 171.917C25.8975 171.643 25.0353 171.133 24.1339 170.82C23.5068 170.585 22.8405 170.467 22.2135 170.271C22.2135 170.35 22.1743 170.428 22.1743 170.506C22.3702 170.624 22.5662 170.742 22.7621 170.859C27.6611 173.603 32.5993 176.307 37.4591 179.05C38.0078 179.364 38.3997 179.364 38.9484 179.011C47.1003 173.603 55.2522 168.233 63.4041 162.864C63.9528 162.511 64.1096 162.159 64.0312 161.531C63.4433 155.966 62.8554 150.362 62.3068 144.797C62.2676 144.444 62.2284 144.248 62.1892 144.013Z" fill="black"/>
<path d="M29.1505 169.135C28.0531 168.116 26.9166 167.293 26.1327 166.274C22.4487 161.414 20.6851 155.966 21.6649 149.813C22.3311 145.502 24.6042 142.21 27.5436 139.153C29.856 136.762 32.8737 135.861 35.9307 135.312C43.4555 133.94 49.4911 136.801 54.3117 142.484C55.8794 144.326 57.2511 146.325 57.7998 148.794C57.8781 149.108 57.9565 149.46 58.0349 149.852H57.7214C56.2321 149.5 54.782 149.068 53.2535 148.873C49.1776 148.363 45.9246 150.871 45.4151 155.418C45.3759 155.809 45.3759 156.201 45.3759 156.593C45.3759 158.004 44.7489 158.984 43.5339 159.768C42.3582 160.513 41.2608 160.277 40.085 159.925C38.8701 159.572 37.6551 159.219 36.401 159.18C33.6968 159.062 31.3061 160.669 30.4046 163.217C29.8168 164.863 29.5816 166.626 29.2289 168.351C29.2289 168.508 29.1897 168.704 29.1505 169.135ZM45.1408 142.798C45.3367 142.21 45.6111 141.661 45.6111 141.152C45.6111 140.407 45.1016 139.937 44.3961 139.78C43.142 139.427 41.8879 139.075 40.6337 138.879C39.5363 138.722 38.439 138.761 37.3416 138.8C36.8321 138.8 36.1267 138.839 36.0091 139.545C35.8915 140.211 36.5578 140.407 37.0281 140.721C37.0673 140.721 37.0673 140.76 37.1065 140.76C39.2228 141.465 41.3392 142.21 43.4555 142.876C43.8867 142.994 44.4353 142.837 45.1408 142.798ZM41.6135 148.402C41.4568 148.716 41.0256 149.264 40.8689 149.892C40.5553 150.95 40.3986 152.047 40.2026 153.105C40.0458 154.046 40.5161 154.869 41.3392 155.065C42.2014 155.3 43.142 154.869 43.3772 153.928C43.7299 152.4 43.965 150.832 44.0826 149.264C44.161 148.167 42.9069 147.618 41.6135 148.402ZM31.9331 149.304C33.344 147.697 34.363 146.09 34.8725 144.17C35.0685 143.464 34.5198 142.798 33.8535 142.602C33.1873 142.406 32.4818 142.68 32.1291 143.346C31.8155 143.934 31.5412 144.522 31.3061 145.11C30.9141 146.012 30.483 146.913 30.2479 147.893C30.1695 148.285 30.4046 148.912 30.7182 149.147C30.9533 149.382 31.5412 149.264 31.9331 149.304ZM26.4854 147.383C25.7408 146.247 24.2907 146.286 23.8988 147.383C23.3109 149.068 23.1541 150.832 23.5069 152.596C23.6636 153.38 24.4867 153.536 24.9962 152.948C25.2313 152.674 25.4665 152.361 25.584 152.008C25.976 150.793 26.2895 149.539 26.603 148.285C26.6422 147.932 26.5246 147.54 26.4854 147.383ZM47.8058 143.464C47.6883 143.738 47.3747 144.052 47.4139 144.326C47.4531 144.64 47.7666 145.149 48.041 145.188C49.4911 145.463 50.9804 145.737 52.4305 145.816C53.2927 145.855 53.8414 145.11 53.8414 144.326C53.8022 143.542 53.2535 142.915 52.3521 142.876C51.2547 142.876 50.1573 142.994 49.06 143.072C48.6681 143.151 48.3153 143.346 47.8058 143.464ZM29.3073 154.438C28.2099 155.143 28.2099 156.084 29.2289 156.397C30.4438 156.789 31.7372 156.985 32.9913 157.142C33.7751 157.22 34.4414 156.554 34.5198 155.849C34.5982 155.182 34.2454 154.438 33.54 154.242C32.0507 153.772 30.5614 153.889 29.3073 154.438ZM24.8394 162.002C25.5057 162.668 26.1327 163.413 26.8774 164.04C27.4652 164.549 28.3275 164.432 28.837 163.922C29.3073 163.413 29.464 162.55 28.9154 162.08C27.7788 161.1 26.5246 160.199 25.2313 159.376C24.6042 158.984 24.0164 159.494 24.1731 160.277C24.2907 160.826 24.6042 161.375 24.8394 162.002Z" fill="#112830"/>
<path d="M62.1891 144.013C62.2283 144.248 62.2675 144.483 62.2675 144.718C62.8554 150.283 63.4041 155.888 63.992 161.453C64.0704 162.08 63.8744 162.433 63.3649 162.786C55.213 168.155 47.0611 173.524 38.9092 178.933C38.3605 179.285 37.9686 179.285 37.4199 178.972C32.5209 176.229 27.6219 173.524 22.7229 170.781C22.527 170.663 22.331 170.546 22.135 170.428C22.135 170.35 22.1742 170.271 22.1742 170.193C22.8013 170.389 23.4676 170.506 24.0946 170.742C24.996 171.094 25.8583 171.565 26.7989 171.839C27.5435 172.074 28.3666 172.231 29.1112 172.192C30.7964 172.153 31.6979 171.173 31.933 169.448C32.129 167.959 32.3641 166.47 32.7952 165.059C33.6183 162.159 35.9698 161.061 38.7524 162.198C39.0267 162.315 39.3011 162.394 39.5754 162.511C43.4946 164.275 48.1585 161.179 48.1193 156.868C48.1193 156.005 48.1976 155.065 48.472 154.242C49.0599 152.439 50.5883 151.42 52.4696 151.616C54.0372 151.773 55.6049 152.047 57.0942 152.478C59.4065 153.144 60.9742 152.4 61.4445 150.048C61.6796 148.873 61.6013 147.579 61.6797 146.364C61.7188 145.541 61.7972 144.718 61.8756 143.895C61.9932 143.974 62.1108 143.974 62.1891 144.013Z" fill="#FFAB1B"/>
<path d="M45.1406 142.798C44.4744 142.837 43.9257 142.994 43.4554 142.876C41.2998 142.21 39.2226 141.465 37.1063 140.76C37.0802 140.76 37.054 140.747 37.0279 140.721C36.5576 140.446 35.9305 140.25 36.0089 139.545C36.1265 138.839 36.7928 138.8 37.3414 138.8C38.4388 138.761 39.5754 138.722 40.6336 138.879C41.8877 139.075 43.1418 139.427 44.396 139.78C45.1014 139.976 45.6109 140.446 45.6109 141.152C45.6109 141.661 45.2974 142.21 45.1406 142.798Z" fill="#36469D"/>
<path d="M41.6135 148.402C42.9068 147.579 44.1609 148.167 44.0825 149.304C43.965 150.871 43.6906 152.439 43.3771 153.967C43.1811 154.908 42.2013 155.378 41.3391 155.104C40.5161 154.869 40.0066 154.085 40.2026 153.144C40.3985 152.047 40.5553 150.95 40.8688 149.931C41.0648 149.304 41.4567 148.755 41.6135 148.402Z" fill="#36469D"/>
<path d="M31.9331 149.304C31.5412 149.304 30.9533 149.421 30.679 149.186C30.3654 148.912 30.0911 148.285 30.2087 147.932C30.4438 146.991 30.8749 146.051 31.2668 145.149C31.502 144.561 31.7763 143.934 32.0899 143.386C32.4426 142.719 33.1481 142.445 33.8143 142.641C34.4806 142.837 35.0293 143.503 34.8333 144.209C34.363 146.051 33.344 147.697 31.9331 149.304Z" fill="#36469D"/>
<path d="M26.4853 147.383C26.5245 147.579 26.6813 147.932 26.6029 148.245C26.2893 149.5 25.9758 150.715 25.5839 151.969C25.4663 152.321 25.2312 152.635 24.996 152.909C24.4473 153.497 23.6635 153.34 23.5067 152.557C23.154 150.793 23.3108 149.029 23.8986 147.344C24.2906 146.286 25.7407 146.247 26.4853 147.383Z" fill="#36469D"/>
<path d="M47.8057 143.464C48.3152 143.307 48.6679 143.151 49.0598 143.111C50.1572 142.994 51.2546 142.876 52.352 142.915C53.2534 142.915 53.8021 143.582 53.8412 144.366C53.8804 145.149 53.2926 145.894 52.4303 145.855C50.941 145.776 49.4909 145.502 48.0408 145.228C47.7665 145.189 47.453 144.679 47.4138 144.366C47.3354 144.052 47.6489 143.738 47.8057 143.464Z" fill="#36469D"/>
<path d="M29.3073 154.438C30.5614 153.85 32.0507 153.772 33.54 154.242C34.2454 154.438 34.5982 155.183 34.5198 155.849C34.4022 156.554 33.7751 157.22 32.9913 157.142C31.7372 157.025 30.4438 156.789 29.2289 156.397C28.2491 156.084 28.2491 155.183 29.3073 154.438Z" fill="#36469D"/>
<path d="M24.8394 162.002C24.6043 161.375 24.3299 160.826 24.2124 160.238C24.0556 159.494 24.6435 158.945 25.2705 159.337C26.5639 160.16 27.7788 161.061 28.9546 162.041C29.5033 162.511 29.3465 163.413 28.8762 163.883C28.3667 164.393 27.5437 164.51 26.9166 164.001C26.1328 163.413 25.5057 162.668 24.8394 162.002Z" fill="#36469D"/>
<path d="M370.65 303.244C368.412 301.368 368.117 299.732 369.68 297.608C370.53 296.451 371.523 295.389 372.594 294.461C373.927 293.293 375.57 292.973 377.296 293.495C380.156 294.323 382.551 295.93 384.539 298.107C386.065 299.792 386.265 301.882 384.976 303.826C384.07 305.194 382.849 306.365 381.681 307.549C381.019 308.219 380.057 308.327 379.155 307.999C378.484 307.761 378.195 307.995 377.88 308.532C375.3 312.957 372.721 317.381 370.122 321.773C368.522 324.453 366.87 327.119 365.191 329.778C364.795 330.407 364.887 330.799 365.368 331.325C366.634 332.713 367.759 334.205 368.275 336.07C368.611 337.235 369.24 338.366 369.344 339.554C369.741 343.848 368.334 347.599 365.269 350.676C364.81 351.118 364.658 351.473 365.077 352.124C366.643 354.498 366.806 357.145 366.081 359.835C364.877 364.404 361.923 367.596 357.666 369.531C349.207 373.417 339.14 372.145 332.455 364.203C327.891 358.786 326.977 352.627 329.457 346.054C330.634 342.948 332.63 340.374 335.858 339.208C337.212 338.697 337.891 338.172 338.124 336.679C338.454 334.618 339.534 332.816 340.777 331.143C342.102 329.379 343.965 328.24 345.897 327.262C349.134 325.646 352.619 325.312 356.186 325.511C356.438 325.522 356.808 325.198 356.992 324.936C360.383 319.599 363.748 314.254 367.12 308.884C368.048 307.436 368.93 305.949 369.858 304.502C370.098 304.029 370.378 303.623 370.65 303.244ZM361.746 350.943C364.069 348.938 365.197 346.329 365.879 343.486C366.537 340.834 366.499 338.25 365.273 335.769C364.781 334.759 364.385 333.606 363.155 333.133C363.019 333.322 362.916 333.493 362.787 333.656C360.589 337.193 358.416 340.738 356.191 344.268C355.707 345.014 355.556 345.68 355.711 346.571C356.408 350.493 353.433 354.076 349.442 354.187C346.678 354.262 344.12 352.526 343.187 349.898C342.205 347.143 343.073 344.238 345.406 342.406C345.951 341.959 346.556 341.499 346.937 340.923C349.442 336.988 351.907 332.985 354.392 329.016C354.535 328.8 354.659 328.55 354.838 328.202C353.722 328.354 352.793 328.443 351.868 328.618C346.371 329.596 342.703 332.709 340.784 337.934C340.597 338.421 340.409 338.908 340.36 339.404C340.311 339.9 340.141 340.109 339.648 340.259C336.915 341.162 334.666 342.791 333.228 345.288C330.585 349.95 330.522 354.799 333.146 359.439C338.472 368.853 349.776 370.572 357.954 365.422C361.426 363.247 363.434 359.998 363.195 355.746C363.106 354.082 363.312 352.27 361.746 350.943ZM353.573 342.543C353.702 342.38 353.797 342.236 353.892 342.092C357.465 336.294 360.991 330.456 364.609 324.699C368.541 318.404 372.539 312.184 376.517 305.93C377.206 304.843 378.203 304.291 379.352 304.856C379.53 304.932 379.927 304.926 380.049 304.789C380.806 303.975 381.563 303.161 382.229 302.265C382.685 301.624 382.632 300.875 382.02 300.313C380.384 298.826 378.639 297.535 376.525 296.879C376.004 296.711 375.161 296.795 374.764 297.112C373.823 297.876 373.004 298.815 372.185 299.754C371.765 300.263 371.962 300.684 372.526 301.006C374.232 301.919 374.491 302.951 373.473 304.628C372.495 306.26 371.499 307.858 370.521 309.49C364.196 320.146 357.655 330.659 350.511 340.784C350.423 340.901 350.315 340.986 350.193 341.123C350.891 341.367 351.445 341.517 351.977 341.745C352.505 341.887 352.983 342.214 353.573 342.543ZM350.281 350.764C352.054 350.168 353.043 348.284 352.485 346.578C351.883 344.718 349.908 343.648 348.195 344.233C346.354 344.868 345.292 346.816 345.85 348.523C346.452 350.382 348.421 351.366 350.281 350.764Z" fill="black"/>
<path d="M361.746 350.943C363.312 352.27 363.106 354.082 363.195 355.746C363.434 359.998 361.433 363.221 357.954 365.422C349.769 370.598 338.471 368.853 333.146 359.439C330.541 354.833 330.578 349.977 333.228 345.288C334.639 342.784 336.908 341.189 339.648 340.259C340.115 340.102 340.311 339.9 340.36 339.404C340.409 338.908 340.623 338.428 340.784 337.934C342.703 332.709 346.371 329.596 351.868 328.618C352.793 328.443 353.748 328.361 354.838 328.202C354.633 328.543 354.509 328.793 354.392 329.016C351.907 332.985 349.449 336.961 346.937 340.923C346.556 341.499 345.977 341.966 345.406 342.406C343.073 344.238 342.205 347.144 343.187 349.898C344.127 352.499 346.678 354.262 349.442 354.187C353.433 354.076 356.408 350.493 355.711 346.571C355.556 345.68 355.714 344.988 356.191 344.268C358.416 340.738 360.588 337.193 362.787 333.656C362.89 333.486 363.019 333.322 363.155 333.133C364.411 333.613 364.781 334.759 365.272 335.769C366.499 338.25 366.53 340.861 365.879 343.486C365.171 346.322 364.069 348.938 361.746 350.943Z" fill="#2D8F55"/>
<path d="M353.573 342.543C352.983 342.214 352.505 341.887 351.999 341.666C351.466 341.437 350.913 341.288 350.215 341.043C350.337 340.906 350.444 340.822 350.532 340.705C357.676 330.58 364.217 320.067 370.542 309.41C371.52 307.779 372.517 306.18 373.494 304.549C374.512 302.871 374.253 301.84 372.547 300.927C371.977 300.632 371.76 300.177 372.206 299.675C373.018 298.762 373.818 297.79 374.786 297.033C375.183 296.715 376.026 296.632 376.546 296.8C378.661 297.455 380.425 298.78 382.041 300.234C382.654 300.795 382.706 301.545 382.251 302.186C381.585 303.081 380.828 303.896 380.071 304.71C379.949 304.847 379.577 304.86 379.374 304.776C378.191 304.231 377.227 304.763 376.538 305.85C372.56 312.104 368.555 318.351 364.63 324.62C361.012 330.377 357.486 336.215 353.914 342.013C353.804 342.209 353.682 342.346 353.573 342.543Z" fill="#FFAB1B"/>
<path d="M350.281 350.764C348.447 351.373 346.452 350.382 345.843 348.549C345.285 346.843 346.321 344.887 348.188 344.259C349.901 343.675 351.876 344.745 352.478 346.604C353.043 348.284 352.054 350.168 350.281 350.764Z" fill="#112830"/>
<path d="M28.4667 394.715C28.2499 393.521 28.6071 392.691 29.7356 392.172C30.1626 391.975 30.4633 391.504 30.8646 391.172C32.5968 389.635 34.7947 389.03 36.934 388.378C37.4501 388.214 37.9357 388.065 38.3767 387.899C38.4784 387.076 38.519 386.281 38.7074 385.566C39.3077 383.257 41.1174 381.647 43.1623 381.593C45.2377 381.525 47.2318 383.046 47.9705 385.294C48.1225 385.704 48.3026 386.176 48.2741 386.596C48.2731 387.557 48.9412 387.804 49.6306 387.856C50.8312 387.895 51.4731 388.487 51.8095 389.699C53.381 389.419 54.5855 390.27 55.7948 390.97C56.2073 391.223 56.5655 391.761 56.7011 392.216C57.22 393.825 57.678 395.462 58.0304 397.111C59.762 405.37 61.4326 413.656 63.1173 421.974C63.1686 422.246 63.2199 422.518 63.2853 422.82C63.8802 425.799 64.2607 425.18 61.5942 427.739C61.1599 428.16 60.8617 428.556 60.7954 429.215C60.6221 431.328 59.4176 432.806 57.6602 433.726C52.6461 436.404 47.2303 437.566 41.5908 437.279C39.3256 437.176 37.4952 436.17 36.4069 434.047C36.3226 433.864 36.0578 433.69 35.8351 433.608C35.0334 433.311 34.2622 433.001 33.4441 432.749C32.7009 432.5 32.2817 431.991 32.1254 431.25C29.9682 421.745 27.7806 412.255 25.6094 402.72C25.4109 401.888 25.257 401.071 25.164 400.227C24.831 397.978 26.0408 395.869 28.1148 394.914C28.1617 394.855 28.3142 394.785 28.4667 394.715ZM27.864 399.428C28.2817 401.379 28.6855 403.3 29.1478 405.268C30.9269 412.988 32.7364 420.693 34.4099 428.424C34.7624 430.073 35.552 430.744 37.0924 430.959C41.8334 431.623 46.5632 431.7 51.1682 430.061C54.1475 428.986 56.9839 427.68 59.5396 425.764C60.3868 425.116 60.6642 424.433 60.4449 423.315C58.494 413.937 56.6346 404.518 54.7587 395.143C54.6701 394.629 54.5816 394.115 54.479 393.571C46.2005 398.713 37.3038 400.664 27.864 399.428ZM50.1229 390.291C49.0975 390.874 48.1094 391.698 47.0022 392.023C43.7417 392.969 40.4555 393.78 37.1272 394.499C34.8426 394.996 32.4738 395.31 30.1602 394.379C30.4167 395.739 30.3887 395.678 29.1382 396.254C28.7417 396.437 28.427 396.877 28.0867 397.182L28.213 397.456C32.5928 398.138 37.0298 397.981 41.3128 397.007C45.4598 396.06 49.4925 394.462 53.1627 391.996C52.5512 391.391 52.0003 391.238 51.3177 391.441C50.6515 391.6 50.2086 391.36 50.2023 390.624C50.1931 390.443 50.1369 390.321 50.1229 390.291ZM58.3816 429.994C52.3097 432.862 45.8806 434.232 39.1339 434.27C40.0247 434.599 40.946 434.914 41.8629 434.899C46.3396 434.908 50.6811 433.982 54.8639 432.389C56.2035 431.846 57.5571 431.334 58.3816 429.994ZM32.7038 392.839C37.8228 392.959 42.4743 391.742 46.9693 389.783C42.0681 389.896 37.3934 390.902 32.7038 392.839ZM45.333 386.951C45.3205 385.479 44.2196 384.211 43.0306 384.278C41.9166 384.347 40.9842 385.774 41.067 387.4C42.4835 387.265 43.886 387.1 45.333 386.951Z" fill="black"/>
<path d="M27.864 399.428C37.3038 400.664 46.2005 398.713 54.479 393.571C54.5817 394.115 54.6397 394.643 54.7588 395.143C56.6487 404.548 58.4941 413.937 60.445 423.315C60.6643 424.433 60.3869 425.116 59.5397 425.764C56.984 427.68 54.1475 428.986 51.1683 430.061C46.5633 431.7 41.864 431.609 37.0925 430.959C35.552 430.744 34.7765 430.103 34.41 428.424C32.7365 420.693 30.9129 412.957 29.1479 405.268C28.6856 403.3 28.2818 401.379 27.864 399.428Z" fill="#E2062D"/>
<path d="M50.1228 390.291C50.1228 390.291 50.1931 390.443 50.1882 390.593C50.2085 391.36 50.6515 391.6 51.3036 391.411C52.0003 391.238 52.5512 391.391 53.1486 391.966C49.4785 394.431 45.4457 396.029 41.2988 396.977C37.0157 397.95 32.5788 398.108 28.199 397.426L28.0726 397.151C28.4435 396.832 28.7276 396.406 29.1241 396.223C30.3887 395.678 30.4027 395.709 30.1461 394.348C32.4597 395.279 34.8285 394.965 37.1131 394.468C40.4414 393.749 43.7276 392.939 46.9882 391.992C48.1539 391.715 49.1115 390.904 50.1228 390.291Z" fill="#FFAB1B"/>
<path d="M58.3815 429.994C57.5711 431.365 56.2034 431.846 54.8944 432.375C50.7115 433.968 46.37 434.894 41.8933 434.885C40.9764 434.9 40.0551 434.585 39.1644 434.256C45.8806 434.232 52.2791 432.876 58.3815 429.994Z" fill="white"/>
<path d="M32.7037 392.839C37.3934 390.902 42.0681 389.896 46.9693 389.783C42.4742 391.742 37.8228 392.959 32.7037 392.839Z" fill="white"/>
<path d="M45.333 386.951C43.9305 387.116 42.514 387.251 41.081 387.43C40.9982 385.805 41.9307 384.378 43.0446 384.309C44.1891 384.225 45.29 385.493 45.333 386.951Z" fill="#2D8F55"/>
<path d="M44.9582 620.182C45.2776 620.84 45.5218 621.46 45.8788 622.042C46.5364 623.076 46.4989 624.504 45.597 625.33C44.5073 626.307 43.3612 627.265 42.1023 627.961C38.8707 629.764 35.6015 631.53 32.0692 632.695C29.3073 633.616 26.4702 634.123 23.558 634.217C21.6979 634.274 19.913 633.954 18.1844 633.315C17.9214 633.203 17.6584 633.015 17.4893 632.808C13.2994 627.529 9.48536 621.986 7.02405 615.654C6.85496 615.184 6.68586 614.715 6.55434 614.245C5.85916 612.009 6.19734 609.98 7.60648 608.082C9.35382 605.696 11.5333 603.78 13.9382 602.126C20.1761 597.767 26.9587 594.555 34.4366 592.901C35.9772 592.563 37.5555 592.413 39.1337 592.262C42.4405 591.962 45.0521 593.145 47.0061 595.889C50.2378 600.398 52.6051 605.32 54.1834 610.619C54.9161 613.08 54.5028 615.523 53.8827 617.909C53.6385 618.867 52.6615 619.468 51.6281 619.6C49.5802 619.844 47.5134 619.994 45.4279 620.201C45.2776 620.126 45.1461 620.145 44.9582 620.182ZM9.35383 615.354C9.39141 615.466 9.42899 615.541 9.46657 615.654C12.0782 621.084 15.2722 626.157 18.8984 630.948C19.1427 631.267 19.5936 631.531 19.9882 631.587C23.2574 632.075 26.4139 631.512 29.5703 630.723C33.3281 629.783 36.7288 627.961 40.1483 626.232C41.2005 625.706 42.1775 624.955 43.1733 624.297C43.5115 624.071 43.5678 623.827 43.3799 623.451C42.666 622.136 41.952 620.783 41.2756 619.431C39.5846 615.936 37.8937 612.441 36.2215 608.928C35.996 608.439 35.8457 607.913 35.6578 607.387C35.4512 607.481 35.3197 607.537 35.1881 607.631C32.9711 608.834 30.8292 610.224 28.537 611.239C22.4683 613.926 16.2868 616.237 9.35383 615.354ZM32.9899 606.335C30.5474 605.546 28.2176 604.794 25.8314 604.062C25.3429 603.911 24.9108 603.742 24.8356 603.179C24.7417 602.596 25.0423 602.22 25.5496 602.014C26.0005 601.826 26.489 601.675 26.9587 601.582C31.6935 600.717 36.4094 599.872 41.1441 599.083C42.0647 598.914 42.5532 598.538 42.8914 597.711C43.6054 595.983 43.2672 595.269 41.4072 594.874C41.3132 594.855 41.1817 594.799 41.0877 594.818C39.6786 594.836 38.2882 594.724 36.9167 594.93C31.5431 595.682 26.5454 597.673 21.7167 600.097C18.2408 601.845 14.934 603.874 11.9842 606.448C10.6314 607.613 9.35384 608.89 8.62108 610.562C8.01985 611.953 8.3956 612.742 9.86111 613.155C10.1054 613.212 10.3496 613.306 10.5751 613.306C11.8339 613.287 13.1116 613.4 14.3516 613.212C20.9464 612.291 26.9211 609.661 32.708 606.542C32.8396 606.523 32.8959 606.467 32.9899 606.335ZM49.8808 617.289C49.7305 616.988 49.6177 616.763 49.5238 616.556C46.9686 611.709 44.4133 606.861 41.8769 601.995C41.6702 601.6 41.4259 601.657 41.1065 601.713C38.1755 602.202 35.2257 602.709 32.2947 603.197C32.1256 603.216 31.9565 603.272 31.6559 603.348C31.9189 603.46 32.0504 603.517 32.2007 603.554C33.422 603.911 34.6057 604.268 35.8457 604.606C36.3718 604.757 36.7476 605.02 36.9918 605.527C37.33 606.241 37.7998 606.899 38.1755 607.613C39.8477 610.675 41.5575 613.738 43.2296 616.8C43.4927 617.289 43.643 618.04 44.0563 618.228C44.4885 618.435 45.1461 618.115 45.7097 618.003C47.0625 617.815 48.4153 617.552 49.8808 617.289ZM45.8225 597.673C45.3527 598.444 44.9582 599.101 44.5448 599.74C44.1127 600.435 44.1127 600.849 44.5824 601.506C44.9394 601.976 45.2964 602.446 45.5594 602.972C47.5886 606.73 49.6178 610.487 51.6281 614.226C51.7409 614.452 51.8536 614.677 51.9663 614.903C52.3797 613.587 52.2669 612.31 51.816 611.145C50.4632 607.725 49.0917 604.325 47.645 600.924C47.1565 599.797 46.4425 598.782 45.8225 597.673Z" fill="black"/>
<path d="M9.3538 615.354C16.268 616.255 22.4494 613.944 28.5181 611.22C30.8104 610.205 32.9523 608.815 35.1693 607.613C35.3008 607.556 35.4511 607.481 35.639 607.368C35.8457 607.913 35.9772 608.421 36.2027 608.909C37.8749 612.423 39.5658 615.917 41.2568 619.412C41.9144 620.783 42.6284 622.099 43.3611 623.433C43.5678 623.827 43.5302 624.053 43.1544 624.278C42.1399 624.917 41.2004 625.668 40.1295 626.213C36.71 627.942 33.3092 629.764 29.5515 630.704C26.395 631.493 23.2386 632.057 19.9693 631.568C19.5748 631.512 19.1239 631.249 18.8796 630.929C15.2346 626.157 12.0218 621.065 9.44774 615.635C9.44774 615.56 9.42895 615.466 9.3538 615.354Z" fill="#FFAB1B"/>
<path d="M32.9899 606.335C32.8771 606.448 32.8396 606.523 32.7832 606.542C26.9963 609.661 21.0215 612.291 14.4267 613.212C13.1867 613.4 11.9091 613.287 10.6503 613.306C10.4248 613.306 10.1618 613.23 9.93629 613.155C8.47078 612.742 8.07621 611.934 8.69624 610.562C9.42899 608.89 10.6878 607.631 12.0594 606.448C15.0092 603.874 18.2972 601.826 21.7919 600.097C26.6205 597.673 31.5995 595.701 36.9918 594.93C38.3634 594.724 39.7726 594.855 41.1817 594.836C41.2944 594.836 41.4072 594.874 41.5011 594.893C43.3612 595.287 43.6994 596.001 42.9854 597.73C42.6472 598.557 42.1399 598.951 41.2381 599.101C36.5033 599.891 31.7686 600.755 27.0527 601.6C26.5642 601.675 26.0945 601.845 25.6435 602.032C25.1363 602.239 24.8544 602.634 24.9296 603.197C25.0047 603.761 25.4369 603.93 25.9254 604.08C28.2176 604.794 30.5661 605.565 32.9899 606.335Z" fill="#FFAB1B"/>
<path d="M49.8809 617.289C48.4154 617.552 47.0438 617.796 45.691 618.022C45.1274 618.134 44.451 618.435 44.0376 618.247C43.6243 618.059 43.4928 617.326 43.2109 616.819C41.5387 613.757 39.8478 610.675 38.1568 607.631C37.7622 606.936 37.3301 606.279 36.9731 605.546C36.7289 605.039 36.3531 604.776 35.827 604.625C34.6058 604.306 33.4033 603.93 32.182 603.573C32.0317 603.536 31.9002 603.479 31.6372 603.366C31.9378 603.291 32.1069 603.235 32.276 603.216C35.207 602.728 38.1568 602.22 41.0878 601.732C41.4072 601.675 41.6515 601.619 41.8582 602.014C44.3946 606.88 46.9687 611.709 49.5051 616.575C49.6366 616.781 49.7306 616.988 49.8809 617.289Z" fill="#FFAB1B"/>
<path d="M45.8225 597.673C46.4425 598.782 47.1377 599.815 47.6262 600.943C49.0541 604.325 50.4444 607.744 51.7972 611.164C52.2669 612.347 52.3797 613.587 51.9475 614.921C51.8348 614.696 51.7221 614.47 51.6094 614.245C49.5802 610.487 47.5886 606.73 45.5406 602.991C45.2588 602.483 44.9018 602.014 44.5636 601.525C44.1127 600.886 44.0939 600.454 44.5261 599.759C44.9582 599.101 45.3527 598.444 45.8225 597.673Z" fill="#FFAB1B"/>
<path d="M81.7483 605.235C79.0859 604.428 76.4231 603.67 73.7801 602.825C73.1409 602.619 72.5514 602.174 72.0674 601.711C71.2509 600.958 70.7898 600.026 70.9242 598.822C71.3964 594.932 71.8306 591.023 72.2741 587.142C72.7374 583.176 73.2008 579.21 73.6738 575.224C73.9919 572.625 74.3291 570.035 74.6472 567.436C74.7394 566.69 75.1455 566.177 75.7323 565.78C77.5606 564.504 79.6395 564.148 81.7813 564.28C87.375 564.614 92.8193 565.663 98.0741 567.649C99.7049 568.265 101.103 569.243 102.22 570.63C103.016 571.612 103.151 572.618 102.816 573.792C100.846 580.663 98.8947 587.545 96.9436 594.426C96.0962 597.404 95.2013 600.333 94.373 603.321C93.9392 604.877 92.8798 605.729 91.4048 605.937C90.0162 606.116 88.5525 606.114 87.1573 605.93C85.3701 605.714 83.6327 605.26 81.8658 604.911C81.8172 605.006 81.7779 605.13 81.7483 605.235ZM99.2671 578.392C98.319 578.509 97.4662 578.674 96.6049 578.715C91.6955 578.923 87.0099 577.516 82.2733 576.491C80.0483 576.004 77.9222 575.135 76.0209 573.684C75.9593 574.181 75.8893 574.554 75.8573 574.946C75.2176 580.575 74.5681 586.224 73.9377 591.882C73.6496 594.329 73.3615 596.775 73.1114 599.242C73.0803 599.538 73.2019 599.864 73.2665 600.161C73.3431 600.152 73.4006 600.134 73.4772 600.125C74.6687 592.567 75.3729 584.929 77.0134 577.433C77.1101 578.467 77.0921 579.491 76.9593 580.504C76.5109 583.829 76.0243 587.135 75.5758 590.461C75.1885 593.337 74.7245 596.222 74.4997 599.11C74.3404 601.022 74.1689 600.934 75.7814 601.445C76.6633 594.306 78.0323 587.247 79.3062 580.14C79.4955 580.381 79.5989 580.602 79.5969 580.841C79.559 581.951 79.588 583.07 79.4354 584.169C78.9687 587.389 78.4063 590.608 77.9493 593.81C77.5935 596.342 77.3236 598.894 77.0347 601.436C77.0141 601.618 77.126 601.963 77.2691 602.012C78.0705 602.277 78.8914 602.504 79.7503 602.75C79.8349 601.785 79.8894 600.972 79.9825 600.131C80.3496 597.388 80.7167 594.646 81.1029 591.913C81.5611 588.568 82.3723 585.332 83.4702 582.146C83.5682 581.859 83.8093 581.622 83.9933 581.356C84.0983 581.386 84.1936 581.434 84.2985 581.464C84.0009 585.058 82.9388 588.551 82.4596 592.125C81.9706 595.718 81.3289 599.281 80.7633 602.883C81.7661 603.082 82.7499 603.272 83.7431 603.491C83.8014 603.377 83.8403 603.301 83.8699 603.196C84.9006 598.87 85.9314 594.545 86.9333 590.229C87.4295 588.081 87.8109 585.922 88.307 583.774C88.4163 583.277 88.6497 582.82 88.8843 582.219C89.8375 583.786 88.203 592.871 84.7743 603.729C85.5675 603.822 86.3418 603.905 87.1253 604.017C87.5075 604.068 87.6899 603.993 87.8082 603.573C88.6572 600.404 89.5443 597.254 90.3932 594.085C91.1632 591.212 91.857 588.3 92.627 585.426C92.8635 584.586 93.272 583.786 93.6232 582.957C93.7473 582.996 93.8713 583.035 93.9954 583.075C92.3016 590.063 90.8466 597.102 88.9141 604.041C90.2327 604.234 90.3478 604.196 90.7492 603.08C91.1118 602.041 91.4172 600.972 91.7227 599.903C92.6101 596.705 93.4786 593.498 94.3567 590.272C95.0376 587.761 95.6901 585.213 96.371 582.702C96.4896 582.234 96.7514 581.816 96.9463 581.387C97.0322 581.407 97.1275 581.455 97.2134 581.475C95.6495 588.962 93.379 596.281 91.6906 603.777C91.941 603.569 92.1631 603.322 92.2421 603.026C92.616 601.776 92.9708 600.516 93.3447 599.266C94.7434 594.408 96.1421 589.55 97.5505 584.673C98.0462 582.572 98.6469 580.502 99.2671 578.392ZM101.085 572.572C100.099 572.621 99.1322 572.728 98.1472 572.681C97.1335 572.644 96.1396 572.521 95.1558 572.331C91.2016 571.562 87.2283 570.783 83.2745 569.966C80.925 569.487 78.5566 568.999 76.5503 567.518C76.4326 569.019 76.3441 570.463 76.1599 571.906C76.098 572.451 76.2874 572.692 76.7349 572.944C79.5252 574.488 82.5216 575.393 85.6452 575.955C86.505 576.106 87.4036 576.18 88.2533 576.397C91.7852 577.336 95.3404 577.757 98.9981 577.367C99.429 577.322 99.6312 577.161 99.7686 576.751C100.182 575.329 100.653 573.936 101.085 572.572ZM77.6749 566.868C77.6648 566.934 77.6356 566.992 77.6255 567.059C78.4079 567.314 79.1992 567.646 80.0014 567.815C83.4777 568.532 86.9544 569.202 90.4214 569.891C92.9524 570.39 95.483 570.937 98.0238 571.418C98.7688 571.558 99.5248 571.535 100.28 571.561C100.3 571.475 100.33 571.37 100.35 571.284C99.2628 570.825 98.2444 570.185 97.1273 569.927C92.1714 568.815 87.1669 567.798 82.1717 566.809C80.7202 566.501 79.1892 566.536 77.6749 566.868Z" fill="black"/>
<path d="M99.267 578.392C98.6659 580.511 98.0555 582.601 97.4548 584.672C96.0561 589.53 94.6574 594.388 93.249 599.265C92.8941 600.525 92.5393 601.785 92.1464 603.025C92.0483 603.311 91.855 603.549 91.5949 603.776C93.2833 596.28 95.5538 588.962 97.1177 581.474C97.0318 581.454 96.9365 581.406 96.8506 581.386C96.6557 581.815 96.413 582.243 96.2752 582.701C95.5944 585.212 94.9228 587.751 94.261 590.271C93.3926 593.478 92.5241 596.685 91.6269 599.902C91.3215 600.971 91.0161 602.04 90.6535 603.08C90.2808 604.186 90.1369 604.233 88.8183 604.04C90.7509 597.101 92.2059 590.063 93.8996 583.074C93.7756 583.035 93.6516 582.995 93.5275 582.956C93.205 583.776 92.7678 584.586 92.5313 585.426C91.7516 588.318 91.0484 591.201 90.2975 594.084C89.4485 597.253 88.5615 600.403 87.7125 603.572C87.6039 603.973 87.4309 604.077 87.0296 604.016C86.2558 603.885 85.4718 603.821 84.6786 603.729C88.1072 592.87 89.7515 583.767 88.7886 582.218C88.554 582.819 88.3206 583.276 88.2113 583.773C87.7439 585.912 87.3337 588.08 86.8376 590.229C85.8547 594.554 84.8049 598.87 83.7742 603.195C83.7543 603.281 83.7057 603.376 83.6473 603.49C82.6445 603.291 81.6607 603.101 80.6676 602.882C81.2429 599.261 81.8846 595.698 82.3639 592.124C82.8431 588.55 83.8955 585.077 84.2028 581.463C84.0979 581.433 84.0026 581.385 83.8976 581.355C83.7136 581.622 83.4725 581.859 83.3745 582.145C82.2766 585.331 81.4463 588.558 81.0072 591.912C80.64 594.655 80.2539 597.387 79.8868 600.13C79.7747 600.961 79.7294 601.803 79.6546 602.749C78.8147 602.513 77.9841 602.305 77.1734 602.011C77.0494 601.972 76.9184 601.617 76.939 601.435C77.2279 598.893 77.4978 596.341 77.8536 593.809C78.3203 590.589 78.8827 587.369 79.3397 584.168C79.4923 583.069 79.4633 581.95 79.5012 580.84C79.5032 580.601 79.3998 580.38 79.2104 580.14C77.9463 587.228 76.5773 594.286 75.6857 601.444C74.0732 600.933 74.2446 601.021 74.404 599.109C74.6385 596.203 75.0927 593.336 75.4801 590.46C75.9286 587.134 76.4151 583.828 76.8636 580.503C76.9964 579.49 77.0144 578.466 76.9177 577.432C75.2772 584.929 74.592 592.576 73.3815 600.124C73.3049 600.133 73.2473 600.152 73.1707 600.161C73.116 599.844 72.9846 599.537 73.0157 599.241C73.2848 596.784 73.5729 594.338 73.842 591.881C74.4817 586.252 75.1312 580.603 75.7616 574.945C75.8126 574.563 75.8734 574.162 75.9251 573.684C77.8167 575.154 79.9717 576.013 82.1776 576.491C86.9142 577.515 91.5998 578.922 96.5092 578.714C97.4662 578.674 98.2999 578.499 99.267 578.392Z" fill="#36469D"/>
<path d="M101.085 572.572C100.653 573.936 100.182 575.329 99.7495 576.741C99.6312 577.161 99.41 577.313 98.9791 577.357C95.3405 577.757 91.7661 577.326 88.2342 576.388C87.3846 576.17 86.4956 576.077 85.6262 575.945C82.5025 575.384 79.5061 574.479 76.7159 572.934C76.2683 572.682 76.079 572.441 76.1409 571.897C76.2963 570.463 76.3945 569 76.5312 567.509C78.5565 568.999 80.906 569.477 83.2554 569.956C87.2092 570.773 91.1635 571.543 95.1367 572.322C96.1205 572.512 97.1335 572.644 98.1282 572.672C99.1322 572.728 100.128 572.612 101.085 572.572Z" fill="#36469D"/>
<path d="M77.6749 566.868C79.1701 566.526 80.7104 566.52 82.1908 566.819C87.1859 567.807 92.1714 568.815 97.1463 569.937C98.2635 570.195 99.3106 570.826 100.369 571.294C100.349 571.38 100.319 571.485 100.299 571.57C99.5535 571.526 98.7688 571.558 98.0428 571.427C95.5021 570.947 92.9807 570.429 90.4404 569.901C86.9544 569.202 83.4776 568.532 80.0204 567.825C79.2182 567.655 78.4269 567.324 77.6445 567.068C77.6547 567.001 77.6745 566.915 77.6749 566.868Z" fill="#36469D"/>
<path d="M352.503 776.77C350.737 776.196 348.788 775.577 346.885 774.912C344.501 774.041 342.162 773.124 339.8 772.138C338.493 771.611 338.286 770.12 339.318 769.18C339.8 768.744 340.396 768.423 340.969 768.033C347.436 763.585 353.902 759.182 360.322 754.688C362.019 753.496 363.51 751.959 365.138 750.652C365.917 750.01 366.743 749.414 367.637 748.933C368.669 748.405 369.403 748.818 369.517 749.987C369.609 750.859 369.54 751.753 369.471 752.647C369.311 755.009 368.99 757.394 368.99 759.779C368.921 768.01 372.062 774.821 378.231 780.255C378.987 780.92 379.882 781.447 380.707 782.044C381.166 782.365 381.67 782.686 382.037 783.098C382.587 783.695 383.023 784.405 382.587 785.254C382.152 786.056 381.372 786.056 380.569 785.988C380.157 785.942 379.744 785.942 379.331 785.988C372.361 786.767 365.803 789.06 359.313 791.514C356.86 792.454 354.337 793.279 351.884 794.174C351.655 794.265 351.425 794.403 351.219 794.518C349.981 795.206 348.697 794.472 348.697 793.05C348.697 792.592 348.788 792.179 348.903 791.743C350.05 786.744 351.265 781.814 352.503 776.77ZM375.983 783.236C367.27 775.532 364.014 766.038 365.78 754.596C358.763 760.787 350.829 765.282 343.515 770.716C343.858 770.831 344.134 770.923 344.455 771.014C347.413 771.909 350.348 772.78 353.283 773.651C353.718 773.766 354.131 773.903 354.544 774.087C355.69 774.591 356.08 775.119 355.966 776.38C355.851 777.595 355.622 778.833 355.346 780.026C354.613 783.144 353.787 786.217 353.008 789.335C352.916 789.656 352.87 789.977 352.778 790.482C360.185 786.79 367.82 784.337 375.983 783.236Z" fill="black"/>
<path d="M320.103 782.296C317.627 784.13 315.196 785.919 312.742 787.685C311.435 788.625 310.06 789.496 308.707 790.344C307.606 791.032 306.139 790.299 306.024 788.946C305.978 788.487 306.093 788.006 306.23 787.547C308.638 779.269 308.982 770.992 306.391 762.668C306.093 761.682 305.863 760.719 305.657 759.733C305.428 758.541 306.001 757.692 307.239 757.692C308.065 757.692 308.89 757.876 309.647 758.128C311.55 758.701 313.407 759.32 315.265 759.985C322.511 762.645 330.009 763.356 337.644 763.287C338.241 763.287 338.86 763.31 339.433 763.516C340.511 763.906 340.809 765.121 340.236 766.107C338.676 768.859 337.025 771.565 335.695 774.454C333.379 779.476 332.027 784.772 331.178 790.253C331.041 791.17 330.697 792.11 330.307 792.959C329.298 795.114 327.097 795.343 325.881 793.302C323.955 790.001 322.235 786.538 320.424 783.167C320.332 782.892 320.241 782.617 320.103 782.296ZM327.716 789.083C328.862 781.15 330.72 773.743 335.122 767.414C330.903 766.956 326.592 766.772 322.396 765.97C318.246 765.167 314.187 763.769 309.991 762.599C312.628 770.143 312.376 777.733 310.426 785.552C310.908 785.208 311.16 785.048 311.412 784.887C314.004 782.938 316.595 780.989 319.163 779.063C320.309 778.192 321.204 778.26 321.983 779.453C323.359 781.608 324.666 783.832 325.973 786.011C326.546 786.951 327.074 787.937 327.716 789.083Z" fill="black"/>
<path d="M355.163 816.714C353.306 818.159 351.586 819.603 349.752 820.887C347.573 822.378 345.326 823.754 343.102 825.106C341.634 825.978 340.35 825.198 340.373 823.478C340.373 822.148 340.488 820.796 340.557 819.489C340.901 813.687 340.878 807.886 339.548 802.153C339.318 801.19 339.273 800.136 339.227 799.127C339.181 798.301 339.777 797.98 340.488 798.049C341.13 798.095 341.749 798.209 342.345 798.439C349.316 801.099 356.493 800.709 363.693 799.838C365.986 799.562 368.187 798.966 370.205 797.82C370.939 797.407 371.787 797.43 372.338 797.934C372.682 798.232 372.819 799.058 372.705 799.585C372.429 801.236 372.063 802.887 371.627 804.515C369.999 810.5 368.256 816.462 366.72 822.492C366.078 825.015 363.991 825.542 362.317 823.96C360.07 821.85 357.961 819.603 355.828 817.425C355.553 817.241 355.415 817.012 355.163 816.714ZM342.506 801.626C344.546 808.069 344.202 814.559 343.881 821.162C344.225 820.956 344.432 820.841 344.638 820.681C346.862 819.007 349.11 817.31 351.311 815.613C352.457 814.742 353.558 813.825 354.704 812.999C355.782 812.197 356.722 812.403 357.273 813.366C357.869 814.375 358.465 815.384 359.222 816.278C360.552 817.883 361.996 819.374 363.303 820.864C365.115 814.559 366.926 808.299 368.715 802.108C364.633 803.575 360.162 803.644 355.668 803.781C351.196 803.896 346.817 803.415 342.506 801.626Z" fill="black"/>
<path d="M375.983 783.236C367.797 784.36 360.185 786.79 352.755 790.505C352.847 790 352.939 789.679 352.985 789.358C353.764 786.24 354.59 783.167 355.323 780.049C355.599 778.856 355.828 777.618 355.943 776.403C356.057 775.142 355.69 774.637 354.521 774.11C354.108 773.926 353.673 773.812 353.26 773.674C350.302 772.78 347.367 771.909 344.432 771.037C344.157 770.946 343.836 770.854 343.492 770.739C350.806 765.305 358.74 760.81 365.757 754.619C363.991 766.016 367.27 775.532 375.983 783.236Z" fill="#FFAB1B"/>
<path d="M327.716 789.083C327.051 787.914 326.546 786.951 325.973 786.011C324.643 783.809 323.359 781.608 321.983 779.453C321.204 778.26 320.355 778.191 319.163 779.063C316.572 781.012 313.981 782.961 311.413 784.887C311.183 785.07 310.931 785.231 310.427 785.552C312.376 777.687 312.605 770.12 309.991 762.599C314.187 763.768 318.223 765.19 322.396 765.97C326.592 766.772 330.857 766.956 335.122 767.414C330.72 773.743 328.862 781.149 327.716 789.083Z" fill="#E2062D"/>
<path d="M342.506 801.626C346.771 803.415 351.219 803.873 355.736 803.759C360.208 803.644 364.679 803.575 368.783 802.085C366.995 808.276 365.183 814.536 363.372 820.841C362.042 819.374 360.62 817.861 359.29 816.255C358.534 815.361 357.938 814.352 357.341 813.343C356.768 812.403 355.828 812.197 354.773 812.976C353.627 813.802 352.526 814.719 351.38 815.59C349.178 817.287 346.908 818.961 344.707 820.658C344.523 820.796 344.294 820.933 343.95 821.14C344.202 814.559 344.546 808.069 342.506 801.626Z" fill="#2D8F55"/>
<path d="M375.553 591.667C378.292 592.152 380.709 593.271 381.489 596.422C381.703 597.266 381.505 598.064 380.734 598.783C379.311 595.401 376.79 593.974 373.35 594.201C373.931 595.5 374.648 596.749 375.093 598.097C375.807 600.142 375.597 602.144 374.247 603.897C373.982 604.225 373.542 604.414 372.979 604.598C373.305 601.7 373.207 598.971 371.322 596.557C371.209 596.816 371.126 597.037 371.028 597.278C370.192 599.7 368.698 601.592 366.546 602.954C366.165 603.189 365.682 603.471 365.322 603.403C364.837 603.331 364.225 603.061 363.935 602.668C363.561 602.142 363.904 601.558 364.414 601.203C364.842 600.909 365.317 600.717 365.745 600.424C367.68 599.015 368.855 597.121 369.33 594.791C369.39 594.519 369.236 594.076 369.055 593.866C356.241 580.497 343.427 567.129 330.581 553.8C330.361 553.558 329.884 553.397 329.574 553.466C326.921 553.944 324.742 555.22 323.335 557.598C322.765 558.543 322.127 558.859 321.453 558.507C320.74 558.123 320.554 557.207 321.108 556.281C322.484 553.942 324.535 552.468 327.081 551.647C327.338 551.567 327.578 551.505 327.955 551.394C325.615 549.347 322.891 549.162 320.029 549.504C319.983 549.402 319.952 549.282 319.887 549.165C320.133 548.821 320.313 548.36 320.66 548.128C322.384 546.901 324.306 546.695 326.24 547.424C327.659 547.962 328.96 548.724 330.319 549.374C331.052 546.644 329.677 544.034 326.15 541.796C326.851 541.085 327.651 540.964 328.524 541.188C330.618 541.759 331.854 543.235 332.51 545.233C332.744 545.933 332.841 546.682 333.009 547.424C334.037 546.625 334.988 545.763 336.046 545.084C339.735 542.727 343.869 541.719 348.198 541.538C355.659 541.234 362.639 542.872 368.743 547.221C376.778 552.935 381.094 560.886 381.932 570.694C382.414 576.51 381.705 582.101 378.738 587.243C377.882 588.82 376.65 590.189 375.553 591.667ZM351.511 572.149C355.133 575.932 358.736 579.7 362.373 583.464C364.859 586.043 367.325 588.607 369.795 591.206C370.073 591.494 370.305 591.841 370.76 591.474C372.084 590.466 373.563 589.583 374.708 588.4C376.762 586.289 377.961 583.615 378.558 580.776C381.125 568.606 378.042 558.137 368.211 550.335C360.213 543.981 350.957 542.55 341.149 545.527C337.74 546.546 335.011 548.624 333.136 551.741C332.761 552.364 332.798 552.714 333.316 553.259C339.412 559.517 345.462 565.833 351.511 572.149Z" fill="black"/>
<path d="M351.511 572.149C345.462 565.833 339.412 559.517 333.332 553.24C332.833 552.71 332.776 552.345 333.151 551.721C335.027 548.604 337.76 546.562 341.164 545.508C350.973 542.531 360.248 543.977 368.226 550.316C378.023 558.122 381.106 568.591 378.574 580.757C377.961 583.615 376.778 586.269 374.724 588.38C373.578 589.563 372.1 590.446 370.776 591.454C370.336 591.802 370.07 591.459 369.811 591.186C367.325 588.607 364.859 586.043 362.389 583.445C358.736 579.7 355.133 575.932 351.511 572.149ZM358.626 565.307C358.774 567.023 358.884 568.708 359.079 570.366C359.124 570.786 359.401 571.392 359.715 571.518C360.045 571.624 360.671 571.362 360.959 571.084C361.817 570.179 362.554 569.146 363.408 568.206C363.677 567.912 364.109 567.654 364.478 567.632C365.969 567.525 367.471 567.523 368.969 567.487C370.378 567.442 370.621 567.062 369.927 565.864C369.314 564.763 368.685 563.682 368.007 562.623C367.69 562.145 367.602 561.818 367.818 561.194C368.415 559.504 368.864 557.759 369.294 555.999C369.503 555.146 369.221 554.822 368.375 555.001C366.525 555.394 364.703 555.872 362.858 556.299C362.562 556.349 362.155 556.339 361.927 556.187C360.753 555.464 359.643 554.664 358.469 553.941C357.389 553.262 356.973 553.501 356.878 554.766C356.748 556.353 356.672 557.952 356.522 559.523C356.482 559.81 356.255 560.17 356.01 560.355C355.002 561.17 353.947 561.884 352.958 562.715C352.634 562.997 352.345 563.594 352.452 563.936C352.54 564.262 353.14 564.586 353.552 564.631C355.243 564.909 356.942 565.098 358.626 565.307ZM348.034 554.37C348.877 554.315 349.742 554.31 350.612 554.182C350.997 554.141 351.506 553.945 351.705 553.658C352.056 553.143 351.904 552.541 351.401 552.136C350.936 551.761 350.441 551.425 349.93 551.109C349.55 550.867 349.4 550.618 349.433 550.102C349.498 549.229 349.417 548.301 349.323 547.427C349.252 546.763 348.834 546.489 348.173 546.755C347.87 546.893 347.543 546.981 347.279 547.151C345.683 548.259 343.962 548.69 342.042 548.26C341.953 548.251 341.864 548.243 341.774 548.235C341.107 548.112 341.001 548.442 341.267 548.944C341.598 549.562 342 550.173 342.308 550.741C341.633 551.538 340.932 552.249 340.331 553.074C339.671 554.01 340.06 554.676 341.213 554.711C342.172 554.75 343.123 554.719 344.058 554.707C344.2 555.204 344.307 555.705 344.483 556.199C344.66 556.693 344.922 557.16 345.133 557.65C345.684 558.828 346.382 558.912 347.112 557.809C347.386 557.391 347.543 556.879 347.669 556.406C347.831 555.77 347.919 555.107 348.034 554.37ZM369.109 576.38C368.584 576.436 368.173 576.392 367.816 576.518C366.929 576.825 366.001 577.066 365.222 577.556C364.577 577.961 364.71 578.548 365.419 578.896C366.465 579.42 367.542 579.906 368.642 580.442C368.596 581.33 368.507 582.312 368.507 583.302C368.522 584.272 369.239 584.69 370.013 584.166C370.889 583.595 371.664 582.911 372.548 582.251C373.024 582.571 373.577 582.953 374.166 583.332C374.677 583.649 375.088 583.693 374.998 582.854C374.923 582.155 374.88 581.418 374.91 580.707C374.947 580.226 375.069 579.718 375.272 579.308C375.66 578.471 376.195 577.689 376.602 576.867C377.064 575.899 376.883 575.529 375.874 575.355C375.083 575.227 374.26 575.139 373.453 575.19C372.874 575.234 372.642 575.047 372.419 574.611C372.091 574.028 371.779 573.425 371.276 573.019C370.967 572.77 370.342 572.713 369.891 572.796C369.666 572.838 369.458 573.373 369.406 573.714C369.263 574.525 369.202 575.433 369.109 576.38Z" fill="#E2062D"/>
<path d="M358.626 565.307C356.942 565.098 355.243 564.909 353.552 564.631C353.137 564.552 352.556 564.243 352.452 563.936C352.345 563.594 352.65 562.978 352.958 562.715C353.927 561.869 355.002 561.17 356.01 560.355C356.255 560.17 356.501 559.826 356.522 559.523C356.672 557.952 356.748 556.353 356.878 554.766C356.973 553.501 357.389 553.262 358.469 553.941C359.642 554.664 360.753 555.464 361.926 556.187C362.155 556.339 362.562 556.349 362.858 556.299C364.687 555.891 366.525 555.394 368.374 555.002C369.221 554.822 369.519 555.126 369.294 555.999C368.864 557.759 368.415 559.504 367.818 561.194C367.602 561.818 367.69 562.145 368.006 562.623C368.685 563.682 369.314 564.763 369.927 565.864C370.586 567.066 370.359 567.426 368.969 567.487C367.471 567.524 365.969 567.525 364.478 567.632C364.109 567.654 363.661 567.931 363.408 568.206C362.57 569.127 361.832 570.16 360.959 571.084C360.674 571.397 360.048 571.659 359.715 571.518C359.401 571.392 359.124 570.786 359.079 570.366C358.884 568.708 358.774 567.023 358.626 565.307ZM360.34 569.595C360.762 568.914 361.136 568.449 361.414 567.907C362.247 566.28 363.546 565.699 365.331 565.862C366.491 565.967 367.624 565.987 368.796 566.038C368.063 564.968 367.4 563.89 366.624 562.913C366.11 562.243 366.081 561.645 366.375 560.925C367.018 559.336 367.622 557.716 368.211 556.115C366.505 556.686 364.779 557.242 363.092 557.83C362.478 558.037 362.009 557.946 361.506 557.54C360.48 556.713 359.389 555.928 358.812 555.495C358.664 556.589 358.461 557.99 358.347 559.398C358.237 560.523 357.861 561.465 356.772 562.024C356.017 562.405 355.293 562.907 354.449 563.439C355.885 563.48 357.158 563.644 358.435 563.525C359.732 563.421 360.609 564.352 360.461 565.605C360.242 566.866 360.346 568.163 360.34 569.595Z" fill="black"/>
<path d="M348.034 554.37C347.899 555.091 347.831 555.77 347.685 556.387C347.558 556.86 347.401 557.371 347.128 557.789C346.398 558.893 345.699 558.809 345.149 557.63C344.937 557.14 344.675 556.674 344.499 556.18C344.306 555.706 344.2 555.204 344.074 554.688C343.119 554.684 342.168 554.715 341.229 554.692C340.057 554.641 339.667 553.975 340.346 553.054C340.932 552.249 341.629 551.503 342.323 550.722C341.98 550.157 341.598 549.562 341.283 548.924C341.017 548.422 341.142 548.109 341.79 548.216C341.879 548.224 341.968 548.232 342.058 548.24C343.977 548.671 345.699 548.239 347.294 547.132C347.559 546.962 347.901 546.855 348.189 546.735C348.85 546.47 349.268 546.743 349.339 547.408C349.452 548.297 349.514 549.209 349.448 550.082C349.415 550.598 349.546 550.832 349.945 551.09C350.456 551.406 350.952 551.742 351.416 552.116C351.919 552.522 352.072 553.124 351.721 553.639C351.521 553.925 351.028 554.102 350.628 554.163C349.762 554.326 348.896 554.33 348.034 554.37ZM342.089 553.15C342.93 553.414 343.803 553.479 344.449 553.905C345.115 554.346 345.57 555.128 346.115 555.759C346.475 554.996 346.626 554.096 347.156 553.598C347.686 553.099 348.575 552.986 349.392 552.687C347.606 551.694 348.099 549.856 347.841 548.275C346.317 548.898 345.277 550.741 343.217 549.654C344.618 551.519 343.198 552.289 342.089 553.15Z" fill="black"/>
<path d="M369.109 576.38C369.202 575.433 369.248 574.544 369.399 573.644C369.451 573.303 369.678 572.784 369.884 572.726C370.334 572.643 370.94 572.684 371.269 572.949C371.752 573.339 372.068 573.977 372.411 574.541C372.67 574.973 372.902 575.161 373.445 575.12C374.234 575.053 375.056 575.142 375.867 575.285C376.875 575.46 377.06 575.864 376.594 576.798C376.187 577.619 375.653 578.401 375.265 579.238C375.046 579.668 374.924 580.176 374.902 580.637C374.872 581.348 374.916 582.085 374.991 582.784C375.081 583.623 374.669 583.579 374.158 583.262C373.574 582.918 373.016 582.501 372.54 582.181C371.676 582.857 370.866 583.544 370.006 584.096C369.231 584.621 368.495 584.187 368.499 583.232C368.499 582.242 368.589 581.261 368.635 580.372C367.535 579.836 366.477 579.366 365.411 578.826C364.703 578.478 364.569 577.891 365.215 577.486C365.993 576.996 366.937 576.736 367.808 576.448C368.173 576.392 368.6 576.417 369.109 576.38ZM373.645 581.444C373.589 581.079 373.589 580.919 373.539 580.783C373.306 579.925 373.348 579.16 374.034 578.468C374.497 578.012 374.803 577.396 375.248 576.765C373.556 576.487 371.754 576.821 370.713 575.024C370.658 577.151 369.382 577.941 367.518 578.194C369.109 579.19 370.226 580.378 369.946 582.388C370.995 581.286 371.831 579.853 373.645 581.444Z" fill="black"/>
<path d="M360.34 569.595C360.361 568.143 360.258 566.847 360.406 565.594C360.555 564.34 359.693 563.39 358.381 563.513C357.119 563.613 355.831 563.468 354.395 563.427C355.259 562.91 355.948 562.412 356.718 562.012C357.807 561.453 358.168 560.531 358.292 559.386C358.426 557.993 358.63 556.593 358.758 555.483C359.354 555.932 360.426 556.701 361.452 557.528C361.955 557.934 362.439 558.006 363.038 557.818C364.725 557.231 366.45 556.675 368.157 556.103C367.549 557.688 366.945 559.308 366.321 560.913C366.027 561.633 366.059 562.266 366.569 562.901C367.33 563.898 368.009 564.956 368.742 566.026C367.605 565.971 366.437 565.955 365.277 565.85C363.511 565.703 362.178 566.288 361.36 567.895C361.136 568.449 360.781 568.929 360.34 569.595Z" fill="#FFAB1B"/>
<path d="M342.089 553.151C343.198 552.289 344.634 551.499 343.232 549.635C345.293 550.722 346.333 548.878 347.857 548.256C348.114 549.836 347.622 551.674 349.407 552.667C348.575 552.986 347.667 553.083 347.172 553.578C346.626 554.096 346.456 554.981 346.131 555.74C345.605 555.125 345.15 554.343 344.465 553.886C343.803 553.479 342.911 553.398 342.089 553.151Z" fill="#FFAB1B"/>
<path d="M373.645 581.444C371.831 579.853 370.995 581.286 369.946 582.388C370.207 580.363 369.109 579.19 367.518 578.194C369.382 577.941 370.658 577.151 370.713 575.024C371.773 576.837 373.556 576.487 375.248 576.765C374.803 577.396 374.517 578.028 374.034 578.468C373.313 579.164 373.306 579.925 373.539 580.783C373.574 580.939 373.589 581.079 373.645 581.444Z" fill="#FFAB1B"/>
<path d="M51.2941 811.888C54.2195 809.232 57.8201 808.512 61.7808 809.412C63.7836 809.885 65.1338 811.28 66.1915 812.968C68.0368 815.893 68.9369 819.134 69.387 822.509C69.612 824.085 69.7471 825.66 69.8371 827.235C70.0396 831.308 70.6697 835.314 71.9074 839.207C72.3575 840.602 72.74 842.02 72.8976 843.483C73.2576 846.903 72.0199 849.716 68.9594 851.426C66.5965 852.754 64.0536 852.957 61.5782 851.561C60.3405 850.864 59.5529 849.716 58.9678 848.456C57.4826 845.35 55.9523 842.29 54.6696 839.117C52.8918 834.774 51.2491 830.341 49.6963 825.907C49.0887 824.175 48.7286 822.284 48.5036 820.439C48.1661 817.851 48.5261 815.331 50.1689 813.148C50.4839 812.833 50.8215 812.45 51.2941 811.888ZM59.1253 821.249C58.8778 821.902 58.5852 822.464 58.4952 823.049C58.3377 824.197 58.2702 825.345 58.1802 826.515C58.0452 828.45 58.0451 830.386 57.7526 832.298C57.5051 833.761 56.92 835.201 56.3799 836.597C56.2224 837.024 56.1548 837.317 56.3349 837.722C57.5051 840.287 58.6302 842.853 59.8229 845.395C60.363 846.566 60.9481 847.691 61.6682 848.726C62.0958 849.334 62.7934 849.851 63.491 850.099C65.5389 850.796 68.0818 849.919 69.432 848.253C70.6247 846.791 70.9622 845.103 70.5797 843.325C70.2196 841.66 69.6795 840.04 69.252 838.397C69.2069 838.262 69.1169 838.172 69.0269 838.037C68.6894 837.519 68.2618 837.047 68.0143 836.484C67.6317 835.651 67.4292 834.729 67.0466 833.896C64.9988 829.373 62.3884 825.232 59.1253 821.249ZM55.0522 834.414C55.0972 834.414 55.1647 834.391 55.2322 834.414C55.3897 833.401 55.6148 832.411 55.6823 831.398C55.8398 828.99 55.8623 826.582 56.0873 824.197C56.1999 823.004 56.4699 821.789 56.9425 820.731C57.4826 819.561 58.4052 818.594 58.5177 817.221C58.5402 817.153 58.5402 817.063 58.6077 817.041C58.9003 816.838 59.2153 816.478 59.5079 816.501C59.8229 816.546 60.273 816.861 60.3855 817.153C60.5656 817.558 60.5656 818.099 60.4531 818.526C60.2055 819.404 60.498 820.011 61.0606 820.619C63.581 823.364 65.8089 826.312 67.4517 829.71C67.4967 829.8 67.5642 829.868 67.7217 830.07C67.6542 828.653 67.6092 827.393 67.5192 826.132C67.2716 822.689 66.8441 819.246 65.3363 816.073C63.446 812.113 61.5332 810.425 55.9748 811.843C53.0493 812.563 51.024 815.083 50.709 818.099C50.5289 819.809 50.709 821.519 51.204 823.139C52.1717 826.267 53.2519 829.373 54.3095 832.501C54.4671 833.108 54.7596 833.761 55.0522 834.414Z" fill="black"/>
<path d="M80.4812 788.236C81.3364 789.632 82.3041 791.004 83.0467 792.467C85.117 796.563 85.9496 801.041 86.7373 805.519C87.4799 809.817 88.155 814.138 88.7851 818.459C88.9876 819.966 89.1001 821.519 88.9651 823.049C88.7626 825.457 87.3899 827.145 85.162 828.068C83.5417 828.743 81.8765 829.103 80.1212 829.058C77.7358 828.968 75.913 827.91 74.9454 825.727C74.2702 824.197 73.7977 822.599 73.3476 820.979C72.8075 819.089 71.9974 817.379 71.0747 815.646C68.7344 811.415 66.3715 807.162 65.2013 802.391C64.7512 800.456 64.4361 798.43 64.4136 796.428C64.3461 791.139 67.6092 787.201 72.785 786.031C75.5755 785.401 78.1859 786.211 80.3237 788.304C80.3687 788.304 80.4137 788.259 80.4812 788.236ZM73.9102 799.488C73.8202 800.568 73.6627 801.491 73.6402 802.414C73.4826 806.487 73.3476 810.582 73.2126 814.678C73.2126 814.948 73.2126 815.263 73.3476 815.488C74.4278 817.424 74.9229 819.539 75.4855 821.632C75.778 822.734 76.2056 823.792 76.6781 824.805C77.3532 826.245 78.5909 826.898 80.1887 826.875C81.8315 826.853 83.3617 826.447 84.8019 825.682C85.7921 825.142 86.4672 824.332 86.6472 823.207C86.8048 822.239 86.8948 821.204 86.7598 820.259C86.3997 817.604 85.9046 814.993 85.4546 812.338C85.432 812.135 85.207 811.91 85.027 811.775C84.2394 811.078 83.2942 810.492 82.6191 809.727C81.5389 808.467 80.5488 807.072 79.5811 805.699C77.9609 803.494 76.3856 801.198 73.9102 799.488ZM71.5698 811.73C71.5248 811.415 71.4798 811.19 71.4798 810.965C71.4573 806.892 71.2773 802.841 72.0649 798.813C72.2449 797.913 71.9524 797.125 71.3673 796.45C71.1647 796.203 70.9847 795.978 70.8722 795.685C70.6472 795.145 70.9397 794.717 71.5023 794.74C71.8398 794.762 72.2899 794.852 72.4924 795.055C73.01 795.663 73.4151 796.338 73.8652 796.968C74.0902 797.283 74.2927 797.62 74.5853 797.868C75.5755 798.633 76.7682 799.196 77.6008 800.073C79.3111 801.964 80.8638 804.011 82.4391 805.992C83.1592 806.892 83.9243 807.792 84.6444 808.692C84.802 808.49 84.8245 808.422 84.8019 808.31C84.1944 804.191 83.4292 800.096 82.079 796.135C81.3589 794.065 80.5263 792.062 79.0635 790.374C77.5558 788.596 75.643 787.584 73.2801 788.191C68.8244 789.362 66.6865 791.994 66.5965 796.405C66.574 797.913 66.8215 799.466 67.0916 800.951C67.7892 804.754 69.6795 808.085 71.2998 811.505C71.3448 811.64 71.3898 811.64 71.5698 811.73Z" fill="black"/>
<path d="M59.1254 821.249C62.3884 825.232 64.9988 829.373 67.0692 833.874C67.4517 834.706 67.6543 835.629 68.0368 836.462C68.2844 837.024 68.7119 837.497 69.0495 838.014C69.117 838.127 69.2295 838.239 69.2745 838.374C69.7471 840.017 70.2872 841.637 70.6022 843.303C70.9848 845.08 70.6472 846.768 69.4545 848.231C68.0818 849.919 65.5614 850.774 63.5136 850.076C62.8385 849.851 62.1184 849.311 61.6908 848.704C60.9482 847.691 60.3631 846.521 59.8455 845.373C58.6528 842.83 57.5276 840.265 56.3574 837.699C56.1774 837.294 56.2449 837.002 56.4024 836.574C56.9425 835.179 57.5276 833.739 57.7752 832.276C58.0902 830.386 58.0677 828.428 58.2027 826.492C58.2927 825.322 58.3602 824.175 58.5178 823.027C58.5853 822.464 58.8778 821.902 59.1254 821.249Z" fill="#36469D"/>
<path d="M55.0522 834.414C54.8047 833.761 54.4896 833.131 54.2646 832.456C53.2294 829.35 52.1492 826.245 51.1591 823.094C50.6415 821.452 50.484 819.764 50.664 818.054C50.979 815.038 53.0044 812.518 55.9298 811.798C61.5107 810.402 63.4236 812.09 65.2914 816.028C66.7991 819.201 67.2492 822.622 67.4742 826.087C67.5642 827.348 67.6093 828.608 67.6768 830.026C67.5192 829.823 67.4517 829.755 67.4067 829.665C65.7864 826.29 63.5361 823.319 61.0157 820.574C60.4531 819.966 60.138 819.336 60.4081 818.481C60.5206 818.054 60.5206 817.514 60.3406 817.108C60.228 816.816 59.778 816.501 59.4629 816.456C59.1704 816.433 58.8553 816.793 58.5628 816.996C58.5178 817.041 58.4728 817.131 58.4728 817.176C58.3377 818.526 57.4376 819.516 56.8975 820.687C56.4024 821.767 56.1324 822.982 56.0424 824.152C55.8173 826.537 55.8173 828.968 55.6373 831.353C55.5698 832.366 55.3448 833.356 55.1872 834.369C55.1647 834.391 55.0972 834.414 55.0522 834.414Z" fill="#36469D"/>
<path d="M73.9103 799.488C76.3857 801.198 77.961 803.494 79.6037 805.722C80.5939 807.072 81.539 808.467 82.6417 809.75C83.3393 810.537 84.2395 811.122 85.0496 811.798C85.2071 811.955 85.4547 812.158 85.4772 812.36C85.9498 814.993 86.4223 817.626 86.7824 820.281C86.8949 821.249 86.8274 822.262 86.6699 823.229C86.5123 824.332 85.8147 825.165 84.8246 825.705C83.3843 826.47 81.8316 826.898 80.2113 826.898C78.6361 826.898 77.3759 826.267 76.7008 824.827C76.2282 823.815 75.8231 822.734 75.5081 821.654C74.9455 819.561 74.4279 817.423 73.3702 815.511C73.2352 815.286 73.2352 814.971 73.2352 814.701C73.3702 810.605 73.4827 806.532 73.6628 802.436C73.6853 801.513 73.8203 800.568 73.9103 799.488Z" fill="#36469D"/>
<path d="M71.5699 811.73C71.3898 811.64 71.3449 811.64 71.3223 811.618C69.7021 808.197 67.7893 804.844 67.1142 801.063C66.8216 799.556 66.5966 798.025 66.6191 796.518C66.7091 792.107 68.8469 789.474 73.3027 788.304C75.6655 787.696 77.5783 788.709 79.0861 790.487C80.5263 792.152 81.3815 794.177 82.1016 796.248C83.4743 800.186 84.2169 804.304 84.8245 808.422C84.8245 808.512 84.8245 808.602 84.667 808.805C83.9469 807.905 83.1818 807.004 82.4616 806.104C80.8414 804.124 79.3336 802.076 77.6233 800.186C76.8132 799.286 75.6205 798.723 74.6079 797.98C74.2928 797.755 74.1128 797.395 73.8878 797.08C73.4152 796.428 73.0101 795.753 72.515 795.167C72.335 794.942 71.8624 794.875 71.5249 794.852C70.9623 794.83 70.6472 795.28 70.8948 795.798C71.0073 796.09 71.2098 796.338 71.3898 796.563C71.9749 797.238 72.2675 798.025 72.0874 798.926C71.2998 802.954 71.4574 807.027 71.5024 811.078C71.4799 811.19 71.5249 811.415 71.5699 811.73Z" fill="#36469D"/>
</g>
<defs>
<clipPath id="clip0_1366_499">
<rect width="393" height="852" fill="white"/>
</clipPath>
</defs>
</svg>
