<svg width="443" height="817" viewBox="0 0 443 817" fill="none" xmlns="http://www.w3.org/2000/svg">
<path d="M357.772 59.7067C355.897 61.4713 354.132 63.2911 352.23 64.8903C350.658 66.2138 348.838 67.1237 346.77 67.4821C346.688 67.5097 346.632 67.5097 346.55 67.5373C344.261 68.3093 343.958 68.1714 342.965 65.8829C341.642 62.8224 340.953 59.6239 340.704 56.205C340.098 56.0671 339.491 55.9292 338.912 55.7914C333.894 54.4403 329.758 51.5452 325.926 48.1814C322.644 45.2862 320.025 41.8948 318.178 37.8968C317.709 36.8766 318.233 36.1322 318.977 35.6083C320.218 34.6984 321.514 33.8161 322.893 33.0716C325.898 31.4173 329.041 30.1765 332.488 29.8181C333.508 29.7078 334.528 29.7905 335.686 29.7905C334.445 27.2538 333.701 24.6896 333.536 22.015C333.315 18.6512 333.839 15.4252 335.355 12.4198C335.962 11.2342 336.817 10.1589 337.589 9.05595C337.671 8.91809 338.25 8.94566 338.333 9.08353C338.581 9.38682 338.664 9.80041 338.802 10.1864C339.16 11.2618 339.519 12.3371 339.96 13.6881C341.669 9.77283 344.565 7.56703 348.618 6.13326C347.515 5.58181 346.743 5.05793 345.86 4.75464C345.006 4.47891 344.316 4.14804 344.289 3.15543C344.289 2.13525 344.951 1.66651 345.86 1.44593C347.791 1.00477 349.721 0.315464 351.678 0.122457C360.005 -0.787436 367.698 3.43116 371.586 10.8482C371.751 11.179 371.916 11.5099 372.137 11.8959C375.528 8.2012 379.83 6.16083 384.517 4.86492C387.219 4.12047 389.921 3.70688 392.734 4.03775C393.974 4.17561 394.691 4.67192 395.215 5.96783C397.807 12.2544 397.338 18.5133 395.326 24.7723C394.471 27.4468 393.368 30.0386 392.237 32.6029C391.686 33.8712 390.859 35.0293 390.114 36.3252C390.307 36.5733 390.721 36.9042 390.886 37.3178C391.079 37.8692 391.355 38.7515 391.079 38.9997C390.638 39.4684 389.839 39.689 389.177 39.7717C388.57 39.8269 387.909 39.5787 387.247 39.4684C387.991 40.9022 388.818 42.1705 389.342 43.5492C389.866 44.9554 390.114 46.4443 390.473 47.9608C391.107 47.7126 391.824 47.4093 392.513 47.1336C394.057 46.527 394.967 47.106 394.802 48.7604C394.664 50.3596 394.416 52.0139 393.947 53.558C390.252 65.7175 376.687 71.8937 365.602 66.5447C362.652 65.1109 360.226 63.0429 358.268 60.4235C358.103 60.1754 357.882 59.8721 357.772 59.7067ZM349.417 3.45873C349.748 3.76203 349.996 3.98261 350.244 4.23076C354.987 8.83537 359.04 13.9639 361.301 20.2504C362.79 24.3311 363.259 28.4394 361.053 32.4926C360.584 33.3749 360.033 33.7334 359.15 33.5955C354.077 32.9062 349.39 31.2518 345.888 27.3917C343.986 25.2962 342.304 22.9801 340.787 20.5813C339.408 18.403 338.443 16.0042 337.341 13.7709C334.804 19.4784 336.072 28.4119 342.579 33.7885C348.866 38.9997 358.241 38.9997 364.582 33.7885C371.034 28.4946 372.881 19.3405 368.939 12.0889C364.803 4.3962 356.09 1.72166 349.417 3.45873ZM387.44 37.5935C387.412 37.5108 387.385 37.4281 387.33 37.4005C382.339 34.4502 377.321 31.6103 371.172 32.1893C370.428 32.2444 369.959 32.5202 369.545 33.0716C367.532 35.6634 365.106 37.9244 361.99 38.8618C359.15 39.7442 358.351 41.5088 357.965 44.073C357.027 50.1666 358.047 55.7086 362.349 60.2857C369.656 68.006 382.256 66.7928 388.598 57.8593C390.307 55.4329 391.465 52.7308 391.934 49.7806C391.796 49.753 391.741 49.7254 391.714 49.753C391.024 50.1941 390.362 50.6629 389.673 51.104C385.51 53.8061 381.374 56.5082 376.521 57.8869C370.703 59.5688 365.437 58.2177 360.446 55.1296C359.454 54.523 359.371 53.944 359.922 52.8687C360.033 52.6757 360.115 52.4551 360.171 52.2621C361.273 48.0986 363.727 44.8451 367.229 42.4738C373.323 38.3655 380.078 36.7939 387.44 37.5935ZM387.909 34.5054C392.265 26.5369 394.747 18.2652 393.285 8.91809C384.986 14.2947 378.782 21.436 373.433 29.5975C378.947 29.3769 383.359 31.8584 387.909 34.5054ZM374.012 45.1208C374.205 48.5122 374.756 52.1242 378.699 53.944C379.058 54.1094 379.637 54.1646 379.94 53.9992C382.284 52.7308 384.572 51.3798 386.916 50.1114C387.771 49.6427 388.102 48.9534 387.991 48.1262C387.578 45.1208 386.75 42.2257 384.186 40.268C383.8 39.9647 383.166 39.7442 382.697 39.7993C380.822 40.0475 378.947 40.2956 377.155 40.7643C374.012 41.6191 374.205 40.8471 374.012 45.1208ZM346.77 22.7871C349.776 22.7043 352.147 21.7669 354.105 19.8092C355.952 17.9619 356.145 15.8388 354.656 13.7433C353.636 12.2819 352.505 10.9309 351.485 9.46954C350.989 8.78023 350.437 8.66994 349.693 8.83537C345.971 9.66255 343.296 11.9235 341.256 15.0116C341.09 15.2598 341.173 15.8112 341.339 16.0869C342.441 17.9343 343.599 19.7265 344.675 21.5739C345.226 22.4838 345.916 22.9801 346.77 22.7871ZM342.331 40.3232C336.955 40.2129 331.991 41.7845 327.194 44.6245C331.164 48.1538 335.328 51.1316 340.401 52.4827C341.063 48.3468 341.697 44.4039 342.331 40.3232ZM341.421 36.9593C340.208 35.6083 338.885 34.3124 337.754 32.8786C337.148 32.079 336.513 31.886 335.603 31.9963C331.137 32.5202 327.001 34.0091 323.196 36.4079C322.424 36.9042 321.734 37.4556 320.907 38.0622C322.534 39.8545 324.078 41.5088 325.622 43.1907C330.089 38.531 335.686 37.2351 341.421 36.9593ZM371.779 42.6117C366.898 44.6796 363.727 48.2641 361.356 52.7032C364.913 55.7362 372.854 57.17 375.721 55.3502C371.696 52.0415 370.951 47.6851 371.779 42.6117ZM373.654 24.5793C378.231 17.5759 383.883 12.0062 390.473 7.29131C389.646 7.23617 388.901 7.29131 388.129 7.37403C382.697 8.06334 377.955 10.5173 373.378 13.3573C373.157 13.4951 373.047 14.0741 373.102 14.4326C373.378 16.6384 373.764 18.8166 373.957 20.9948C374.04 22.0978 373.791 23.2007 373.654 24.5793ZM344.868 60.5338C345.006 60.3684 345.144 60.2857 345.171 60.1754C346.439 56.3704 347.873 52.5654 348.921 48.7052C349.583 46.3064 349.721 43.7698 350.051 41.2882C350.079 41.0125 349.914 40.4611 349.693 40.4059C348.314 39.9372 346.908 39.5511 345.474 39.1376C344.758 46.2237 343.158 53.2823 344.868 60.5338ZM352.698 40.7368C353.691 45.176 352.395 49.1464 351.044 53.1168C350.024 56.1222 349.004 59.1276 348.011 62.1606C347.818 62.7396 347.735 63.3462 347.57 64.201C350.768 62.0779 353.388 59.7894 355.401 56.8391C355.759 56.3152 355.842 55.9292 355.621 55.3502C354.463 52.2621 354.022 49.0361 354.546 45.755C354.822 44.0455 355.29 42.3911 355.676 40.7643C354.794 40.7368 353.829 40.7368 352.698 40.7368ZM359.757 30.8658C360.088 26.9505 359.564 23.3385 357.937 19.7265C356.889 21.629 355.483 23.0076 353.663 23.8072C351.899 24.5793 349.969 25.0204 348.177 25.5719C351.154 28.7427 355.235 30.0938 359.757 30.8658Z" fill="black"/>
<path d="M349.417 3.45878C356.09 1.72171 364.803 4.39624 368.966 12.0614C372.882 19.313 371.034 28.467 364.61 33.761C358.268 38.9722 348.893 38.9722 342.607 33.761C336.072 28.3568 334.804 19.4233 337.368 13.7433C338.471 15.9767 339.464 18.3755 340.815 20.5537C342.331 22.9525 344.013 25.2686 345.916 27.3641C349.445 31.2519 354.132 32.9062 359.178 33.568C360.06 33.6783 360.612 33.3474 361.08 32.4651C363.286 28.3843 362.79 24.276 361.329 20.2229C359.04 13.9363 354.987 8.80784 350.272 4.20323C349.996 3.98265 349.748 3.76208 349.417 3.45878Z" fill="#E2062D"/>
<path d="M387.44 37.5936C380.078 36.794 373.323 38.3932 367.257 42.5015C363.755 44.8727 361.301 48.1263 360.198 52.2897C360.143 52.5103 360.06 52.7033 359.95 52.8963C359.426 53.9441 359.509 54.5231 360.474 55.1573C365.464 58.2454 370.731 59.5964 376.549 57.9145C381.374 56.5083 385.537 53.8062 389.701 51.1317C390.39 50.6905 391.052 50.2218 391.741 49.7806C391.769 49.753 391.824 49.7806 391.962 49.8082C391.493 52.786 390.362 55.4605 388.625 57.8869C382.284 66.848 369.683 68.0612 362.376 60.3133C358.047 55.7363 357.027 50.1942 357.992 44.1007C358.378 41.5364 359.178 39.7442 362.018 38.8895C365.134 37.9244 367.56 35.6635 369.573 33.0992C370.014 32.5478 370.455 32.2996 371.199 32.2169C377.348 31.6379 382.366 34.4779 387.357 37.4281C387.385 37.4006 387.385 37.5108 387.44 37.5936Z" fill="#E2062D"/>
<path d="M387.909 34.5054C383.387 31.8585 378.948 29.377 373.433 29.5975C378.782 21.4361 384.986 14.2948 393.285 8.91815C394.747 18.2652 392.265 26.5646 387.909 34.5054Z" fill="#2D8F55"/>
<path d="M374.012 45.1209C374.205 40.8471 374.012 41.6192 377.155 40.792C378.975 40.2957 380.85 40.0751 382.697 39.827C383.166 39.7718 383.8 39.9924 384.186 40.2957C386.75 42.2809 387.578 45.1485 387.991 48.1539C388.102 48.981 387.771 49.6704 386.916 50.1391C384.572 51.4074 382.284 52.7585 379.94 54.0268C379.637 54.1922 379.058 54.1371 378.699 53.9717C374.756 52.1243 374.205 48.5399 374.012 45.1209Z" fill="#112830"/>
<path d="M346.77 22.7871C345.916 23.0076 345.226 22.5113 344.675 21.5739C343.572 19.7265 342.414 17.9343 341.338 16.0869C341.173 15.8112 341.09 15.2598 341.256 15.0116C343.324 11.9235 345.971 9.63498 349.693 8.83538C350.465 8.66994 351.016 8.78023 351.485 9.46954C352.505 10.9033 353.636 12.2819 354.656 13.7433C356.117 15.8664 355.924 17.9619 354.105 19.8092C352.147 21.7393 349.776 22.6768 346.77 22.7871Z" fill="#112830"/>
<path d="M342.331 40.3232C341.697 44.3763 341.063 48.3468 340.401 52.4827C335.328 51.1316 331.164 48.1538 327.194 44.6245C331.991 41.8121 336.955 40.2405 342.331 40.3232Z" fill="#2D8F55"/>
<path d="M341.421 36.9594C335.659 37.2351 330.089 38.531 325.622 43.1907C324.078 41.5088 322.562 39.8269 320.907 38.0623C321.735 37.4557 322.424 36.8766 323.196 36.4079C327.001 34.0091 331.109 32.4926 335.604 31.9963C336.513 31.886 337.12 32.079 337.754 32.8786C338.885 34.3124 340.208 35.6083 341.421 36.9594Z" fill="#2D8F55"/>
<path d="M371.779 42.6116C370.951 47.685 371.696 52.0414 375.721 55.3501C372.826 57.1699 364.913 55.7361 361.356 52.7032C363.7 48.2916 366.898 44.6796 371.779 42.6116Z" fill="white"/>
<path d="M373.654 24.5792C373.791 23.2005 374.04 22.0976 373.957 21.0223C373.764 18.8165 373.378 16.6383 373.102 14.46C373.075 14.1016 373.157 13.5226 373.378 13.3847C377.955 10.5448 382.697 8.0908 388.129 7.40148C388.874 7.31876 389.646 7.26362 390.473 7.31877C383.883 12.0337 378.231 17.6033 373.654 24.5792Z" fill="#2D8F55"/>
<path d="M344.868 60.5339C343.158 53.2823 344.73 46.2237 345.475 39.0825C346.908 39.496 348.314 39.8821 349.693 40.3508C349.886 40.4335 350.079 40.9574 350.052 41.2331C349.721 43.7146 349.583 46.2513 348.921 48.6501C347.846 52.5378 346.44 56.3153 345.171 60.1203C345.144 60.2581 345.006 60.3684 344.868 60.5339Z" fill="#2D8F55"/>
<path d="M352.698 40.7368H355.676C355.29 42.3911 354.821 44.0455 354.546 45.7274C354.022 49.0085 354.463 52.2345 355.621 55.3226C355.842 55.9016 355.759 56.2877 355.401 56.8115C353.388 59.7618 350.768 62.0503 347.57 64.1734C347.763 63.3186 347.846 62.712 348.011 62.133C349.004 59.1276 350.024 56.0946 351.044 53.0892C352.395 49.1464 353.691 45.1759 352.698 40.7368Z" fill="#2D8F55"/>
<path d="M359.757 30.8658C355.235 30.0938 351.182 28.7428 348.149 25.5443C349.941 24.9929 351.871 24.5517 353.636 23.7797C355.456 23.0077 356.862 21.6015 357.91 19.699C359.564 23.3661 360.088 26.9781 359.757 30.8658Z" fill="white"/>
<path d="M4.95792 269.489C4.72277 269.097 4.52681 268.862 4.37004 268.587C1.27388 263.806 -0.332982 258.593 0.372472 252.832C1.15631 246.483 4.52681 241.819 9.62176 238.214C12.0517 236.489 14.6775 235.274 17.5385 234.608C24.9066 232.844 31.2165 235 36.6642 240.016C38.1926 241.427 39.3684 243.191 40.6617 244.798C40.8185 244.994 40.9361 245.229 41.2104 245.582C41.3672 245.19 41.4848 244.955 41.5631 244.719C42.0726 243.544 42.7781 242.564 44.0322 242.094C45.2472 241.623 46.2662 242.094 46.6973 243.269C46.8932 243.779 47.0108 244.327 47.05 244.876C47.873 251.539 48.6569 258.162 49.4799 264.786C49.6367 265.961 49.2839 266.549 48.2258 267.059C47.9122 267.216 47.6379 267.411 47.3635 267.568C39.1724 272.977 30.9813 278.385 22.7902 283.794C22.5943 283.911 22.3983 284.068 22.2023 284.186C20.8306 285.244 20.5171 285.244 18.9886 284.342C13.345 281.089 7.74055 277.797 2.09692 274.544C1.58742 274.27 1.11712 273.917 0.686008 273.525C-0.215405 272.702 -0.215404 271.566 0.607626 270.664C1.46985 269.724 2.60641 269.449 3.82136 269.41C4.13489 269.489 4.44843 269.489 4.95792 269.489ZM11.1502 271.135C11.1894 270.704 11.1894 270.547 11.2286 270.351C11.6205 268.626 11.8165 266.863 12.4044 265.217C13.3058 262.669 15.7357 261.102 18.4007 261.18C19.6157 261.219 20.8698 261.572 22.0848 261.925C23.2997 262.277 24.3579 262.512 25.5337 261.768C26.7486 260.984 27.3757 260.004 27.3757 258.593C27.3757 258.201 27.3757 257.809 27.4149 257.418C27.8852 252.832 31.1773 250.324 35.2533 250.872C36.7425 251.068 38.2318 251.539 39.7211 251.852H40.0347C39.9563 251.46 39.8387 251.147 39.7995 250.794C39.2508 248.364 37.8791 246.326 36.3114 244.484C31.4516 238.801 25.4553 235.94 17.9304 237.312C14.8735 237.861 11.8557 238.762 9.54338 241.153C6.60398 244.171 4.29166 247.502 3.66459 251.813C2.72399 257.966 4.44843 263.375 8.13247 268.274C8.9163 269.293 10.0529 270.077 11.1502 271.135ZM44.189 246.013C44.1106 246.013 43.993 245.974 43.9146 245.974C43.8363 246.797 43.7579 247.62 43.7187 248.443C43.6403 249.658 43.7187 250.951 43.4835 252.127C43.0132 254.478 41.4064 255.223 39.1332 254.557C37.644 254.125 36.0371 253.851 34.5086 253.694C32.6274 253.498 31.0989 254.517 30.511 256.32C30.2367 257.143 30.1583 258.084 30.1583 258.946C30.1975 263.257 25.4945 266.353 21.6145 264.59C21.3401 264.472 21.0658 264.394 20.7914 264.276C18.0088 263.14 15.6181 264.237 14.8343 267.137C14.4424 268.587 14.2072 270.077 13.9721 271.527C13.7369 273.212 12.8747 274.192 11.1502 274.27C10.3664 274.309 9.58257 274.152 8.83792 273.917C7.89732 273.643 7.03509 273.133 6.13368 272.82C5.50661 272.585 4.84035 272.467 4.21328 272.271C4.21328 272.35 4.17408 272.428 4.17408 272.506C4.37004 272.624 4.566 272.742 4.76196 272.859C9.66095 275.603 14.5991 278.307 19.4589 281.05C20.0076 281.364 20.3995 281.364 20.9482 281.011C29.1001 275.603 37.252 270.233 45.4039 264.864C45.9526 264.511 46.1094 264.159 46.031 263.531C45.4431 257.966 44.8553 252.362 44.3066 246.797C44.2674 246.444 44.2282 246.248 44.189 246.013Z" fill="black"/>
<path d="M11.1503 271.135C10.0529 270.116 8.91638 269.293 8.13254 268.274C4.44851 263.414 2.68487 257.966 3.66467 251.813C4.33093 247.502 6.60406 244.21 9.54345 241.153C11.8558 238.762 14.8735 237.861 17.9305 237.312C25.4554 235.94 31.4909 238.801 36.3115 244.484C37.8792 246.326 39.2509 248.325 39.7996 250.794C39.878 251.108 39.9563 251.46 40.0347 251.852H39.7212C38.2319 251.5 36.7818 251.068 35.2533 250.873C31.1774 250.363 27.9244 252.871 27.415 257.418C27.3758 257.809 27.3758 258.201 27.3758 258.593C27.3758 260.004 26.7487 260.984 25.5337 261.768C24.358 262.513 23.2606 262.277 22.0849 261.925C20.8699 261.572 19.655 261.219 18.4008 261.18C15.6966 261.062 13.3059 262.669 12.4045 265.217C11.8166 266.863 11.5814 268.626 11.2287 270.351C11.2287 270.508 11.1895 270.704 11.1503 271.135ZM27.1406 244.798C27.3366 244.21 27.6109 243.661 27.6109 243.152C27.6109 242.407 27.1014 241.937 26.396 241.78C25.1418 241.427 23.8877 241.075 22.6335 240.879C21.5362 240.722 20.4388 240.761 19.3414 240.8C18.8319 240.8 18.1265 240.839 18.0089 241.545C17.8913 242.211 18.5576 242.407 19.0279 242.721C19.0671 242.721 19.0671 242.76 19.1063 242.76C21.2226 243.465 23.339 244.21 25.4554 244.876C25.8865 244.994 26.4352 244.837 27.1406 244.798ZM23.6133 250.402C23.4566 250.716 23.0255 251.264 22.8687 251.892C22.5552 252.95 22.3984 254.047 22.2024 255.105C22.0457 256.046 22.516 256.869 23.339 257.065C24.2012 257.3 25.1418 256.869 25.377 255.928C25.7297 254.4 25.9648 252.832 26.0824 251.264C26.1608 250.167 24.9067 249.618 23.6133 250.402ZM13.9329 251.304C15.3438 249.697 16.3628 248.09 16.8723 246.17C17.0683 245.464 16.5196 244.798 15.8533 244.602C15.1871 244.406 14.4816 244.68 14.1289 245.346C13.8154 245.934 13.541 246.522 13.3059 247.11C12.914 248.012 12.4828 248.913 12.2477 249.893C12.1693 250.285 12.4045 250.912 12.718 251.147C12.9531 251.382 13.541 251.264 13.9329 251.304ZM8.48527 249.383C7.74062 248.247 6.29053 248.286 5.89861 249.383C5.31073 251.068 5.15396 252.832 5.50669 254.596C5.66346 255.38 6.48649 255.536 6.99598 254.948C7.23113 254.674 7.46628 254.361 7.58386 254.008C7.97578 252.793 8.28931 251.539 8.60284 250.285C8.64204 249.932 8.52446 249.54 8.48527 249.383ZM29.8056 245.464C29.6881 245.738 29.3745 246.052 29.4137 246.326C29.4529 246.64 29.7665 247.149 30.0408 247.188C31.4909 247.463 32.9802 247.737 34.4303 247.816C35.2925 247.855 35.8412 247.11 35.8412 246.326C35.802 245.542 35.2533 244.915 34.3519 244.876C33.2545 244.876 32.1572 244.994 31.0598 245.072C30.6679 245.151 30.3151 245.346 29.8056 245.464ZM11.3071 256.438C10.2097 257.143 10.2097 258.084 11.2287 258.397C12.4436 258.789 13.737 258.985 14.9911 259.142C15.775 259.22 16.4412 258.554 16.5196 257.849C16.598 257.182 16.2453 256.438 15.5398 256.242C14.0505 255.772 12.5612 255.889 11.3071 256.438ZM6.83921 264.002C7.50547 264.668 8.13254 265.413 8.87719 266.04C9.46506 266.549 10.3273 266.432 10.8368 265.922C11.3071 265.413 11.4639 264.55 10.9152 264.08C9.7786 263.1 8.52446 262.199 7.23113 261.376C6.60406 260.984 6.01618 261.494 6.17295 262.277C6.29052 262.826 6.60406 263.375 6.83921 264.002Z" fill="#112830"/>
<path d="M44.189 246.013C44.2282 246.248 44.2674 246.483 44.2674 246.718C44.8553 252.283 45.4039 257.888 45.9918 263.453C46.0702 264.08 45.8742 264.433 45.3647 264.786C37.2128 270.155 29.0609 275.524 20.909 280.933C20.3603 281.285 19.9684 281.285 19.4197 280.972C14.5207 278.229 9.62175 275.524 4.72277 272.781C4.52681 272.663 4.33085 272.546 4.13489 272.428C4.13489 272.35 4.17408 272.271 4.17408 272.193C4.80115 272.389 5.46741 272.506 6.09448 272.742C6.99589 273.094 7.85811 273.565 8.79872 273.839C9.54336 274.074 10.3664 274.231 11.111 274.192C12.7963 274.153 13.6977 273.173 13.9329 271.448C14.1288 269.959 14.364 268.47 14.7951 267.059C15.6181 264.159 17.9696 263.061 20.7522 264.198C21.0266 264.315 21.3009 264.394 21.5753 264.511C25.4945 266.275 30.1583 263.179 30.1191 258.868C30.1191 258.005 30.1975 257.065 30.4718 256.242C31.0597 254.439 32.5882 253.42 34.4694 253.616C36.0371 253.773 37.6048 254.047 39.094 254.478C41.4064 255.144 42.974 254.4 43.4443 252.048C43.6795 250.873 43.6011 249.579 43.6795 248.364C43.7187 247.541 43.7971 246.718 43.8755 245.895C43.993 245.974 44.1106 245.974 44.189 246.013Z" fill="#FFAB1B"/>
<path d="M27.1405 244.798C26.4742 244.837 25.9255 244.994 25.4552 244.876C23.2997 244.21 21.2225 243.465 19.1061 242.76C19.08 242.76 19.0539 242.747 19.0277 242.721C18.5574 242.446 17.9304 242.25 18.0088 241.545C18.1263 240.839 18.7926 240.8 19.3413 240.8C20.4387 240.761 21.5752 240.722 22.6334 240.879C23.8875 241.075 25.1417 241.427 26.3958 241.78C27.1013 241.976 27.6108 242.446 27.6108 243.152C27.6108 243.661 27.2972 244.21 27.1405 244.798Z" fill="#36469D"/>
<path d="M23.6133 250.402C24.9066 249.579 26.1608 250.167 26.0824 251.304C25.9648 252.871 25.6905 254.439 25.3769 255.967C25.181 256.908 24.2012 257.378 23.339 257.104C22.5159 256.869 22.0064 256.085 22.2024 255.144C22.3984 254.047 22.5551 252.95 22.8687 251.931C23.0646 251.304 23.4565 250.755 23.6133 250.402Z" fill="#36469D"/>
<path d="M13.9329 251.304C13.541 251.304 12.9531 251.421 12.6788 251.186C12.3652 250.912 12.0909 250.285 12.2084 249.932C12.4436 248.991 12.8747 248.051 13.2666 247.149C13.5018 246.561 13.7761 245.934 14.0897 245.386C14.4424 244.719 15.1478 244.445 15.8141 244.641C16.4804 244.837 17.0291 245.503 16.8331 246.209C16.3628 248.051 15.3438 249.697 13.9329 251.304Z" fill="#36469D"/>
<path d="M8.48512 249.383C8.52431 249.579 8.68108 249.932 8.6027 250.245C8.28916 251.5 7.97563 252.715 7.58371 253.969C7.46614 254.321 7.23099 254.635 6.99583 254.909C6.44715 255.497 5.66331 255.34 5.50654 254.557C5.15382 252.793 5.31058 251.029 5.89846 249.344C6.29038 248.286 7.74048 248.247 8.48512 249.383Z" fill="#36469D"/>
<path d="M29.8055 245.464C30.315 245.307 30.6677 245.151 31.0597 245.111C32.157 244.994 33.2544 244.876 34.3518 244.915C35.2532 244.915 35.8019 245.582 35.8411 246.366C35.8803 247.149 35.2924 247.894 34.4302 247.855C32.9409 247.776 31.4908 247.502 30.0407 247.228C29.7663 247.189 29.4528 246.679 29.4136 246.366C29.3352 246.052 29.6487 245.738 29.8055 245.464Z" fill="#36469D"/>
<path d="M11.3071 256.438C12.5612 255.85 14.0505 255.772 15.5398 256.242C16.2452 256.438 16.598 257.183 16.5196 257.849C16.402 258.554 15.7749 259.22 14.9911 259.142C13.737 259.025 12.4436 258.789 11.2287 258.397C10.2489 258.084 10.2489 257.183 11.3071 256.438Z" fill="#36469D"/>
<path d="M6.83923 264.002C6.60408 263.375 6.32974 262.826 6.21217 262.238C6.0554 261.494 6.64328 260.945 7.27035 261.337C8.56368 262.16 9.77863 263.061 10.9544 264.041C11.5031 264.511 11.3463 265.413 10.876 265.883C10.3665 266.393 9.54347 266.51 8.9164 266.001C8.13257 265.413 7.5055 264.668 6.83923 264.002Z" fill="#36469D"/>
<path d="M37.8245 103.712C35.0515 102.795 34.1734 101.385 34.8406 98.8329C35.2024 97.4438 35.7332 96.0901 36.3851 94.8324C37.1924 93.2543 38.5999 92.3491 40.3969 92.1963C43.3606 91.9085 46.1805 92.5172 48.8315 93.8052C50.872 94.8065 51.8305 96.6753 51.3522 98.9577C51.0155 100.564 50.3136 102.102 49.666 103.634C49.2989 104.502 48.4443 104.958 47.4853 104.987C46.7736 105.014 46.591 105.337 46.4973 105.953C45.7358 111.018 44.9743 116.083 44.1826 121.123C43.6867 124.205 43.1366 127.293 42.5593 130.384C42.4238 131.115 42.6545 131.446 43.2954 131.757C44.9852 132.578 46.5821 133.548 47.7503 135.091C48.4936 136.049 49.4957 136.868 50.0313 137.934C51.988 141.777 52.0664 145.782 50.356 149.774C50.0932 150.354 50.0828 150.74 50.7122 151.19C53.0451 152.817 54.1749 155.216 54.495 157.984C55.065 162.675 53.4997 166.732 50.2604 170.104C43.8358 176.841 34.0113 179.38 24.865 174.471C18.6214 171.124 15.4965 165.739 15.3714 158.715C15.3173 155.394 16.2201 152.265 18.7888 149.988C19.8582 149.012 20.2953 148.274 19.9599 146.801C19.5043 144.764 19.8419 142.69 20.3788 140.676C20.9574 138.547 22.2676 136.801 23.7021 135.178C26.112 132.479 29.2267 130.882 32.6148 129.747C32.8528 129.665 33.077 129.227 33.151 128.916C34.3296 122.703 35.481 116.493 36.6293 110.256C36.9565 108.569 37.2263 106.86 37.5536 105.173C37.6025 104.645 37.7119 104.165 37.8245 103.712ZM47.1808 151.324C48.5983 148.603 48.682 145.761 48.2648 142.867C47.8968 140.16 46.9057 137.773 44.8494 135.921C44.0195 135.165 43.2251 134.239 41.9071 134.254C41.8508 134.481 41.8185 134.677 41.759 134.876C41.0234 138.976 40.3149 143.072 39.5521 147.174C39.3781 148.047 39.4837 148.722 39.9577 149.492C42.0541 152.879 40.6142 157.307 36.9475 158.886C34.4066 159.977 31.3874 159.309 29.5501 157.212C27.6189 155.016 27.3519 151.995 28.8425 149.43C29.1836 148.814 29.5758 148.163 29.7175 147.487C30.5897 142.904 31.4014 138.274 32.2434 133.667C32.2965 133.414 32.3194 133.136 32.3568 132.747C31.376 133.3 30.5455 133.726 29.7514 134.23C25.005 137.171 22.7468 141.419 22.8955 146.984C22.9009 147.506 22.9062 148.027 23.0441 148.506C23.182 148.985 23.1017 149.242 22.699 149.564C20.4934 151.413 19.0048 153.758 18.5924 156.61C17.8591 161.919 19.5927 166.447 23.7461 169.789C32.1738 176.568 43.3133 173.987 49.0091 166.18C51.4313 162.875 52.0961 159.114 50.3022 155.252C49.6047 153.738 49.1262 151.978 47.1808 151.324ZM36.4818 146.54C36.5412 146.34 36.5766 146.171 36.612 146.002C37.7884 139.295 38.9074 132.567 40.1411 125.88C41.4686 118.578 42.8838 111.32 44.2687 104.039C44.5073 102.774 45.2303 101.893 46.5066 101.993C46.6997 101.998 47.067 101.845 47.1295 101.673C47.5321 100.637 47.9346 99.6005 48.2224 98.5224C48.409 97.7584 48.0831 97.0813 47.3066 96.7861C45.237 96.0082 43.1382 95.4536 40.9311 95.6264C40.3853 95.662 39.633 96.0515 39.3816 96.493C38.7892 97.5513 38.3752 98.7265 37.9612 99.9017C37.7589 100.53 38.0982 100.848 38.7411 100.939C40.6634 101.156 41.2856 102.019 40.9595 103.954C40.6542 105.832 40.3187 107.685 40.0135 109.563C38.0747 121.802 35.8824 133.989 32.9867 146.037C32.9481 146.179 32.8792 146.296 32.8167 146.469C33.5555 146.438 34.1253 146.372 34.7045 146.388C35.2471 146.325 35.8118 146.452 36.4818 146.54ZM36.4612 155.395C37.8885 154.186 38.1113 152.07 36.9619 150.691C35.7155 149.185 33.4852 148.921 32.1091 150.097C30.6338 151.368 30.3662 153.571 31.5156 154.95C32.762 156.456 34.9557 156.642 36.4612 155.395Z" fill="black"/>
<path d="M47.1807 151.324C49.1262 151.978 49.6046 153.738 50.3021 155.252C52.096 159.114 51.4281 162.848 49.009 166.18C43.3163 174.014 32.1737 176.568 23.746 169.789C19.6229 166.472 17.8622 161.946 18.5923 156.61C18.9776 153.761 20.4964 151.441 22.6989 149.564C23.0745 149.245 23.1819 148.985 23.044 148.506C22.9062 148.027 22.928 147.502 22.8955 146.984C22.7468 141.42 25.0049 137.172 29.7514 134.23C30.5454 133.726 31.4031 133.297 32.3568 132.747C32.2922 133.139 32.2693 133.417 32.2433 133.667C31.4014 138.274 30.5865 142.877 29.7175 147.487C29.5757 148.163 29.2107 148.81 28.8424 149.43C27.3519 151.995 27.6188 155.016 29.55 157.212C31.3842 159.282 34.4066 159.977 36.9474 158.886C40.6141 157.307 42.0541 152.879 39.9576 149.492C39.4836 148.722 39.3749 148.02 39.5521 147.174C40.3148 143.072 41.0233 138.976 41.759 134.876C41.7913 134.68 41.8507 134.481 41.907 134.254C43.2522 134.236 44.0195 135.165 44.8493 135.921C46.9057 137.773 47.8998 140.187 48.2648 142.867C48.6548 145.764 48.5982 148.603 47.1807 151.324Z" fill="#2D8F55"/>
<path d="M36.4818 146.54C35.8118 146.452 35.2471 146.325 34.6951 146.306C34.1159 146.291 33.5461 146.357 32.8073 146.387C32.8698 146.215 32.9387 146.097 32.9773 145.955C35.873 133.907 38.0653 121.721 40.0041 109.481C40.3093 107.604 40.6448 105.75 40.9501 103.873C41.2762 101.938 40.654 101.075 38.7317 100.857C38.0919 100.794 37.7224 100.452 37.9518 99.8202C38.3689 98.6722 38.7526 97.473 39.3722 96.4115C39.6236 95.97 40.3759 95.5806 40.9217 95.5449C43.1288 95.3721 45.2579 95.9507 47.2972 96.7047C48.0737 96.9998 48.3995 97.677 48.213 98.4409C47.9252 99.519 47.5227 100.555 47.1201 101.592C47.0576 101.764 46.7174 101.913 46.4972 101.911C45.1969 101.842 44.4979 102.692 44.2593 103.957C42.8744 111.239 41.4624 118.523 40.1317 125.799C38.898 132.485 37.779 139.213 36.6026 145.921C36.5735 146.144 36.5109 146.316 36.4818 146.54Z" fill="#FFAB1B"/>
<path d="M36.4613 155.395C34.9829 156.639 32.7621 156.456 31.5188 154.977C30.3694 153.598 30.6099 151.398 32.1123 150.125C33.4885 148.948 35.7187 149.212 36.9651 150.718C38.1113 152.07 37.8886 154.186 36.4613 155.395Z" fill="#112830"/>
<path d="M36.4665 371.715C36.2497 370.521 36.6069 369.691 37.7354 369.172C38.1624 368.975 38.4631 368.504 38.8644 368.172C40.5966 366.635 42.7945 366.03 44.9339 365.378C45.4499 365.214 45.9355 365.065 46.3765 364.899C46.4782 364.076 46.5189 363.281 46.7072 362.566C47.3075 360.257 49.1172 358.647 51.1621 358.593C53.2375 358.525 55.2316 360.046 55.9703 362.294C56.1223 362.704 56.3025 363.176 56.2739 363.596C56.2729 364.557 56.941 364.804 57.6304 364.856C58.831 364.895 59.4729 365.487 59.8094 366.699C61.3808 366.419 62.5853 367.27 63.7946 367.97C64.2071 368.223 64.5653 368.761 64.7009 369.216C65.2198 370.825 65.6778 372.462 66.0302 374.111C67.7618 382.37 69.4325 390.656 71.1171 398.974C71.1684 399.246 71.2198 399.518 71.2851 399.82C71.8801 402.799 72.2606 402.18 69.594 404.739C69.1598 405.16 68.8615 405.556 68.7952 406.215C68.6219 408.328 67.4174 409.806 65.66 410.726C60.646 413.404 55.2301 414.566 49.5906 414.279C47.3254 414.176 45.495 413.17 44.4067 411.047C44.3225 410.864 44.0576 410.69 43.8349 410.608C43.0332 410.311 42.262 410.001 41.4439 409.749C40.7008 409.5 40.2815 408.991 40.1252 408.25C37.968 398.745 35.7804 389.255 33.6092 379.72C33.4107 378.888 33.2568 378.071 33.1639 377.227C32.8308 374.978 34.0406 372.869 36.1146 371.914C36.1616 371.855 36.314 371.785 36.4665 371.715ZM35.8638 376.428C36.2815 378.379 36.6853 380.3 37.1476 382.268C38.9267 389.988 40.7362 397.693 42.4097 405.424C42.7622 407.073 43.5518 407.744 45.0923 407.959C49.8332 408.623 54.5631 408.7 59.168 407.061C62.1473 405.986 64.9838 404.68 67.5394 402.764C68.3867 402.116 68.6641 401.433 68.4448 400.315C66.4939 390.937 64.6344 381.518 62.7586 372.143C62.67 371.629 62.5814 371.115 62.4788 370.571C54.2003 375.713 45.3036 377.664 35.8638 376.428ZM58.1227 367.291C57.0973 367.874 56.1092 368.698 55.002 369.023C51.7415 369.969 48.4553 370.78 45.127 371.499C42.8424 371.996 40.4736 372.31 38.16 371.379C38.4166 372.739 38.3885 372.678 37.138 373.254C36.7415 373.437 36.4268 373.877 36.0865 374.182L36.2128 374.456C40.5927 375.138 45.0296 374.981 49.3126 374.007C53.4596 373.06 57.4923 371.462 61.1625 368.996C60.551 368.391 60.0001 368.238 59.3175 368.441C58.6513 368.6 58.2084 368.36 58.2021 367.624C58.1929 367.443 58.1367 367.321 58.1227 367.291ZM66.3814 406.994C60.3095 409.862 53.8804 411.232 47.1337 411.27C48.0245 411.599 48.9458 411.914 49.8627 411.899C54.3394 411.908 58.6809 410.982 62.8637 409.389C64.2033 408.846 65.5569 408.334 66.3814 406.994ZM40.7036 369.839C45.8227 369.959 50.4741 368.742 54.9692 366.783C50.0679 366.896 45.3933 367.902 40.7036 369.839ZM53.3329 363.951C53.3203 362.479 52.2194 361.211 51.0304 361.278C49.9164 361.347 48.984 362.774 49.0668 364.4C50.4833 364.265 51.8858 364.1 53.3329 363.951Z" fill="black"/>
<path d="M35.8638 376.428C45.3037 377.664 54.2004 375.713 62.4788 370.571C62.5815 371.115 62.6395 371.643 62.7586 372.143C64.6485 381.548 66.4939 390.937 68.4448 400.315C68.6641 401.433 68.3867 402.116 67.5395 402.764C64.9838 404.68 62.1474 405.986 59.1681 407.061C54.5631 408.7 49.8638 408.609 45.0923 407.959C43.5519 407.744 42.7763 407.103 42.4098 405.424C40.7363 397.693 38.9127 389.957 37.1477 382.268C36.6854 380.3 36.2816 378.379 35.8638 376.428Z" fill="#E2062D"/>
<path d="M58.1227 367.291C58.1227 367.291 58.1929 367.443 58.188 367.593C58.2084 368.36 58.6513 368.6 59.3034 368.411C60.0001 368.238 60.551 368.391 61.1484 368.966C57.4783 371.431 53.4456 373.029 49.2986 373.977C45.0156 374.95 40.5786 375.108 36.1988 374.426L36.0724 374.151C36.4433 373.832 36.7275 373.406 37.124 373.223C38.3885 372.678 38.4025 372.709 38.1459 371.348C40.4595 372.279 42.8284 371.965 45.1129 371.468C48.4412 370.749 51.7274 369.939 54.988 368.992C56.1537 368.715 57.1113 367.904 58.1227 367.291Z" fill="#FFAB1B"/>
<path d="M66.3813 406.994C65.5709 408.365 64.2032 408.846 62.8942 409.375C58.7114 410.968 54.3698 411.894 49.8931 411.885C48.9762 411.9 48.055 411.585 47.1642 411.256C53.8804 411.232 60.279 409.876 66.3813 406.994Z" fill="white"/>
<path d="M40.7035 369.839C45.3932 367.902 50.0679 366.896 54.9691 366.783C50.474 368.742 45.8226 369.959 40.7035 369.839Z" fill="white"/>
<path d="M53.3328 363.951C51.9304 364.116 50.5138 364.251 49.0808 364.43C48.9981 362.805 49.9305 361.378 51.0444 361.309C52.1889 361.225 53.2898 362.493 53.3328 363.951Z" fill="#2D8F55"/>
<path d="M383.139 420.656C383.139 408.162 393.301 397.931 405.62 398C410.458 398.035 414.738 399.636 418.497 402.664C432.347 413.73 428.484 435.028 412.65 441.327C400.365 446.199 386.863 439.065 383.835 426.119C383.417 424.344 383.278 422.5 383 420.69C383.035 420.656 383.069 420.656 383.139 420.656ZM400.783 440.457C400.748 440.457 400.748 440.422 400.783 440.457C404.333 441.188 407.813 440.91 411.223 439.692C411.362 439.622 411.502 439.518 411.606 439.344C412.65 437.499 413.694 435.62 414.738 433.775C414.877 433.497 414.912 433.358 414.738 433.114C413.485 431.131 412.232 429.112 410.945 427.129C410.84 426.989 410.632 426.85 410.458 426.85C407.36 426.781 404.228 426.746 401.131 426.711C400.992 426.711 400.748 426.815 400.713 426.955C399.948 429.182 398.591 431.096 397.338 433.045C397.233 433.184 397.233 433.462 397.303 433.601C398.277 435.376 399.287 437.116 400.261 438.856C400.47 439.344 400.574 439.866 400.783 440.457ZM417.139 432.627C418.357 432.488 419.61 432.314 420.898 432.14C421.037 432.105 421.211 432.001 421.281 431.861C423.995 427.755 425.178 423.231 424.761 418.324C424.761 418.15 424.621 417.976 424.517 417.837C424.169 417.489 423.786 417.176 423.473 416.793C422.777 415.958 422.151 415.087 421.489 414.217C421.281 413.939 421.072 413.73 420.724 414.078C419.262 415.47 417.452 416.41 415.678 417.35C415.016 417.698 414.529 418.08 414.425 418.846C414.355 419.264 414.181 419.646 414.007 419.994C413.207 421.734 412.546 423.474 412.267 425.389C412.232 425.528 412.198 425.702 412.128 425.841C411.884 426.154 412.058 426.328 412.267 426.607C413.903 428.59 415.504 430.609 417.139 432.627ZM386.062 427.546C386.48 427.616 386.828 427.651 387.141 427.79C389.368 428.834 391.561 429.878 393.753 430.957C394.31 431.235 394.832 431.548 395.319 431.792C396.676 429.947 397.999 428.138 399.356 426.328C399.217 426.085 399.043 425.771 398.939 425.458C398.173 423.474 397.407 421.491 396.676 419.507C396.502 419.055 396.294 418.846 395.806 418.811C395.458 418.776 395.076 418.602 394.762 418.463C393.022 417.593 391.317 416.688 389.612 415.818C388.533 417.176 387.385 418.602 386.201 420.029C385.923 420.377 385.505 420.621 385.157 420.934C385.088 421.004 384.983 421.143 384.983 421.247C385.018 423.44 385.366 425.563 386.062 427.546ZM405.481 403.429L405.481 409.171C405.481 409.311 405.655 409.45 405.759 409.554C406.977 410.459 408.23 411.364 409.483 412.269C410.84 413.278 412.198 414.287 413.555 415.331C413.833 415.54 414.077 415.575 414.425 415.401C415.26 414.948 416.06 414.565 416.896 414.148C417.94 413.626 418.984 413.139 420.063 412.582C419.541 411.329 419.019 410.076 418.531 408.858C417.975 407.397 417.383 405.97 416.93 404.473C416.756 403.986 416.582 403.673 416.165 403.394C415.747 403.116 415.364 402.942 414.877 403.22C414.668 403.325 414.355 403.29 414.112 403.255C411.223 402.803 408.37 403.151 405.481 403.429ZM401.34 425.006C402.801 424.901 404.193 424.727 405.585 424.658C406.908 424.588 408.23 424.553 409.553 424.518C409.901 424.518 410.075 424.379 410.144 424.031C410.388 422.256 411.119 420.621 412.024 419.09C412.267 418.672 412.511 418.254 412.685 417.906C409.936 415.644 407.221 413.382 404.541 411.225C402.558 413.452 400.505 415.784 398.417 418.08C398.208 418.324 398.243 418.463 398.382 418.742C399.078 419.994 399.739 421.282 400.365 422.57C400.783 423.335 401.061 424.205 401.34 425.006ZM390.76 414.461C392.292 415.053 393.753 415.61 395.215 416.201C396.12 416.596 396.92 416.445 397.616 415.749C399.6 413.8 401.583 411.851 403.567 409.902C403.637 409.833 403.706 409.659 403.706 409.554C403.184 407.988 403.393 406.353 403.323 404.752C403.323 404.578 403.289 404.404 403.289 404.195C402.558 404.299 401.862 404.369 401.201 404.508C398.591 404.995 396.015 405.483 393.44 406.005C393.301 406.039 393.162 406.248 393.092 406.387C392.709 407.849 392.396 409.311 392.013 410.737C391.63 411.99 391.178 413.243 390.76 414.461ZM397.929 439.692C397.79 439.378 397.721 439.239 397.651 439.1C396.746 437.29 395.841 435.481 394.902 433.671C394.867 433.567 394.728 433.497 394.588 433.427C392.396 432.523 390.204 431.653 388.011 430.783C387.837 430.713 387.663 430.643 387.524 430.609C389.821 434.889 393.266 437.847 397.929 439.692ZM391.352 405.97C388.603 407.814 384.844 415.505 385.227 418.602C386.132 417.593 387.002 416.654 387.837 415.714C388.324 415.157 388.951 414.705 388.846 413.835C388.846 413.765 388.881 413.661 388.916 413.556C389.612 411.433 390.308 409.311 390.969 407.223C391.074 406.805 391.213 406.422 391.352 405.97ZM393.057 404.404C393.231 404.473 393.266 404.473 393.301 404.473C396.433 403.394 399.6 402.594 402.871 402.142C403.01 402.142 403.149 401.933 403.184 401.828C403.254 401.341 403.289 400.854 403.323 400.297C399.495 400.645 396.12 402.002 393.057 404.404ZM419.471 434.402C419.436 434.332 419.367 434.297 419.332 434.228C418.531 434.123 417.731 434.019 416.93 433.984C416.791 433.984 416.548 434.193 416.443 434.332C416.13 434.959 415.921 435.655 415.643 436.316C415.434 436.838 415.156 437.325 414.947 437.812C415.016 437.882 415.086 437.917 415.121 437.986C416.582 436.768 418.044 435.585 419.471 434.402ZM420.167 406.979C420.933 408.754 421.733 410.32 422.255 411.99C422.533 412.93 423.229 413.243 423.821 413.8C423.09 411.294 421.907 409.067 420.167 406.979ZM409.936 400.75C409.936 400.715 409.97 400.68 409.97 400.645C408.613 400.506 407.256 400.332 405.899 400.193C405.794 400.193 405.62 400.262 405.62 400.332C405.481 400.715 405.411 401.132 405.307 401.48C406.908 401.237 408.439 400.993 409.936 400.75Z" fill="black"/>
<path d="M400.783 440.457C400.574 439.831 400.435 439.309 400.191 438.856C399.217 437.082 398.208 435.342 397.233 433.601C397.164 433.462 397.164 433.184 397.268 433.045C398.521 431.096 399.878 429.182 400.644 426.955C400.679 426.85 400.922 426.711 401.061 426.711C404.159 426.746 407.291 426.781 410.388 426.85C410.562 426.85 410.771 426.989 410.875 427.129C412.128 429.112 413.381 431.131 414.668 433.114C414.842 433.358 414.842 433.532 414.668 433.775C413.624 435.62 412.58 437.499 411.536 439.344C411.467 439.483 411.328 439.622 411.154 439.692C407.813 440.91 404.367 441.188 400.783 440.457Z" fill="#2D8F55"/>
<path d="M417.139 432.627C415.504 430.609 413.903 428.59 412.267 426.572C412.058 426.328 411.884 426.154 412.128 425.806C412.232 425.702 412.267 425.528 412.267 425.354C412.546 423.44 413.207 421.7 414.007 419.96C414.181 419.577 414.355 419.194 414.425 418.811C414.529 418.011 415.016 417.628 415.678 417.315C417.453 416.41 419.262 415.47 420.724 414.043C421.072 413.73 421.281 413.904 421.489 414.183C422.151 415.053 422.777 415.923 423.473 416.758C423.786 417.141 424.169 417.454 424.517 417.802C424.621 417.941 424.761 418.115 424.761 418.289C425.143 423.196 423.995 427.72 421.281 431.827C421.211 431.966 421.037 432.07 420.898 432.105C419.645 432.314 418.357 432.488 417.139 432.627Z" fill="#2D8F55"/>
<path d="M386.062 427.546C385.331 425.563 385.018 423.44 384.949 421.247C384.949 421.143 385.053 421.004 385.123 420.934C385.471 420.621 385.888 420.377 386.167 420.029C387.35 418.637 388.463 417.176 389.577 415.818C391.248 416.688 392.988 417.558 394.728 418.463C395.076 418.637 395.424 418.811 395.772 418.811C396.259 418.846 396.468 419.09 396.642 419.507C397.372 421.491 398.138 423.475 398.904 425.458C399.008 425.771 399.217 426.05 399.321 426.328C397.999 428.138 396.676 429.947 395.284 431.792C394.797 431.548 394.275 431.2 393.718 430.957C391.526 429.878 389.333 428.834 387.106 427.79C386.863 427.651 386.48 427.651 386.062 427.546Z" fill="#2D8F55"/>
<path d="M405.481 403.429C408.37 403.151 411.223 402.803 414.112 403.22C414.355 403.255 414.668 403.29 414.877 403.186C415.399 402.942 415.747 403.116 416.165 403.36C416.583 403.638 416.791 403.951 416.93 404.438C417.418 405.9 417.975 407.362 418.531 408.823C419.019 410.076 419.541 411.294 420.063 412.547C418.984 413.069 417.94 413.591 416.896 414.113C416.06 414.531 415.225 414.913 414.425 415.366C414.112 415.54 413.868 415.54 413.555 415.296C412.198 414.252 410.84 413.243 409.483 412.234C408.265 411.329 407.012 410.424 405.759 409.519C405.62 409.415 405.481 409.276 405.481 409.136L405.481 403.429Z" fill="#2D8F55"/>
<path d="M401.34 425.006C401.026 424.205 400.748 423.335 400.365 422.535C399.739 421.247 399.078 419.96 398.382 418.707C398.242 418.428 398.208 418.289 398.416 418.045C400.504 415.749 402.558 413.452 404.541 411.19C407.186 413.382 409.901 415.609 412.685 417.871C412.511 418.219 412.267 418.637 412.023 419.055C411.119 420.621 410.423 422.222 410.144 423.996C410.109 424.344 409.935 424.484 409.553 424.484C408.23 424.518 406.908 424.553 405.585 424.623C404.228 424.727 402.836 424.866 401.34 425.006Z" fill="#36469D"/>
<path d="M390.76 414.461C391.143 413.243 391.63 411.99 391.978 410.737C392.396 409.31 392.674 407.849 393.057 406.387C393.092 406.248 393.266 406.039 393.405 406.004C395.98 405.482 398.59 404.995 401.166 404.508C401.827 404.369 402.523 404.299 403.254 404.195C403.289 404.404 403.289 404.578 403.289 404.752C403.358 406.352 403.149 407.988 403.671 409.554C403.706 409.658 403.637 409.832 403.532 409.902C401.549 411.851 399.565 413.8 397.581 415.749C396.502 416.793 396.537 416.793 395.18 416.201C393.753 415.609 392.292 415.053 390.76 414.461Z" fill="#2D8F55"/>
<path d="M397.929 439.692C393.266 437.882 389.856 434.889 387.524 430.574C387.698 430.643 387.872 430.678 388.011 430.748C390.204 431.618 392.396 432.523 394.588 433.393C394.693 433.427 394.832 433.532 394.902 433.636C395.841 435.446 396.746 437.256 397.651 439.065C397.721 439.204 397.79 439.378 397.929 439.692Z" fill="#36469D"/>
<path d="M391.352 405.97C391.213 406.422 391.108 406.805 390.969 407.188C390.273 409.311 389.612 411.433 388.916 413.521C388.881 413.626 388.811 413.73 388.846 413.8C388.985 414.67 388.324 415.122 387.837 415.679C387.002 416.619 386.132 417.558 385.227 418.568C384.844 415.54 388.603 407.814 391.352 405.97Z" fill="#36469D"/>
<path d="M393.057 404.404C396.12 402.002 399.495 400.68 403.323 400.262C403.289 400.819 403.254 401.306 403.184 401.794C403.184 401.933 403.01 402.107 402.871 402.107C399.6 402.559 396.398 403.36 393.301 404.439C393.266 404.473 393.196 404.439 393.057 404.404Z" fill="#36469D"/>
<path d="M419.471 434.402C418.044 435.585 416.582 436.803 415.121 437.986C415.051 437.917 414.982 437.882 414.947 437.812C415.19 437.29 415.434 436.803 415.643 436.316C415.921 435.655 416.165 434.994 416.443 434.332C416.513 434.158 416.756 433.95 416.93 433.984C417.731 434.019 418.531 434.158 419.332 434.228C419.401 434.263 419.436 434.332 419.471 434.402Z" fill="#36469D"/>
<path d="M420.167 406.979C421.907 409.067 423.09 411.329 423.821 413.8C423.229 413.243 422.568 412.895 422.255 411.99C421.768 410.285 420.933 408.719 420.167 406.979Z" fill="#36469D"/>
<path d="M409.936 400.75C408.439 400.993 406.908 401.202 405.307 401.446C405.377 401.098 405.481 400.68 405.62 400.297C405.655 400.228 405.794 400.158 405.899 400.158C407.256 400.297 408.613 400.471 409.97 400.61C409.97 400.68 409.936 400.715 409.936 400.75Z" fill="#36469D"/>
<path d="M86.958 780.182C87.2774 780.84 87.5217 781.46 87.8786 782.042C88.5362 783.076 88.4987 784.504 87.5968 785.33C86.5071 786.307 85.361 787.265 84.1021 787.961C80.8705 789.764 77.6013 791.53 74.0691 792.695C71.3071 793.616 68.47 794.123 65.5578 794.217C63.6977 794.274 61.9128 793.954 60.1843 793.315C59.9212 793.203 59.6582 793.015 59.4891 792.808C55.2992 787.529 51.4852 781.986 49.0239 775.654C48.8548 775.184 48.6857 774.715 48.5542 774.245C47.859 772.009 48.1972 769.98 49.6063 768.082C51.3536 765.696 53.5331 763.78 55.9381 762.126C62.1759 757.767 68.9585 754.555 76.4364 752.901C77.9771 752.563 79.5553 752.413 81.1335 752.262C84.4403 751.962 87.0519 753.145 89.006 755.889C92.2376 760.398 94.605 765.32 96.1832 770.619C96.916 773.08 96.5026 775.523 95.8826 777.909C95.6383 778.867 94.6613 779.468 93.6279 779.6C91.58 779.844 89.5132 779.994 87.4277 780.201C87.2774 780.126 87.1459 780.145 86.958 780.182ZM51.3536 775.354C51.3912 775.466 51.4288 775.541 51.4664 775.654C54.078 781.084 57.2721 786.157 60.8983 790.948C61.1425 791.267 61.5934 791.531 61.988 791.587C65.2572 792.075 68.4137 791.512 71.5702 790.723C75.3279 789.783 78.7286 787.961 82.1481 786.232C83.2003 785.706 84.1773 784.955 85.1731 784.297C85.5113 784.071 85.5677 783.827 85.3798 783.451C84.6658 782.136 83.9518 780.783 83.2754 779.431C81.5845 775.936 79.8935 772.441 78.2213 768.928C77.9958 768.439 77.8455 767.913 77.6576 767.387C77.451 767.481 77.3195 767.537 77.188 767.631C74.9709 768.834 72.829 770.224 70.5368 771.239C64.4681 773.926 58.2866 776.237 51.3536 775.354ZM74.9897 766.335C72.5472 765.546 70.2174 764.794 67.8312 764.062C67.3427 763.911 66.9106 763.742 66.8354 763.179C66.7415 762.596 67.0421 762.22 67.5494 762.014C68.0003 761.826 68.4888 761.675 68.9585 761.582C73.6933 760.717 78.4092 759.872 83.1439 759.083C84.0646 758.914 84.5531 758.538 84.8912 757.711C85.6052 755.983 85.267 755.269 83.407 754.874C83.313 754.855 83.1815 754.799 83.0875 754.818C81.6784 754.836 80.288 754.724 78.9165 754.93C73.5429 755.682 68.5452 757.673 63.7165 760.097C60.2406 761.845 56.9338 763.874 53.984 766.448C52.6313 767.613 51.3537 768.89 50.6209 770.562C50.0197 771.953 50.3954 772.742 51.8609 773.155C52.1052 773.212 52.3494 773.306 52.5749 773.306C53.8337 773.287 55.1114 773.4 56.3514 773.212C62.9462 772.291 68.921 769.661 74.7078 766.542C74.8394 766.523 74.8957 766.467 74.9897 766.335ZM91.8806 777.289C91.7303 776.988 91.6176 776.763 91.5236 776.556C88.9684 771.709 86.4131 766.861 83.8767 761.995C83.67 761.6 83.4258 761.657 83.1064 761.713C80.1753 762.202 77.2255 762.709 74.2945 763.197C74.1254 763.216 73.9563 763.272 73.6557 763.348C73.9187 763.46 74.0502 763.517 74.2006 763.554C75.4218 763.911 76.6055 764.268 77.8455 764.606C78.3716 764.757 78.7474 765.02 78.9916 765.527C79.3298 766.241 79.7996 766.899 80.1753 767.613C81.8475 770.675 83.5573 773.738 85.2295 776.8C85.4925 777.289 85.6428 778.04 86.0561 778.228C86.4883 778.435 87.1459 778.115 87.7095 778.003C89.0623 777.815 90.4151 777.552 91.8806 777.289ZM87.8223 757.673C87.3526 758.444 86.958 759.101 86.5447 759.74C86.1125 760.435 86.1125 760.849 86.5822 761.506C86.9392 761.976 87.2962 762.446 87.5592 762.972C89.5884 766.73 91.6176 770.487 93.6279 774.226C93.7407 774.452 93.8534 774.677 93.9661 774.903C94.3795 773.587 94.2667 772.31 93.8158 771.145C92.463 767.725 91.0915 764.325 89.6448 760.924C89.1563 759.797 88.4423 758.782 87.8223 757.673Z" fill="black"/>
<path d="M51.3536 775.354C58.2678 776.255 64.4493 773.944 70.518 771.22C72.8102 770.205 74.9521 768.815 77.1691 767.613C77.3007 767.556 77.4509 767.481 77.6388 767.368C77.8455 767.913 77.977 768.421 78.2025 768.909C79.8747 772.423 81.5656 775.917 83.2566 779.412C83.9142 780.783 84.6282 782.099 85.3609 783.433C85.5676 783.827 85.53 784.053 85.1543 784.278C84.1397 784.917 83.2003 785.668 82.1293 786.213C78.7098 787.942 75.3091 789.764 71.5513 790.704C68.3949 791.493 65.2384 792.057 61.9692 791.568C61.5746 791.512 61.1237 791.249 60.8794 790.929C57.2344 786.157 54.0216 781.065 51.4476 775.635C51.4476 775.56 51.4288 775.466 51.3536 775.354Z" fill="#FFAB1B"/>
<path d="M74.9897 766.335C74.877 766.448 74.8394 766.523 74.783 766.542C68.9961 769.661 63.0213 772.291 56.4266 773.212C55.1865 773.4 53.9089 773.287 52.6501 773.306C52.4246 773.306 52.1616 773.23 51.9361 773.155C50.4706 772.742 50.076 771.934 50.6961 770.562C51.4288 768.89 52.6876 767.631 54.0592 766.448C57.009 763.874 60.297 761.826 63.7917 760.097C68.6203 757.673 73.5993 755.701 78.9917 754.93C80.3632 754.724 81.7724 754.855 83.1815 754.836C83.2942 754.836 83.407 754.874 83.5009 754.893C85.361 755.287 85.6992 756.001 84.9852 757.73C84.647 758.557 84.1397 758.951 83.2379 759.101C78.5031 759.891 73.7684 760.755 69.0525 761.6C68.564 761.675 68.0943 761.845 67.6434 762.032C67.1361 762.239 66.8542 762.634 66.9294 763.197C67.0046 763.761 67.4367 763.93 67.9252 764.08C70.2174 764.794 72.566 765.565 74.9897 766.335Z" fill="#FFAB1B"/>
<path d="M91.8807 777.289C90.4152 777.552 89.0436 777.796 87.6908 778.022C87.1272 778.134 86.4508 778.435 86.0374 778.247C85.6241 778.059 85.4926 777.326 85.2107 776.819C83.5386 773.757 81.8476 770.675 80.1566 767.631C79.7621 766.936 79.3299 766.279 78.9729 765.546C78.7287 765.039 78.3529 764.776 77.8268 764.625C76.6056 764.306 75.4031 763.93 74.1819 763.573C74.0315 763.536 73.9 763.479 73.637 763.366C73.9376 763.291 74.1067 763.235 74.2758 763.216C77.2068 762.728 80.1566 762.22 83.0876 761.732C83.407 761.675 83.6513 761.619 83.858 762.014C86.3944 766.88 88.9685 771.709 91.5049 776.575C91.6364 776.781 91.7304 776.988 91.8807 777.289Z" fill="#FFAB1B"/>
<path d="M87.8223 757.673C88.4423 758.782 89.1375 759.815 89.626 760.943C91.0539 764.325 92.4443 767.744 93.797 771.164C94.2668 772.347 94.3795 773.587 93.9474 774.921C93.8346 774.696 93.7219 774.47 93.6092 774.245C91.58 770.487 89.5884 766.73 87.5404 762.991C87.2586 762.483 86.9016 762.014 86.5635 761.525C86.1125 760.886 86.0937 760.454 86.5259 759.759C86.958 759.101 87.3526 758.444 87.8223 757.673Z" fill="#FFAB1B"/>
<path d="M28.7483 692.235C26.0859 691.428 23.4231 690.67 20.7801 689.825C20.1409 689.619 19.5514 689.174 19.0674 688.711C18.2509 687.958 17.7898 687.026 17.9242 685.822C18.3964 681.932 18.8306 678.023 19.2741 674.142C19.7374 670.176 20.2008 666.21 20.6738 662.224C20.9919 659.625 21.3291 657.035 21.6472 654.436C21.7394 653.69 22.1455 653.177 22.7323 652.78C24.5606 651.504 26.6395 651.148 28.7813 651.28C34.375 651.614 39.8193 652.663 45.0741 654.649C46.7049 655.265 48.1031 656.243 49.2205 657.63C50.016 658.612 50.1511 659.618 49.8161 660.792C47.8459 667.663 45.8947 674.545 43.9436 681.426C43.0962 684.404 42.2013 687.333 41.373 690.321C40.9392 691.877 39.8798 692.729 38.4048 692.937C37.0162 693.116 35.5525 693.114 34.1573 692.93C32.3701 692.714 30.6327 692.26 28.8658 691.911C28.8172 692.006 28.7779 692.13 28.7483 692.235ZM46.2671 665.392C45.319 665.509 44.4662 665.674 43.6049 665.715C38.6955 665.923 34.0099 664.516 29.2733 663.491C27.0483 663.004 24.9222 662.135 23.0209 660.684C22.9593 661.181 22.8893 661.554 22.8573 661.946C22.2176 667.575 21.5681 673.224 20.9377 678.882C20.6496 681.329 20.3615 683.775 20.1114 686.242C20.0803 686.538 20.2019 686.864 20.2665 687.161C20.3431 687.152 20.4006 687.134 20.4772 687.125C21.6687 679.567 22.3729 671.929 24.0134 664.433C24.1101 665.467 24.0921 666.491 23.9593 667.504C23.5109 670.829 23.0243 674.135 22.5758 677.461C22.1885 680.337 21.7245 683.222 21.4997 686.11C21.3404 688.022 21.1689 687.934 22.7814 688.445C23.6633 681.306 25.0323 674.247 26.3062 667.14C26.4955 667.381 26.5989 667.602 26.5969 667.841C26.559 668.951 26.588 670.07 26.4354 671.169C25.9687 674.389 25.4063 677.608 24.9493 680.81C24.5935 683.342 24.3236 685.894 24.0347 688.436C24.0141 688.618 24.126 688.963 24.2691 689.012C25.0705 689.277 25.8914 689.504 26.7503 689.75C26.8349 688.785 26.8894 687.972 26.9825 687.131C27.3496 684.388 27.7167 681.646 28.1029 678.913C28.5611 675.568 29.3723 672.332 30.4702 669.146C30.5682 668.859 30.8093 668.622 30.9933 668.356C31.0983 668.386 31.1936 668.434 31.2985 668.464C31.0009 672.058 29.9388 675.551 29.4596 679.125C28.9706 682.718 28.3289 686.281 27.7633 689.883C28.7661 690.082 29.7499 690.272 30.7431 690.491C30.8014 690.377 30.8403 690.301 30.8699 690.196C31.9006 685.87 32.9314 681.545 33.9333 677.229C34.4295 675.081 34.8109 672.922 35.307 670.774C35.4163 670.277 35.6497 669.82 35.8843 669.219C36.8375 670.786 35.203 679.871 31.7743 690.729C32.5675 690.822 33.3418 690.905 34.1253 691.017C34.5075 691.068 34.6899 690.993 34.8082 690.573C35.6572 687.404 36.5443 684.254 37.3932 681.085C38.1632 678.212 38.857 675.3 39.627 672.426C39.8635 671.586 40.272 670.786 40.6232 669.957C40.7473 669.996 40.8713 670.035 40.9954 670.075C39.3016 677.063 37.8466 684.102 35.9141 691.041C37.2327 691.234 37.3478 691.196 37.7492 690.08C38.1118 689.041 38.4172 687.972 38.7227 686.903C39.6101 683.705 40.4786 680.498 41.3567 677.272C42.0376 674.761 42.6901 672.213 43.371 669.702C43.4896 669.234 43.7514 668.816 43.9463 668.387C44.0322 668.407 44.1275 668.455 44.2134 668.475C42.6495 675.962 40.379 683.281 38.6906 690.777C38.941 690.569 39.1631 690.322 39.2421 690.026C39.616 688.776 39.9708 687.516 40.3447 686.266C41.7434 681.408 43.1421 676.55 44.5505 671.673C45.0462 669.572 45.6469 667.502 46.2671 665.392ZM48.0851 659.572C47.0993 659.621 46.1322 659.728 45.1472 659.681C44.1335 659.644 43.1396 659.521 42.1558 659.331C38.2016 658.562 34.2283 657.783 30.2745 656.966C27.925 656.487 25.5566 655.999 23.5503 654.518C23.4326 656.019 23.3441 657.463 23.1599 658.906C23.098 659.451 23.2874 659.692 23.7349 659.944C26.5252 661.488 29.5216 662.393 32.6452 662.955C33.505 663.106 34.4036 663.18 35.2533 663.397C38.7852 664.336 42.3404 664.757 45.9981 664.367C46.429 664.322 46.6312 664.161 46.7686 663.751C47.1821 662.329 47.6529 660.936 48.0851 659.572ZM24.6749 653.868C24.6648 653.934 24.6356 653.992 24.6255 654.059C25.4079 654.314 26.1992 654.646 27.0014 654.815C30.4777 655.532 33.9544 656.202 37.4214 656.891C39.9524 657.39 42.483 657.937 45.0238 658.418C45.7688 658.558 46.5248 658.535 47.2803 658.561C47.3002 658.475 47.3297 658.37 47.3496 658.284C46.2628 657.825 45.2444 657.185 44.1273 656.927C39.1714 655.815 34.1669 654.798 29.1717 653.809C27.7202 653.501 26.1892 653.536 24.6749 653.868Z" fill="black"/>
<path d="M46.267 665.392C45.6659 667.511 45.0555 669.601 44.4548 671.672C43.0561 676.53 41.6574 681.388 40.249 686.265C39.8941 687.525 39.5393 688.785 39.1464 690.025C39.0483 690.311 38.855 690.549 38.5949 690.776C40.2833 683.28 42.5538 675.962 44.1177 668.474C44.0318 668.454 43.9365 668.406 43.8506 668.386C43.6557 668.815 43.413 669.243 43.2752 669.701C42.5944 672.212 41.9228 674.751 41.261 677.271C40.3926 680.478 39.5241 683.685 38.6269 686.902C38.3215 687.971 38.0161 689.04 37.6535 690.08C37.2808 691.186 37.1369 691.233 35.8183 691.04C37.7509 684.101 39.2059 677.063 40.8996 670.074C40.7756 670.035 40.6516 669.995 40.5275 669.956C40.205 670.776 39.7678 671.586 39.5313 672.426C38.7516 675.318 38.0484 678.201 37.2975 681.084C36.4485 684.253 35.5615 687.403 34.7125 690.572C34.6039 690.973 34.4309 691.077 34.0296 691.016C33.2558 690.885 32.4718 690.821 31.6786 690.729C35.1072 679.87 36.7515 670.767 35.7886 669.218C35.554 669.819 35.3206 670.276 35.2113 670.773C34.7439 672.912 34.3337 675.08 33.8376 677.229C32.8547 681.554 31.8049 685.87 30.7742 690.195C30.7543 690.281 30.7057 690.376 30.6473 690.49C29.6445 690.291 28.6607 690.101 27.6676 689.882C28.2429 686.261 28.8846 682.698 29.3639 679.124C29.8431 675.55 30.8955 672.077 31.2028 668.463C31.0979 668.433 31.0026 668.385 30.8976 668.355C30.7136 668.622 30.4725 668.859 30.3745 669.145C29.2766 672.331 28.4463 675.558 28.0072 678.912C27.64 681.655 27.2539 684.387 26.8868 687.13C26.7747 687.961 26.7294 688.803 26.6546 689.749C25.8147 689.513 24.9841 689.305 24.1734 689.011C24.0494 688.972 23.9184 688.617 23.939 688.435C24.2279 685.893 24.4978 683.341 24.8536 680.809C25.3203 677.589 25.8827 674.369 26.3397 671.168C26.4923 670.069 26.4633 668.95 26.5012 667.84C26.5032 667.601 26.3998 667.38 26.2104 667.14C24.9463 674.228 23.5773 681.286 22.6857 688.444C21.0732 687.933 21.2446 688.021 21.404 686.109C21.6385 683.203 22.0927 680.336 22.4801 677.46C22.9286 674.134 23.4151 670.828 23.8636 667.503C23.9964 666.49 24.0144 665.466 23.9177 664.432C22.2772 671.929 21.592 679.576 20.3815 687.124C20.3049 687.133 20.2473 687.152 20.1707 687.161C20.116 686.844 19.9846 686.537 20.0157 686.241C20.2848 683.784 20.5729 681.338 20.842 678.881C21.4817 673.252 22.1312 667.603 22.7616 661.945C22.8126 661.563 22.8734 661.162 22.9251 660.684C24.8167 662.154 26.9717 663.013 29.1776 663.491C33.9142 664.515 38.5998 665.922 43.5092 665.714C44.4662 665.674 45.2999 665.499 46.267 665.392Z" fill="#36469D"/>
<path d="M48.0851 659.572C47.6529 660.936 47.1821 662.329 46.7495 663.741C46.6312 664.161 46.41 664.313 45.9791 664.357C42.3405 664.757 38.7661 664.326 35.2342 663.388C34.3846 663.17 33.4956 663.077 32.6262 662.945C29.5025 662.384 26.5061 661.479 23.7159 659.934C23.2683 659.682 23.079 659.441 23.1409 658.897C23.2963 657.463 23.3945 656 23.5312 654.509C25.5565 655.999 27.906 656.477 30.2554 656.956C34.2092 657.773 38.1635 658.543 42.1367 659.322C43.1205 659.512 44.1335 659.644 45.1282 659.672C46.1322 659.728 47.1281 659.612 48.0851 659.572Z" fill="#36469D"/>
<path d="M24.6749 653.868C26.1701 653.526 27.7104 653.52 29.1908 653.819C34.1859 654.807 39.1714 655.815 44.1463 656.937C45.2635 657.195 46.3106 657.826 47.3686 658.294C47.3488 658.38 47.3192 658.485 47.2994 658.57C46.5535 658.526 45.7688 658.558 45.0428 658.427C42.5021 657.947 39.9807 657.429 37.4404 656.901C33.9544 656.202 30.4776 655.532 27.0204 654.825C26.2182 654.655 25.4269 654.324 24.6445 654.068C24.6547 654.001 24.6745 653.915 24.6749 653.868Z" fill="#36469D"/>
<path d="M379.503 755.77C377.737 755.196 375.788 754.577 373.885 753.912C371.5 753.041 369.161 752.124 366.8 751.138C365.493 750.611 365.286 749.12 366.318 748.18C366.8 747.744 367.396 747.423 367.969 747.033C374.435 742.585 380.902 738.182 387.322 733.688C389.019 732.496 390.509 730.959 392.137 729.652C392.917 729.01 393.742 728.414 394.637 727.933C395.669 727.405 396.402 727.818 396.517 728.987C396.609 729.859 396.54 730.753 396.471 731.647C396.311 734.009 395.99 736.394 395.99 738.779C395.921 747.01 399.062 753.821 405.23 759.255C405.987 759.92 406.881 760.447 407.707 761.044C408.165 761.365 408.67 761.686 409.037 762.098C409.587 762.695 410.023 763.405 409.587 764.254C409.151 765.056 408.372 765.056 407.569 764.988C407.157 764.942 406.744 764.942 406.331 764.988C399.36 765.767 392.802 768.06 386.313 770.514C383.86 771.454 381.337 772.279 378.884 773.174C378.654 773.265 378.425 773.403 378.219 773.518C376.981 774.206 375.696 773.472 375.696 772.05C375.696 771.592 375.788 771.179 375.903 770.743C377.049 765.744 378.265 760.814 379.503 755.77ZM402.983 762.236C394.27 754.532 391.014 745.038 392.779 733.596C385.763 739.787 377.829 744.282 370.514 749.716C370.858 749.831 371.133 749.923 371.454 750.014C374.412 750.909 377.347 751.78 380.283 752.651C380.718 752.766 381.131 752.903 381.544 753.087C382.69 753.591 383.08 754.119 382.965 755.38C382.851 756.595 382.621 757.833 382.346 759.026C381.612 762.144 380.787 765.217 380.007 768.335C379.916 768.656 379.87 768.977 379.778 769.482C387.184 765.79 394.82 763.337 402.983 762.236Z" fill="black"/>
<path d="M347.103 761.296C344.626 763.13 342.196 764.919 339.742 766.685C338.435 767.625 337.059 768.496 335.706 769.344C334.606 770.032 333.138 769.299 333.024 767.946C332.978 767.487 333.092 767.006 333.23 766.547C335.638 758.269 335.982 749.992 333.391 741.668C333.092 740.682 332.863 739.719 332.657 738.733C332.428 737.541 333.001 736.692 334.239 736.692C335.064 736.692 335.89 736.876 336.647 737.128C338.55 737.701 340.407 738.32 342.265 738.985C349.51 741.645 357.009 742.356 364.644 742.287C365.24 742.287 365.86 742.31 366.433 742.516C367.51 742.906 367.809 744.121 367.235 745.107C365.676 747.859 364.025 750.565 362.695 753.454C360.379 758.476 359.026 763.772 358.178 769.253C358.04 770.17 357.696 771.11 357.307 771.959C356.298 774.114 354.096 774.343 352.881 772.302C350.955 769.001 349.235 765.538 347.424 762.167C347.332 761.892 347.24 761.617 347.103 761.296ZM354.716 768.083C355.862 760.15 357.719 752.743 362.122 746.414C357.903 745.956 353.592 745.772 349.396 744.97C345.245 744.167 341.187 742.769 336.991 741.599C339.628 749.143 339.375 756.733 337.426 764.552C337.908 764.208 338.16 764.048 338.412 763.887C341.003 761.938 343.594 759.989 346.163 758.063C347.309 757.192 348.203 757.26 348.983 758.453C350.359 760.608 351.666 762.832 352.973 765.011C353.546 765.951 354.073 766.937 354.716 768.083Z" fill="black"/>
<path d="M382.163 795.714C380.306 797.159 378.586 798.603 376.751 799.887C374.573 801.378 372.326 802.754 370.102 804.106C368.634 804.978 367.35 804.198 367.373 802.478C367.373 801.148 367.488 799.796 367.556 798.489C367.9 792.687 367.877 786.886 366.547 781.153C366.318 780.19 366.272 779.136 366.226 778.127C366.181 777.301 366.777 776.98 367.488 777.049C368.13 777.095 368.749 777.209 369.345 777.439C376.316 780.099 383.493 779.709 390.693 778.838C392.986 778.562 395.187 777.966 397.205 776.82C397.939 776.407 398.787 776.43 399.337 776.934C399.681 777.232 399.819 778.058 399.704 778.585C399.429 780.236 399.062 781.887 398.627 783.515C396.999 789.5 395.256 795.462 393.72 801.492C393.078 804.015 390.991 804.542 389.317 802.96C387.07 800.85 384.96 798.603 382.828 796.425C382.553 796.241 382.415 796.012 382.163 795.714ZM369.505 780.626C371.546 787.069 371.202 793.559 370.881 800.162C371.225 799.956 371.432 799.841 371.638 799.681C373.862 798.007 376.109 796.31 378.311 794.613C379.457 793.742 380.558 792.825 381.704 791.999C382.782 791.197 383.722 791.403 384.272 792.366C384.869 793.375 385.465 794.384 386.221 795.278C387.551 796.883 388.996 798.374 390.303 799.864C392.115 793.559 393.926 787.299 395.715 781.108C391.633 782.575 387.162 782.644 382.667 782.782C378.196 782.896 373.816 782.415 369.505 780.626Z" fill="black"/>
<path d="M402.983 762.236C394.797 763.36 387.184 765.79 379.755 769.505C379.847 769 379.939 768.679 379.984 768.358C380.764 765.24 381.59 762.167 382.323 759.049C382.598 757.856 382.828 756.618 382.942 755.403C383.057 754.142 382.69 753.637 381.521 753.11C381.108 752.926 380.672 752.812 380.26 752.674C377.302 751.78 374.367 750.909 371.431 750.037C371.156 749.946 370.835 749.854 370.491 749.739C377.806 744.305 385.74 739.81 392.756 733.619C390.991 745.016 394.27 754.532 402.983 762.236Z" fill="#FFAB1B"/>
<path d="M354.716 768.083C354.051 766.914 353.546 765.951 352.973 765.011C351.643 762.809 350.359 760.608 348.983 758.453C348.203 757.26 347.355 757.191 346.163 758.063C343.572 760.012 340.98 761.961 338.412 763.887C338.183 764.07 337.931 764.231 337.426 764.552C339.375 756.687 339.605 749.12 336.991 741.599C341.187 742.768 345.223 744.19 349.396 744.97C353.592 745.772 357.857 745.956 362.122 746.414C357.719 752.743 355.862 760.149 354.716 768.083Z" fill="#E2062D"/>
<path d="M369.505 780.626C373.77 782.415 378.219 782.873 382.736 782.759C387.207 782.644 391.679 782.575 395.783 781.085C393.995 787.276 392.183 793.536 390.372 799.841C389.042 798.374 387.62 796.861 386.29 795.255C385.534 794.361 384.937 793.352 384.341 792.343C383.768 791.403 382.828 791.197 381.773 791.976C380.626 792.802 379.526 793.719 378.379 794.59C376.178 796.287 373.908 797.961 371.707 799.658C371.523 799.796 371.294 799.933 370.95 800.14C371.202 793.559 371.546 787.069 369.505 780.626Z" fill="#2D8F55"/>
<path d="M414.553 556.667C417.291 557.152 419.709 558.271 420.488 561.422C420.702 562.266 420.505 563.064 419.734 563.783C418.311 560.401 415.79 558.974 412.35 559.201C412.931 560.5 413.648 561.749 414.093 563.097C414.807 565.142 414.597 567.144 413.247 568.897C412.982 569.225 412.542 569.414 411.979 569.598C412.305 566.7 412.207 563.971 410.322 561.557C410.209 561.816 410.126 562.037 410.028 562.278C409.192 564.7 407.698 566.592 405.546 567.954C405.165 568.189 404.682 568.471 404.321 568.403C403.837 568.331 403.224 568.061 402.935 567.668C402.56 567.142 402.904 566.558 403.414 566.203C403.842 565.909 404.317 565.717 404.745 565.424C406.679 564.015 407.855 562.121 408.33 559.791C408.39 559.519 408.236 559.076 408.054 558.866C395.24 545.497 382.426 532.129 369.581 518.8C369.361 518.558 368.884 518.397 368.573 518.466C365.92 518.944 363.742 520.22 362.335 522.598C361.764 523.543 361.127 523.859 360.453 523.507C359.74 523.123 359.553 522.207 360.108 521.281C361.484 518.942 363.535 517.468 366.081 516.647C366.337 516.567 366.578 516.505 366.955 516.394C364.615 514.347 361.891 514.162 359.029 514.504C358.983 514.402 358.952 514.282 358.887 514.165C359.133 513.821 359.313 513.36 359.659 513.128C361.384 511.901 363.306 511.695 365.24 512.424C366.658 512.962 367.959 513.724 369.319 514.374C370.052 511.644 368.677 509.034 365.15 506.796C365.851 506.085 366.651 505.964 367.524 506.188C369.617 506.759 370.854 508.235 371.509 510.233C371.743 510.933 371.841 511.682 372.009 512.424C373.037 511.625 373.988 510.763 375.046 510.084C378.735 507.727 382.869 506.719 387.197 506.538C394.659 506.234 401.639 507.872 407.743 512.221C415.778 517.935 420.094 525.886 420.932 535.694C421.414 541.51 420.704 547.101 417.738 552.243C416.882 553.82 415.65 555.189 414.553 556.667ZM390.511 537.149C394.133 540.932 397.736 544.7 401.373 548.464C403.859 551.043 406.325 553.607 408.795 556.206C409.073 556.494 409.305 556.841 409.76 556.474C411.084 555.466 412.562 554.583 413.708 553.4C415.762 551.289 416.96 548.615 417.558 545.776C420.125 533.606 417.042 523.137 407.21 515.335C399.213 508.981 389.957 507.55 380.148 510.527C376.74 511.546 374.011 513.624 372.136 516.741C371.76 517.364 371.798 517.714 372.316 518.259C378.412 524.517 384.462 530.833 390.511 537.149Z" fill="black"/>
<path d="M390.511 537.149C384.462 530.833 378.412 524.517 372.331 518.24C371.833 517.71 371.776 517.345 372.151 516.721C374.027 513.604 376.76 511.562 380.164 510.508C389.973 507.531 399.248 508.977 407.226 515.316C417.023 523.122 420.106 533.591 417.573 545.757C416.961 548.615 415.778 551.269 413.724 553.38C412.578 554.563 411.1 555.446 409.776 556.454C409.336 556.802 409.069 556.459 408.81 556.186C406.325 553.607 403.859 551.043 401.389 548.445C397.736 544.7 394.133 540.932 390.511 537.149ZM397.626 530.307C397.774 532.023 397.884 533.708 398.079 535.366C398.124 535.786 398.401 536.392 398.715 536.518C399.045 536.624 399.671 536.362 399.959 536.084C400.816 535.179 401.554 534.146 402.408 533.206C402.677 532.912 403.109 532.654 403.478 532.632C404.969 532.525 406.471 532.523 407.969 532.487C409.378 532.442 409.62 532.062 408.926 530.864C408.314 529.763 407.685 528.682 407.006 527.623C406.69 527.145 406.602 526.818 406.818 526.194C407.415 524.504 407.864 522.759 408.294 520.999C408.503 520.146 408.221 519.822 407.374 520.001C405.525 520.394 403.703 520.872 401.857 521.299C401.562 521.349 401.155 521.339 400.926 521.187C399.753 520.464 398.642 519.664 397.469 518.941C396.389 518.262 395.973 518.501 395.878 519.766C395.748 521.353 395.672 522.952 395.522 524.523C395.482 524.81 395.255 525.17 395.01 525.355C394.001 526.17 392.947 526.884 391.957 527.715C391.634 527.997 391.345 528.594 391.452 528.936C391.54 529.262 392.14 529.586 392.551 529.631C394.243 529.909 395.942 530.098 397.626 530.307ZM387.034 519.37C387.876 519.315 388.742 519.31 389.612 519.182C389.996 519.141 390.506 518.945 390.705 518.658C391.056 518.143 390.903 517.541 390.4 517.136C389.936 516.761 389.441 516.425 388.929 516.109C388.55 515.867 388.4 515.618 388.433 515.102C388.498 514.229 388.417 513.301 388.323 512.427C388.252 511.763 387.834 511.489 387.173 511.755C386.87 511.893 386.543 511.981 386.279 512.151C384.683 513.259 382.962 513.69 381.042 513.26C380.953 513.251 380.863 513.243 380.774 513.235C380.107 513.112 380.001 513.442 380.267 513.944C380.598 514.562 380.999 515.173 381.308 515.741C380.633 516.538 379.931 517.249 379.33 518.074C378.671 519.01 379.06 519.676 380.213 519.711C381.171 519.75 382.122 519.719 383.058 519.707C383.2 520.204 383.306 520.705 383.483 521.199C383.659 521.693 383.922 522.16 384.133 522.65C384.683 523.828 385.382 523.912 386.112 522.809C386.385 522.391 386.543 521.879 386.669 521.406C386.83 520.77 386.918 520.107 387.034 519.37ZM408.108 541.38C407.584 541.436 407.173 541.392 406.815 541.518C405.929 541.825 405 542.066 404.222 542.556C403.576 542.961 403.71 543.548 404.419 543.896C405.465 544.42 406.542 544.906 407.642 545.442C407.596 546.33 407.507 547.312 407.506 548.302C407.522 549.272 408.238 549.69 409.013 549.166C409.889 548.595 410.664 547.911 411.547 547.251C412.024 547.571 412.577 547.953 413.166 548.332C413.677 548.649 414.088 548.693 413.998 547.854C413.923 547.155 413.88 546.418 413.91 545.707C413.946 545.226 414.069 544.718 414.272 544.308C414.66 543.471 415.195 542.689 415.602 541.867C416.063 540.899 415.883 540.529 414.874 540.355C414.083 540.227 413.26 540.139 412.453 540.19C411.874 540.234 411.642 540.047 411.419 539.611C411.091 539.028 410.779 538.425 410.276 538.019C409.966 537.77 409.342 537.713 408.891 537.796C408.666 537.838 408.458 538.373 408.406 538.714C408.263 539.525 408.201 540.433 408.108 541.38Z" fill="#E2062D"/>
<path d="M397.626 530.307C395.942 530.098 394.243 529.909 392.551 529.631C392.136 529.552 391.555 529.243 391.452 528.936C391.344 528.594 391.65 527.978 391.957 527.715C392.927 526.869 394.001 526.17 395.01 525.355C395.255 525.17 395.501 524.826 395.522 524.523C395.671 522.952 395.748 521.353 395.878 519.766C395.972 518.501 396.389 518.262 397.469 518.941C398.642 519.664 399.753 520.464 400.926 521.187C401.155 521.339 401.562 521.349 401.857 521.299C403.687 520.891 405.525 520.394 407.374 520.002C408.221 519.822 408.519 520.126 408.294 520.999C407.864 522.759 407.415 524.504 406.818 526.194C406.602 526.818 406.69 527.145 407.006 527.623C407.685 528.682 408.314 529.763 408.926 530.864C409.585 532.066 409.359 532.426 407.969 532.487C406.471 532.524 404.968 532.525 403.478 532.632C403.109 532.654 402.661 532.931 402.408 533.206C401.57 534.127 400.832 535.16 399.959 536.084C399.674 536.397 399.048 536.659 398.715 536.518C398.401 536.392 398.124 535.786 398.079 535.366C397.884 533.708 397.774 532.023 397.626 530.307ZM399.34 534.595C399.762 533.914 400.136 533.449 400.414 532.907C401.247 531.28 402.546 530.699 404.331 530.862C405.491 530.967 406.624 530.987 407.796 531.038C407.063 529.968 406.4 528.89 405.623 527.913C405.11 527.243 405.081 526.645 405.375 525.925C406.018 524.336 406.622 522.716 407.211 521.115C405.504 521.686 403.779 522.242 402.092 522.83C401.478 523.037 401.009 522.946 400.506 522.54C399.48 521.713 398.389 520.928 397.812 520.495C397.664 521.589 397.461 522.99 397.346 524.398C397.237 525.523 396.861 526.465 395.772 527.024C395.017 527.405 394.293 527.907 393.449 528.439C394.885 528.48 396.157 528.644 397.435 528.525C398.732 528.421 399.609 529.352 399.46 530.605C399.242 531.866 399.346 533.163 399.34 534.595Z" fill="black"/>
<path d="M387.034 519.37C386.899 520.091 386.83 520.77 386.684 521.387C386.558 521.86 386.401 522.371 386.128 522.789C385.397 523.893 384.699 523.809 384.149 522.63C383.937 522.14 383.675 521.674 383.498 521.18C383.306 520.706 383.2 520.204 383.074 519.688C382.119 519.684 381.168 519.715 380.228 519.692C379.056 519.641 378.667 518.975 379.346 518.054C379.931 517.249 380.629 516.503 381.323 515.722C380.98 515.157 380.598 514.562 380.282 513.924C380.017 513.422 380.142 513.109 380.79 513.216C380.879 513.224 380.968 513.232 381.057 513.24C382.977 513.671 384.698 513.239 386.294 512.132C386.559 511.962 386.901 511.855 387.188 511.735C387.849 511.47 388.267 511.743 388.339 512.408C388.451 513.297 388.514 514.209 388.448 515.082C388.415 515.598 388.546 515.832 388.945 516.09C389.456 516.406 389.952 516.742 390.416 517.116C390.919 517.522 391.072 518.124 390.72 518.639C390.521 518.925 390.028 519.102 389.628 519.163C388.761 519.326 387.896 519.33 387.034 519.37ZM381.088 518.15C381.93 518.414 382.803 518.479 383.449 518.905C384.115 519.346 384.57 520.128 385.115 520.759C385.475 519.996 385.626 519.096 386.156 518.598C386.686 518.099 387.575 517.986 388.391 517.687C386.606 516.694 387.098 514.856 386.841 513.275C385.317 513.898 384.277 515.741 382.216 514.654C383.618 516.519 382.198 517.289 381.088 518.15Z" fill="black"/>
<path d="M408.108 541.38C408.201 540.433 408.248 539.544 408.399 538.644C408.451 538.303 408.678 537.784 408.884 537.726C409.334 537.643 409.94 537.684 410.268 537.949C410.752 538.339 411.068 538.977 411.411 539.541C411.669 539.973 411.902 540.161 412.445 540.12C413.233 540.053 414.056 540.142 414.867 540.285C415.875 540.46 416.06 540.864 415.594 541.798C415.187 542.619 414.652 543.401 414.265 544.238C414.046 544.668 413.923 545.176 413.902 545.637C413.872 546.348 413.916 547.085 413.991 547.784C414.08 548.623 413.669 548.579 413.158 548.262C412.573 547.918 412.016 547.501 411.54 547.181C410.676 547.857 409.865 548.544 409.005 549.096C408.231 549.621 407.495 549.187 407.499 548.232C407.499 547.242 407.588 546.261 407.635 545.372C406.534 544.836 405.477 544.366 404.411 543.826C403.702 543.478 403.569 542.891 404.215 542.486C404.993 541.996 405.937 541.736 406.808 541.448C407.173 541.392 407.6 541.417 408.108 541.38ZM412.645 546.444C412.588 546.079 412.589 545.919 412.539 545.783C412.306 544.925 412.348 544.16 413.033 543.468C413.497 543.012 413.802 542.396 414.247 541.765C412.556 541.487 410.754 541.821 409.713 540.024C409.658 542.151 408.382 542.941 406.518 543.194C408.109 544.19 409.226 545.378 408.946 547.388C409.995 546.286 410.831 544.853 412.645 546.444Z" fill="black"/>
<path d="M399.34 534.595C399.361 533.143 399.258 531.847 399.406 530.594C399.555 529.34 398.693 528.39 397.381 528.513C396.119 528.613 394.831 528.468 393.395 528.427C394.258 527.91 394.947 527.412 395.718 527.012C396.807 526.453 397.167 525.531 397.292 524.386C397.426 522.993 397.629 521.593 397.758 520.483C398.354 520.932 399.426 521.701 400.451 522.528C400.954 522.934 401.439 523.006 402.038 522.818C403.725 522.231 405.45 521.675 407.156 521.103C406.549 522.688 405.944 524.308 405.321 525.913C405.027 526.633 405.059 527.266 405.569 527.901C406.33 528.898 407.009 529.956 407.742 531.026C406.605 530.971 405.437 530.955 404.276 530.85C402.511 530.703 401.177 531.288 400.36 532.895C400.136 533.449 399.781 533.929 399.34 534.595Z" fill="#FFAB1B"/>
<path d="M381.088 518.151C382.198 517.289 383.633 516.499 382.232 514.635C384.293 515.722 385.332 513.878 386.856 513.256C387.114 514.836 386.622 516.674 388.407 517.667C387.575 517.986 386.666 518.083 386.171 518.578C385.626 519.096 385.456 519.981 385.13 520.74C384.605 520.125 384.15 519.343 383.465 518.886C382.803 518.479 381.91 518.398 381.088 518.151Z" fill="#FFAB1B"/>
<path d="M412.645 546.444C410.831 544.853 409.995 546.286 408.946 547.388C409.207 545.363 408.109 544.19 406.518 543.194C408.382 542.941 409.658 542.151 409.713 540.024C410.773 541.837 412.556 541.487 414.247 541.765C413.802 542.396 413.516 543.028 413.033 543.468C412.313 544.164 412.306 544.925 412.539 545.783C412.573 545.939 412.588 546.079 412.645 546.444Z" fill="#FFAB1B"/>
<path d="M387.294 145.888C390.219 143.232 393.82 142.512 397.781 143.412C399.783 143.885 401.134 145.28 402.191 146.968C404.037 149.893 404.937 153.134 405.387 156.509C405.612 158.084 405.747 159.66 405.837 161.235C406.039 165.308 406.669 169.314 407.907 173.207C408.357 174.602 408.74 176.02 408.897 177.483C409.257 180.903 408.02 183.716 404.959 185.426C402.596 186.754 400.053 186.957 397.578 185.561C396.34 184.864 395.553 183.716 394.968 182.456C393.482 179.35 391.952 176.29 390.669 173.117C388.892 168.774 387.249 164.34 385.696 159.907C385.088 158.174 384.728 156.284 384.503 154.439C384.166 151.851 384.526 149.331 386.169 147.148C386.484 146.833 386.821 146.45 387.294 145.888ZM395.125 155.249C394.878 155.902 394.585 156.464 394.495 157.049C394.337 158.197 394.27 159.345 394.18 160.515C394.045 162.45 394.045 164.386 393.752 166.298C393.505 167.761 392.92 169.201 392.38 170.597C392.222 171.024 392.155 171.317 392.335 171.722C393.505 174.287 394.63 176.853 395.823 179.395C396.363 180.566 396.948 181.691 397.668 182.726C398.096 183.334 398.793 183.851 399.491 184.099C401.539 184.796 404.082 183.919 405.432 182.253C406.624 180.791 406.962 179.103 406.579 177.325C406.219 175.66 405.679 174.04 405.252 172.397C405.207 172.262 405.117 172.172 405.027 172.037C404.689 171.519 404.262 171.047 404.014 170.484C403.631 169.651 403.429 168.729 403.046 167.896C400.999 163.373 398.388 159.232 395.125 155.249ZM391.052 168.414C391.097 168.414 391.164 168.391 391.232 168.414C391.39 167.401 391.615 166.411 391.682 165.398C391.84 162.99 391.862 160.582 392.087 158.197C392.2 157.004 392.47 155.789 392.942 154.731C393.482 153.561 394.405 152.594 394.518 151.221C394.54 151.153 394.54 151.063 394.608 151.041C394.9 150.838 395.215 150.478 395.508 150.501C395.823 150.546 396.273 150.861 396.385 151.153C396.565 151.558 396.565 152.099 396.453 152.526C396.205 153.404 396.498 154.011 397.06 154.619C399.581 157.364 401.809 160.312 403.451 163.71C403.496 163.8 403.564 163.868 403.722 164.07C403.654 162.653 403.609 161.393 403.519 160.132C403.271 156.689 402.844 153.246 401.336 150.073C399.446 146.113 397.533 144.425 391.975 145.843C389.049 146.563 387.024 149.083 386.709 152.099C386.529 153.809 386.709 155.519 387.204 157.139C388.171 160.267 389.252 163.373 390.309 166.501C390.467 167.108 390.759 167.761 391.052 168.414Z" fill="black"/>
<path d="M416.481 122.236C417.336 123.632 418.304 125.004 419.046 126.467C421.117 130.563 421.949 135.041 422.737 139.519C423.48 143.817 424.155 148.138 424.785 152.459C424.987 153.966 425.1 155.519 424.965 157.049C424.762 159.457 423.39 161.145 421.162 162.068C419.542 162.743 417.876 163.103 416.121 163.058C413.736 162.968 411.913 161.91 410.945 159.727C410.27 158.197 409.797 156.599 409.347 154.979C408.807 153.089 407.997 151.378 407.075 149.646C404.734 145.415 402.371 141.162 401.201 136.391C400.751 134.456 400.436 132.43 400.413 130.428C400.346 125.139 403.609 121.201 408.785 120.031C411.575 119.401 414.186 120.211 416.324 122.304C416.369 122.304 416.414 122.259 416.481 122.236ZM409.91 133.488C409.82 134.568 409.662 135.491 409.64 136.414C409.482 140.487 409.347 144.582 409.212 148.678C409.212 148.948 409.212 149.263 409.347 149.488C410.428 151.424 410.923 153.539 411.485 155.632C411.778 156.734 412.205 157.792 412.678 158.805C413.353 160.245 414.591 160.898 416.188 160.875C417.831 160.853 419.362 160.447 420.802 159.682C421.792 159.142 422.467 158.332 422.647 157.207C422.805 156.239 422.895 155.204 422.76 154.259C422.4 151.604 421.904 148.993 421.454 146.338C421.432 146.135 421.207 145.91 421.027 145.775C420.239 145.077 419.294 144.492 418.619 143.727C417.539 142.467 416.549 141.072 415.581 139.699C413.961 137.494 412.385 135.198 409.91 133.488ZM407.57 145.73C407.525 145.415 407.48 145.19 407.48 144.965C407.457 140.892 407.277 136.841 408.065 132.813C408.245 131.913 407.952 131.125 407.367 130.45C407.165 130.203 406.984 129.978 406.872 129.685C406.647 129.145 406.939 128.717 407.502 128.74C407.84 128.762 408.29 128.852 408.492 129.055C409.01 129.662 409.415 130.338 409.865 130.968C410.09 131.283 410.293 131.62 410.585 131.868C411.575 132.633 412.768 133.196 413.601 134.073C415.311 135.963 416.864 138.011 418.439 139.992C419.159 140.892 419.924 141.792 420.644 142.692C420.802 142.49 420.824 142.422 420.802 142.31C420.194 138.191 419.429 134.096 418.079 130.135C417.359 128.065 416.526 126.062 415.063 124.374C413.556 122.596 411.643 121.584 409.28 122.191C404.824 123.361 402.686 125.994 402.596 130.405C402.574 131.913 402.821 133.466 403.091 134.951C403.789 138.754 405.679 142.084 407.3 145.505C407.345 145.64 407.39 145.64 407.57 145.73Z" fill="black"/>
<path d="M395.125 155.249C398.388 159.232 400.999 163.373 403.069 167.874C403.451 168.706 403.654 169.629 404.037 170.461C404.284 171.024 404.712 171.497 405.049 172.014C405.117 172.127 405.229 172.239 405.274 172.374C405.747 174.017 406.287 175.637 406.602 177.303C406.985 179.08 406.647 180.768 405.454 182.231C404.082 183.919 401.561 184.774 399.513 184.076C398.838 183.851 398.118 183.311 397.691 182.703C396.948 181.691 396.363 180.521 395.845 179.373C394.653 176.83 393.527 174.265 392.357 171.699C392.177 171.294 392.245 171.002 392.402 170.574C392.942 169.179 393.527 167.739 393.775 166.276C394.09 164.385 394.067 162.428 394.202 160.492C394.293 159.322 394.36 158.174 394.518 157.027C394.585 156.464 394.878 155.902 395.125 155.249Z" fill="#36469D"/>
<path d="M391.052 168.414C390.804 167.761 390.489 167.131 390.264 166.456C389.229 163.35 388.149 160.245 387.159 157.094C386.641 155.452 386.484 153.764 386.664 152.054C386.979 149.038 389.004 146.518 391.93 145.798C397.511 144.402 399.423 146.09 401.291 150.028C402.799 153.201 403.249 156.622 403.474 160.087C403.564 161.348 403.609 162.608 403.677 164.025C403.519 163.823 403.452 163.755 403.407 163.665C401.786 160.29 399.536 157.319 397.015 154.574C396.453 153.966 396.138 153.336 396.408 152.481C396.52 152.054 396.52 151.513 396.34 151.108C396.228 150.816 395.778 150.501 395.463 150.456C395.17 150.433 394.855 150.793 394.563 150.996C394.518 151.041 394.473 151.131 394.473 151.176C394.338 152.526 393.437 153.516 392.897 154.686C392.402 155.767 392.132 156.982 392.042 158.152C391.817 160.537 391.817 162.968 391.637 165.353C391.57 166.366 391.345 167.356 391.187 168.369C391.165 168.391 391.097 168.414 391.052 168.414Z" fill="#36469D"/>
<path d="M409.91 133.488C412.385 135.198 413.961 137.494 415.604 139.721C416.594 141.072 417.539 142.467 418.641 143.75C419.339 144.537 420.239 145.122 421.049 145.797C421.207 145.955 421.454 146.158 421.477 146.36C421.95 148.993 422.422 151.626 422.782 154.281C422.895 155.249 422.827 156.262 422.67 157.229C422.512 158.332 421.815 159.165 420.824 159.705C419.384 160.47 417.831 160.897 416.211 160.897C414.636 160.897 413.376 160.267 412.701 158.827C412.228 157.814 411.823 156.734 411.508 155.654C410.945 153.561 410.428 151.423 409.37 149.511C409.235 149.286 409.235 148.97 409.235 148.7C409.37 144.605 409.483 140.532 409.663 136.436C409.685 135.513 409.82 134.568 409.91 133.488Z" fill="#36469D"/>
<path d="M407.57 145.73C407.39 145.64 407.345 145.64 407.322 145.618C405.702 142.197 403.789 138.844 403.114 135.063C402.821 133.556 402.596 132.025 402.619 130.518C402.709 126.107 404.847 123.474 409.302 122.304C411.665 121.696 413.578 122.709 415.086 124.487C416.526 126.152 417.381 128.177 418.101 130.248C419.474 134.186 420.217 138.304 420.824 142.422C420.824 142.512 420.824 142.602 420.667 142.805C419.947 141.904 419.182 141.004 418.461 140.104C416.841 138.124 415.333 136.076 413.623 134.186C412.813 133.286 411.62 132.723 410.608 131.98C410.293 131.755 410.113 131.395 409.888 131.08C409.415 130.428 409.01 129.753 408.515 129.167C408.335 128.942 407.862 128.875 407.525 128.852C406.962 128.83 406.647 129.28 406.895 129.798C407.007 130.09 407.21 130.338 407.39 130.563C407.975 131.238 408.267 132.025 408.087 132.926C407.3 136.954 407.457 141.027 407.502 145.077C407.48 145.19 407.525 145.415 407.57 145.73Z" fill="#36469D"/>
<path d="M28.5646 525.477C29.1731 521.634 30.3856 518.11 32.1041 514.764C33.4097 512.245 34.9749 509.887 37.106 507.977C38.8585 506.401 40.8125 505.276 43.2448 505.271C45.3128 505.269 46.9963 506.187 48.3839 507.633C49.9208 509.234 50.8508 511.186 51.522 513.257C52.8777 517.542 53.1356 521.95 52.7087 526.405C52.4828 528.769 52.0106 531.115 51.6411 533.493C51.6363 533.603 51.5982 533.731 51.563 533.944C52.0576 533.784 52.46 533.652 52.8957 533.501C53.4237 533.323 53.9212 533.247 54.3511 533.681C54.781 534.116 54.6363 534.604 54.484 535.118C53.7149 537.712 52.3857 540.028 51.2209 542.448C49.8268 545.36 48.6049 548.35 47.1671 551.221C46.285 552.971 45.1099 554.578 43.9681 556.168C43.4905 556.836 42.6838 557.296 42.0235 557.826C41.8418 557.968 41.5935 558.146 41.4394 558.1C40.4996 557.877 39.9478 558.608 39.2381 558.928C33.0308 561.865 27.7263 558.365 25.1654 554.281C23.4556 551.567 22.8454 548.536 22.9097 545.398C22.9816 542.234 23.2818 539.054 23.4384 535.887C23.5233 534.376 23.5902 532.831 23.5648 531.315C23.5679 529.891 23.2248 528.504 22.523 527.29C22.0456 526.45 22.333 525.669 23.2348 525.266C24.7721 524.604 26.3093 524.697 27.8274 525.231C28.0329 525.291 28.264 525.36 28.5646 525.477ZM50.8058 523.494C50.3159 523.544 50.0286 523.571 49.767 523.605C47.561 523.789 45.4941 523.316 43.6889 522.054C43.4112 521.86 43.3275 521.388 43.1545 521.03C43.5159 520.941 43.8822 520.743 44.198 520.808C45.3661 521.015 46.4961 521.35 47.6642 521.557C48.6705 521.743 49.6608 521.702 50.75 521.326C50.4593 519.48 50.2199 517.648 49.8958 515.82C49.7153 514.733 49.6668 514.802 48.5862 514.678C47.4133 514.581 46.2072 514.503 45.1105 514.15C43.911 513.766 42.7877 513.126 41.6749 512.545C41.4847 512.432 41.4296 512.053 41.3107 511.794C41.5619 511.701 41.8615 511.538 42.1003 511.581C43.1399 511.75 44.1749 512.028 45.2069 512.223C46.4007 512.437 47.602 512.626 48.8805 512.837C48.6457 511.65 47.709 510.003 46.7694 509.026C45.0832 507.269 43.0267 506.854 40.8672 507.919C38.0827 509.3 36.3662 511.697 34.6535 514.458C35.91 515.026 37.0637 515.564 38.1918 516.094C38.6389 516.282 39.1268 516.427 39.5177 516.711C39.7003 516.849 39.8658 517.233 39.8305 517.446C39.8029 517.633 39.4985 517.906 39.2702 517.922C38.8573 517.996 38.3827 517.995 37.9641 517.898C36.4517 517.534 35.1078 516.884 34.0673 515.681C33.9779 515.794 33.9113 515.831 33.8884 515.908C32.9568 518.202 32.0251 520.496 31.1372 522.831C31.0582 523.003 31.2855 523.462 31.45 523.567C32.6913 524.186 33.9506 524.839 35.2632 525.312C36.1982 525.645 37.235 525.729 38.2157 525.908C38.7446 526.009 39.2326 526.153 39.2191 526.764C39.2133 527.349 38.7729 527.61 38.242 527.704C38.1241 527.725 38.0061 527.746 37.8701 527.733C36.9845 527.61 36.1094 527.546 35.2467 527.347C33.5212 526.947 31.8871 526.239 30.4443 525.168C29.9266 526.16 29.919 526.186 30.7779 526.776C32.3929 527.925 33.6958 529.373 34.4022 531.231C34.9584 532.653 35.3301 534.133 35.7941 535.583C35.8872 535.834 36.0603 536.193 36.2477 536.221C38.1729 536.512 40.0877 536.745 42.0101 536.951C42.1718 536.971 42.3564 536.914 42.4896 536.842C44.456 535.581 46.6012 534.848 48.8861 534.492C49.063 534.46 49.2162 534.226 49.5054 534.005L49.1459 533.898C48.9766 533.904 48.8073 533.91 48.6379 533.915C46.4368 533.989 44.3441 533.508 42.3933 532.455C41.9615 532.215 41.6267 531.837 41.2435 531.527C41.2815 531.399 41.3453 531.278 41.3757 531.175C44.2133 531.123 46.9526 532.438 49.9986 531.776C50.2492 529.14 50.5123 526.369 50.8058 523.494ZM23.6522 526.591C25.0065 528.054 25.4304 529.828 25.5262 531.673C25.5678 532.663 25.5838 533.646 25.5152 534.631C25.3081 538.062 25.0165 541.496 24.8865 544.95C24.7956 547.801 25.1613 550.62 26.7447 553.101C28.2482 555.474 30.255 557.187 33.0895 557.804C33.4824 557.892 33.8981 557.904 34.3908 557.938C33.6005 557.117 32.8748 556.455 32.2642 555.687C30.3013 553.261 29.5427 550.354 29.2636 547.338C29.0054 544.439 28.8832 541.553 27.6813 538.822C27.5882 538.571 27.7794 538.208 27.8118 537.911C28.1048 538.053 28.4796 538.109 28.6726 538.305C29.8881 539.672 30.6526 541.239 30.8406 543.055C30.9489 544.009 31.0571 544.964 31.1397 545.91C31.3029 547.998 31.5765 550.091 32.3705 552.031C33.3298 554.355 34.7345 556.308 37.2541 557.139C37.511 557.215 37.8239 557.196 38.291 557.222C36.6171 555.329 35.964 553.292 35.6619 551.107C35.3835 549.124 35.2051 547.087 34.9857 545.095C34.5546 541.083 33.9798 537.085 32.7486 533.228C31.8673 530.452 30.0318 528.538 27.4722 527.277C26.3004 526.706 25.0705 526.425 23.6522 526.591ZM37.9258 551.387C38.0105 551.384 38.0875 551.407 38.1722 551.404C38.5518 550.594 38.9496 549.818 39.3036 549.001C40.3304 546.763 41.3315 544.517 42.9109 542.583C43.261 542.156 43.6292 541.762 44.0592 541.443C44.5225 541.105 45.0743 541.129 45.4299 541.625C45.7856 542.122 45.5715 542.561 45.1367 542.991C44.5868 543.527 44.0369 544.062 43.6258 544.695C42.9189 545.854 42.2889 547.036 41.6514 548.244C40.7588 549.936 39.9538 551.708 38.3155 552.899C38.5456 553.442 38.75 553.978 39.0211 554.477C40.0614 556.434 40.9983 556.572 42.3294 554.816C43.3922 553.398 44.3827 551.848 45.1858 550.27C47.3402 546.02 49.3994 541.713 51.4767 537.439C51.6347 537.095 51.7746 536.717 51.9554 536.296C51.0118 536.463 50.1889 536.694 49.3527 536.781C43.9591 537.445 40.2126 540.47 37.4998 545.002C37.3952 545.166 37.3086 545.364 37.3142 545.534C37.5156 547.493 37.7169 549.453 37.9258 551.387ZM37.0066 542.425C37.8753 541.285 38.7696 540.154 39.5898 539.084C38.5112 538.764 37.4582 538.452 36.3101 538.083C36.5534 539.524 36.7633 540.984 37.0066 542.425Z" fill="black"/>
<path d="M50.8058 523.494C50.5123 526.369 50.2492 529.14 49.9834 531.828C46.9707 532.471 44.2057 531.148 41.3605 531.227C41.3225 531.355 41.2587 531.476 41.2283 531.579C41.6116 531.888 41.9463 532.267 42.3781 532.506C44.3365 533.534 46.4292 534.015 48.6227 533.967C48.7921 533.961 48.9614 533.955 49.1307 533.95L49.4902 534.056C49.2267 534.285 49.0735 534.519 48.8709 534.543C46.586 534.899 44.4408 535.633 42.4744 536.893C42.3336 536.991 42.1566 537.023 41.9949 537.003C40.0801 536.77 38.1397 536.53 36.2325 536.272C36.0451 536.245 35.8463 535.878 35.7788 535.635C35.3149 534.184 34.9176 532.697 34.387 531.283C33.6549 529.417 32.3777 527.977 30.7627 526.827C30.1952 526.417 30.084 525.881 30.4291 525.22C31.8795 526.264 33.4803 526.99 35.2315 527.398C36.0942 527.598 36.9693 527.662 37.8549 527.785C37.9652 527.789 38.1089 527.776 38.2268 527.755C38.7577 527.661 39.1981 527.401 39.2039 526.816C39.1993 526.172 38.7037 526.053 38.2005 525.959C37.2198 525.78 36.183 525.696 35.248 525.363C33.9354 524.89 32.7017 524.245 31.4348 523.618C31.237 523.531 31.043 523.055 31.122 522.883C32.0023 520.573 32.9416 518.253 33.8732 515.959C33.8885 515.908 33.9627 515.846 34.0521 515.733C35.0926 516.935 36.4622 517.593 37.9489 517.95C38.3675 518.046 38.8421 518.047 39.255 517.974C39.4652 517.924 39.7877 517.685 39.8153 517.497C39.8582 517.259 39.6927 516.874 39.5025 516.762C39.104 516.504 38.616 516.359 38.1766 516.145C37.0229 515.608 35.8872 515.103 34.6383 514.51C36.3434 511.774 38.0675 509.352 40.852 507.97C43.0448 506.888 45.0756 507.294 46.7542 509.077C47.6938 510.054 48.6305 511.701 48.8653 512.888C47.5868 512.677 46.3855 512.488 45.1917 512.274C44.1596 512.08 43.1171 511.827 42.0851 511.632C41.8463 511.59 41.5647 511.785 41.2955 511.845C41.4144 512.104 41.4619 512.509 41.6597 512.596C42.7982 513.185 43.8882 513.843 45.0953 514.201C46.192 514.554 47.4058 514.607 48.571 514.729C49.6335 514.82 49.7001 514.784 49.8807 515.872C50.2047 517.7 50.4517 519.505 50.7348 521.377C49.6199 521.745 48.6297 521.787 47.649 521.608C46.4809 521.401 45.3509 521.066 44.1828 520.86C43.867 520.794 43.5008 520.993 43.1393 521.081C43.3199 521.414 43.396 521.912 43.6737 522.106C45.5046 523.375 47.5458 523.841 49.7518 523.656C50.0286 523.571 50.3159 523.544 50.8058 523.494Z" fill="#FFAB1B"/>
<path d="M23.6522 526.591C25.0705 526.425 26.3261 526.713 27.5236 527.292C30.0831 528.554 31.9444 530.475 32.8 533.243C34.0311 537.1 34.6059 541.098 35.0371 545.11C35.2488 547.128 35.4349 549.139 35.7133 551.122C36.023 553.281 36.6685 555.344 38.3423 557.238C37.8496 557.203 37.5547 557.256 37.3055 557.154C34.7858 556.323 33.3812 554.37 32.4218 552.046C31.6279 550.106 31.3543 548.013 31.1911 545.925C31.1085 544.979 31.0002 544.025 30.892 543.071C30.7116 541.229 29.947 539.661 28.724 538.321C28.5385 538.098 28.1638 538.043 27.8632 537.926C27.7975 538.242 27.6062 538.604 27.7327 538.837C28.9346 541.568 29.0235 544.472 29.315 547.353C29.5941 550.369 30.3784 553.284 32.3156 555.702C32.9262 556.47 33.6518 557.132 34.4422 557.953C33.957 557.893 33.5337 557.907 33.1409 557.819C30.332 557.21 28.2995 555.489 26.796 553.116C25.2127 550.635 24.8213 547.809 24.9378 544.965C25.0678 541.511 25.3595 538.078 25.5665 534.646C25.6352 533.661 25.6192 532.678 25.5775 531.688C25.4047 529.821 24.9989 528.08 23.6522 526.591Z" fill="#2D8F55"/>
<path d="M37.9258 551.387C37.7245 549.427 37.5155 547.493 37.3399 545.541C37.3342 545.372 37.4285 545.148 37.5255 545.009C40.2126 540.47 43.9848 537.453 49.3784 536.789C50.2222 536.676 51.0631 536.478 51.9811 536.303C51.7927 536.751 51.6861 537.11 51.5024 537.447C49.4251 541.72 47.3659 546.027 45.2115 550.278C44.4084 551.856 43.4255 553.38 42.3551 554.823C41.0497 556.588 40.1127 556.449 39.0467 554.485C38.7757 553.986 38.5713 553.45 38.3412 552.907C39.9871 551.69 40.8102 549.951 41.6771 548.252C42.3146 547.044 42.9189 545.854 43.6515 544.702C44.0626 544.07 44.6125 543.534 45.1624 542.999C45.5896 542.595 45.8037 542.155 45.4556 541.633C45.0999 541.136 44.5482 541.113 44.0849 541.45C43.6549 541.77 43.261 542.156 42.9366 542.59C41.3572 544.525 40.3561 546.771 39.3293 549.009C38.9496 549.818 38.5775 550.602 38.1978 551.411C38.0875 551.407 38.0105 551.384 37.9258 551.387Z" fill="#2D8F55"/>
<path d="M37.0066 542.425C36.789 540.991 36.5534 539.524 36.3358 538.091C37.4658 538.426 38.5444 538.746 39.6155 539.091C38.7696 540.154 37.8753 541.285 37.0066 542.425Z" fill="#FFAB1B"/>
<path d="M379.396 320.248C379.623 320.493 379.817 320.671 379.976 320.876C381.098 322.327 382.255 323.751 383.316 325.245C385.587 328.443 388.361 331.07 391.728 333.065C392.615 333.591 393.469 334.182 394.373 334.679C395.579 335.341 396.824 335.981 398.257 335.759C400.345 335.437 402.304 334.827 404.078 333.572C405.744 332.395 406.88 330.959 407.184 328.92C407.466 327.028 407.765 325.137 407.949 323.236C408.193 320.716 408.03 318.21 407.44 315.73C406.898 313.448 406.412 311.155 405.91 308.863C405.846 308.571 405.832 308.267 405.786 307.914C405.975 307.979 406.074 308.016 406.174 308.045C406.948 308.254 407.707 308.546 408.534 308.274C409.459 307.969 409.972 307.369 409.97 306.56C409.968 305.645 409.962 304.729 410.008 303.817C410.098 302.011 409.94 300.23 409.553 298.462C409.264 297.142 408.786 295.931 407.671 295.067C407.165 294.675 406.614 294.515 405.998 294.685C404.785 295.019 403.549 295.289 402.373 295.72C400.357 296.457 398.327 297.188 396.402 298.125C394.594 299.005 393.838 300.208 394.276 302.049C394.282 302.074 394.25 302.111 394.236 302.141C394.215 302.095 394.194 302.051 394.173 302.005C390.006 303.437 386.027 305.273 382.243 307.595C381.089 306.301 380.244 306.039 378.477 306.552C377.892 306.724 377.318 306.958 376.773 307.229C374.096 308.565 371.537 310.1 369.128 311.884C368.58 312.29 368.33 312.823 368.323 313.506C368.315 314.435 368.546 315.291 369.043 316.068C370.029 317.61 371.232 318.963 372.64 320.126C373.671 320.978 374.7 321.834 375.762 322.644C376.016 322.838 376.411 322.974 376.722 322.947C377.757 322.856 378.508 322.311 378.91 321.32C379.048 320.981 379.211 320.652 379.395 320.246L379.396 320.248Z" fill="white"/>
<path d="M379.396 320.248C379.211 320.654 379.048 320.983 378.911 321.322C378.509 322.312 377.758 322.858 376.722 322.949C376.41 322.976 376.017 322.84 375.763 322.645C374.701 321.834 373.671 320.979 372.64 320.128C371.231 318.961 370.029 317.61 369.043 316.068C368.546 315.291 368.315 314.435 368.324 313.508C368.33 312.825 368.581 312.291 369.129 311.885C371.537 310.1 374.096 308.565 376.773 307.229C377.318 306.958 377.89 306.725 378.474 306.555C380.238 306.041 381.085 306.303 382.241 307.598C386.023 305.275 390.004 303.438 394.17 302.008C394.192 302.054 394.212 302.098 394.233 302.144C394.247 302.114 394.28 302.08 394.274 302.052C393.837 300.211 394.592 299.009 396.4 298.128C398.326 297.191 400.355 296.46 402.37 295.724C403.546 295.293 404.784 295.022 405.995 294.688C406.613 294.518 407.162 294.678 407.668 295.071C408.784 295.934 409.261 297.145 409.55 298.465C409.937 300.231 410.095 302.014 410.005 303.82C409.959 304.733 409.966 305.65 409.968 306.564C409.969 307.372 409.456 307.972 408.532 308.277C407.706 308.549 406.947 308.257 406.172 308.048C406.071 308.02 405.973 307.982 405.783 307.918C405.829 308.27 405.843 308.573 405.907 308.867C406.409 311.157 406.895 313.451 407.438 315.733C408.026 318.214 408.188 320.72 407.946 323.239C407.763 325.141 407.464 327.033 407.182 328.923C406.877 330.963 405.741 332.399 404.075 333.575C402.302 334.83 400.341 335.439 398.254 335.762C396.821 335.985 395.576 335.345 394.37 334.682C393.467 334.185 392.614 333.594 391.725 333.069C388.359 331.075 385.585 328.447 383.314 325.248C382.253 323.754 381.094 322.329 379.974 320.879C379.816 320.674 379.623 320.496 379.393 320.251L379.396 320.248ZM388.879 306.12C387.542 306.839 386.19 307.534 384.868 308.282C383.258 309.195 381.84 310.361 380.724 311.845C380.091 312.688 379.72 313.632 379.799 314.776C379.937 316.78 381.044 318.309 382.12 319.845C383.03 321.142 384.113 322.319 385.007 323.625C386.694 326.083 388.647 328.249 391.19 329.833C392.261 330.501 393.275 331.279 394.392 331.847C395.822 332.575 397.343 333.095 398.997 332.864C402.109 332.427 404.628 329.941 405.075 326.801C405.318 325.082 405.5 323.353 405.671 321.625C405.83 320.021 405.715 318.423 405.345 316.847C404.843 314.701 404.271 312.569 403.862 310.405C403.589 308.964 403.144 307.587 402.509 306.3C401.943 305.15 401.093 304.186 399.747 303.784C398.455 303.397 397.18 303.52 395.907 303.717C393.426 304.103 391.153 305.104 388.88 306.117L388.879 306.12ZM380.166 308.65C379.559 308.492 379.004 308.669 378.523 308.988C377.712 309.526 376.978 310.19 376.146 310.69C374.638 311.598 373.079 312.42 371.547 313.291C370.192 314.063 369.95 313.945 371.026 315.552C372.534 317.806 374.875 319.113 377.079 320.825C377.325 320.051 377.595 319.371 377.759 318.666C378.077 317.29 377.909 315.9 377.722 314.517C377.571 313.39 377.536 312.269 377.861 311.166C378.22 309.954 378.871 309.012 380.166 308.65ZM396.383 301.081C397.602 300.254 398.846 300.401 400.054 301.058C400.679 301.4 401.261 301.845 401.801 302.314C402.356 302.798 402.794 303.422 403.361 303.889C404.223 304.603 405.123 305.282 406.064 305.883C406.531 306.181 407.127 306.269 407.706 306.467C407.763 305.543 407.802 304.737 407.869 303.935C407.999 302.387 408.054 300.838 407.736 299.306C407.605 298.674 407.375 298.058 407.161 297.445C407.037 297.089 406.779 296.967 406.411 297.121C405.655 297.438 404.895 297.745 404.135 298.052C402.321 298.788 400.467 299.378 398.536 299.754C397.69 299.919 396.857 300.233 396.382 301.081L396.383 301.081Z" fill="black"/>
<path d="M388.879 306.12C391.152 305.106 393.427 304.105 395.906 303.72C397.179 303.523 398.454 303.4 399.746 303.786C401.092 304.188 401.942 305.152 402.509 306.302C403.144 307.59 403.588 308.966 403.861 310.408C404.27 312.571 404.841 314.705 405.344 316.85C405.715 318.426 405.829 320.023 405.67 321.628C405.499 323.356 405.32 325.085 405.074 326.803C404.629 329.943 402.108 332.429 398.996 332.866C397.342 333.098 395.822 332.577 394.392 331.85C393.274 331.281 392.262 330.502 391.19 329.835C388.645 328.25 386.693 326.086 385.006 323.628C384.11 322.323 383.027 321.146 382.119 319.848C381.042 318.31 379.936 316.783 379.798 314.778C379.719 313.635 380.09 312.691 380.723 311.848C381.839 310.363 383.256 309.195 384.867 308.285C386.189 307.537 387.539 306.842 388.879 306.123L388.879 306.12ZM396.771 323.099C396.061 323.591 395.281 324.006 394.655 324.591C393.451 325.713 393.67 326.999 395.156 327.759C396.25 328.317 397.43 328.582 398.66 328.475C398.943 328.45 399.281 328.368 399.479 328.185C400.645 327.105 401.397 325.775 401.479 324.155C401.536 323.021 400.798 322.378 399.67 322.37C398.633 322.362 397.736 322.766 396.77 323.101L396.771 323.099ZM389.906 315.228C389.543 314.578 388.776 314.009 387.861 313.729C386.644 313.357 385.48 314.407 385.595 315.678C385.736 317.218 387.623 318.346 389.018 317.724C389.978 317.298 390.412 316.316 389.905 315.229L389.906 315.228ZM396.042 309.456C395.65 309.652 395.273 310.092 395.172 310.727C395.107 311.142 395.056 311.565 395.065 311.985C395.081 312.716 395.277 313.41 395.985 313.762C396.683 314.108 397.645 313.87 398.217 313.296C398.976 312.536 399.166 311.163 398.644 310.214C398.148 309.31 397.117 308.954 396.04 309.457L396.042 309.456Z" fill="#FFAB1B"/>
<path d="M380.164 308.651C378.869 309.013 378.217 309.953 377.859 311.167C377.534 312.27 377.569 313.391 377.721 314.518C377.907 315.901 378.075 317.29 377.757 318.667C377.593 319.372 377.326 320.053 377.077 320.826C374.873 319.114 372.533 317.806 371.024 315.553C369.948 313.945 370.191 314.064 371.546 313.292C373.076 312.421 374.637 311.6 376.145 310.69C376.975 310.189 377.71 309.526 378.522 308.989C379.002 308.67 379.556 308.495 380.164 308.651Z" fill="#FFAB1B"/>
<path d="M396.382 301.083C396.856 300.235 397.691 299.921 398.537 299.756C400.465 299.379 402.322 298.789 404.136 298.054C404.896 297.747 405.656 297.439 406.412 297.123C406.779 296.968 407.039 297.092 407.162 297.447C407.374 298.06 407.605 298.674 407.737 299.307C408.055 300.839 407.998 302.39 407.87 303.937C407.803 304.739 407.766 305.544 407.707 306.469C407.128 306.271 406.531 306.182 406.065 305.885C405.123 305.283 404.224 304.604 403.362 303.891C402.797 303.423 402.359 302.799 401.802 302.316C401.262 301.847 400.68 301.401 400.055 301.06C398.847 300.403 397.603 300.256 396.384 301.082L396.382 301.083Z" fill="#FFAB1B"/>
<path d="M396.771 323.099C397.735 322.764 398.634 322.36 399.671 322.367C400.799 322.375 401.537 323.02 401.479 324.152C401.398 325.772 400.646 327.102 399.48 328.183C399.282 328.365 398.942 328.449 398.661 328.473C397.431 328.579 396.249 328.315 395.157 327.756C393.67 326.997 393.452 325.71 394.656 324.588C395.28 324.005 396.062 323.588 396.771 323.096L396.771 323.099Z" fill="black"/>
<path d="M389.906 315.228C390.414 316.315 389.979 317.297 389.02 317.724C387.622 318.344 385.736 317.218 385.597 315.677C385.481 314.405 386.645 313.355 387.863 313.729C388.778 314.008 389.545 314.577 389.908 315.227L389.906 315.228Z" fill="black"/>
<path d="M396.042 309.456C397.118 308.953 398.15 309.309 398.646 310.213C399.169 311.164 398.977 312.535 398.218 313.295C397.645 313.869 396.684 314.107 395.987 313.761C395.279 313.409 395.083 312.717 395.066 311.984C395.058 311.566 395.108 311.141 395.174 310.726C395.275 310.091 395.65 309.651 396.043 309.455L396.042 309.456Z" fill="black"/>
</svg>
