<svg width="49" height="49" viewBox="0 0 49 49" fill="none" xmlns="http://www.w3.org/2000/svg">
<path fill-rule="evenodd" clip-rule="evenodd" d="M41.0124 3.43102H7.59489C5.07817 3.43102 3.03796 5.47123 3.03796 7.98796V41.4055C3.03796 43.9222 5.07817 45.9624 7.59489 45.9624H41.0124C43.5291 45.9624 45.5693 43.9222 45.5693 41.4055V7.98796C45.5693 5.47123 43.5291 3.43102 41.0124 3.43102ZM7.59489 0.393066C3.40035 0.393066 0 3.79341 0 7.98796V41.4055C0 45.6 3.40035 49.0004 7.59489 49.0004H41.0124C45.2069 49.0004 48.6073 45.6 48.6073 41.4055V7.98796C48.6073 3.79341 45.2069 0.393066 41.0124 0.393066H7.59489Z" fill="#353535"/>
</svg>
