<svg width="834" height="994" viewBox="0 0 834 994" fill="none" xmlns="http://www.w3.org/2000/svg">
<ellipse cx="417" cy="522.593" rx="771" ry="521.951" fill="#36469D"/>
<path d="M273.499 664.739C248.879 606.701 178.069 498.053 146.325 509.188L-44 361.5V876.625H146.325H874.5V473.5C838.682 427.233 712.698 544.087 591.172 664.74C518.357 737.031 370.151 892.583 273.499 664.739Z" fill="#29336D"/>
<path d="M350.982 800.185V891.693C350.982 892.381 350.868 893.065 350.647 893.716L320.818 981.331C320.039 983.617 318.018 985.254 315.62 985.541L244.38 994.052C242.245 994.308 240.127 993.452 238.769 991.784L183.976 924.523C183.711 924.198 183.48 923.847 183.285 923.475L141.422 843.711C140.95 842.811 140.703 841.81 140.703 840.794V734.415C140.703 734.067 140.732 733.72 140.789 733.377L171.896 547.77C172.308 545.311 171.216 542.85 169.17 541.425C93.821 488.941 71.9732 362.943 70.4306 304.602C70.4105 303.841 70.2501 303.124 69.9898 302.408C58.9825 272.149 93.9831 225.581 117.102 201.492C119.777 198.705 119.423 194.16 116.402 191.753C39.4632 130.451 72.5505 71.4129 99.8333 48.7365C100.128 48.4915 100.419 48.2933 100.757 48.1118C123.4 35.9431 186.092 21.5769 220.944 14.617C224.807 13.8455 228.376 16.8145 228.376 20.7539V21.9508C228.376 23.3553 227.905 24.7192 227.038 25.8244L186.823 77.1051C184.946 79.4995 185.056 82.8957 187.084 85.1636L226.505 129.234C227.695 130.565 229.397 131.326 231.183 131.326H269.634C270.415 131.326 271.19 131.18 271.917 130.896L347.856 101.245C349.809 100.482 352.014 100.745 353.733 101.945L418.99 147.503C419.235 147.673 419.467 147.861 419.685 148.065L469.24 194.416C470.509 195.603 471.229 197.262 471.229 199V240.675C471.229 242.761 472.265 244.71 473.994 245.878L517.054 274.944C517.417 275.189 517.803 275.395 518.209 275.559L553.462 289.845C554.21 290.148 555.011 290.304 555.819 290.304H591.175C592.519 290.304 593.827 290.736 594.908 291.535L640.77 325.456C641.85 326.256 643.159 326.687 644.503 326.687H654.391C657.274 326.687 659.787 328.651 660.483 331.449L669.123 366.19C669.702 368.52 668.902 370.977 667.06 372.518L608.845 421.247C607.839 422.088 607.122 423.224 606.795 424.495L593.505 476.104C593.332 476.773 593.05 477.41 592.671 477.988L556.455 533.059C555.294 534.824 553.323 535.887 551.211 535.887H510.864C509.598 535.887 508.361 536.27 507.316 536.987L473.957 559.85C472.25 561.021 471.229 562.958 471.229 565.028V590.547C471.229 592.137 470.626 593.668 469.54 594.831L420.055 647.835C419.593 648.329 419.214 648.896 418.933 649.511L383.991 726.053L351.542 797.593C351.173 798.407 350.982 799.291 350.982 800.185Z" fill="#112830"/>
</svg>
