<svg width="393" height="709" viewBox="0 0 393 709" fill="none" xmlns="http://www.w3.org/2000/svg">
<ellipse cx="188.5" cy="372" rx="549.5" ry="372" fill="#36469D"/>
<path d="M86.2254 473.309C68.6782 431.944 18.2111 354.51 -4.41284 362.445V624.322L405.831 655.239L444.326 362.445C418.798 329.471 399.247 387.319 312.634 473.309C260.738 524.832 155.11 635.695 86.2254 473.309Z" fill="#29336D"/>
<path d="M141.448 569.843V635.062C141.448 635.552 141.368 636.039 141.21 636.503L119.95 698.947C119.395 700.577 117.955 701.743 116.246 701.947L65.4727 708.014C63.9507 708.196 62.4415 707.586 61.4734 706.397L22.4219 658.46C22.2331 658.228 22.068 657.978 21.929 657.713L-7.90703 600.864C-8.24361 600.222 -8.41946 599.509 -8.41946 598.785V522.968C-8.41946 522.72 -8.39887 522.472 -8.35792 522.228L13.8123 389.944C14.106 388.191 13.3279 386.437 11.8696 385.422C-41.8327 348.016 -57.4038 258.216 -58.5032 216.635C-58.5176 216.093 -58.6319 215.582 -58.8174 215.072C-66.6624 193.506 -41.7171 160.316 -25.24 143.147C-23.3336 141.161 -23.5859 137.922 -25.7393 136.207C-80.5741 92.5158 -56.9924 50.4388 -37.5476 34.2772C-37.3375 34.1025 -37.1301 33.9613 -36.8894 33.8319C-20.7517 25.1592 23.9296 14.9202 48.7693 9.95978C51.5226 9.40996 54.0661 11.526 54.0661 14.3336V15.1867C54.0661 16.1877 53.7304 17.1598 53.1127 17.9474L24.451 54.4958C23.1128 56.2022 23.1912 58.6228 24.637 60.2391L52.7323 91.6483C53.581 92.5972 54.7937 93.1395 56.0667 93.1395H83.4714C84.0281 93.1395 84.5799 93.0356 85.0985 92.8331L139.221 71.7004C140.613 71.1569 142.184 71.3441 143.409 72.1994L189.919 104.669C190.093 104.791 190.259 104.925 190.414 105.07L225.732 138.104C226.637 138.95 227.15 140.133 227.15 141.372V171.074C227.15 172.56 227.889 173.95 229.121 174.782L259.81 195.498C260.068 195.672 260.344 195.819 260.633 195.936L285.758 206.118C286.292 206.334 286.862 206.445 287.438 206.445H312.637C313.595 206.445 314.527 206.752 315.297 207.322L347.984 231.498C348.754 232.068 349.686 232.375 350.644 232.375H357.692C359.747 232.375 361.537 233.775 362.033 235.769L368.191 260.53C368.604 262.191 368.033 263.942 366.721 265.04L325.23 299.769C324.514 300.369 324.003 301.179 323.77 302.084L314.297 338.867C314.174 339.344 313.973 339.797 313.703 340.209L287.892 379.459C287.064 380.717 285.66 381.475 284.154 381.475H255.399C254.496 381.475 253.614 381.748 252.869 382.258L229.095 398.553C227.878 399.388 227.15 400.768 227.15 402.244V420.431C227.15 421.565 226.72 422.656 225.947 423.484L190.678 461.261C190.349 461.613 190.079 462.017 189.878 462.456L164.974 517.008L141.848 567.995C141.585 568.575 141.448 569.205 141.448 569.843Z" fill="#112830"/>
</svg>
