<svg width="200" height="61" viewBox="0 0 200 61" fill="none" xmlns="http://www.w3.org/2000/svg">
<rect x="1.8" y="2.51185" width="196.4" height="56.4" rx="28.2" fill="#E2062D" stroke="#BD3543" stroke-width="3.6"/>
<path d="M64.0991 39.2319C60.7991 39.1319 59.2991 36.6919 59.1991 33.6319C59.1391 31.2519 59.9791 28.5119 61.2591 26.7919C62.1991 25.5319 63.3791 24.8119 64.5591 24.7319C66.1991 24.6119 67.2991 25.3119 68.0791 26.3119C69.0191 27.5719 69.2991 29.4319 69.3791 30.2919C69.3991 30.5719 69.2191 30.8119 68.9591 30.8719C68.1791 31.0719 67.3991 31.0919 66.6191 30.8719C66.3991 30.8119 66.2391 30.6119 66.2191 30.3719C66.1791 29.9319 66.0591 29.1719 65.7191 28.5119C65.5591 28.1719 65.2791 27.8519 64.7791 27.8919C64.3391 27.9119 64.0191 28.3719 63.6791 28.8719C63.0591 29.7919 62.5991 31.0719 62.4391 32.3119C62.3391 33.1319 62.3391 33.9319 62.5191 34.6319C62.7391 35.4119 63.2391 36.0319 64.1791 36.0519C64.5791 36.0719 64.8791 35.9119 65.1391 35.7119C65.4591 35.4519 65.6991 35.1519 65.8991 34.8319C66.0191 34.6319 66.2591 34.5319 66.4791 34.5719C67.2391 34.7319 67.9391 35.1119 68.5591 35.7119C68.7591 35.8919 68.7791 36.1719 68.6391 36.4119C68.1591 37.1919 67.4791 38.0119 66.6191 38.5519C65.8991 38.9719 65.0591 39.2519 64.0991 39.2319ZM70.5356 38.6919C70.3156 38.5919 70.1556 38.3719 70.1756 38.1319C70.2356 36.8719 70.7356 26.0919 70.7356 25.8519C70.7556 25.3919 71.1356 25.0319 71.5956 25.0119C71.9556 24.9919 72.3156 24.9919 72.4756 24.9919C73.7356 24.9919 75.1556 25.0719 76.3356 25.3719C78.0156 25.7919 79.2356 26.6719 79.7156 27.8919C80.2156 29.1919 79.8556 30.5919 78.8156 31.8719C78.5356 32.2319 78.1956 32.5919 77.8156 32.9119C78.3156 33.4319 78.7756 34.0119 79.1956 34.6319C79.8756 35.6319 80.1956 36.2119 80.6356 37.3719C80.7156 37.5719 80.6756 37.8119 80.4956 37.9719C79.8556 38.5919 79.0756 38.8719 78.1956 38.8519C77.9756 38.8519 77.7556 38.7119 77.6756 38.4919C77.4956 38.0319 77.0956 37.1319 76.5756 36.4119C76.1556 35.8319 75.7156 35.3119 75.2356 34.8319C74.3956 35.3519 73.7156 35.7319 73.4556 35.8519C73.3956 36.9119 73.3556 37.7919 73.3356 38.2519C73.3356 38.4919 73.1756 38.7119 72.9356 38.7719C72.1156 39.0119 71.3156 38.9919 70.5356 38.6919ZM73.8156 28.1919L73.6356 32.1119C74.1756 31.7719 74.7756 31.3519 75.3156 30.8919C75.7956 30.5119 76.2356 30.0919 76.5156 29.6519C76.6556 29.4319 76.8356 29.2519 76.7556 29.0319C76.6556 28.7519 76.2756 28.6719 75.9156 28.5519C75.3156 28.3519 74.6356 28.2519 73.9356 28.1919C73.8956 28.1919 73.8556 28.1919 73.8156 28.1919ZM90.0638 35.2719C90.7838 35.8319 91.0638 36.6519 90.9238 37.7319C90.8838 37.9319 90.7438 38.1119 90.5438 38.1919C89.4238 38.5319 87.9838 38.8319 86.6638 38.9719C85.3238 39.1119 84.1238 39.0519 83.4438 38.8319C82.8838 38.6919 82.4638 38.3719 82.1638 37.9719C81.5638 37.2319 81.5038 36.2119 81.5038 36.2119C81.5038 36.1719 81.5038 36.1319 81.5038 36.0719C81.5038 36.0719 81.7838 29.0919 81.8438 26.2919C81.8638 25.3919 82.3838 25.1319 83.0238 25.1119C85.2438 25.0919 89.8838 25.0319 90.2038 25.0319C90.4638 25.0119 90.6838 25.1919 90.7638 25.4319C90.9838 26.2319 91.0038 27.0119 90.8038 27.7719C90.7438 28.0119 90.5238 28.1919 90.2638 28.1919L84.9438 28.2719L84.8438 31.0119C86.1038 30.8119 87.4238 30.5919 87.9638 30.5119C88.2038 30.4719 88.4438 30.6119 88.5438 30.8319C88.9038 31.5519 89.0238 32.3319 88.9038 33.1719C88.8838 33.4119 88.6838 33.6119 88.4438 33.6519L84.7438 34.2319L84.6838 35.8919C85.1838 35.9719 86.0438 35.8719 86.9238 35.7519C87.8438 35.6119 88.7838 35.4119 89.5438 35.1719C89.7238 35.1119 89.9238 35.1519 90.0638 35.2719ZM86.3238 23.5719C86.1238 23.4719 85.9638 23.3719 85.7838 23.2519C85.6438 23.1319 85.6038 22.9319 85.6638 22.7519C85.9038 22.0919 86.5438 20.4319 86.8238 19.7119C86.9038 19.4919 87.1238 19.3719 87.3438 19.4319C87.7838 19.5719 88.1438 19.7919 88.4438 20.1119C88.5838 20.2519 88.6038 20.4519 88.5038 20.6319C88.1438 21.2319 87.2638 22.7519 86.8638 23.3919C86.7638 23.5719 86.5238 23.6519 86.3238 23.5719ZM92.1177 38.6719C91.8977 38.5719 91.7577 38.3519 91.7577 38.1119C91.7577 38.1119 92.1377 29.1919 92.2577 26.0719C92.2977 25.4719 92.7777 24.9919 93.3977 24.9719C94.2377 24.9519 95.2177 24.9919 96.1577 25.0919C97.3777 25.2319 99.2777 25.8319 100.598 27.1919C101.658 28.2919 102.398 29.8719 102.078 32.1119C101.778 34.3519 100.418 36.3319 98.3777 37.5519C96.9777 38.3919 95.2777 38.9319 93.3977 38.9119C92.9577 38.9119 92.5377 38.8319 92.1177 38.6719ZM95.3577 28.1919C95.2777 29.9719 95.1377 33.1319 95.0377 35.5119C95.6577 35.3719 96.2377 35.1519 96.7377 34.8319C97.9377 34.1119 98.7777 32.9919 98.9377 31.6919C99.0777 30.6519 98.7977 29.9119 98.3177 29.3919C97.5777 28.6319 96.4777 28.3119 95.7977 28.2319C95.6577 28.2319 95.4977 28.2119 95.3577 28.1919ZM103.309 38.6919C103.089 38.5919 102.949 38.3719 102.949 38.1319C103.029 36.2319 103.389 27.5919 103.489 25.5319C103.489 25.2519 103.689 25.0319 103.969 24.9919C104.749 24.8719 105.509 24.9119 106.229 25.0719C106.489 25.1319 106.649 25.3719 106.649 25.6519C106.569 27.7119 106.209 36.3119 106.109 38.2519C106.109 38.4919 105.949 38.7119 105.709 38.7719C104.889 39.0119 104.089 38.9919 103.309 38.6919ZM108.281 28.3119C108.041 28.3119 107.841 28.1919 107.761 27.9919C107.321 27.0519 107.361 26.2319 107.701 25.4719C107.801 25.2719 108.001 25.1519 108.201 25.1319C109.861 25.1119 117.061 25.0319 117.381 25.0119C117.621 25.0119 117.861 25.1919 117.921 25.4319C118.161 26.2119 118.161 27.0119 117.961 27.7719C117.901 28.0119 117.681 28.1919 117.421 28.1919C117.421 28.1919 116.101 28.2119 114.461 28.2319C114.361 30.7919 114.101 36.6719 114.041 38.2319C114.041 38.4719 113.861 38.6919 113.621 38.7519C112.821 38.9919 112.001 38.9719 111.221 38.6719C111.001 38.5719 110.861 38.3519 110.881 38.1119L111.281 28.2719C109.761 28.2919 108.501 28.3119 108.281 28.3119ZM122.478 39.1919C119.178 39.1119 117.678 36.6719 117.578 33.6119C117.498 31.2119 118.358 28.4719 119.638 26.7719C120.578 25.5119 121.758 24.7719 122.938 24.6919C124.418 24.5919 125.498 25.1719 126.298 25.9919C127.738 27.5119 128.018 30.1319 128.018 30.1319C128.018 30.1319 128.238 31.7119 127.958 33.5319C127.858 34.3319 127.638 35.1519 127.298 35.9119C126.918 36.7319 126.318 37.5719 125.498 38.1919C124.678 38.8319 123.658 39.2319 122.478 39.1919ZM120.818 32.2919C120.718 33.1119 120.718 33.9119 120.898 34.6119C121.118 35.3919 121.618 35.9919 122.558 36.0319C122.958 36.0319 123.298 35.8919 123.558 35.6719C123.958 35.3919 124.238 34.9719 124.418 34.5719C124.698 33.9719 124.818 33.2719 124.878 32.6519C124.998 31.4719 124.858 30.4319 124.858 30.4119C124.858 30.4119 124.778 29.2719 124.198 28.4319C123.978 28.1119 123.658 27.8319 123.158 27.8519C122.718 27.8919 122.318 28.3119 121.998 28.8119C121.358 29.7319 120.978 31.0319 120.818 32.2919ZM129.386 37.8119C129.386 37.8119 129.266 37.7119 129.126 37.6119C128.946 37.4519 128.866 37.1719 128.966 36.9519C129.306 36.1719 129.866 35.5719 130.646 35.1519C130.826 35.0719 131.026 35.0719 131.206 35.1919C131.446 35.3519 131.806 35.5919 131.966 35.6519C132.746 36.0119 133.586 36.0719 134.286 35.9719C134.506 35.9319 134.766 35.8519 134.966 35.7719L134.906 35.7119C134.666 35.5119 134.386 35.3319 134.086 35.1519C133.046 34.5319 131.846 33.9119 131.046 33.0719C130.086 32.0719 129.526 30.8119 129.886 29.0519C130.466 26.3319 132.666 24.6919 134.566 24.6119C135.686 24.5719 136.766 24.9719 137.566 25.9319C138.206 26.7119 138.706 27.9319 138.706 29.6919C138.706 29.6919 138.686 30.1719 138.666 30.4919C138.646 30.7119 138.526 30.9119 138.326 30.9919C137.506 31.2919 136.326 31.1519 135.746 30.7719C135.586 30.6519 135.486 30.4719 135.506 30.2719C135.506 30.0319 135.526 29.6919 135.526 29.6919C135.526 29.0119 135.446 28.4919 135.226 28.1319C135.106 27.8919 134.926 27.7719 134.706 27.7919C133.946 27.8119 133.226 28.6119 133.006 29.6919C132.786 30.7319 133.606 31.1719 134.346 31.6319C135.366 32.2519 136.446 32.7919 137.146 33.4719C138.006 34.3119 138.446 35.3119 138.186 36.6119C138.066 37.1919 137.706 37.7719 137.066 38.2519C136.466 38.6719 135.546 39.0319 134.466 39.1519C132.886 39.3119 130.986 38.9719 129.386 37.8119Z" fill="#EFEFE3"/>
</svg>
