<svg width="61" height="60" viewBox="0 0 61 60" fill="none" xmlns="http://www.w3.org/2000/svg">
<rect x="0.5" width="60" height="60" rx="30" fill="#787878"/>
<rect x="2.03846" y="1.53846" width="56.9231" height="56.9231" rx="28.4615" stroke="black" stroke-opacity="0.45" stroke-width="3.07692"/>
<path d="M30.1064 44.3245C29.7007 44.3245 29.3251 44.2945 28.9345 44.2644L28.0631 45.902C27.8828 46.2476 27.5673 46.4129 27.1617 46.3678C26.7861 46.2927 26.5156 46.0072 26.4706 45.6166L26.2001 43.7987C25.4489 43.5883 24.7278 43.3029 24.0066 43.0024L22.6544 44.2193C22.369 44.4898 22.0084 44.5348 21.6328 44.3395C21.3023 44.1442 21.1671 43.7987 21.2422 43.393L21.6178 41.6052C21.0018 41.1695 20.3708 40.6737 19.8149 40.1178L18.1472 40.8089C17.7716 40.9741 17.4261 40.884 17.1406 40.5535C16.8852 40.268 16.8552 39.8924 17.0655 39.5469L18.0421 37.9844C17.6064 37.3684 17.2308 36.6773 16.8852 35.9561L15.0523 36.0463C14.6617 36.0763 14.3311 35.851 14.1959 35.4904C14.0907 35.0998 14.1959 34.7392 14.4964 34.5138L15.9387 33.372C15.7434 32.6358 15.5931 31.8696 15.5481 31.0583L13.7903 30.5024C13.3996 30.3822 13.1893 30.0967 13.1893 29.6911C13.1893 29.2854 13.3996 29 13.7903 28.8648L15.5481 28.3089C15.5931 27.5126 15.7434 26.7614 15.9387 26.0102L14.4964 24.8684C14.1959 24.628 14.0757 24.2824 14.1959 23.9068C14.3311 23.5463 14.6617 23.3209 15.0523 23.351L16.8852 23.411C17.2308 22.6899 17.6064 22.0288 18.0421 21.3828L17.0655 19.8203C16.8552 19.5048 16.8852 19.1292 17.1406 18.8437C17.4261 18.5132 17.7716 18.4381 18.1472 18.5883L19.8149 19.2644C20.3708 18.7236 21.0018 18.2127 21.6178 17.777L21.2422 16.0042C21.152 15.5835 21.3023 15.238 21.6328 15.0577C22.0084 14.8624 22.369 14.8924 22.6544 15.1779L24.0066 16.3798C24.7278 16.0493 25.4489 15.8089 26.2001 15.5835L26.4706 13.7806C26.5156 13.39 26.7861 13.1046 27.1617 13.0294C27.5673 12.9844 27.8978 13.1496 28.0631 13.4802L28.9345 15.1178C29.3401 15.0877 29.7007 15.0727 30.1064 15.0727C30.497 15.0727 30.8726 15.0877 31.2782 15.1178L32.1346 13.4802C32.2999 13.1496 32.6304 12.9844 33.0361 13.0294C33.4117 13.1046 33.6821 13.39 33.7422 13.7806L33.9976 15.5835C34.7488 15.8089 35.485 16.0643 36.1911 16.3798L37.5433 15.1779C37.8287 14.8924 38.1893 14.8473 38.5649 15.0577C38.8954 15.238 39.0457 15.5835 38.9555 16.0042L38.5799 17.777C39.2109 18.2127 39.8269 18.7236 40.3828 19.2644L42.0505 18.5883C42.4261 18.4381 42.7867 18.5132 43.0721 18.8437C43.3125 19.1292 43.3425 19.5048 43.1322 19.8203L42.1556 21.3828C42.6064 22.0288 42.9669 22.6899 43.3125 23.411L45.1605 23.351C45.5511 23.3209 45.8666 23.5463 46.0018 23.9068C46.122 24.2824 46.0018 24.628 45.7013 24.8684L44.259 26.0102C44.4543 26.7614 44.6046 27.5126 44.6797 28.3239L46.4074 28.8648C46.7981 29 47.0234 29.2854 47.0234 29.6911C47.0234 30.0967 46.7981 30.3822 46.4074 30.5024L44.6797 31.0583C44.6046 31.8696 44.4543 32.6358 44.259 33.372L45.7013 34.5138C46.0168 34.7542 46.122 35.1148 46.0018 35.4904C45.8666 35.851 45.5511 36.0763 45.1605 36.0463L43.3125 35.9561C42.9669 36.6773 42.6064 37.3684 42.1556 37.9844L43.1322 39.5469C43.3425 39.8924 43.3275 40.268 43.0721 40.5535C42.7867 40.884 42.4261 40.9741 42.0505 40.8089L40.3828 40.1178C39.8269 40.6737 39.2109 41.1695 38.5799 41.6052L38.9555 43.393C39.0306 43.7987 38.8954 44.1442 38.5649 44.3395C38.1893 44.5348 37.8287 44.4898 37.5433 44.2193L36.1911 43.0024C35.485 43.3029 34.7488 43.5883 33.9976 43.7987L33.7422 45.6166C33.6821 46.0072 33.4267 46.2927 33.0511 46.3678C32.6304 46.4129 32.3149 46.2476 32.1346 45.902L31.2782 44.2644C30.8726 44.2945 30.497 44.3245 30.1064 44.3245ZM30.0763 25.7848C31.8942 25.7848 33.4267 27.0168 33.8774 28.7145H42.2608C41.78 22.3143 36.6568 17.3413 30.1064 17.3413C28.1532 17.3413 26.3203 17.7921 24.6977 18.5883L28.9946 25.9351C29.3401 25.8299 29.7007 25.7848 30.0763 25.7848ZM17.9069 29.7061C17.9069 33.8377 19.845 37.4735 22.8948 39.7121L27.2969 32.5156C26.5757 31.7945 26.14 30.8179 26.14 29.7211C26.14 28.6244 26.5757 27.6328 27.2969 26.9267L23 19.5949C19.89 21.8335 17.9069 25.5144 17.9069 29.7061ZM30.0763 31.5391C31.098 31.5391 31.8792 30.7428 31.8792 29.7211C31.8792 28.6995 31.098 27.9032 30.0763 27.9032C29.0397 27.9032 28.2584 28.6995 28.2584 29.7211C28.2584 30.7428 29.0397 31.5391 30.0763 31.5391ZM30.1064 42.0559C36.6719 42.0559 41.8101 37.0529 42.2758 30.6526H33.8924C33.4718 32.3804 31.9243 33.6574 30.0763 33.6574C29.7007 33.6574 29.3401 33.5973 29.0096 33.5072L24.5775 40.7488C26.2302 41.5901 28.1082 42.0559 30.1064 42.0559Z" fill="#FCFCFE"/>
</svg>
