<svg width="56" height="56" viewBox="0 0 56 56" fill="none" xmlns="http://www.w3.org/2000/svg">
<path d="M27.6194 55.4709C12.6202 55.4709 0.152243 43.003 0.152243 28.0038C0.152243 12.9776 12.5932 0.536651 27.5924 0.536651C42.6186 0.536651 55.0865 12.9776 55.0865 28.0038C55.0865 43.003 42.6455 55.4709 27.6194 55.4709ZM27.6194 50.8931C40.3297 50.8931 50.5086 40.7141 50.5086 28.0038C50.5086 15.2935 40.3027 5.11451 27.5924 5.11451C14.8822 5.11451 4.75703 15.2935 4.75703 28.0038C4.75703 40.7141 14.9091 50.8931 27.6194 50.8931ZM17.8712 38.6136V27.8961C17.8712 26.0111 18.6522 25.0955 20.2409 24.9878V21.7833C20.2409 16.8284 23.2031 13.5162 27.5924 13.5162C31.9818 13.5162 34.9439 16.8284 34.9439 21.7833V24.9878C36.5327 25.0955 37.3137 26.0111 37.3137 27.8961V38.6136C37.3137 40.6333 36.425 41.5758 34.5669 41.5758H20.6179C18.7599 41.5758 17.8712 40.6333 17.8712 38.6136ZM23.0415 24.9609H32.1434V21.4871C32.1434 18.3364 30.3122 16.236 27.5924 16.236C24.8727 16.236 23.0415 18.3364 23.0415 21.4871V24.9609Z" fill="#282529"/>
</svg>
