<svg width="56" height="56" viewBox="0 0 56 56" fill="none" xmlns="http://www.w3.org/2000/svg">
<path d="M28.3371 55.4734C13.3883 55.4734 0.962227 43.0474 0.962227 28.0986C0.962227 13.1229 13.3614 0.723672 28.3103 0.723672C43.2859 0.723672 55.712 13.1229 55.712 28.0986C55.712 43.0474 43.3128 55.4734 28.3371 55.4734ZM28.3371 50.911C41.0047 50.911 51.1495 40.7661 51.1495 28.0986C51.1495 15.431 40.9779 5.28615 28.3103 5.28615C15.6427 5.28615 5.55155 15.431 5.55155 28.0986C5.55155 40.7661 15.6695 50.911 28.3371 50.911ZM18.6217 38.6728V27.9912C18.6217 26.1125 19.4 25.2 20.9835 25.0927V21.8989C20.9835 16.9607 23.9357 13.6596 28.3103 13.6596C32.6849 13.6596 35.6371 16.9607 35.6371 21.8989V25.0927C37.2205 25.2 37.9988 26.1125 37.9988 27.9912V38.6728C37.9988 40.6856 37.1132 41.625 35.2613 41.625H21.3592C19.5074 41.625 18.6217 40.6856 18.6217 38.6728ZM23.7746 25.0658H32.8459V21.6037C32.8459 18.4637 31.0209 16.3703 28.3103 16.3703C25.5996 16.3703 23.7746 18.4637 23.7746 21.6037V25.0658Z" fill="#B8B8A4"/>
</svg>
