<svg width="52" height="52" viewBox="0 0 52 52" fill="none" xmlns="http://www.w3.org/2000/svg">
<circle cx="26" cy="26" r="26" fill="#405592"/>
<circle cx="26" cy="26" r="24" stroke="black" stroke-opacity="0.25" stroke-width="4"/>
<path d="M24.0069 17.4615C24.0069 16.4332 24.8194 15.6207 25.8351 15.6207C26.8634 15.6207 27.6505 16.4332 27.6505 17.4615C27.6505 18.4772 26.8634 19.2897 25.8351 19.2897C24.8194 19.2897 24.0069 18.4772 24.0069 17.4615ZM20.8585 34.2448C20.8585 33.6354 21.3028 33.2164 21.9757 33.2164H25.1114V24.4567H22.3312C21.671 24.4567 21.214 24.0377 21.214 23.403C21.214 22.7936 21.671 22.3873 22.3312 22.3873H26.3556C27.0157 22.3873 27.4601 22.8444 27.4601 23.5299V33.2164H30.0118C30.6847 33.2164 31.129 33.6354 31.129 34.2448C31.129 34.8668 30.6847 35.2858 30.0118 35.2858H21.9757C21.3028 35.2858 20.8585 34.8668 20.8585 34.2448Z" fill="#FCFCFE"/>
</svg>
