<svg width="227" height="65" viewBox="0 0 227 65" fill="none" xmlns="http://www.w3.org/2000/svg">
<path d="M1.48817 57.7702C0.582978 57.3597 -0.0753458 56.4566 0.00694464 55.4713L1.57046 18.443L1.98192 6.70233C2.06421 3.99294 4.20376 1.94037 6.83705 1.85827C16.0536 1.77617 35.3096 1.52986 36.4616 1.52986C37.4491 1.44776 38.3543 2.18668 38.6835 3.17191C39.5887 6.45602 39.6709 9.65803 38.848 12.7779C38.6012 13.7632 37.696 14.5021 36.6262 14.5021L14.7369 14.8305V15.4052L14.5724 18.9356L14.3255 26.0786C19.5098 25.2575 24.941 24.3544 27.1628 24.026C28.1503 23.8618 29.1378 24.4365 29.5492 25.3396C31.0304 28.2953 31.6065 31.4973 31.1127 34.9457C30.9482 35.9309 30.1252 36.7519 29.1378 36.9161L13.7494 39.2971C13.4203 46.6042 13.1734 53.0903 13.0088 55.9639C13.0088 56.9492 12.2682 57.8523 11.363 58.0986C7.98912 59.0838 4.6975 59.0017 1.48817 57.7702Z" fill="#353236"/>
<path d="M37.7352 57.7702C36.7477 57.5239 36.0071 56.5387 36.0894 55.4713C36.0894 55.0608 36.0894 54.6503 36.0894 54.404C36.7477 38.8866 39.2164 24.6007 42.7549 15.5694C45.1413 9.32962 48.2684 5.06027 51.4777 2.92561C54.6047 0.708835 58.0609 0.134115 61.5994 1.11935C64.315 1.85827 66.7837 3.58243 68.841 6.37392C70.9805 9.32962 72.7086 13.7632 73.8607 18.9356C76.6586 31.8258 76.494 50.2989 76.3294 55.9639C76.3294 57.0313 75.5888 57.9344 74.519 58.1807C71.3097 58.9196 68.0181 58.8375 64.891 57.7702C63.9035 57.4418 63.3275 56.5387 63.3275 55.5534C63.3275 53.6651 63.4098 50.381 63.3275 46.3579C62.34 46.44 61.2703 46.5221 60.2828 46.6042C56.662 47.0968 53.1235 47.6716 49.5027 48.4105C49.3381 50.8736 49.1736 53.4188 49.0913 55.8818C49.009 56.9492 48.3507 57.8523 47.2809 58.0986C44.1538 58.7554 40.9445 58.6733 37.7352 57.7702ZM52.0537 29.9374C51.7246 31.4973 51.3954 33.1394 51.1485 34.8635C53.6172 34.3709 56.1682 34.0425 58.7193 33.7141C60.1182 33.5499 61.4348 33.4678 62.7515 33.3036C62.6692 32.6468 62.6692 31.99 62.5869 31.3331C62.0109 26.2428 61.2703 21.3166 59.9536 17.4578C59.5422 16.3904 59.1307 15.4873 58.7193 14.6663C58.637 14.5021 58.4724 14.3379 58.3901 14.1737C57.8964 14.6663 57.238 15.4873 56.8266 16.1441C54.8516 19.4282 53.2881 24.1902 52.0537 29.9374Z" fill="#353236"/>
<path d="M129.923 7.52336C132.063 10.7254 133.626 15.0768 133.626 20.6598C133.626 20.6598 133.132 34.1246 132.968 38.8045C132.885 39.7897 132.227 40.6928 131.322 40.9391C127.866 41.8423 124.574 41.6781 121.365 40.2823C120.46 39.8718 119.884 38.9687 119.966 38.0656L120.213 30.7584H112.807C112.889 32.2363 112.971 33.7962 113.053 35.192C113.053 36.2593 112.477 37.1624 111.49 37.4908C108.281 38.6403 105.071 38.6403 101.78 37.9013C100.792 37.655 100.052 36.7519 100.052 35.6846C99.8047 31.9079 99.6401 27.7206 99.5578 24.3544C99.5578 21.645 99.5578 19.3461 99.7224 18.1146C100.381 10.9717 103.837 5.88131 107.951 3.08981C111.984 0.298322 116.757 -0.440601 121.2 0.873039C124.327 1.77617 127.537 3.99294 129.923 7.52336ZM120.46 22.7945L120.542 20.6598C120.542 19.0177 120.295 17.5399 119.884 16.3904C119.308 14.8305 118.567 13.6811 117.497 13.3526C116.263 12.9421 115.028 13.7632 114.123 14.9947C113.383 16.1441 112.889 17.622 112.642 19.5103C112.56 20.2493 112.56 21.3987 112.56 22.7945C115.358 22.7945 118.155 22.7945 120.46 22.7945ZM127.866 45.3727C128.771 45.3727 129.676 45.9474 130.005 46.8505C131.404 50.2989 131.157 53.583 130.005 56.8671C129.676 57.7702 128.853 58.427 127.866 58.427C121.447 58.427 86.3091 58.6733 86.3091 58.6733C84.4987 58.6733 82.7706 57.9344 81.5362 56.7029C80.3018 55.3892 79.6435 53.6651 79.7258 51.8588C79.7258 51.8588 81.7008 9.98644 81.9477 3.91084C82.03 2.84351 82.8529 1.94037 83.9226 1.77617C87.2143 1.28355 90.3413 1.44776 93.2215 2.10458C94.2912 2.35089 95.0318 3.33612 94.9496 4.40346C94.785 9.90434 93.0569 45.619 93.0569 45.619C93.0569 45.619 122.517 45.4548 127.866 45.3727Z" fill="#353236"/>
<path d="M148.793 46.8505C149.781 47.7537 150.274 48.9852 150.274 50.2989V51.8588C150.274 52.7619 150.028 53.6651 149.534 54.404C148.464 56.2923 146.16 59.987 144.679 62.5322C143.691 64.0921 141.963 65.0773 140.153 64.9952C138.342 64.9131 136.943 63.4353 136.943 61.629V50.2989C136.943 48.9852 137.437 47.7537 138.425 46.8505C139.33 45.8653 140.564 45.3727 141.881 45.3727C143.033 45.3727 144.185 45.3727 145.337 45.3727C146.654 45.3727 147.888 45.8653 148.793 46.8505Z" fill="#353236"/>
<path d="M208.382 25.4217C208.382 29.609 208.464 40.036 208.464 40.036C208.135 46.6863 205.584 51.4483 202.292 54.404C199.165 57.3597 195.215 58.7554 191.183 58.6733C186.904 58.5912 182.378 56.7029 178.922 53.0903C175.301 49.3957 172.668 43.7306 172.75 36.5056C172.75 36.4235 172.75 36.3414 172.75 36.3414C172.75 36.3414 173.244 26.6533 173.491 22.5481C173.491 21.4808 174.314 20.5777 175.383 20.4135C178.428 19.8388 181.637 19.8388 184.847 20.824C185.834 21.1524 186.575 22.1376 186.493 23.205C186.328 27.1459 185.834 36.7519 185.834 36.7519C185.834 39.3792 186.41 41.596 187.562 43.1559C188.55 44.6338 189.949 45.619 191.348 45.7011C192.335 45.7011 193.323 45.2085 193.981 44.3054C194.886 43.1559 195.298 41.5139 195.38 39.5434C195.38 39.5434 195.38 29.4448 195.298 25.4217C195.298 24.4365 195.956 23.5334 196.943 23.205C200.153 22.2197 203.362 22.3018 206.654 23.205C207.641 23.4513 208.382 24.3544 208.382 25.4217ZM184.024 15.4873C179.004 16.3904 173.82 16.2262 168.471 15.6515C168.059 26.6533 167.072 49.642 166.825 55.8818C166.743 56.8671 166.084 57.7702 165.097 58.0165C161.723 59.0017 158.431 58.9196 155.222 57.6881C154.317 57.2776 153.741 56.3745 153.741 55.3892C153.988 49.1494 155.058 25.5038 155.469 14.3379C151.355 14.0916 147.24 14.2558 143.043 15.5694C142.303 15.8157 141.397 15.6515 140.739 15.0768C138.188 12.6137 137.118 9.32962 137.201 5.47079C137.283 4.48556 137.859 3.58243 138.846 3.33612C139.587 3.08981 140.492 2.7614 141.15 2.5972C147.158 1.11935 153.083 1.03725 158.925 1.52986C165.179 2.10458 171.351 3.25402 177.194 3.08981C180.897 3.00771 184.435 2.35089 187.891 0.298323C188.632 -0.11219 189.62 -0.11219 190.36 0.380424C193.24 2.26879 195.051 5.06028 196.121 8.59069C196.367 9.57592 195.956 10.6433 195.133 11.1359C191.512 13.4348 187.809 14.7484 184.024 15.4873Z" fill="#353236"/>
<path d="M225.19 1.77617C226.259 2.10458 227 3.00771 227 4.15715C226.671 10.8075 225.683 33.7962 225.436 40.036C225.436 41.1034 224.696 41.9244 223.791 42.1707C220.417 43.1559 217.125 43.0738 213.916 41.8423C212.928 41.5139 212.352 40.6107 212.435 39.5434C212.681 33.3857 213.669 10.3148 213.916 3.66453C213.998 2.5151 214.821 1.61196 215.891 1.44776C219.182 0.955145 222.309 1.11935 225.19 1.77617ZM220.17 45.3727C221.487 45.3727 222.721 45.8653 223.626 46.8505C224.614 47.7537 225.107 48.9852 225.107 50.2989V53.7472C225.107 55.0608 224.614 56.2924 223.626 57.1955C222.721 58.1807 221.487 58.6733 220.17 58.6733H216.714C215.397 58.6733 214.163 58.1807 213.258 57.1955C212.27 56.2924 211.776 55.0608 211.776 53.7472V50.2989C211.776 48.9852 212.27 47.7537 213.258 46.8505C214.163 45.8653 215.397 45.3727 216.714 45.3727H220.17Z" fill="#353236"/>
</svg>
