<svg width="247" height="85" viewBox="0 0 247 85" fill="none" xmlns="http://www.w3.org/2000/svg">
<g filter="url(#filter0_d_1171_3905)">
<path d="M11.4882 61.7702C10.583 61.3597 9.92465 60.4566 10.0069 59.4713L11.5705 22.443L11.9819 10.7023C12.0642 7.99294 14.2038 5.94037 16.8371 5.85827C26.0536 5.77617 45.3096 5.52986 46.4616 5.52986C47.4491 5.44776 48.3543 6.18668 48.6835 7.17191C49.5887 10.456 49.6709 13.658 48.848 16.7779C48.6012 17.7632 47.696 18.5021 46.6262 18.5021L24.7369 18.8305V19.4052L24.5724 22.9356L24.3255 30.0786C29.5098 29.2575 34.941 28.3544 37.1628 28.026C38.1503 27.8618 39.1378 28.4365 39.5492 29.3396C41.0304 32.2953 41.6065 35.4973 41.1127 38.9457C40.9482 39.9309 40.1252 40.7519 39.1378 40.9161L23.7494 43.2971C23.4203 50.6042 23.1734 57.0903 23.0088 59.9639C23.0088 60.9492 22.2682 61.8523 21.363 62.0986C17.9891 63.0838 14.6975 63.0017 11.4882 61.7702Z" fill="#EFEFE3"/>
<path d="M47.7352 61.7702C46.7477 61.5239 46.0071 60.5387 46.0894 59.4713C46.0894 59.0608 46.0894 58.6503 46.0894 58.404C46.7477 42.8866 49.2164 28.6007 52.7549 19.5694C55.1413 13.3296 58.2684 9.06027 61.4777 6.92561C64.6047 4.70884 68.0609 4.13411 71.5994 5.11935C74.315 5.85827 76.7837 7.58243 78.841 10.3739C80.9805 13.3296 82.7086 17.7632 83.8607 22.9356C86.6586 35.8258 86.494 54.2989 86.3294 59.9639C86.3294 61.0313 85.5888 61.9344 84.519 62.1807C81.3097 62.9196 78.0181 62.8375 74.891 61.7702C73.9036 61.4418 73.3275 60.5387 73.3275 59.5534C73.3275 57.6651 73.4098 54.381 73.3275 50.3579C72.34 50.44 71.2703 50.5221 70.2828 50.6042C66.662 51.0968 63.1235 51.6716 59.5027 52.4105C59.3381 54.8736 59.1736 57.4188 59.0913 59.8818C59.009 60.9492 58.3507 61.8523 57.2809 62.0986C54.1538 62.7554 50.9445 62.6733 47.7352 61.7702ZM62.0537 33.9374C61.7246 35.4973 61.3954 37.1394 61.1485 38.8635C63.6172 38.3709 66.1682 38.0425 68.7193 37.7141C70.1182 37.5499 71.4348 37.4678 72.7515 37.3036C72.6692 36.6468 72.6692 35.99 72.5869 35.3331C72.0109 30.2428 71.2703 25.3166 69.9536 21.4578C69.5422 20.3904 69.1307 19.4873 68.7193 18.6663C68.637 18.5021 68.4724 18.3379 68.3901 18.1737C67.8964 18.6663 67.238 19.4873 66.8266 20.1441C64.8516 23.4282 63.2881 28.1902 62.0537 33.9374Z" fill="#EFEFE3"/>
<path d="M139.923 11.5234C142.063 14.7254 143.626 19.0768 143.626 24.6598C143.626 24.6598 143.132 38.1246 142.968 42.8045C142.885 43.7897 142.227 44.6928 141.322 44.9391C137.866 45.8423 134.574 45.6781 131.365 44.2823C130.46 43.8718 129.884 42.9687 129.966 42.0656L130.213 34.7584H122.807C122.889 36.2363 122.971 37.7962 123.053 39.192C123.053 40.2593 122.477 41.1624 121.49 41.4908C118.281 42.6403 115.071 42.6403 111.78 41.9013C110.792 41.655 110.052 40.7519 110.052 39.6846C109.805 35.9079 109.64 31.7206 109.558 28.3544C109.558 25.645 109.558 23.3461 109.722 22.1146C110.381 14.9717 113.837 9.88131 117.951 7.08981C121.984 4.29832 126.757 3.5594 131.2 4.87304C134.327 5.77617 137.537 7.99295 139.923 11.5234ZM130.46 26.7945L130.542 24.6598C130.542 23.0177 130.295 21.5399 129.884 20.3904C129.308 18.8305 128.567 17.6811 127.497 17.3526C126.263 16.9421 125.028 17.7632 124.123 18.9947C123.383 20.1441 122.889 21.622 122.642 23.5103C122.56 24.2493 122.56 25.3987 122.56 26.7945C125.358 26.7945 128.155 26.7945 130.46 26.7945ZM137.866 49.3727C138.771 49.3727 139.676 49.9474 140.005 50.8505C141.404 54.2989 141.157 57.583 140.005 60.8671C139.676 61.7702 138.853 62.427 137.866 62.427C131.447 62.427 96.3091 62.6733 96.3091 62.6733C94.4987 62.6733 92.7706 61.9344 91.5362 60.7029C90.3018 59.3892 89.6435 57.6651 89.7258 55.8588C89.7258 55.8588 91.7008 13.9864 91.9477 7.91084C92.03 6.84351 92.8529 5.94037 93.9226 5.77617C97.2143 5.28355 100.341 5.44776 103.221 6.10458C104.291 6.35089 105.032 7.33612 104.95 8.40346C104.785 13.9043 103.057 49.619 103.057 49.619C103.057 49.619 132.517 49.4548 137.866 49.3727Z" fill="#EFEFE3"/>
<path d="M158.793 50.8505C159.781 51.7537 160.274 52.9852 160.274 54.2989V55.8588C160.274 56.7619 160.028 57.6651 159.534 58.404C158.464 60.2923 156.16 63.987 154.679 66.5322C153.691 68.0921 151.963 69.0773 150.153 68.9952C148.342 68.9131 146.943 67.4353 146.943 65.629V54.2989C146.943 52.9852 147.437 51.7537 148.425 50.8505C149.33 49.8653 150.564 49.3727 151.881 49.3727C153.033 49.3727 154.185 49.3727 155.337 49.3727C156.654 49.3727 157.888 49.8653 158.793 50.8505Z" fill="#EFEFE3"/>
<path d="M218.382 29.4217C218.382 33.609 218.464 44.036 218.464 44.036C218.135 50.6863 215.584 55.4483 212.292 58.404C209.165 61.3597 205.215 62.7554 201.183 62.6733C196.904 62.5912 192.378 60.7029 188.922 57.0903C185.301 53.3957 182.668 47.7306 182.75 40.5056C182.75 40.4235 182.75 40.3414 182.75 40.3414C182.75 40.3414 183.244 30.6533 183.491 26.5481C183.491 25.4808 184.314 24.5777 185.383 24.4135C188.428 23.8388 191.637 23.8388 194.847 24.824C195.834 25.1524 196.575 26.1376 196.493 27.205C196.328 31.1459 195.834 40.7519 195.834 40.7519C195.834 43.3792 196.41 45.596 197.562 47.1559C198.55 48.6338 199.949 49.619 201.348 49.7011C202.335 49.7011 203.323 49.2085 203.981 48.3054C204.886 47.1559 205.298 45.5139 205.38 43.5434C205.38 43.5434 205.38 33.4448 205.298 29.4217C205.298 28.4365 205.956 27.5334 206.943 27.205C210.153 26.2197 213.362 26.3018 216.654 27.205C217.641 27.4513 218.382 28.3544 218.382 29.4217ZM194.024 19.4873C189.004 20.3904 183.82 20.2262 178.471 19.6515C178.059 30.6533 177.072 53.642 176.825 59.8818C176.743 60.8671 176.084 61.7702 175.097 62.0165C171.723 63.0017 168.432 62.9196 165.222 61.6881C164.317 61.2776 163.741 60.3745 163.741 59.3892C163.988 53.1494 165.058 29.5038 165.469 18.3379C161.355 18.0916 157.24 18.2558 153.043 19.5694C152.303 19.8157 151.397 19.6515 150.739 19.0768C148.188 16.6137 147.118 13.3296 147.201 9.47079C147.283 8.48556 147.859 7.58243 148.846 7.33612C149.587 7.08981 150.492 6.7614 151.15 6.5972C157.158 5.11935 163.083 5.03725 168.925 5.52986C175.179 6.10458 181.351 7.25402 187.194 7.08981C190.897 7.00771 194.435 6.35089 197.891 4.29832C198.632 3.88781 199.62 3.88781 200.36 4.38042C203.24 6.26879 205.051 9.06028 206.121 12.5907C206.367 13.5759 205.956 14.6433 205.133 15.1359C201.512 17.4348 197.809 18.7484 194.024 19.4873Z" fill="#EFEFE3"/>
<path d="M235.19 5.77617C236.259 6.10458 237 7.00771 237 8.15715C236.671 14.8075 235.683 37.7962 235.437 44.036C235.437 45.1034 234.696 45.9244 233.791 46.1707C230.417 47.1559 227.125 47.0738 223.916 45.8423C222.928 45.5139 222.352 44.6107 222.435 43.5434C222.681 37.3857 223.669 14.3148 223.916 7.66453C223.998 6.5151 224.821 5.61196 225.891 5.44776C229.182 4.95515 232.309 5.11935 235.19 5.77617ZM230.17 49.3727C231.487 49.3727 232.721 49.8653 233.626 50.8505C234.614 51.7537 235.107 52.9852 235.107 54.2989V57.7472C235.107 59.0608 234.614 60.2924 233.626 61.1955C232.721 62.1807 231.487 62.6733 230.17 62.6733H226.714C225.397 62.6733 224.163 62.1807 223.258 61.1955C222.27 60.2924 221.776 59.0608 221.776 57.7472V54.2989C221.776 52.9852 222.27 51.7537 223.258 50.8505C224.163 49.8653 225.397 49.3727 226.714 49.3727H230.17Z" fill="#EFEFE3"/>
</g>
<defs>
<filter id="filter0_d_1171_3905" x="0" y="0" width="247" height="85" filterUnits="userSpaceOnUse" color-interpolation-filters="sRGB">
<feFlood flood-opacity="0" result="BackgroundImageFix"/>
<feColorMatrix in="SourceAlpha" type="matrix" values="0 0 0 0 0 0 0 0 0 0 0 0 0 0 0 0 0 0 127 0" result="hardAlpha"/>
<feOffset dy="6"/>
<feGaussianBlur stdDeviation="5"/>
<feComposite in2="hardAlpha" operator="out"/>
<feColorMatrix type="matrix" values="0 0 0 0 0 0 0 0 0 0 0 0 0 0 0 0 0 0 0.25 0"/>
<feBlend mode="normal" in2="BackgroundImageFix" result="effect1_dropShadow_1171_3905"/>
<feBlend mode="normal" in="SourceGraphic" in2="effect1_dropShadow_1171_3905" result="shape"/>
</filter>
</defs>
</svg>
