<svg width="189" height="51" viewBox="0 0 189 51" fill="none" xmlns="http://www.w3.org/2000/svg">
<path d="M1.15288 44.8566C0.45163 44.5379 -0.05837 43.8366 0.00537998 43.0716L1.21663 14.3204L1.53538 5.20414C1.59913 3.10039 3.25663 1.50664 5.29663 1.44289C12.4366 1.37914 27.3541 1.18789 28.2466 1.18789C29.0116 1.12414 29.7129 1.69789 29.9679 2.46289C30.6691 5.01289 30.7329 7.49914 30.0954 9.92164C29.9041 10.6866 29.2029 11.2604 28.3741 11.2604L11.4166 11.5154V11.9616L11.2891 14.7029L11.0979 20.2491C15.1141 19.6116 19.3216 18.9104 21.0429 18.6554C21.8079 18.5279 22.5729 18.9741 22.8916 19.6754C24.0391 21.9704 24.4854 24.4566 24.1029 27.1341C23.9754 27.8991 23.3379 28.5366 22.5729 28.6641L10.6516 30.5129C10.3966 36.1866 10.2054 41.2229 10.0779 43.4541C10.0779 44.2191 9.50413 44.9204 8.80288 45.1116C6.18913 45.8766 3.63913 45.8129 1.15288 44.8566Z" fill="#353236"/>
<path d="M29.2333 44.8566C28.4683 44.6654 27.8945 43.9004 27.9583 43.0716C27.9583 42.7529 27.9583 42.4341 27.9583 42.2429C28.4683 30.1941 30.3808 19.1016 33.122 12.0891C34.9708 7.24414 37.3933 3.92914 39.8795 2.27164C42.302 0.550388 44.9795 0.104135 47.7208 0.869136C49.8245 1.44289 51.737 2.78164 53.3308 4.94914C54.9883 7.24414 56.327 10.6866 57.2195 14.7029C59.387 24.7116 59.2595 39.0554 59.132 43.4541C59.132 44.2829 58.5583 44.9841 57.7295 45.1754C55.2433 45.7491 52.6933 45.6854 50.2708 44.8566C49.5058 44.6016 49.0595 43.9004 49.0595 43.1354C49.0595 41.6691 49.1233 39.1191 49.0595 35.9954C48.2945 36.0591 47.4658 36.1229 46.7008 36.1866C43.8958 36.5691 41.1545 37.0154 38.3495 37.5891C38.222 39.5016 38.0945 41.4779 38.0308 43.3904C37.967 44.2191 37.457 44.9204 36.6283 45.1116C34.2058 45.6216 31.7195 45.5579 29.2333 44.8566ZM40.3258 23.2454C40.0708 24.4566 39.8158 25.7316 39.6245 27.0704C41.537 26.6879 43.5133 26.4329 45.4895 26.1779C46.5733 26.0504 47.5933 25.9866 48.6133 25.8591C48.5495 25.3491 48.5495 24.8391 48.4858 24.3291C48.0395 20.3766 47.4658 16.5516 46.4458 13.5554C46.127 12.7266 45.8083 12.0254 45.4895 11.3879C45.4258 11.2604 45.2983 11.1329 45.2345 11.0054C44.852 11.3879 44.342 12.0254 44.0233 12.5354C42.4933 15.0854 41.282 18.7829 40.3258 23.2454Z" fill="#353236"/>
<path d="M100.651 5.84164C102.308 8.32789 103.519 11.7066 103.519 16.0416C103.519 16.0416 103.137 26.4966 103.009 30.1304C102.946 30.8954 102.436 31.5966 101.734 31.7879C99.0569 32.4891 96.5069 32.3616 94.0207 31.2779C93.3194 30.9591 92.8732 30.2579 92.9369 29.5566L93.1282 23.8829H87.3907C87.4544 25.0304 87.5182 26.2416 87.5819 27.3254C87.5819 28.1541 87.1357 28.8554 86.3707 29.1104C83.8844 30.0029 81.3982 30.0029 78.8482 29.4291C78.0832 29.2379 77.5094 28.5366 77.5094 27.7079C77.3182 24.7754 77.1907 21.5241 77.1269 18.9104C77.1269 16.8066 77.1269 15.0216 77.2544 14.0654C77.7644 8.51914 80.4419 4.56664 83.6294 2.39914C86.7532 0.231639 90.4507 -0.342112 93.8932 0.677887C96.3157 1.37914 98.8019 3.10039 100.651 5.84164ZM93.3194 17.6991L93.3832 16.0416C93.3832 14.7666 93.1919 13.6191 92.8732 12.7266C92.4269 11.5154 91.8532 10.6229 91.0244 10.3679C90.0682 10.0491 89.1119 10.6866 88.4107 11.6429C87.8369 12.5354 87.4544 13.6829 87.2632 15.1491C87.1994 15.7229 87.1994 16.6154 87.1994 17.6991C89.3669 17.6991 91.5344 17.6991 93.3194 17.6991ZM99.0569 35.2304C99.7582 35.2304 100.459 35.6766 100.714 36.3779C101.798 39.0554 101.607 41.6054 100.714 44.1554C100.459 44.8566 99.8219 45.3666 99.0569 45.3666C94.0844 45.3666 66.8632 45.5579 66.8632 45.5579C65.4607 45.5579 64.1219 44.9841 63.1657 44.0279C62.2094 43.0079 61.6994 41.6691 61.7632 40.2666C61.7632 40.2666 63.2932 7.75414 63.4844 3.03664C63.5482 2.20789 64.1857 1.50664 65.0144 1.37914C67.5644 0.996636 69.9869 1.12414 72.2182 1.63414C73.0469 1.82539 73.6207 2.59039 73.5569 3.41914C73.4294 7.69039 72.0907 35.4216 72.0907 35.4216C72.0907 35.4216 94.9132 35.2941 99.0569 35.2304Z" fill="#353236"/>
<path d="M115.269 36.3779C116.034 37.0791 116.417 38.0354 116.417 39.0554V40.2666C116.417 40.9679 116.226 41.6691 115.843 42.2429C115.014 43.7091 113.229 46.5779 112.082 48.5541C111.317 49.7654 109.978 50.5304 108.576 50.4666C107.173 50.4029 106.089 49.2554 106.089 47.8529V39.0554C106.089 38.0354 106.472 37.0791 107.237 36.3779C107.938 35.6129 108.894 35.2304 109.914 35.2304C110.807 35.2304 111.699 35.2304 112.592 35.2304C113.612 35.2304 114.568 35.6129 115.269 36.3779Z" fill="#353236"/>
<path d="M174.182 19.7391C174.182 22.9904 174.246 31.0866 174.246 31.0866C173.991 36.2504 172.015 39.9479 169.465 42.2429C167.042 44.5379 163.982 45.6216 160.859 45.5579C157.544 45.4941 154.037 44.0279 151.36 41.2229C148.555 38.3541 146.515 33.9554 146.579 28.3454C146.579 28.2816 146.579 28.2179 146.579 28.2179C146.579 28.2179 146.961 20.6954 147.152 17.5079C147.152 16.6791 147.79 15.9779 148.619 15.8504C150.977 15.4041 153.464 15.4041 155.95 16.1691C156.715 16.4241 157.289 17.1891 157.225 18.0179C157.097 21.0779 156.715 28.5366 156.715 28.5366C156.715 30.5766 157.161 32.2979 158.054 33.5091C158.819 34.6566 159.902 35.4216 160.986 35.4854C161.751 35.4854 162.516 35.1029 163.026 34.4016C163.727 33.5091 164.046 32.2341 164.11 30.7041C164.11 30.7041 164.11 22.8629 164.046 19.7391C164.046 18.9741 164.556 18.2729 165.321 18.0179C167.807 17.2529 170.294 17.3166 172.844 18.0179C173.609 18.2091 174.182 18.9104 174.182 19.7391ZM155.312 12.0254C151.424 12.7266 147.407 12.5991 143.264 12.1529C142.945 20.6954 142.18 38.5454 141.989 43.3904C141.925 44.1554 141.415 44.8566 140.65 45.0479C138.036 45.8129 135.486 45.7491 133 44.7929C132.299 44.4741 131.852 43.7729 131.852 43.0079C132.044 38.1629 132.872 19.8029 133.191 11.1329C130.004 10.9416 126.816 11.0691 123.565 12.0891C122.991 12.2804 122.29 12.1529 121.78 11.7066C119.804 9.79414 118.975 7.24414 119.039 4.24789C119.102 3.48289 119.549 2.78164 120.314 2.59039C120.887 2.39914 121.589 2.14414 122.099 2.01664C126.752 0.869137 131.342 0.805388 135.869 1.18789C140.714 1.63414 145.495 2.52664 150.021 2.39914C152.89 2.33539 155.631 1.82539 158.309 0.231638C158.882 -0.0871121 159.647 -0.0871119 160.221 0.295387C162.452 1.76164 163.855 3.92914 164.684 6.67039C164.875 7.43539 164.556 8.26414 163.919 8.64664C161.114 10.4316 158.245 11.4516 155.312 12.0254Z" fill="#353236"/>
<path d="M187.203 1.37914C188.032 1.63414 188.606 2.33539 188.606 3.22789C188.351 8.39164 187.586 26.2416 187.395 31.0866C187.395 31.9154 186.821 32.5529 186.12 32.7441C183.506 33.5091 180.956 33.4454 178.47 32.4891C177.705 32.2341 177.258 31.5329 177.322 30.7041C177.513 25.9229 178.278 8.00914 178.47 2.84539C178.533 1.95289 179.171 1.25164 180 1.12414C182.55 0.741639 184.972 0.869138 187.203 1.37914ZM183.315 35.2304C184.335 35.2304 185.291 35.6129 185.992 36.3779C186.757 37.0791 187.14 38.0354 187.14 39.0554V41.7329C187.14 42.7529 186.757 43.7091 185.992 44.4104C185.291 45.1754 184.335 45.5579 183.315 45.5579H180.637C179.617 45.5579 178.661 45.1754 177.96 44.4104C177.195 43.7091 176.812 42.7529 176.812 41.7329V39.0554C176.812 38.0354 177.195 37.0791 177.96 36.3779C178.661 35.6129 179.617 35.2304 180.637 35.2304H183.315Z" fill="#353236"/>
</svg>
