<svg width="79" height="97" viewBox="0 0 79 97" fill="none" xmlns="http://www.w3.org/2000/svg">
<g filter="url(#filter0_d_1491_22958)">
<path d="M28.6841 39.2014L25.9887 23.6279C25.9439 23.3689 25.8613 23.1177 25.7437 22.8825L24.7444 20.8838C24.2377 19.8705 24.4191 18.6485 25.1983 17.826L40.9008 1.25117C41.6234 0.488418 42.7235 0.21534 43.7189 0.551632L66.1714 8.13694C66.7144 8.32038 67.1847 8.67218 67.5141 9.14123L76.5346 21.9887C77.4043 23.2273 77.0834 24.939 75.8241 25.7785L68.0172 30.9831C67.3749 31.4113 66.9472 32.0944 66.8424 32.8592L63.7731 55.2651C63.6868 55.8952 63.3804 56.4744 62.9081 56.9003L27.8843 88.4842C26.7941 89.4674 25.1174 89.3967 24.1138 88.3253L2.96826 65.751C1.90299 64.6138 2.02175 62.8127 3.22712 61.8251L27.7368 41.7449C28.4878 41.1297 28.8497 40.158 28.6841 39.2014Z" fill="#009F64"/>
<path d="M35.1948 49.343C35.1948 49.343 35.1048 49.268 34.9998 49.193C34.8648 49.073 34.8048 48.863 34.8798 48.698C35.1348 48.113 35.5548 47.663 36.1398 47.348C36.2748 47.288 36.4248 47.288 36.5598 47.378C36.7398 47.498 37.0098 47.678 37.1298 47.723C37.7148 47.993 38.3448 48.038 38.8698 47.963C39.0348 47.933 39.2298 47.873 39.3798 47.813L39.3348 47.768C39.1548 47.618 38.9448 47.483 38.7198 47.348C37.9398 46.883 37.0398 46.418 36.4398 45.788C35.7198 45.038 35.2998 44.093 35.5698 42.773C36.0048 40.733 37.6548 39.503 39.0798 39.443C39.9198 39.413 40.7298 39.713 41.3298 40.433C41.8098 41.018 42.1848 41.933 42.1848 43.253C42.1848 43.253 42.1698 43.613 42.1548 43.853C42.1398 44.018 42.0498 44.168 41.8998 44.228C41.2848 44.453 40.3998 44.348 39.9648 44.063C39.8448 43.973 39.7698 43.838 39.7848 43.688C39.7848 43.508 39.7998 43.253 39.7998 43.253C39.7998 42.743 39.7398 42.353 39.5748 42.083C39.4848 41.903 39.3498 41.813 39.1848 41.828C38.6148 41.843 38.0748 42.443 37.9098 43.253C37.7448 44.033 38.3598 44.363 38.9148 44.708C39.6798 45.173 40.4898 45.578 41.0148 46.088C41.6598 46.718 41.9898 47.468 41.7948 48.443C41.7048 48.878 41.4348 49.313 40.9548 49.673C40.5048 49.988 39.8148 50.258 39.0048 50.348C37.8198 50.468 36.3948 50.213 35.1948 49.343ZM46.5543 50.168C45.4743 50.138 44.6643 49.748 44.0493 49.148C43.2393 48.338 42.8193 47.108 42.7893 45.743C42.7893 45.743 42.9993 41.348 43.0593 40.103C43.0593 39.908 43.2093 39.743 43.4043 39.698C43.9893 39.608 44.5593 39.653 45.1143 39.803C45.3093 39.863 45.4293 40.043 45.4293 40.238C45.3693 41.453 45.1593 45.683 45.1593 45.683C45.1743 46.283 45.2943 46.853 45.5793 47.273C45.7893 47.588 46.1343 47.783 46.6293 47.783C46.8393 47.798 47.0343 47.723 47.1993 47.618C47.4093 47.483 47.5743 47.273 47.6943 47.048C47.9493 46.583 48.0093 45.623 48.0393 44.543C48.0993 43.088 48.0693 41.468 48.0843 40.253C48.0843 40.058 48.2193 39.893 48.4143 39.848C48.9543 39.728 49.5243 39.758 50.1393 39.908C50.3193 39.953 50.4543 40.133 50.4543 40.328C50.4393 41.768 50.4993 43.808 50.3793 45.458C50.2893 46.628 50.0943 47.618 49.7943 48.188C49.4793 48.758 49.0443 49.253 48.5193 49.598C47.9643 49.973 47.3043 50.183 46.5543 50.168ZM52.2656 50.123C51.9356 50.138 51.6206 50.003 51.3956 49.763C51.1706 49.523 51.0506 49.208 51.0656 48.878C51.0656 48.878 51.4256 41.228 51.4706 40.133C51.4856 39.923 51.6356 39.758 51.8306 39.728C52.4306 39.638 53.0006 39.668 53.5256 39.788C53.7206 39.833 53.8556 40.013 53.8556 40.223C53.8106 41.213 53.4956 47.738 53.4956 47.738C53.4956 47.738 56.7506 47.708 57.7256 47.708C57.8906 47.708 58.0556 47.798 58.1156 47.963C58.3706 48.593 58.3256 49.208 58.1156 49.793C58.0556 49.958 57.9056 50.078 57.7256 50.078C56.5556 50.093 52.2656 50.123 52.2656 50.123Z" fill="white"/>
</g>
<defs>
<filter id="filter0_d_1491_22958" x="0.45379" y="0.410156" width="76.5701" height="95.9134" filterUnits="userSpaceOnUse" color-interpolation-filters="sRGB">
<feFlood flood-opacity="0" result="BackgroundImageFix"/>
<feColorMatrix in="SourceAlpha" type="matrix" values="0 0 0 0 0 0 0 0 0 0 0 0 0 0 0 0 0 0 127 0" result="hardAlpha"/>
<feOffset dx="-1.78644" dy="7.14578"/>
<feComposite in2="hardAlpha" operator="out"/>
<feColorMatrix type="matrix" values="0 0 0 0 0.0392157 0 0 0 0 0.384314 0 0 0 0 0.30149 0 0 0 1 0"/>
<feBlend mode="normal" in2="BackgroundImageFix" result="effect1_dropShadow_1491_22958"/>
<feBlend mode="normal" in="SourceGraphic" in2="effect1_dropShadow_1491_22958" result="shape"/>
</filter>
</defs>
</svg>
