<svg width="143" height="40" viewBox="0 0 143 40" fill="none" xmlns="http://www.w3.org/2000/svg">
<rect width="143" height="40" rx="20" fill="#B3B3B3"/>
<circle cx="20" cy="20" r="20" fill="#3E3E3E"/>
<path d="M20 19.864C17.4805 19.864 15.3125 17.614 15.3125 14.7078C15.3125 11.8367 17.4922 9.64526 20 9.64526C22.5078 9.64526 24.6875 11.7898 24.6875 14.6843C24.6875 17.614 22.5078 19.864 20 19.864ZM12.1367 30.7156C10.8828 30.7156 10.1328 30.1296 10.1328 29.157C10.1328 26.1335 13.918 21.9617 19.9883 21.9617C26.0703 21.9617 29.8555 26.1335 29.8555 29.157C29.8555 30.1296 29.1055 30.7156 27.8516 30.7156H12.1367Z" fill="#FCFCFE"/>
</svg>
