<svg width="28" height="22" viewBox="0 0 28 22" fill="none" xmlns="http://www.w3.org/2000/svg">
<path fill-rule="evenodd" clip-rule="evenodd" d="M8.84686 0C8.11784 0 7.52686 0.590984 7.52686 1.32V20.68C7.52686 21.409 8.11784 22 8.84686 22H19.4069C20.1359 22 20.7269 21.409 20.7269 20.68V1.32C20.7269 0.590984 20.1359 0 19.4069 0H8.84686ZM12.3496 1.32C11.8731 1.32 11.4869 1.70626 11.4869 2.18274C11.4869 2.65923 11.8731 3.04549 12.3496 3.04549H15.7338C16.2103 3.04549 16.5965 2.65923 16.5965 2.18274C16.5965 1.70626 16.2103 1.32 15.7338 1.32H12.3496ZM22.0523 6.32331C22.3266 6.08328 22.7436 6.11108 22.9836 6.3854L23.5329 7.01322C24.3199 7.91266 24.2385 9.27746 23.3502 10.077C23.0066 10.3862 22.9666 10.9108 23.2593 11.2685L23.4933 11.5545C24.1669 12.3777 24.2239 13.5443 23.6339 14.4293L23.036 15.3261C22.8338 15.6294 22.4241 15.7114 22.1208 15.5092C21.8175 15.307 21.7355 14.8972 21.9377 14.5939L22.5356 13.6971C22.8038 13.2948 22.7779 12.7646 22.4717 12.3904L22.2377 12.1044C21.4987 11.2011 21.5997 9.87656 22.4672 9.09583C22.819 8.77918 22.8512 8.23866 22.5395 7.88244L21.9902 7.25462C21.7502 6.9803 21.778 6.56334 22.0523 6.32331ZM26.7236 6.6054C26.4836 6.33108 26.0666 6.30328 25.7923 6.54331C25.518 6.78334 25.4902 7.2003 25.7302 7.47462L26.2795 8.10245C26.5912 8.45866 26.559 8.99918 26.2072 9.31583C25.3397 10.0966 25.2387 11.4211 25.9777 12.3244L26.2117 12.6104C26.5179 12.9846 26.5438 13.5148 26.2756 13.9171L25.6777 14.8139C25.4755 15.1172 25.5575 15.527 25.8608 15.7292C26.1641 15.9314 26.5738 15.8494 26.776 15.5461L27.3739 14.6493C27.9639 13.7643 27.9069 12.5977 27.2333 11.7745L26.9993 11.4885C26.7066 11.1308 26.7466 10.6062 27.0902 10.297C27.9785 9.49746 28.0599 8.13266 27.2729 7.23322L26.7236 6.6054ZM5.76145 6.10331C5.48713 5.86328 5.07017 5.89108 4.83014 6.1654L4.28079 6.79322C3.49378 7.69266 3.57519 9.05746 4.46353 9.85698C4.80709 10.1662 4.8471 10.6908 4.55441 11.0485L4.3204 11.3345C3.64684 12.1577 3.5898 13.3243 4.17982 14.2093L4.77768 15.1061C4.97988 15.4094 5.38965 15.4914 5.69294 15.2892C5.99623 15.087 6.07818 14.6772 5.87599 14.3739L5.27812 13.4771C5.00993 13.0748 5.03586 12.5446 5.34202 12.1704L5.57604 11.8844C6.31507 10.9811 6.21404 9.65656 5.34657 8.87583C4.99474 8.55919 4.9625 8.01866 5.27419 7.66245L5.82354 7.03462C6.06357 6.7603 6.03577 6.34334 5.76145 6.10331ZM1.09013 6.3854C1.33016 6.11108 1.74713 6.08328 2.02145 6.32331C2.29577 6.56334 2.32357 6.9803 2.08354 7.25462L1.53419 7.88244C1.2225 8.23866 1.25474 8.77918 1.60656 9.09583C2.47404 9.87656 2.57507 11.2011 1.83604 12.1044L1.60202 12.3904C1.29586 12.7646 1.26993 13.2948 1.53812 13.6971L2.13599 14.5939C2.33818 14.8972 2.25623 15.307 1.95294 15.5092C1.64965 15.7114 1.23987 15.6294 1.03768 15.3261L0.439814 14.4293C-0.150206 13.5443 -0.0931605 12.3777 0.580399 11.5545L0.814412 11.2685C1.1071 10.9108 1.06709 10.3862 0.723531 10.077C-0.164816 9.27746 -0.246222 7.91266 0.540789 7.01322L1.09013 6.3854Z" fill="#353535"/>
</svg>
