<svg width="834" height="994" viewBox="0 0 834 994" fill="none" xmlns="http://www.w3.org/2000/svg">
<ellipse cx="417" cy="522.593" rx="771" ry="521.951" fill="#36469D"/>
<path d="M273.499 664.739C248.879 606.701 178.069 498.053 146.325 509.188L-44 361.5V876.625H146.325H874.5V473.5C838.682 427.233 712.698 544.087 591.172 664.74C518.357 737.031 370.151 892.583 273.499 664.739Z" fill="#29336D"/>
<path d="M350.982 800.185V891.693C350.982 892.382 350.868 893.065 350.647 893.716L320.818 981.331C320.039 983.617 318.018 985.254 315.62 985.541L244.38 994.052C242.245 994.308 240.127 993.452 238.769 991.784L183.976 924.523C183.711 924.198 183.48 923.847 183.285 923.476L141.422 843.711C140.95 842.811 140.703 841.81 140.703 840.794V734.415C140.703 734.067 140.732 733.72 140.789 733.378L171.896 547.77C172.308 545.311 171.216 542.85 169.17 541.425C93.821 488.941 71.9732 362.943 70.4306 304.602C70.4105 303.841 70.2501 303.124 69.9898 302.408C58.9825 272.149 93.9831 225.581 117.102 201.492C119.777 198.705 119.423 194.16 116.402 191.753C39.4632 130.451 72.5505 71.4129 99.8333 48.7365C100.128 48.4915 100.419 48.2933 100.757 48.1118C123.4 35.9431 186.092 21.5769 220.944 14.617C224.807 13.8455 228.376 16.8145 228.376 20.7539V21.9508C228.376 23.3553 227.905 24.7192 227.038 25.8244L186.823 77.1051C184.946 79.4995 185.056 82.8957 187.084 85.1636L226.505 129.234C227.695 130.565 229.397 131.326 231.183 131.326H269.634C270.415 131.326 271.19 131.18 271.917 130.896L347.856 101.245C349.809 100.482 352.014 100.745 353.733 101.945L418.99 147.503C419.235 147.673 419.467 147.861 419.685 148.065L469.24 194.416C470.509 195.603 471.229 197.262 471.229 199V240.675C471.229 242.761 472.265 244.71 473.994 245.878L517.054 274.944C517.417 275.189 517.803 275.395 518.209 275.559L553.462 289.845C554.21 290.148 555.011 290.304 555.819 290.304H591.175C592.519 290.304 593.827 290.736 594.908 291.535L640.77 325.457C641.85 326.256 643.159 326.687 644.503 326.687H654.391C657.274 326.687 659.787 328.651 660.483 331.449L669.123 366.19C669.702 368.52 668.902 370.977 667.06 372.518L608.845 421.247C607.839 422.089 607.122 423.224 606.795 424.495L593.505 476.104C593.332 476.774 593.05 477.41 592.671 477.988L556.455 533.059C555.294 534.824 553.323 535.887 551.211 535.887H510.864C509.598 535.887 508.361 536.27 507.316 536.987L473.957 559.85C472.25 561.021 471.229 562.958 471.229 565.028V590.547C471.229 592.137 470.626 593.668 469.54 594.831L420.055 647.835C419.593 648.329 419.214 648.896 418.933 649.511L383.991 726.053L351.542 797.593C351.173 798.407 350.982 799.291 350.982 800.185Z" fill="#112830"/>
<path d="M607.162 421.613L594.578 479.63C593.69 483.722 587.796 483.549 587.149 479.412L583.169 453.955C582.978 452.736 582.205 451.687 581.097 451.144L536.4 429.242C535.882 428.989 535.313 428.857 534.736 428.857H519.841C517.451 428.857 515.66 426.666 516.137 424.323L520.02 405.231L524.074 377.752C524.202 376.883 524.023 375.996 523.568 375.244L501.489 338.744C501.244 338.34 501.078 337.894 500.998 337.428L496.144 309.187C495.999 308.348 496.143 307.484 496.551 306.737L514.236 274.313C515.12 272.693 517.044 271.948 518.788 272.55L554.859 285.003C555.256 285.14 555.673 285.21 556.093 285.21H594.762C595.625 285.21 596.462 285.506 597.134 286.047L641.364 321.702C642.036 322.244 642.873 322.539 643.737 322.539H655.743C657.589 322.539 659.165 323.872 659.471 325.692L666.4 366.88C666.617 368.17 666.152 369.48 665.17 370.345L628.227 402.868L608.424 419.521C607.783 420.059 607.34 420.795 607.162 421.613Z" stroke="#009F64" stroke-width="7.01547" stroke-linecap="round"/>
<path d="M471.383 245.124L512.743 269.564C514.509 270.607 515.12 272.868 514.121 274.66L496.237 306.729C495.807 307.499 495.661 308.395 495.822 309.261L501.06 337.417C501.143 337.86 501.303 338.284 501.535 338.671L523.638 375.508C524.089 376.26 524.265 377.146 524.134 378.014L520.661 401.17C520.362 403.165 518.549 404.574 516.542 404.371L468.435 399.499C466.37 399.29 464.859 397.455 465.052 395.388L467.175 372.559C467.363 370.544 465.929 368.738 463.924 368.464L402.84 360.105C401.603 359.936 400.53 359.167 399.971 358.05L393.588 345.283C392.379 342.865 389.096 342.461 387.337 344.514L378.142 355.241C377.424 356.079 376.376 356.561 375.272 356.561H341.504C339.417 356.561 337.724 358.253 337.724 360.341V376.167C337.724 377.738 338.695 379.145 340.164 379.702L354.54 385.155C356.49 385.894 357.472 388.074 356.736 390.025L349.857 408.24C349.109 410.22 346.881 411.2 344.916 410.414L298.894 392.005C297.459 391.431 296.517 390.041 296.517 388.496V374.774C296.517 372.134 293.881 370.307 291.41 371.234L256.006 384.511C255.308 384.772 254.548 384.822 253.822 384.653L237.541 380.867C235.829 380.469 234.617 378.943 234.617 377.185V366.05C234.617 363.615 232.349 361.815 229.978 362.368L222.604 364.089C221.269 364.401 219.87 363.965 218.948 362.951L198.297 340.234C197.381 339.227 197.078 337.806 197.502 336.513L206.011 310.581C206.457 309.222 207.632 308.231 209.047 308.02L238.745 303.606C240.48 303.348 241.809 301.931 241.956 300.184L245.434 258.888C245.468 258.483 245.436 258.075 245.341 257.68L238.865 230.968C238.354 228.861 239.717 226.757 241.849 226.361L269.137 221.293C270.31 221.075 271.517 221.424 272.394 222.235L288.088 236.752C289.19 237.772 290.791 238.042 292.167 237.442L312.724 228.472C314.517 227.689 315.417 225.668 314.798 223.812L308.69 205.489C307.989 203.384 309.242 201.131 311.4 200.616L355.617 190.069C357.483 189.624 359.387 190.647 360.045 192.448L375.726 235.365C376.369 237.126 378.206 238.149 380.042 237.769L402.197 233.185C403.475 232.921 404.527 232.015 404.978 230.79L409.551 218.378C410.277 216.408 412.467 215.407 414.431 216.147L441.644 226.401C442.791 226.833 444.075 226.683 445.091 225.998L462.603 214.188C465.055 212.534 468.371 214.21 468.494 217.164L469.53 242.027C469.583 243.307 470.281 244.473 471.383 245.124Z" fill="#009F64" stroke="#009F64" stroke-width="7.01547" stroke-linecap="round"/>
<path d="M358.382 445.099L348.874 413.119C348.629 412.295 348.673 411.412 348.997 410.615L357.389 390.018C358.206 388.013 357.175 385.732 355.13 385.021L339.694 379.652C338.174 379.123 337.155 377.691 337.155 376.082V360.341C337.155 358.253 338.848 356.561 340.935 356.561H375.077C376.198 356.561 377.262 356.062 377.981 355.2L387.244 344.085C389.009 341.966 392.375 342.39 393.561 344.879L399.591 357.544C400.141 358.699 401.238 359.497 402.506 359.666L464.4 367.889C466.429 368.159 467.874 369.994 467.662 372.03L465.136 396.207C464.916 398.309 466.463 400.183 468.568 400.366L515.029 404.406C517.216 404.596 518.781 406.602 518.434 408.769L515.296 428.384L505.776 467.372C505.519 468.421 504.827 469.31 503.873 469.815L458.77 493.72C458.341 493.948 457.96 494.255 457.648 494.627L419.917 539.484C418.02 541.74 414.387 541.053 413.443 538.262L405.122 513.645C404.603 512.109 403.162 511.075 401.541 511.075H384.607C382.629 511.075 380.985 509.55 380.837 507.578L377.02 456.677C376.914 455.262 376.025 454.026 374.717 453.476L360.538 447.506C359.496 447.067 358.704 446.184 358.382 445.099Z" stroke="#009F64" stroke-width="7.01547" stroke-linecap="round"/>
<path d="M553.51 534.099L505.563 537.207C504.823 537.255 504.114 537.519 503.524 537.967L493.013 545.935C491.266 547.259 488.762 546.824 487.564 544.988L475.879 527.084C475.397 526.345 474.671 525.798 473.828 525.537L446.861 517.215C444.313 516.429 443.358 513.324 445.024 511.242L457.901 495.145C458.225 494.74 458.628 494.407 459.086 494.165L502.973 470.953C503.901 470.462 504.584 469.606 504.856 468.591L514.52 432.588C514.937 431.033 516.295 429.912 517.901 429.798L533.851 428.658C534.512 428.611 535.174 428.739 535.771 429.028L580.8 450.881C581.907 451.418 582.683 452.46 582.881 453.674L587.25 480.515C587.396 481.411 587.215 482.329 586.74 483.102L556.486 532.307C555.843 533.352 554.734 534.02 553.51 534.099Z" stroke="#009F64" stroke-width="7.01547" stroke-linecap="round"/>
<path d="M421.361 571.749L417.579 549.898C417.516 549.534 417.4 549.182 417.235 548.852L415.833 546.048C415.122 544.626 415.377 542.911 416.47 541.757L438.502 518.501C439.516 517.431 441.06 517.048 442.456 517.52L473.959 528.162C474.721 528.42 475.381 528.913 475.843 529.572L488.5 547.598C489.72 549.336 489.27 551.737 487.503 552.915L476.549 560.218C475.648 560.819 475.048 561.777 474.901 562.85L470.594 594.288C470.473 595.172 470.043 595.984 469.381 596.582L420.239 640.897C418.709 642.277 416.357 642.178 414.948 640.674L385.279 609C383.785 607.405 383.951 604.878 385.642 603.492L420.032 575.318C421.086 574.454 421.593 573.091 421.361 571.749Z" stroke="#009F64" stroke-width="7.01547" stroke-linecap="round"/>
</svg>
