<svg width="30" height="30" viewBox="0 0 30 30" fill="none" xmlns="http://www.w3.org/2000/svg">
<path fill-rule="evenodd" clip-rule="evenodd" d="M15.2419 0C15.91 0 16.4516 0.541592 16.4516 1.20968V4.59678C16.4516 5.26486 15.91 5.80645 15.2419 5.80645C14.5738 5.80645 14.0323 5.26486 14.0323 4.59678V1.20968C14.0323 0.541592 14.5738 0 15.2419 0ZM4.22527 4.70915C4.69768 4.23674 5.46361 4.23674 5.93602 4.70915L8.33106 7.10418C8.80346 7.57659 8.80346 8.34252 8.33106 8.81493C7.85865 9.28733 7.09272 9.28733 6.62031 8.81493L4.22527 6.41989C3.75287 5.94748 3.75287 5.18155 4.22527 4.70915ZM23.7278 4.70915C24.2002 4.23674 24.9661 4.23674 25.4385 4.70915C25.9109 5.18155 25.9109 5.94748 25.4385 6.41989L23.0435 8.81493C22.5711 9.28733 21.8052 9.28733 21.3327 8.81493C20.8603 8.34252 20.8603 7.57659 21.3327 7.10418L23.7278 4.70915ZM30 15.242C30 14.5739 29.4584 14.0323 28.7903 14.0323H25.4032C24.7351 14.0323 24.1936 14.5739 24.1936 15.242C24.1935 15.9101 24.7351 16.4517 25.4032 16.4517H28.7903C29.4584 16.4517 30 15.9101 30 15.242ZM16.4516 25.4032C16.4516 24.7351 15.91 24.1936 15.2419 24.1936C14.5738 24.1936 14.0323 24.7351 14.0323 25.4032V28.7903C14.0323 29.4584 14.5738 30 15.2419 30C15.91 30 16.4516 29.4584 16.4516 28.7903V25.4032ZM21.3328 21.8166C21.8052 21.3442 22.5711 21.3442 23.0435 21.8166L25.4385 24.2116C25.9109 24.684 25.9109 25.4499 25.4385 25.9224C24.9661 26.3948 24.2002 26.3948 23.7278 25.9224L21.3328 23.5273C20.8603 23.0549 20.8603 22.289 21.3328 21.8166ZM6.62029 21.8166C7.0927 21.3442 7.85863 21.3442 8.33104 21.8166C8.80344 22.289 8.80344 23.0549 8.33104 23.5273L5.936 25.9224C5.46359 26.3948 4.69766 26.3948 4.22525 25.9224C3.75285 25.4499 3.75285 24.684 4.22525 24.2116L6.62029 21.8166ZM5.80645 15.2419C5.80645 14.5738 5.26486 14.0323 4.59677 14.0323H1.20968C0.541592 14.0323 0 14.5738 0 15.2419C0 15.91 0.541592 16.4516 1.20968 16.4516H4.59677C5.26486 16.4516 5.80645 15.91 5.80645 15.2419ZM15.2419 22.0161C18.9832 22.0161 22.0161 18.9832 22.0161 15.2419C22.0161 11.5007 18.9832 8.46774 15.2419 8.46774V22.0161ZM23.4677 15.2419C23.4677 19.7849 19.7849 23.4677 15.2419 23.4677C10.6989 23.4677 7.01613 19.7849 7.01613 15.2419C7.01613 10.6989 10.6989 7.01613 15.2419 7.01613C19.7849 7.01613 23.4677 10.6989 23.4677 15.2419Z" fill="#353535"/>
</svg>
