<svg width="40" height="40" viewBox="0 0 40 40" fill="none" xmlns="http://www.w3.org/2000/svg">
<circle cx="20" cy="20" r="20" fill="#248947"/>
<path d="M19.9124 32.0727C19.5832 32.0727 19.2784 32.0484 18.9613 32.024L18.2541 33.3531C18.1078 33.6335 17.8517 33.7676 17.5225 33.731C17.2177 33.6701 16.9982 33.4384 16.9616 33.1214L16.7421 31.646C16.1325 31.4753 15.5472 31.2436 14.9619 30.9997L13.8645 31.9874C13.6328 32.2069 13.3402 32.2434 13.0353 32.0849C12.7671 31.9264 12.6573 31.646 12.7183 31.3167L13.0231 29.8657C12.5232 29.5121 12.0111 29.1097 11.5599 28.6586L10.2065 29.2195C9.90162 29.3536 9.62117 29.2804 9.38949 29.0122C9.1822 28.7805 9.15782 28.4757 9.32852 28.1952L10.1211 26.9271C9.76749 26.4272 9.46265 25.8663 9.1822 25.281L7.69461 25.3542C7.37758 25.3786 7.10932 25.1957 6.99958 24.903C6.91423 24.586 6.99958 24.2933 7.24345 24.1104L8.41402 23.1837C8.2555 22.5863 8.13357 21.9644 8.09699 21.306L6.67036 20.8548C6.35333 20.7572 6.18262 20.5256 6.18262 20.1964C6.18262 19.8671 6.35333 19.6355 6.67036 19.5257L8.09699 19.0746C8.13357 18.4283 8.2555 17.8186 8.41402 17.209L7.24345 16.2823C6.99958 16.0872 6.90203 15.8067 6.99958 15.5019C7.10932 15.2092 7.37758 15.0263 7.69461 15.0507L9.1822 15.0995C9.46265 14.5142 9.76749 13.9777 10.1211 13.4534L9.32852 12.1853C9.15782 11.9292 9.1822 11.6244 9.38949 11.3927C9.62117 11.1244 9.90162 11.0635 10.2065 11.1854L11.5599 11.7341C12.0111 11.2952 12.5232 10.8806 13.0231 10.527L12.7183 9.08815C12.6451 8.74673 12.7671 8.46628 13.0353 8.31996C13.3402 8.16145 13.6328 8.18583 13.8645 8.41751L14.9619 9.39298C15.5472 9.12473 16.1325 8.92963 16.7421 8.74673L16.9616 7.28352C16.9982 6.96649 17.2177 6.73482 17.5225 6.67385C17.8517 6.63727 18.12 6.7714 18.2541 7.03965L18.9613 8.36873C19.2905 8.34435 19.5832 8.33215 19.9124 8.33215C20.2294 8.33215 20.5343 8.34435 20.8635 8.36873L21.5585 7.03965C21.6927 6.7714 21.9609 6.63727 22.2901 6.67385C22.595 6.73482 22.8144 6.96649 22.8632 7.28352L23.0705 8.74673C23.6802 8.92963 24.2777 9.13692 24.8507 9.39298L25.9482 8.41751C26.1798 8.18583 26.4725 8.14925 26.7773 8.31996C27.0456 8.46628 27.1675 8.74673 27.0943 9.08815L26.7895 10.527C27.3016 10.8806 27.8016 11.2952 28.2527 11.7341L29.6062 11.1854C29.911 11.0635 30.2037 11.1244 30.4353 11.3927C30.6304 11.6244 30.6548 11.9292 30.4841 12.1853L29.6915 13.4534C30.0573 13.9777 30.35 14.5142 30.6304 15.0995L32.1302 15.0507C32.4472 15.0263 32.7033 15.2092 32.8131 15.5019C32.9106 15.8067 32.8131 16.0872 32.5692 16.2823L31.3986 17.209C31.5571 17.8186 31.6791 18.4283 31.74 19.0867L33.1423 19.5257C33.4593 19.6355 33.6422 19.8671 33.6422 20.1964C33.6422 20.5256 33.4593 20.7572 33.1423 20.8548L31.74 21.306C31.6791 21.9644 31.5571 22.5863 31.3986 23.1837L32.5692 24.1104C32.8252 24.3055 32.9106 24.5982 32.8131 24.903C32.7033 25.1957 32.4472 25.3786 32.1302 25.3542L30.6304 25.281C30.35 25.8663 30.0573 26.4272 29.6915 26.9271L30.4841 28.1952C30.6548 28.4757 30.6426 28.7805 30.4353 29.0122C30.2037 29.2804 29.911 29.3536 29.6062 29.2195L28.2527 28.6586C27.8016 29.1097 27.3016 29.5121 26.7895 29.8657L27.0943 31.3167C27.1553 31.646 27.0456 31.9264 26.7773 32.0849C26.4725 32.2434 26.1798 32.2069 25.9482 31.9874L24.8507 30.9997C24.2777 31.2436 23.6802 31.4753 23.0705 31.646L22.8632 33.1214C22.8144 33.4384 22.6072 33.6701 22.3023 33.731C21.9609 33.7676 21.7048 33.6335 21.5585 33.3531L20.8635 32.024C20.5343 32.0484 20.2294 32.0727 19.9124 32.0727ZM19.888 17.0261C21.3634 17.0261 22.6072 18.0259 22.973 19.4038H29.7769C29.3867 14.2094 25.2287 10.1734 19.9124 10.1734C18.3273 10.1734 16.8397 10.5392 15.5228 11.1854L19.0101 17.148C19.2905 17.0626 19.5832 17.0261 19.888 17.0261ZM10.0114 20.2085C10.0114 23.5617 11.5843 26.5125 14.0596 28.3294L17.6322 22.4887C17.047 21.9034 16.6934 21.1109 16.6934 20.2207C16.6934 19.3306 17.047 18.5259 17.6322 17.9528L14.1449 12.0024C11.6209 13.8192 10.0114 16.8066 10.0114 20.2085ZM19.888 21.6961C20.7172 21.6961 21.3512 21.0499 21.3512 20.2207C21.3512 19.3916 20.7172 18.7453 19.888 18.7453C19.0467 18.7453 18.4126 19.3916 18.4126 20.2207C18.4126 21.0499 19.0467 21.6961 19.888 21.6961ZM19.9124 30.2315C25.2409 30.2315 29.4111 26.1711 29.7891 20.9767H22.9852C22.6437 22.379 21.3878 23.4154 19.888 23.4154C19.5832 23.4154 19.2905 23.3666 19.0223 23.2935L15.4252 29.1707C16.7665 29.8535 18.2907 30.2315 19.9124 30.2315Z" fill="#FCFCFE"/>
</svg>
