<svg width="144" height="39" viewBox="0 0 144 39" fill="none" xmlns="http://www.w3.org/2000/svg">
<path d="M1.87088 34.472C1.34288 34.232 0.958875 33.704 1.00688 33.128L1.91888 11.48L2.15888 4.616C2.20688 3.032 3.45488 1.832 4.99088 1.784C10.3669 1.736 21.5989 1.592 22.2709 1.592C22.8469 1.544 23.3749 1.976 23.5669 2.552C24.0949 4.472 24.1429 6.344 23.6629 8.168C23.5189 8.744 22.9909 9.176 22.3669 9.176L9.59888 9.368V9.704L9.50288 11.768L9.35888 15.944C12.3829 15.464 15.5509 14.936 16.8469 14.744C17.4229 14.648 17.9989 14.984 18.2389 15.512C19.1029 17.24 19.4389 19.112 19.1509 21.128C19.0549 21.704 18.5749 22.184 17.9989 22.28L9.02288 23.672C8.83088 27.944 8.68688 31.736 8.59088 33.416C8.59088 33.992 8.15888 34.52 7.63088 34.664C5.66288 35.24 3.74288 35.192 1.87088 34.472ZM23.0138 34.472C22.4378 34.328 22.0058 33.752 22.0538 33.128C22.0538 32.888 22.0538 32.648 22.0538 32.504C22.4378 23.432 23.8778 15.08 25.9418 9.8C27.3338 6.152 29.1578 3.656 31.0298 2.408C32.8538 1.112 34.8698 0.775997 36.9338 1.352C38.5178 1.784 39.9578 2.792 41.1578 4.424C42.4058 6.152 43.4138 8.744 44.0858 11.768C45.7178 19.304 45.6218 30.104 45.5258 33.416C45.5258 34.04 45.0938 34.568 44.4698 34.712C42.5978 35.144 40.6778 35.096 38.8538 34.472C38.2778 34.28 37.9418 33.752 37.9418 33.176C37.9418 32.072 37.9898 30.152 37.9418 27.8C37.3658 27.848 36.7418 27.896 36.1658 27.944C34.0538 28.232 31.9898 28.568 29.8778 29C29.7818 30.44 29.6858 31.928 29.6378 33.368C29.5898 33.992 29.2058 34.52 28.5818 34.664C26.7578 35.048 24.8858 35 23.0138 34.472ZM31.3658 18.2C31.1738 19.112 30.9818 20.072 30.8378 21.08C32.2778 20.792 33.7657 20.6 35.2538 20.408C36.0698 20.312 36.8378 20.264 37.6058 20.168C37.5578 19.784 37.5578 19.4 37.5098 19.016C37.1738 16.04 36.7418 13.16 35.9738 10.904C35.7338 10.28 35.4938 9.752 35.2538 9.272C35.2057 9.176 35.1098 9.08 35.0618 8.984C34.7738 9.272 34.3898 9.752 34.1498 10.136C32.9978 12.056 32.0858 14.84 31.3658 18.2ZM76.7869 5.096C78.0349 6.968 78.9469 9.512 78.9469 12.776C78.9469 12.776 78.6589 20.648 78.5629 23.384C78.5149 23.96 78.1309 24.488 77.6029 24.632C75.5869 25.16 73.6669 25.064 71.7949 24.248C71.2669 24.008 70.9309 23.48 70.9789 22.952L71.1229 18.68H66.8029C66.8509 19.544 66.8989 20.456 66.9469 21.272C66.9469 21.896 66.6109 22.424 66.0349 22.616C64.1629 23.288 62.2909 23.288 60.3709 22.856C59.7949 22.712 59.3629 22.184 59.3629 21.56C59.2189 19.352 59.1229 16.904 59.0749 14.936C59.0749 13.352 59.0749 12.008 59.1709 11.288C59.5549 7.112 61.5709 4.136 63.9709 2.504C66.3229 0.871999 69.1069 0.439999 71.6989 1.208C73.5229 1.736 75.3949 3.032 76.7869 5.096ZM71.2669 14.024L71.3149 12.776C71.3149 11.816 71.1709 10.952 70.9309 10.28C70.5949 9.368 70.1629 8.696 69.5389 8.504C68.8189 8.264 68.0989 8.744 67.5709 9.464C67.1389 10.136 66.8509 11 66.7069 12.104C66.6589 12.536 66.6589 13.208 66.6589 14.024C68.2909 14.024 69.9229 14.024 71.2669 14.024ZM75.5869 27.224C76.1149 27.224 76.6429 27.56 76.8349 28.088C77.6509 30.104 77.5069 32.024 76.8349 33.944C76.6429 34.472 76.1629 34.856 75.5869 34.856C71.8429 34.856 51.3469 35 51.3469 35C50.2909 35 49.2829 34.568 48.5629 33.848C47.8429 33.08 47.4589 32.072 47.5069 31.016C47.5069 31.016 48.6589 6.536 48.8029 2.984C48.8509 2.36 49.3309 1.832 49.9549 1.736C51.8749 1.448 53.6989 1.544 55.3789 1.928C56.0029 2.072 56.4349 2.648 56.3869 3.272C56.2909 6.488 55.2829 27.368 55.2829 27.368C55.2829 27.368 72.4669 27.272 75.5869 27.224ZM87.7939 28.088C88.3699 28.616 88.6579 29.336 88.6579 30.104V31.016C88.6579 31.544 88.5139 32.072 88.2259 32.504C87.6019 33.608 86.2579 35.768 85.3939 37.256C84.8179 38.168 83.8099 38.744 82.7539 38.696C81.6979 38.648 80.8819 37.784 80.8819 36.728V30.104C80.8819 29.336 81.1699 28.616 81.7459 28.088C82.2739 27.512 82.9939 27.224 83.7619 27.224C84.4339 27.224 85.1059 27.224 85.7779 27.224C86.5459 27.224 87.2659 27.512 87.7939 28.088ZM132.152 15.56C132.152 18.008 132.2 24.104 132.2 24.104C132.008 27.992 130.52 30.776 128.6 32.504C126.776 34.232 124.472 35.048 122.12 35C119.624 34.952 116.984 33.848 114.968 31.736C112.856 29.576 111.32 26.264 111.368 22.04C111.368 21.992 111.368 21.944 111.368 21.944C111.368 21.944 111.656 16.28 111.8 13.88C111.8 13.256 112.28 12.728 112.904 12.632C114.68 12.296 116.552 12.296 118.424 12.872C119 13.064 119.432 13.64 119.384 14.264C119.288 16.568 119 22.184 119 22.184C119 23.72 119.336 25.016 120.008 25.928C120.584 26.792 121.4 27.368 122.216 27.416C122.792 27.416 123.368 27.128 123.752 26.6C124.28 25.928 124.52 24.968 124.568 23.816C124.568 23.816 124.568 17.912 124.52 15.56C124.52 14.984 124.904 14.456 125.48 14.264C127.352 13.688 129.224 13.736 131.144 14.264C131.72 14.408 132.152 14.936 132.152 15.56ZM117.944 9.752C115.016 10.28 111.992 10.184 108.872 9.848C108.632 16.28 108.056 29.72 107.912 33.368C107.864 33.944 107.48 34.472 106.904 34.616C104.936 35.192 103.016 35.144 101.144 34.424C100.616 34.184 100.28 33.656 100.28 33.08C100.424 29.432 101.048 15.608 101.288 9.08C98.8879 8.936 96.4879 9.032 94.0399 9.8C93.6079 9.944 93.0799 9.848 92.6959 9.512C91.2079 8.072 90.5839 6.152 90.6319 3.896C90.6799 3.32 91.0159 2.792 91.5919 2.648C92.0239 2.504 92.5519 2.312 92.9359 2.216C96.4399 1.352 99.8959 1.304 103.304 1.592C106.952 1.928 110.552 2.6 113.96 2.504C116.12 2.456 118.184 2.072 120.2 0.871999C120.632 0.631999 121.208 0.631999 121.64 0.919998C123.32 2.024 124.376 3.656 125 5.72C125.144 6.296 124.904 6.92 124.424 7.208C122.312 8.552 120.152 9.32 117.944 9.752ZM141.956 1.736C142.58 1.928 143.012 2.456 143.012 3.128C142.82 7.016 142.244 20.456 142.1 24.104C142.1 24.728 141.668 25.208 141.14 25.352C139.172 25.928 137.252 25.88 135.38 25.16C134.804 24.968 134.468 24.44 134.516 23.816C134.66 20.216 135.236 6.728 135.38 2.84C135.428 2.168 135.908 1.64 136.532 1.544C138.452 1.256 140.276 1.352 141.956 1.736ZM139.028 27.224C139.796 27.224 140.516 27.512 141.044 28.088C141.62 28.616 141.908 29.336 141.908 30.104V32.12C141.908 32.888 141.62 33.608 141.044 34.136C140.516 34.712 139.796 35 139.028 35H137.012C136.244 35 135.524 34.712 134.996 34.136C134.42 33.608 134.132 32.888 134.132 32.12V30.104C134.132 29.336 134.42 28.616 134.996 28.088C135.524 27.512 136.244 27.224 137.012 27.224H139.028Z" fill="white"/>
</svg>
