<svg width="243" height="63" viewBox="0 0 243 63" fill="none" xmlns="http://www.w3.org/2000/svg">
<g filter="url(#filter0_d_462_1265)">
<rect x="5.5" y="1.5" width="232" height="52" rx="23.5" fill="#313131" stroke="black" stroke-width="3"/>
<path d="M92.2894 36.535C90.3214 35.815 88.4254 33.679 88.6414 29.743C88.6654 29.335 88.9534 28.999 89.3614 28.927C90.2254 28.783 91.0654 28.855 91.8814 29.191C92.2174 29.335 92.4334 29.671 92.4334 30.031C92.3614 31.639 92.7694 32.647 93.5854 32.959C94.4254 33.247 95.2654 32.479 95.4094 31.207C95.4094 31.207 95.9614 23.167 96.1054 20.863C96.1294 20.479 96.4174 20.167 96.8014 20.095C97.6894 19.879 98.5294 19.903 99.3454 20.239C99.7054 20.359 99.9214 20.719 99.8974 21.103C99.7534 23.359 99.2014 31.495 99.2014 31.495V31.567C98.7454 35.935 95.0974 37.543 92.2894 36.535ZM106.755 37.159C102.795 37.063 100.995 34.135 100.875 30.463C100.779 27.583 101.811 24.295 103.347 22.255C104.475 20.743 105.891 19.855 107.307 19.759C109.083 19.639 110.379 20.335 111.339 21.319C113.067 23.143 113.403 26.287 113.403 26.287C113.403 26.287 113.667 28.183 113.331 30.367C113.211 31.327 112.947 32.311 112.539 33.223C112.083 34.207 111.363 35.215 110.379 35.959C109.395 36.727 108.171 37.207 106.755 37.159ZM104.763 28.879C104.643 29.863 104.643 30.823 104.859 31.663C105.123 32.599 105.723 33.319 106.851 33.367C107.331 33.367 107.739 33.199 108.051 32.935C108.531 32.599 108.867 32.095 109.083 31.615C109.419 30.895 109.563 30.055 109.635 29.311C109.779 27.895 109.611 26.647 109.611 26.623C109.611 26.623 109.515 25.255 108.819 24.247C108.555 23.863 108.171 23.527 107.571 23.551C107.043 23.599 106.563 24.103 106.179 24.703C105.411 25.807 104.955 27.367 104.763 28.879ZM120.372 37.279C116.412 37.159 114.612 34.231 114.492 30.559C114.42 27.703 115.428 24.415 116.964 22.351C118.092 20.839 119.508 19.975 120.924 19.879C122.892 19.735 124.212 20.575 125.124 21.775C126.276 23.287 126.612 25.519 126.708 26.551C126.732 26.887 126.516 27.175 126.204 27.271C125.268 27.511 124.332 27.511 123.396 27.271C123.132 27.175 122.94 26.935 122.916 26.671C122.868 26.119 122.724 25.207 122.316 24.415C122.1 24.007 121.788 23.623 121.188 23.671C120.66 23.695 120.276 24.247 119.868 24.847C119.124 25.951 118.572 27.487 118.38 28.999C118.26 29.959 118.26 30.919 118.476 31.759C118.74 32.719 119.34 33.439 120.468 33.463C120.948 33.487 121.308 33.295 121.62 33.055C121.884 32.839 122.1 32.503 122.244 32.071C121.74 32.071 121.284 32.047 120.972 32.047C120.684 32.023 120.444 31.855 120.348 31.567C120.036 30.607 120.06 29.647 120.42 28.687C120.516 28.399 120.78 28.231 121.068 28.231C122.148 28.279 124.836 28.351 125.94 28.375C126.228 28.399 126.468 28.591 126.564 28.879C126.732 29.479 126.756 30.199 126.708 30.823C126.636 31.591 126.396 32.695 125.82 33.895C125.268 35.071 124.428 35.815 123.396 36.463C122.532 36.991 121.524 37.303 120.372 37.279ZM128.168 36.559C127.88 36.487 127.664 36.199 127.688 35.887C127.688 35.767 127.688 35.647 127.688 35.575C127.88 31.039 128.6 26.863 129.632 24.223C130.328 22.399 131.24 21.151 132.176 20.527C133.088 19.879 134.096 19.711 135.128 19.999C135.92 20.215 136.64 20.719 137.24 21.535C137.864 22.399 138.368 23.695 138.704 25.207C139.52 28.975 139.472 34.375 139.424 36.031C139.424 36.343 139.208 36.607 138.896 36.679C137.96 36.895 137 36.871 136.088 36.559C135.8 36.463 135.632 36.199 135.632 35.911C135.632 35.359 135.656 34.399 135.632 33.223C135.344 33.247 135.032 33.271 134.744 33.295C133.688 33.439 132.656 33.607 131.6 33.823C131.552 34.543 131.504 35.287 131.48 36.007C131.456 36.319 131.264 36.583 130.952 36.655C130.04 36.847 129.104 36.823 128.168 36.559ZM132.344 28.423C132.248 28.879 132.152 29.359 132.08 29.863C132.8 29.719 133.544 29.623 134.288 29.527C134.696 29.479 135.08 29.455 135.464 29.407C135.44 29.215 135.44 29.023 135.416 28.831C135.248 27.343 135.032 25.903 134.648 24.775C134.528 24.463 134.408 24.199 134.288 23.959C134.264 23.911 134.216 23.863 134.192 23.815C134.048 23.959 133.856 24.199 133.736 24.391C133.16 25.351 132.704 26.743 132.344 28.423ZM140.846 36.559C140.582 36.439 140.39 36.175 140.414 35.887C140.486 34.375 141.086 21.439 141.086 21.151C141.11 20.599 141.566 20.167 142.118 20.143C142.55 20.119 142.982 20.119 143.174 20.119C144.686 20.119 146.39 20.215 147.806 20.575C149.822 21.079 151.286 22.135 151.862 23.599C152.462 25.159 152.03 26.839 150.782 28.375C150.446 28.807 150.038 29.239 149.582 29.623C150.182 30.247 150.734 30.943 151.238 31.687C152.054 32.887 152.438 33.583 152.966 34.975C153.062 35.215 153.014 35.503 152.798 35.695C152.03 36.439 151.094 36.775 150.038 36.751C149.774 36.751 149.51 36.583 149.414 36.319C149.198 35.767 148.718 34.687 148.094 33.823C147.59 33.127 147.062 32.503 146.486 31.927C145.478 32.551 144.662 33.007 144.35 33.151C144.278 34.423 144.23 35.479 144.206 36.031C144.206 36.319 144.014 36.583 143.726 36.655C142.742 36.943 141.782 36.919 140.846 36.559ZM144.782 23.959L144.566 28.663C145.214 28.255 145.934 27.751 146.582 27.199C147.158 26.743 147.686 26.239 148.022 25.711C148.19 25.447 148.406 25.231 148.31 24.967C148.19 24.631 147.734 24.535 147.302 24.391C146.582 24.151 145.766 24.031 144.926 23.959C144.878 23.959 144.83 23.959 144.782 23.959Z" fill="#FCFCFE"/>
</g>
<defs>
<filter id="filter0_d_462_1265" x="0" y="0" width="243" height="63" filterUnits="userSpaceOnUse" color-interpolation-filters="sRGB">
<feFlood flood-opacity="0" result="BackgroundImageFix"/>
<feColorMatrix in="SourceAlpha" type="matrix" values="0 0 0 0 0 0 0 0 0 0 0 0 0 0 0 0 0 0 127 0" result="hardAlpha"/>
<feOffset dy="4"/>
<feGaussianBlur stdDeviation="2"/>
<feComposite in2="hardAlpha" operator="out"/>
<feColorMatrix type="matrix" values="0 0 0 0 0 0 0 0 0 0 0 0 0 0 0 0 0 0 0.25 0"/>
<feBlend mode="normal" in2="BackgroundImageFix" result="effect1_dropShadow_462_1265"/>
<feBlend mode="normal" in="SourceGraphic" in2="effect1_dropShadow_462_1265" result="shape"/>
</filter>
</defs>
</svg>
