<svg width="227" height="226" viewBox="0 0 227 226" fill="none" xmlns="http://www.w3.org/2000/svg">
<path d="M0 15C0 6.71572 6.71573 0 15 0H212C220.284 0 227 6.71573 227 15V210.507C227 218.791 220.284 225.507 212 225.507H15C6.71573 225.507 0 218.791 0 210.507V15Z" fill="#36469D"/>
<path d="M21.6578 42.5796C21.6578 41.1549 22.8128 40 24.2374 40H54.1609C55.5856 40 56.7406 41.1549 56.7406 42.5796V73.535C56.7406 74.9596 55.5856 76.1146 54.1609 76.1146H24.2374C22.8128 76.1146 21.6578 74.9596 21.6578 73.535V42.5796Z" fill="#009F64"/>
<path d="M59.3203 42.5796C59.3203 41.1549 60.4753 40 61.9 40H91.8235C93.2481 40 94.4031 41.1549 94.4031 42.5796V73.535C94.4031 74.9596 93.2481 76.1146 91.8235 76.1146H61.9C60.4753 76.1146 59.3203 74.9596 59.3203 73.535V42.5796Z" fill="#009F64"/>
<path d="M96.9825 42.5796C96.9825 41.1549 98.1375 40 99.5621 40H129.486C130.91 40 132.065 41.1549 132.065 42.5796V73.535C132.065 74.9596 130.91 76.1146 129.486 76.1146H99.5621C98.1375 76.1146 96.9825 74.9596 96.9825 73.535V42.5796Z" fill="#009F64"/>
<path d="M135.161 42.5796C135.161 41.1549 136.316 40 137.74 40H167.664C169.088 40 170.243 41.1549 170.243 42.5796V73.535C170.243 74.9596 169.088 76.1146 167.664 76.1146H137.74C136.316 76.1146 135.161 74.9596 135.161 73.535V42.5796Z" fill="#009F64"/>
<path d="M172.823 42.5796C172.823 41.1549 173.978 40 175.403 40H205.326C206.751 40 207.906 41.1549 207.906 42.5796V73.535C207.906 74.9596 206.751 76.1146 205.326 76.1146H175.403C173.978 76.1146 172.823 74.9596 172.823 73.535V42.5796Z" fill="#009F64"/>
<path d="M21 96.5223C21 95.0976 22.1549 93.9427 23.5796 93.9427H53.5031C54.9278 93.9427 56.0827 95.0976 56.0827 96.5223V127.478C56.0827 128.902 54.9278 130.057 53.5031 130.057H23.5796C22.1549 130.057 21 128.902 21 127.478V96.5223Z" fill="#009F64"/>
<path d="M58.6625 96.5223C58.6625 95.0976 59.8174 93.9427 61.2421 93.9427H91.1656C92.5903 93.9427 93.7452 95.0976 93.7452 96.5223V127.478C93.7452 128.902 92.5903 130.057 91.1656 130.057H61.2421C59.8174 130.057 58.6625 128.902 58.6625 127.478V96.5223Z" fill="#009F64"/>
<path d="M96.3247 96.5223C96.3247 95.0976 97.4796 93.9427 98.9043 93.9427H128.828C130.252 93.9427 131.407 95.0976 131.407 96.5223V127.478C131.407 128.902 130.252 130.057 128.828 130.057H98.9043C97.4796 130.057 96.3247 128.902 96.3247 127.478V96.5223Z" fill="#112830"/>
<path d="M134.503 96.5223C134.503 95.0976 135.658 93.9427 137.082 93.9427H167.006C168.431 93.9427 169.585 95.0976 169.585 96.5223V127.478C169.585 128.902 168.431 130.057 167.006 130.057H137.082C135.658 130.057 134.503 128.902 134.503 127.478V96.5223Z" fill="#112830"/>
<path d="M172.165 96.5223C172.165 95.0976 173.32 93.9427 174.745 93.9427H204.668C206.093 93.9427 207.248 95.0976 207.248 96.5223V127.478C207.248 128.902 206.093 130.057 204.668 130.057H174.745C173.32 130.057 172.165 128.902 172.165 127.478V96.5223Z" fill="#112830"/>
<path d="M21 150.465C21 149.04 22.1549 147.885 23.5796 147.885H53.5031C54.9278 147.885 56.0827 149.04 56.0827 150.465V181.42C56.0827 182.845 54.9278 184 53.5031 184H23.5796C22.1549 184 21 182.845 21 181.42V150.465Z" fill="#009F64"/>
<path d="M58.6625 150.465C58.6625 149.04 59.8174 147.885 61.2421 147.885H91.1656C92.5903 147.885 93.7452 149.04 93.7452 150.465V181.42C93.7452 182.845 92.5903 184 91.1656 184H61.2421C59.8174 184 58.6625 182.845 58.6625 181.42V150.465Z" fill="#009F64"/>
<path d="M96.3247 150.465C96.3247 149.04 97.4796 147.885 98.9043 147.885H128.828C130.252 147.885 131.407 149.04 131.407 150.465V181.42C131.407 182.845 130.252 184 128.828 184H98.9043C97.4796 184 96.3247 182.845 96.3247 181.42V150.465Z" fill="#009F64"/>
<path d="M134.503 150.465C134.503 149.04 135.658 147.885 137.082 147.885H167.006C168.431 147.885 169.585 149.04 169.585 150.465V181.42C169.585 182.845 168.431 184 167.006 184H137.082C135.658 184 134.503 182.845 134.503 181.42V150.465Z" fill="#112830"/>
<path d="M172.165 150.465C172.165 149.04 173.32 147.885 174.745 147.885H204.668C206.093 147.885 207.248 149.04 207.248 150.465V181.42C207.248 182.845 206.093 184 204.668 184H174.745C173.32 184 172.165 182.845 172.165 181.42V150.465Z" fill="#112830"/>
<path d="M39.2905 65.347C35.8171 65.2417 34.2383 62.6735 34.133 59.4528C34.0699 56.9477 34.954 54.0638 36.3013 52.2534C37.2906 50.9272 38.5326 50.1694 39.7746 50.0852C41.5008 49.9588 42.6586 50.6956 43.4585 51.7482C44.469 53.0744 44.7637 55.0321 44.8479 55.9373C44.8689 56.232 44.6795 56.4846 44.4058 56.5688C43.5848 56.7793 42.7639 56.7793 41.9429 56.5688C41.7113 56.4846 41.5429 56.2741 41.5219 56.0425C41.4798 55.5584 41.3535 54.7584 40.9956 54.0638C40.8061 53.7059 40.5325 53.3691 40.0062 53.4112C39.5431 53.4322 39.2063 53.9164 38.8484 54.4427C38.1958 55.411 37.7117 56.7583 37.5433 58.0845C37.438 58.9265 37.438 59.7685 37.6275 60.5053C37.859 61.3473 38.3853 61.9789 39.3747 61.9999C39.7957 62.021 40.1115 61.8526 40.3851 61.642C40.6167 61.4526 40.8061 61.1579 40.9324 60.779C40.4904 60.779 40.0904 60.7579 39.8167 60.7579C39.5641 60.7369 39.3536 60.5895 39.2694 60.3369C38.9958 59.4949 39.0168 58.6528 39.3326 57.8108C39.4168 57.5582 39.6483 57.4108 39.9009 57.4108C40.8482 57.4529 43.2059 57.5161 44.1743 57.5371C44.4269 57.5582 44.6374 57.7266 44.7216 57.9792C44.8689 58.5055 44.89 59.137 44.8479 59.6843C44.7847 60.3579 44.5742 61.3263 44.069 62.3788C43.5848 63.4103 42.8481 64.0629 41.9429 64.6313C41.185 65.0944 40.3009 65.368 39.2905 65.347Z" fill="white"/>
<path d="M33.7513 118.637C33.5197 118.532 33.3724 118.3 33.3724 118.048C33.3724 118.048 33.7724 108.659 33.8987 105.375C33.9408 104.744 34.446 104.238 35.0986 104.217C35.9827 104.196 37.0142 104.238 38.0036 104.344C39.2877 104.491 41.2875 105.123 42.6769 106.554C43.7925 107.712 44.5714 109.375 44.2346 111.732C43.9189 114.09 42.4874 116.174 40.3402 117.458C38.8667 118.342 37.0773 118.911 35.0986 118.89C34.6354 118.89 34.1934 118.806 33.7513 118.637ZM37.1615 107.607C37.0773 109.48 36.93 112.806 36.8247 115.311C37.4773 115.164 38.0878 114.932 38.614 114.595C39.8771 113.838 40.7612 112.659 40.9296 111.29C41.077 110.196 40.7823 109.417 40.2771 108.87C39.4982 108.07 38.3404 107.733 37.6247 107.649C37.4773 107.649 37.3089 107.628 37.1615 107.607Z" fill="white"/>
<path d="M33.7513 172.58C33.5197 172.475 33.3724 172.243 33.3724 171.99C33.3724 171.99 33.7724 162.602 33.8987 159.318C33.9408 158.686 34.446 158.181 35.0986 158.16C35.9827 158.139 37.0142 158.181 38.0036 158.286C39.2877 158.434 41.2875 159.065 42.6769 160.497C43.7925 161.654 44.5714 163.317 44.2346 165.675C43.9189 168.033 42.4874 170.117 40.3402 171.401C38.8667 172.285 37.0773 172.854 35.0986 172.832C34.6354 172.832 34.1934 172.748 33.7513 172.58ZM37.1615 161.549C37.0773 163.423 36.93 166.749 36.8247 169.254C37.4773 169.106 38.0878 168.875 38.614 168.538C39.8771 167.78 40.7612 166.601 40.9296 165.233C41.077 164.138 40.7823 163.36 40.2771 162.812C39.4982 162.012 38.3404 161.676 37.6247 161.591C37.4773 161.591 37.3089 161.57 37.1615 161.549Z" fill="white"/>
<path d="M75.681 64.7155C75.4494 64.6102 75.3021 64.3787 75.3021 64.126C75.3863 62.1262 75.7652 53.0323 75.8704 50.864C75.8704 50.5693 76.0809 50.3378 76.3756 50.2957C77.1966 50.1694 77.9966 50.2115 78.7544 50.3799C79.0281 50.443 79.1965 50.6956 79.1965 50.9903C79.1123 53.1586 78.7333 62.2104 78.6281 64.2523C78.6281 64.505 78.4597 64.7365 78.2071 64.7997C77.344 65.0523 76.502 65.0312 75.681 64.7155ZM79.1544 45.1593C79.3017 45.3066 79.3438 45.5171 79.2386 45.7066C78.8596 46.3381 77.9124 47.938 77.5124 48.6116C77.3861 48.8011 77.1545 48.8853 76.944 48.8011C76.7335 48.6958 76.5441 48.5905 76.3756 48.4642C76.2283 48.3379 76.1651 48.1274 76.2283 47.938C76.502 47.2433 77.1545 45.4961 77.4492 44.7382C77.5334 44.5067 77.7861 44.3804 78.0176 44.4435C78.4597 44.5909 78.8596 44.8224 79.1544 45.1593Z" fill="white"/>
<path d="M76.1938 119.184C72.7205 119.1 71.1416 116.532 71.0364 113.311C70.9522 110.785 71.8574 107.901 73.2046 106.112C74.194 104.786 75.436 104.007 76.678 103.923C78.2358 103.817 79.3725 104.428 80.2145 105.291C81.7302 106.891 82.0249 109.648 82.0249 109.648C82.0249 109.648 82.2565 111.311 81.9618 113.227C81.8565 114.069 81.625 114.932 81.2671 115.732C80.8671 116.595 80.2356 117.479 79.3725 118.132C78.5094 118.806 77.4358 119.227 76.1938 119.184ZM74.4466 111.922C74.3414 112.785 74.3414 113.627 74.5308 114.364C74.7624 115.185 75.2887 115.816 76.278 115.858C76.6991 115.858 77.0569 115.711 77.3306 115.48C77.7516 115.185 78.0463 114.743 78.2358 114.322C78.5305 113.69 78.6568 112.953 78.7199 112.301C78.8462 111.059 78.6989 109.964 78.6989 109.943C78.6989 109.943 78.6147 108.743 78.0042 107.859C77.7727 107.522 77.4358 107.228 76.9096 107.249C76.4465 107.291 76.0254 107.733 75.6886 108.259C75.015 109.227 74.615 110.596 74.4466 111.922Z" fill="white"/>
<path d="M75.0231 172.601C74.7916 172.496 74.6442 172.264 74.6442 172.011C74.7284 170.012 75.1073 160.918 75.2126 158.749C75.2126 158.455 75.4231 158.223 75.7178 158.181C76.5388 158.055 77.3387 158.097 78.0966 158.265C78.3702 158.328 78.5386 158.581 78.5386 158.876C78.4544 161.044 78.0755 170.096 77.9703 172.138C77.9703 172.39 77.8018 172.622 77.5492 172.685C76.6861 172.938 75.8441 172.917 75.0231 172.601Z" fill="white"/>
<path d="M110.238 64.7155C110.006 64.6102 109.838 64.3787 109.859 64.126C109.922 62.7998 110.449 51.4535 110.449 51.2008C110.47 50.7167 110.87 50.3378 111.354 50.3167C111.733 50.2957 112.112 50.2957 112.28 50.2957C113.606 50.2957 115.101 50.3799 116.343 50.6956C118.111 51.1377 119.395 52.0639 119.9 53.348C120.427 54.7163 120.048 56.1899 118.953 57.5371C118.658 57.9161 118.3 58.295 117.901 58.6318C118.427 59.1791 118.911 59.7896 119.353 60.4422C120.069 61.4947 120.406 62.1052 120.869 63.3261C120.953 63.5366 120.911 63.7892 120.721 63.9576C120.048 64.6102 119.227 64.9049 118.3 64.8839C118.069 64.8839 117.837 64.7365 117.753 64.505C117.564 64.0208 117.143 63.0735 116.595 62.3157C116.153 61.7052 115.69 61.1579 115.185 60.6527C114.301 61.2 113.585 61.5999 113.311 61.7263C113.248 62.8419 113.206 63.7682 113.185 64.2523C113.185 64.505 113.017 64.7365 112.764 64.7997C111.901 65.0523 111.059 65.0312 110.238 64.7155ZM113.69 53.6638L113.501 57.7897C114.069 57.4319 114.701 56.9898 115.269 56.5056C115.774 56.1057 116.238 55.6636 116.532 55.2005C116.68 54.9689 116.869 54.7795 116.785 54.5479C116.68 54.2532 116.28 54.169 115.901 54.0427C115.269 53.8322 114.553 53.7269 113.817 53.6638C113.775 53.6638 113.732 53.6638 113.69 53.6638Z" fill="white"/>
<path d="M111.348 118.827C110.885 118.848 110.443 118.658 110.127 118.321C109.811 117.985 109.643 117.542 109.664 117.079C109.664 117.079 110.169 106.343 110.232 104.807C110.253 104.512 110.464 104.28 110.737 104.238C111.579 104.112 112.379 104.154 113.116 104.323C113.39 104.386 113.579 104.638 113.579 104.933C113.516 106.322 113.074 115.48 113.074 115.48C113.074 115.48 117.642 115.437 119.01 115.437C119.242 115.437 119.473 115.564 119.558 115.795C119.916 116.679 119.852 117.542 119.558 118.363C119.473 118.595 119.263 118.763 119.01 118.763C117.368 118.784 111.348 118.827 111.348 118.827Z" fill="#173944"/>
<path d="M110.003 172.601C109.75 172.538 109.561 172.285 109.582 172.011C109.582 171.906 109.582 171.801 109.582 171.738C109.75 167.759 110.382 164.096 111.287 161.781C111.897 160.181 112.697 159.086 113.518 158.539C114.318 157.971 115.202 157.823 116.107 158.076C116.802 158.265 117.434 158.707 117.96 159.423C118.507 160.181 118.949 161.318 119.244 162.644C119.96 165.949 119.918 170.685 119.875 172.138C119.875 172.411 119.686 172.643 119.412 172.706C118.591 172.896 117.749 172.875 116.949 172.601C116.697 172.517 116.549 172.285 116.549 172.033C116.549 171.548 116.57 170.706 116.549 169.675C116.297 169.696 116.023 169.717 115.771 169.738C114.844 169.864 113.939 170.012 113.013 170.201C112.971 170.833 112.929 171.485 112.908 172.117C112.887 172.39 112.718 172.622 112.444 172.685C111.645 172.854 110.824 172.832 110.003 172.601ZM113.665 165.465C113.581 165.865 113.497 166.286 113.434 166.728C114.065 166.601 114.718 166.517 115.371 166.433C115.728 166.391 116.065 166.37 116.402 166.328C116.381 166.159 116.381 165.991 116.36 165.823C116.213 164.517 116.023 163.254 115.686 162.265C115.581 161.991 115.476 161.76 115.371 161.549C115.35 161.507 115.307 161.465 115.286 161.423C115.16 161.549 114.992 161.76 114.886 161.928C114.381 162.77 113.981 163.991 113.665 165.465Z" fill="white"/>
<path d="M152.188 64.7155C151.956 64.6102 151.809 64.3787 151.809 64.126C151.893 62.1262 152.272 53.0323 152.377 50.864C152.377 50.5693 152.588 50.3378 152.882 50.2957C153.703 50.1694 154.503 50.2115 155.261 50.3799C155.535 50.443 155.703 50.6956 155.703 50.9903C155.619 53.1586 155.24 62.2104 155.135 64.2523C155.135 64.505 154.966 64.7365 154.714 64.7997C153.851 65.0523 153.009 65.0312 152.188 64.7155Z" fill="white"/>
<path d="M149.223 118.658C148.971 118.595 148.781 118.342 148.802 118.069C148.802 117.964 148.802 117.858 148.802 117.795C148.971 113.817 149.602 110.154 150.508 107.838C151.118 106.238 151.918 105.144 152.739 104.596C153.539 104.028 154.423 103.881 155.328 104.133C156.023 104.323 156.654 104.765 157.181 105.48C157.728 106.238 158.17 107.375 158.465 108.701C159.18 112.006 159.138 116.743 159.096 118.195C159.096 118.469 158.907 118.7 158.633 118.763C157.812 118.953 156.97 118.932 156.17 118.658C155.918 118.574 155.77 118.342 155.77 118.09C155.77 117.606 155.791 116.764 155.77 115.732C155.518 115.753 155.244 115.774 154.991 115.795C154.065 115.922 153.16 116.069 152.234 116.258C152.192 116.89 152.149 117.542 152.128 118.174C152.107 118.448 151.939 118.679 151.665 118.742C150.865 118.911 150.044 118.89 149.223 118.658ZM152.886 111.522C152.802 111.922 152.718 112.343 152.655 112.785C153.286 112.659 153.939 112.574 154.591 112.49C154.949 112.448 155.286 112.427 155.623 112.385C155.602 112.217 155.602 112.048 155.581 111.88C155.433 110.575 155.244 109.312 154.907 108.322C154.802 108.049 154.697 107.817 154.591 107.607C154.57 107.564 154.528 107.522 154.507 107.48C154.381 107.607 154.212 107.817 154.107 107.985C153.602 108.827 153.202 110.048 152.886 111.522Z" fill="#173944"/>
<path d="M185.654 64.7155C185.401 64.6523 185.212 64.3997 185.233 64.126C185.233 64.0208 185.233 63.9155 185.233 63.8524C185.401 59.8738 186.033 56.2109 186.938 53.8953C187.549 52.2955 188.348 51.2008 189.169 50.6535C189.969 50.0852 190.854 49.9378 191.759 50.1904C192.453 50.3799 193.085 50.8219 193.611 51.5377C194.159 52.2955 194.601 53.4322 194.895 54.7584C195.611 58.0634 195.569 62.7998 195.527 64.2523C195.527 64.526 195.337 64.7576 195.064 64.8207C194.243 65.0102 193.401 64.9891 192.601 64.7155C192.348 64.6313 192.201 64.3997 192.201 64.1471C192.201 63.6629 192.222 62.8209 192.201 61.7894C191.948 61.8105 191.675 61.8315 191.422 61.8526C190.496 61.9789 189.59 62.1262 188.664 62.3157C188.622 62.9472 188.58 63.5998 188.559 64.2313C188.538 64.505 188.37 64.7365 188.096 64.7997C187.296 64.9681 186.475 64.947 185.654 64.7155ZM189.317 57.5792C189.233 57.9792 189.148 58.4002 189.085 58.8423C189.717 58.716 190.369 58.6318 191.022 58.5476C191.38 58.5055 191.717 58.4844 192.053 58.4423C192.032 58.2739 192.032 58.1055 192.011 57.9371C191.864 56.632 191.675 55.3689 191.338 54.3795C191.232 54.1059 191.127 53.8743 191.022 53.6638C191.001 53.6217 190.959 53.5796 190.938 53.5375C190.811 53.6638 190.643 53.8743 190.538 54.0427C190.033 54.8847 189.633 56.1057 189.317 57.5792Z" fill="white"/>
<path d="M184.574 118.658C184.342 118.553 184.174 118.321 184.195 118.069C184.258 116.743 184.784 105.396 184.784 105.144C184.805 104.659 185.205 104.28 185.689 104.259C186.068 104.238 186.447 104.238 186.616 104.238C187.942 104.238 189.436 104.323 190.678 104.638C192.447 105.08 193.731 106.007 194.236 107.291C194.762 108.659 194.383 110.133 193.289 111.48C192.994 111.859 192.636 112.238 192.236 112.575C192.762 113.122 193.247 113.732 193.689 114.385C194.404 115.437 194.741 116.048 195.204 117.269C195.289 117.479 195.246 117.732 195.057 117.9C194.383 118.553 193.562 118.848 192.636 118.827C192.405 118.827 192.173 118.679 192.089 118.448C191.899 117.964 191.478 117.016 190.931 116.258C190.489 115.648 190.026 115.101 189.521 114.595C188.637 115.143 187.921 115.543 187.647 115.669C187.584 116.785 187.542 117.711 187.521 118.195C187.521 118.448 187.352 118.679 187.1 118.742C186.237 118.995 185.395 118.974 184.574 118.658ZM188.026 107.607L187.837 111.732C188.405 111.375 189.037 110.933 189.605 110.448C190.11 110.048 190.573 109.606 190.868 109.143C191.015 108.912 191.205 108.722 191.121 108.491C191.015 108.196 190.615 108.112 190.236 107.985C189.605 107.775 188.889 107.67 188.152 107.607C188.11 107.607 188.068 107.607 188.026 107.607Z" fill="#173944"/>
<path d="M185.455 171.843C184.823 171.064 184.76 169.991 184.76 169.991C184.76 169.948 184.76 169.885 184.76 169.843C184.76 169.843 185.055 162.497 185.118 159.528C185.139 158.602 185.686 158.307 186.36 158.307C188.697 158.286 193.58 158.223 193.917 158.223C194.191 158.202 194.422 158.392 194.507 158.644C194.738 159.465 194.759 160.307 194.549 161.107C194.486 161.36 194.254 161.549 193.98 161.549L188.381 161.633L188.276 164.517C189.602 164.307 190.991 164.075 191.56 163.991C191.812 163.949 192.065 164.075 192.17 164.307C192.549 165.086 192.675 165.907 192.549 166.791C192.528 167.043 192.317 167.254 192.065 167.296L188.17 167.907L188.107 169.654C188.633 169.738 189.539 169.633 190.465 169.506C191.433 169.359 192.423 169.149 193.223 168.896C193.412 168.833 193.623 168.875 193.77 169.001C194.528 169.591 194.822 170.454 194.675 171.59C194.633 171.801 194.486 171.99 194.275 172.075C193.096 172.432 191.581 172.748 190.191 172.896C188.781 173.043 187.518 172.98 186.802 172.748C186.213 172.58 185.771 172.243 185.455 171.843Z" fill="#173944"/>
<path d="M148.187 172.769C147.724 172.79 147.282 172.601 146.966 172.264C146.65 171.927 146.482 171.485 146.503 171.022C146.503 171.022 147.008 160.286 147.071 158.749C147.092 158.455 147.303 158.223 147.576 158.181C148.418 158.055 149.218 158.097 149.955 158.265C150.229 158.328 150.418 158.581 150.418 158.876C150.355 160.265 149.913 169.422 149.913 169.422C149.913 169.422 154.481 169.38 155.849 169.38C156.081 169.38 156.312 169.506 156.397 169.738C156.754 170.622 156.691 171.485 156.397 172.306C156.312 172.538 156.102 172.706 155.849 172.706C154.207 172.727 148.187 172.769 148.187 172.769Z" fill="#173944"/>
</svg>
