<svg width="40" height="40" viewBox="0 0 40 40" fill="none" xmlns="http://www.w3.org/2000/svg">
<circle cx="20" cy="20" r="20" fill="#248947"/>
<path d="M14.0547 31.679C11.8788 31.679 10.7961 30.5858 10.7961 28.3889V12.4429C10.7961 10.2565 11.8788 9.14225 14.0547 9.14225H25.2179C27.3938 9.14225 28.4765 10.2565 28.4765 12.4429V17.3097H26.7842V12.4744C26.7842 11.4233 26.2271 10.8346 25.1338 10.8346H14.1387C13.0455 10.8346 12.4884 11.4233 12.4884 12.4744V28.3574C12.4884 29.4086 13.0455 29.9867 14.1387 29.9867H25.1338C26.2271 29.9867 26.7842 29.4086 26.7842 28.3574V23.5116H28.4765V28.3889C28.4765 30.5858 27.3938 31.679 25.2179 31.679H14.0547ZM20.5193 21.2411C20.0778 21.2411 19.7099 20.8626 19.7099 20.4106C19.7099 19.9587 20.0778 19.5697 20.5193 19.5697H31.3146L32.8914 19.6433L32.1451 18.9285L30.4527 17.3308C30.2845 17.1836 30.2004 16.9629 30.2004 16.7526C30.2004 16.3111 30.5053 15.9958 30.9362 15.9958C31.157 15.9958 31.3252 16.0904 31.4933 16.2481L34.9201 19.801C35.1303 20.0112 35.1934 20.1899 35.1934 20.4106C35.1934 20.6209 35.1303 20.8101 34.9201 21.0203L31.4933 24.5732C31.3252 24.7309 31.157 24.815 30.9362 24.815C30.5053 24.815 30.2004 24.4891 30.2004 24.0477C30.2004 23.8479 30.2845 23.6272 30.4527 23.48L32.1451 21.8928L32.8914 21.178L31.3146 21.2411H20.5193Z" fill="#FCFCFE"/>
<path d="M28.4765 17.3097V17.8097H28.9765V17.3097H28.4765ZM26.7842 17.3097H26.2842V17.8097H26.7842V17.3097ZM26.7842 23.5116V23.0116H26.2842V23.5116H26.7842ZM28.4765 23.5116H28.9765V23.0116H28.4765V23.5116ZM31.3146 19.5697L31.338 19.0703L31.3263 19.0697H31.3146V19.5697ZM32.8914 19.6433L32.8681 20.1428L34.2007 20.2049L33.2372 19.2822L32.8914 19.6433ZM32.1451 18.9285L32.4909 18.5674L32.4883 18.5649L32.1451 18.9285ZM30.4527 17.3308L30.7959 16.9672L30.7891 16.9607L30.782 16.9545L30.4527 17.3308ZM31.4933 16.2481L31.8532 15.901L31.8445 15.8919L31.8353 15.8833L31.4933 16.2481ZM34.9201 19.801L34.5602 20.1481L34.5666 20.1545L34.9201 19.801ZM34.9201 21.0203L34.5665 20.6667L34.5602 20.6732L34.9201 21.0203ZM31.4933 24.5732L31.8353 24.938L31.8445 24.9294L31.8532 24.9203L31.4933 24.5732ZM30.4527 23.48L30.782 23.8563L30.7885 23.8506L30.7947 23.8447L30.4527 23.48ZM32.1451 21.8928L32.4871 22.2575L32.4909 22.2539L32.1451 21.8928ZM32.8914 21.178L33.2372 21.5391L34.191 20.6256L32.8714 20.6784L32.8914 21.178ZM31.3146 21.2411V21.7411H31.3246L31.3346 21.7407L31.3146 21.2411ZM14.0547 31.179C13.0444 31.179 12.3803 30.9257 11.9647 30.506C11.5481 30.0854 11.2961 29.4121 11.2961 28.3889H10.2961C10.2961 29.5626 10.5854 30.5345 11.2541 31.2097C11.9238 31.8858 12.889 32.179 14.0547 32.179V31.179ZM11.2961 28.3889V12.4429H10.2961V28.3889H11.2961ZM11.2961 12.4429C11.2961 11.4255 11.5478 10.7484 11.9659 10.3232C12.3825 9.89957 13.0468 9.64225 14.0547 9.64225V8.64225C12.8866 8.64225 11.9216 8.94203 11.2529 9.62209C10.5857 10.3006 10.2961 11.2738 10.2961 12.4429H11.2961ZM14.0547 9.64225H25.2179V8.64225H14.0547V9.64225ZM25.2179 9.64225C26.2258 9.64225 26.8901 9.89957 27.3067 10.3232C27.7248 10.7484 27.9765 11.4255 27.9765 12.4429H28.9765C28.9765 11.2738 28.6869 10.3006 28.0197 9.62209C27.351 8.94203 26.386 8.64225 25.2179 8.64225V9.64225ZM27.9765 12.4429V17.3097H28.9765V12.4429H27.9765ZM28.4765 16.8097H26.7842V17.8097H28.4765V16.8097ZM27.2842 17.3097V12.4744H26.2842V17.3097H27.2842ZM27.2842 12.4744C27.2842 11.8645 27.1216 11.3097 26.7242 10.9085C26.3259 10.5063 25.7671 10.3346 25.1338 10.3346V11.3346C25.5938 11.3346 25.8602 11.4572 26.0137 11.6122C26.1681 11.7681 26.2842 12.0332 26.2842 12.4744H27.2842ZM25.1338 10.3346H14.1387V11.3346H25.1338V10.3346ZM14.1387 10.3346C13.5055 10.3346 12.9467 10.5063 12.5484 10.9085C12.151 11.3097 11.9884 11.8645 11.9884 12.4744H12.9884C12.9884 12.0332 13.1045 11.7681 13.2589 11.6122C13.4124 11.4572 13.6788 11.3346 14.1387 11.3346V10.3346ZM11.9884 12.4744V28.3574H12.9884V12.4744H11.9884ZM11.9884 28.3574C11.9884 28.9674 12.1511 29.5207 12.5501 29.9198C12.9492 30.3189 13.5079 30.4867 14.1387 30.4867V29.4867C13.6764 29.4867 13.4099 29.3654 13.2572 29.2127C13.1044 29.0598 12.9884 28.7986 12.9884 28.3574H11.9884ZM14.1387 30.4867H25.1338V29.4867H14.1387V30.4867ZM25.1338 30.4867C25.7647 30.4867 26.3234 30.3189 26.7225 29.9198C27.1215 29.5207 27.2842 28.9674 27.2842 28.3574H26.2842C26.2842 28.7986 26.1682 29.0598 26.0154 29.2127C25.8626 29.3654 25.5962 29.4867 25.1338 29.4867V30.4867ZM27.2842 28.3574V23.5116H26.2842V28.3574H27.2842ZM26.7842 24.0116H28.4765V23.0116H26.7842V24.0116ZM27.9765 23.5116V28.3889H28.9765V23.5116H27.9765ZM27.9765 28.3889C27.9765 29.4121 27.7245 30.0854 27.3079 30.506C26.8922 30.9257 26.2282 31.179 25.2179 31.179V32.179C26.3836 32.179 27.3488 31.8858 28.0184 31.2097C28.6872 30.5345 28.9765 29.5626 28.9765 28.3889H27.9765ZM25.2179 31.179H14.0547V32.179H25.2179V31.179ZM20.5193 20.7411C20.3663 20.7411 20.2099 20.599 20.2099 20.4106H19.2099C19.2099 21.1262 19.7893 21.7411 20.5193 21.7411V20.7411ZM20.2099 20.4106C20.2099 20.214 20.3743 20.0697 20.5193 20.0697V19.0697C19.7813 19.0697 19.2099 19.7033 19.2099 20.4106H20.2099ZM20.5193 20.0697H31.3146V19.0697H20.5193V20.0697ZM31.2913 20.0692L32.8681 20.1428L32.9147 19.1438L31.338 19.0703L31.2913 20.0692ZM33.2372 19.2822L32.4909 18.5674L31.7992 19.2896L32.5455 20.0044L33.2372 19.2822ZM32.4883 18.5649L30.7959 16.9672L30.1095 17.6943L31.8018 19.2921L32.4883 18.5649ZM30.782 16.9545C30.7369 16.9151 30.7004 16.8394 30.7004 16.7526H29.7004C29.7004 17.0863 29.8321 17.4521 30.1234 17.707L30.782 16.9545ZM30.7004 16.7526C30.7004 16.5731 30.7954 16.4958 30.9362 16.4958V15.4958C30.2152 15.4958 29.7004 16.0492 29.7004 16.7526H30.7004ZM30.9362 16.4958C30.9845 16.4958 31.0363 16.505 31.1514 16.6128L31.8353 15.8833C31.614 15.6758 31.3294 15.4958 30.9362 15.4958V16.4958ZM31.1335 16.5952L34.5602 20.1481L35.28 19.4539L31.8532 15.901L31.1335 16.5952ZM34.5666 20.1545C34.6393 20.2272 34.665 20.2729 34.6757 20.2981C34.6854 20.3208 34.6934 20.3508 34.6934 20.4106H35.6934C35.6934 20.2497 35.6699 20.0801 35.5955 19.9057C35.5222 19.7338 35.4112 19.5849 35.2737 19.4474L34.5666 20.1545ZM34.6934 20.4106C34.6934 20.463 34.6861 20.4946 34.6748 20.5215C34.6628 20.55 34.6358 20.5975 34.5666 20.6668L35.2737 21.3739C35.5747 21.0729 35.6934 20.7577 35.6934 20.4106H34.6934ZM34.5602 20.6732L31.1335 24.2261L31.8532 24.9203L35.28 21.3674L34.5602 20.6732ZM31.1514 24.2085C31.0506 24.3029 30.9991 24.315 30.9362 24.315V25.315C31.3148 25.315 31.5997 25.1589 31.8353 24.938L31.1514 24.2085ZM30.9362 24.315C30.8043 24.315 30.7004 24.2365 30.7004 24.0477H29.7004C29.7004 24.7418 30.2062 25.315 30.9362 25.315V24.315ZM30.7004 24.0477C30.7004 24.0161 30.7075 23.9777 30.7234 23.9403C30.739 23.9036 30.76 23.8755 30.782 23.8563L30.1234 23.1037C29.8346 23.3565 29.7004 23.7208 29.7004 24.0477H30.7004ZM30.7947 23.8447L32.4871 22.2575L31.803 21.5281L30.1107 23.1153L30.7947 23.8447ZM32.4909 22.2539L33.2372 21.5391L32.5455 20.8169L31.7992 21.5317L32.4909 22.2539ZM32.8714 20.6784L31.2947 20.7415L31.3346 21.7407L32.9114 21.6776L32.8714 20.6784ZM31.3146 20.7411H20.5193V21.7411H31.3146V20.7411Z" fill="white"/>
</svg>
