<svg width="200" height="60" viewBox="0 0 200 60" fill="none" xmlns="http://www.w3.org/2000/svg">
<rect x="1.8" y="1.8" width="196.4" height="56.4" rx="28.2" fill="#2D8F55" stroke="#0A6249" stroke-width="3.6"/>
<path d="M70.6142 37.26C70.0142 36.52 69.9542 35.5 69.9542 35.5C69.9542 35.46 69.9542 35.4 69.9542 35.36C69.9542 35.36 70.2342 28.38 70.2942 25.56C70.3142 24.68 70.8342 24.4 71.4742 24.4C73.6942 24.38 78.3342 24.32 78.6542 24.32C78.9142 24.3 79.1342 24.48 79.2142 24.72C79.4342 25.5 79.4542 26.3 79.2542 27.06C79.1942 27.3 78.9742 27.48 78.7142 27.48L73.3942 27.56L73.2942 30.3C74.5542 30.1 75.8742 29.88 76.4142 29.8C76.6542 29.76 76.8942 29.88 76.9942 30.1C77.3542 30.84 77.4742 31.62 77.3542 32.46C77.3342 32.7 77.1342 32.9 76.8942 32.94L73.1942 33.52L73.1342 35.18C73.6342 35.26 74.4942 35.16 75.3742 35.04C76.2942 34.9 77.2342 34.7 77.9942 34.46C78.1742 34.4 78.3742 34.44 78.5142 34.56C79.2342 35.12 79.5142 35.94 79.3742 37.02C79.3342 37.22 79.1942 37.4 78.9942 37.48C77.8742 37.82 76.4342 38.12 75.1142 38.26C73.7742 38.4 72.5742 38.34 71.8942 38.12C71.3342 37.96 70.9142 37.64 70.6142 37.26ZM80.5681 37.96C80.3481 37.86 80.2081 37.64 80.2081 37.4C80.2881 35.5 80.6481 26.86 80.7481 24.8C80.7481 24.52 80.9481 24.3 81.2281 24.26C81.8681 24.16 82.4881 24.18 83.0681 24.26C83.4881 24.34 83.8081 24.66 83.8881 25.06C84.2681 25.72 85.1881 28.24 86.2481 30.64C86.5681 31.26 86.9081 31.88 87.2681 32.48C87.4081 29.46 87.5481 26 87.6081 24.8C87.6081 24.52 87.8081 24.3 88.0681 24.26C88.8681 24.14 89.6281 24.18 90.3281 24.34C90.5881 24.4 90.7681 24.64 90.7681 24.92C90.6681 26.98 90.3081 35.58 90.2281 37.52C90.2281 37.76 90.0481 37.98 89.8281 38.04C89.0081 38.28 88.2081 38.26 87.4281 37.96C87.3081 37.92 87.2281 37.84 87.1681 37.76C85.7481 36.1 84.5681 34.26 83.5881 32.4C83.5081 34.64 83.4081 36.7 83.3681 37.52C83.3681 37.76 83.2081 37.98 82.9681 38.04C82.1481 38.28 81.3481 38.26 80.5681 37.96ZM96.0352 38.2C94.8552 38.12 93.2952 37.1 92.4352 34.16C91.8752 32.26 91.5152 28.96 91.5752 24.8C91.5952 24.54 91.7752 24.3 92.0552 24.26C92.8152 24.12 93.5752 24.14 94.3152 24.3C94.5752 24.36 94.7552 24.6 94.7552 24.86C94.7152 27.22 94.8152 29.5 95.0152 31C95.2152 32.44 95.4952 33.5 95.8352 34.26C95.9352 34.46 96.0752 34.66 96.1752 34.8C96.2552 34.74 96.3152 34.66 96.3752 34.58C96.9152 33.76 97.4552 32.5 97.8752 30.84C98.2752 29.24 98.5552 27.04 98.6152 24.8C98.6152 24.54 98.7952 24.32 99.0552 24.28C99.7952 24.12 100.555 24.14 101.355 24.32C101.615 24.38 101.795 24.6 101.775 24.88C101.775 24.88 101.775 24.88 101.775 24.9C101.675 28.78 100.935 32.22 100.055 34.34C99.3752 36 98.5352 37.08 97.8352 37.62C97.2152 38.08 96.5952 38.24 96.0352 38.2ZM102.951 37.98C102.731 37.88 102.591 37.66 102.591 37.42C102.671 35.52 103.031 26.88 103.131 24.82C103.131 24.54 103.331 24.32 103.611 24.28C104.391 24.16 105.151 24.2 105.871 24.36C106.131 24.42 106.291 24.66 106.291 24.94C106.211 27 105.851 35.6 105.751 37.54C105.751 37.78 105.591 38 105.351 38.06C104.531 38.3 103.731 38.28 102.951 37.98ZM107.483 37.98C107.243 37.92 107.063 37.68 107.083 37.42C107.083 37.32 107.083 37.22 107.083 37.16C107.243 33.38 107.843 29.9 108.703 27.7C109.283 26.18 110.043 25.14 110.823 24.62C111.583 24.08 112.423 23.94 113.283 24.18C113.943 24.36 114.543 24.78 115.043 25.46C115.563 26.18 115.983 27.26 116.263 28.52C116.943 31.66 116.903 36.16 116.863 37.54C116.863 37.8 116.683 38.02 116.423 38.08C115.643 38.26 114.843 38.24 114.083 37.98C113.843 37.9 113.703 37.68 113.703 37.44C113.703 36.98 113.723 36.18 113.703 35.2C113.463 35.22 113.203 35.24 112.963 35.26C112.083 35.38 111.223 35.52 110.343 35.7C110.303 36.3 110.263 36.92 110.243 37.52C110.223 37.78 110.063 38 109.803 38.06C109.043 38.22 108.263 38.2 107.483 37.98ZM110.963 31.2C110.883 31.58 110.803 31.98 110.743 32.4C111.343 32.28 111.963 32.2 112.583 32.12C112.923 32.08 113.243 32.06 113.563 32.02C113.543 31.86 113.543 31.7 113.523 31.54C113.383 30.3 113.203 29.1 112.883 28.16C112.783 27.9 112.683 27.68 112.583 27.48C112.563 27.44 112.523 27.4 112.503 27.36C112.383 27.48 112.223 27.68 112.123 27.84C111.643 28.64 111.263 29.8 110.963 31.2ZM118.049 37.98C117.829 37.88 117.669 37.66 117.689 37.42C117.749 36.16 118.249 25.38 118.249 25.14C118.269 24.68 118.649 24.32 119.109 24.3C119.469 24.28 119.829 24.28 119.989 24.28C121.249 24.28 122.669 24.36 123.849 24.66C125.529 25.08 126.749 25.96 127.229 27.18C127.729 28.48 127.369 29.88 126.329 31.16C126.049 31.52 125.709 31.88 125.329 32.2C125.829 32.72 126.289 33.3 126.709 33.92C127.389 34.92 127.709 35.5 128.149 36.66C128.229 36.86 128.189 37.1 128.009 37.26C127.369 37.88 126.589 38.16 125.709 38.14C125.489 38.14 125.269 38 125.189 37.78C125.009 37.32 124.609 36.42 124.089 35.7C123.669 35.12 123.229 34.6 122.749 34.12C121.909 34.64 121.229 35.02 120.969 35.14C120.909 36.2 120.869 37.08 120.849 37.54C120.849 37.78 120.689 38 120.449 38.06C119.629 38.3 118.829 38.28 118.049 37.98ZM121.329 27.48L121.149 31.4C121.689 31.06 122.289 30.64 122.829 30.18C123.309 29.8 123.749 29.38 124.029 28.94C124.169 28.72 124.349 28.54 124.269 28.32C124.169 28.04 123.789 27.96 123.429 27.84C122.829 27.64 122.149 27.54 121.449 27.48C121.409 27.48 121.369 27.48 121.329 27.48Z" fill="white"/>
</svg>
