<svg width="40" height="40" viewBox="0 0 40 40" fill="none" xmlns="http://www.w3.org/2000/svg">
<circle cx="20" cy="20" r="20" fill="#2D8F55"/>
<path fill-rule="evenodd" clip-rule="evenodd" d="M17.1493 19.5839L25.31 11.6026L25.3241 11.5875C25.6631 11.2274 25.9252 10.7107 25.9252 10.1096C25.9252 8.90892 24.9753 8 23.8034 8C23.2381 8 22.7127 8.2033 22.3082 8.60547L12.6469 18.0596C12.2078 18.4791 12 19.0253 12 19.5839C12 20.1616 12.2205 20.6821 12.6343 21.0958L22.2998 30.5419C22.7083 30.9652 23.2402 31.1678 23.8034 31.1678C24.9753 31.1678 25.9252 30.2589 25.9252 29.0582C25.9252 28.4394 25.6587 27.9357 25.3241 27.5802L25.31 27.5652L17.1493 19.5839Z" fill="white"/>
</svg>
