<svg width="132" height="151" viewBox="0 0 132 151" fill="none" xmlns="http://www.w3.org/2000/svg">
<g filter="url(#filter0_d_1491_22952)">
<path d="M17.1285 75.2261L10.3523 52.4335C10.1777 51.8461 10.2085 51.2167 10.4397 50.6492L16.4205 35.969C17.0028 34.5399 16.268 32.9148 14.8106 32.4079L3.80908 28.5813C2.72594 28.2045 2 27.1834 2 26.0366V14.8179C2 13.33 3.20622 12.1238 4.69417 12.1238H29.0269C29.8265 12.1238 30.5847 11.7686 31.0966 11.1544L37.6985 3.23205C38.9567 1.72227 41.3558 2.02412 42.2007 3.7985L46.4988 12.8245C46.8908 13.6478 47.6726 14.2168 48.5765 14.3369L92.6887 20.198C94.1345 20.3901 95.165 21.698 95.0134 23.1487L93.2131 40.3802C93.0566 41.8783 94.1587 43.2137 95.6593 43.3442L128.773 46.2236C130.331 46.3591 131.447 47.7888 131.199 49.3333L128.963 63.313L122.177 91.1003C121.995 91.8477 121.502 92.4814 120.822 92.8417L88.6763 109.879C88.3706 110.041 88.0989 110.26 87.8762 110.525L60.9853 142.495C59.6333 144.103 57.0437 143.614 56.3712 141.624L50.4406 124.079C50.0706 122.985 49.0438 122.248 47.8883 122.248H35.8194C34.4096 122.248 33.2382 121.161 33.1328 119.755L30.412 83.4778C30.3363 82.4696 29.7026 81.5886 28.7708 81.1963L18.6654 76.9414C17.9222 76.6284 17.3583 75.9991 17.1285 75.2261Z" fill="#009F64"/>
<path d="M30.2315 73.681C27.9215 73.611 26.8715 71.903 26.8015 69.761C26.7595 68.095 27.3475 66.177 28.2435 64.973C28.9015 64.091 29.7275 63.587 30.5535 63.531C31.7015 63.447 32.4715 63.937 33.0175 64.637C33.6755 65.519 33.8715 66.821 33.9275 67.423C33.9415 67.619 33.8155 67.787 33.6335 67.829C33.0875 67.969 32.5415 67.983 31.9955 67.829C31.8415 67.787 31.7295 67.647 31.7155 67.479C31.6875 67.171 31.6035 66.639 31.3655 66.177C31.2535 65.939 31.0575 65.715 30.7075 65.743C30.3995 65.757 30.1755 66.079 29.9375 66.429C29.5035 67.073 29.1815 67.969 29.0695 68.837C28.9995 69.411 28.9995 69.971 29.1255 70.461C29.2795 71.007 29.6295 71.441 30.2875 71.455C30.5675 71.469 30.7775 71.357 30.9595 71.217C31.1835 71.035 31.3515 70.825 31.4915 70.601C31.5755 70.461 31.7435 70.391 31.8975 70.419C32.4295 70.531 32.9195 70.797 33.3535 71.217C33.4935 71.343 33.5075 71.539 33.4095 71.707C33.0735 72.253 32.5975 72.827 31.9955 73.205C31.4915 73.499 30.9035 73.695 30.2315 73.681ZM34.9471 72.799C34.5271 72.281 34.4851 71.567 34.4851 71.567C34.4851 71.539 34.4851 71.497 34.4851 71.469C34.4851 71.469 34.6811 66.583 34.7231 64.609C34.7371 63.993 35.1011 63.797 35.5491 63.797C37.1031 63.783 40.3511 63.741 40.5751 63.741C40.7571 63.727 40.9111 63.853 40.9671 64.021C41.1211 64.567 41.1351 65.127 40.9951 65.659C40.9531 65.827 40.7991 65.953 40.6171 65.953L36.8931 66.009L36.8231 67.927C37.7051 67.787 38.6291 67.633 39.0071 67.577C39.1751 67.549 39.3431 67.633 39.4131 67.787C39.6651 68.305 39.7491 68.851 39.6651 69.439C39.6511 69.607 39.5111 69.747 39.3431 69.775L36.7531 70.181L36.7111 71.343C37.0611 71.399 37.6631 71.329 38.2791 71.245C38.9231 71.147 39.5811 71.007 40.1131 70.839C40.2391 70.797 40.3791 70.825 40.4771 70.909C40.9811 71.301 41.1771 71.875 41.0791 72.631C41.0511 72.771 40.9531 72.897 40.8131 72.953C40.0291 73.191 39.0211 73.401 38.0971 73.499C37.1591 73.597 36.3191 73.555 35.8431 73.401C35.4511 73.289 35.1571 73.065 34.9471 72.799ZM41.9148 73.289C41.7608 73.219 41.6628 73.065 41.6628 72.897C41.7188 71.567 41.9708 65.519 42.0408 64.077C42.0408 63.881 42.1808 63.727 42.3768 63.699C42.8248 63.629 43.2588 63.643 43.6648 63.699C43.9588 63.755 44.1828 63.979 44.2388 64.259C44.5048 64.721 45.1488 66.485 45.8908 68.165C46.1148 68.599 46.3528 69.033 46.6048 69.453C46.7028 67.339 46.8008 64.917 46.8428 64.077C46.8428 63.881 46.9828 63.727 47.1648 63.699C47.7248 63.615 48.2568 63.643 48.7468 63.755C48.9288 63.797 49.0548 63.965 49.0548 64.161C48.9848 65.603 48.7328 71.623 48.6768 72.981C48.6768 73.149 48.5508 73.303 48.3968 73.345C47.8228 73.513 47.2628 73.499 46.7168 73.289C46.6328 73.261 46.5768 73.205 46.5348 73.149C45.5408 71.987 44.7148 70.699 44.0288 69.397C43.9728 70.965 43.9028 72.407 43.8748 72.981C43.8748 73.149 43.7628 73.303 43.5948 73.345C43.0208 73.513 42.4608 73.499 41.9148 73.289ZM50.2078 66.037C50.0398 66.037 49.8998 65.953 49.8438 65.813C49.5358 65.155 49.5638 64.581 49.8018 64.049C49.8718 63.909 50.0118 63.825 50.1518 63.811C51.3138 63.797 56.3538 63.741 56.5778 63.727C56.7458 63.727 56.9138 63.853 56.9558 64.021C57.1238 64.567 57.1238 65.127 56.9838 65.659C56.9418 65.827 56.7878 65.953 56.6058 65.953C56.6058 65.953 55.6818 65.967 54.5338 65.981C54.4638 67.773 54.2818 71.889 54.2398 72.981C54.2398 73.149 54.1138 73.303 53.9458 73.345C53.3858 73.513 52.8118 73.499 52.2658 73.289C52.1118 73.219 52.0138 73.065 52.0278 72.897L52.3078 66.009C51.2438 66.023 50.3618 66.037 50.2078 66.037ZM57.9109 73.303C57.7569 73.233 57.6449 73.079 57.6589 72.911C57.7009 72.029 58.0509 64.483 58.0509 64.315C58.0649 63.993 58.3309 63.741 58.6529 63.727C58.9049 63.713 59.1569 63.713 59.2689 63.713C60.1509 63.713 61.1449 63.769 61.9709 63.979C63.1469 64.273 64.0009 64.889 64.3369 65.743C64.6869 66.653 64.4349 67.633 63.7069 68.529C63.5109 68.781 63.2729 69.033 63.0069 69.257C63.3569 69.621 63.6789 70.027 63.9729 70.461C64.4489 71.161 64.6729 71.567 64.9809 72.379C65.0369 72.519 65.0089 72.687 64.8829 72.799C64.4349 73.233 63.8889 73.429 63.2729 73.415C63.1189 73.415 62.9649 73.317 62.9089 73.163C62.7829 72.841 62.5029 72.211 62.1389 71.707C61.8449 71.301 61.5369 70.937 61.2009 70.601C60.6129 70.965 60.1369 71.231 59.9549 71.315C59.9129 72.057 59.8849 72.673 59.8709 72.995C59.8709 73.163 59.7589 73.317 59.5909 73.359C59.0169 73.527 58.4569 73.513 57.9109 73.303ZM60.2069 65.953L60.0809 68.697C60.4589 68.459 60.8789 68.165 61.2569 67.843C61.5929 67.577 61.9009 67.283 62.0969 66.975C62.1949 66.821 62.3209 66.695 62.2649 66.541C62.1949 66.345 61.9289 66.289 61.6769 66.205C61.2569 66.065 60.7809 65.995 60.2909 65.953C60.2629 65.953 60.2349 65.953 60.2069 65.953ZM68.458 73.653C66.148 73.597 65.098 71.889 65.028 69.747C64.972 68.067 65.574 66.149 66.47 64.959C67.128 64.077 67.954 63.559 68.78 63.503C69.816 63.433 70.572 63.839 71.132 64.413C72.14 65.477 72.336 67.311 72.336 67.311C72.336 67.311 72.49 68.417 72.294 69.691C72.224 70.251 72.07 70.825 71.832 71.357C71.566 71.931 71.146 72.519 70.572 72.953C69.998 73.401 69.284 73.681 68.458 73.653ZM67.296 68.823C67.226 69.397 67.226 69.957 67.352 70.447C67.506 70.993 67.856 71.413 68.514 71.441C68.794 71.441 69.032 71.343 69.214 71.189C69.494 70.993 69.69 70.699 69.816 70.419C70.012 69.999 70.096 69.509 70.138 69.075C70.222 68.249 70.124 67.521 70.124 67.507C70.124 67.507 70.068 66.709 69.662 66.121C69.508 65.897 69.284 65.701 68.934 65.715C68.626 65.743 68.346 66.037 68.122 66.387C67.674 67.031 67.408 67.941 67.296 68.823ZM78.1654 68.445C78.2774 68.991 78.2774 69.523 78.1934 70.027C78.1514 70.209 77.9974 70.349 77.8014 70.349C76.9054 70.349 74.3434 70.363 73.5034 70.377C73.3214 70.377 73.1814 70.265 73.1254 70.111C72.9294 69.537 72.9154 68.977 73.0974 68.431C73.1534 68.263 73.3074 68.151 73.4754 68.151C74.3014 68.151 76.8774 68.137 77.7874 68.123C77.9694 68.123 78.1374 68.263 78.1654 68.445ZM82.253 73.653C79.943 73.597 78.893 71.889 78.823 69.747C78.767 68.067 79.369 66.149 80.265 64.959C80.923 64.077 81.749 63.559 82.575 63.503C83.611 63.433 84.367 63.839 84.927 64.413C85.935 65.477 86.131 67.311 86.131 67.311C86.131 67.311 86.285 68.417 86.089 69.691C86.019 70.251 85.865 70.825 85.627 71.357C85.361 71.931 84.941 72.519 84.367 72.953C83.793 73.401 83.079 73.681 82.253 73.653ZM81.091 68.823C81.021 69.397 81.021 69.957 81.147 70.447C81.301 70.993 81.651 71.413 82.309 71.441C82.589 71.441 82.827 71.343 83.009 71.189C83.289 70.993 83.485 70.699 83.611 70.419C83.807 69.999 83.891 69.509 83.933 69.075C84.017 68.249 83.919 67.521 83.919 67.507C83.919 67.507 83.863 66.709 83.457 66.121C83.303 65.897 83.079 65.701 82.729 65.715C82.421 65.743 82.141 66.037 81.917 66.387C81.469 67.031 81.203 67.941 81.091 68.823ZM87.2283 72.799C86.8083 72.281 86.7663 71.567 86.7663 71.567C86.7663 71.539 86.7663 71.497 86.7663 71.469C86.7663 71.469 86.9623 66.583 87.0043 64.609C87.0183 63.993 87.3823 63.797 87.8303 63.797C89.3843 63.783 92.6323 63.741 92.8563 63.741C93.0383 63.727 93.1923 63.853 93.2483 64.021C93.4023 64.567 93.4163 65.127 93.2763 65.659C93.2343 65.827 93.0803 65.953 92.8983 65.953L89.1743 66.009L89.1043 67.927C89.9863 67.787 90.9103 67.633 91.2883 67.577C91.4563 67.549 91.6243 67.633 91.6943 67.787C91.9463 68.305 92.0303 68.851 91.9463 69.439C91.9323 69.607 91.7923 69.747 91.6243 69.775L89.0343 70.181L88.9923 71.343C89.3423 71.399 89.9443 71.329 90.5603 71.245C91.2043 71.147 91.8623 71.007 92.3943 70.839C92.5203 70.797 92.6603 70.825 92.7583 70.909C93.2623 71.301 93.4583 71.875 93.3603 72.631C93.3323 72.771 93.2343 72.897 93.0943 72.953C92.3103 73.191 91.3023 73.401 90.3783 73.499C89.4403 73.597 88.6003 73.555 88.1243 73.401C87.7323 73.289 87.4383 73.065 87.2283 72.799ZM94.2661 72.687C94.2661 72.687 94.1821 72.617 94.0841 72.547C93.9581 72.435 93.9021 72.239 93.9721 72.085C94.2101 71.539 94.6021 71.119 95.1481 70.825C95.2741 70.769 95.4141 70.769 95.5401 70.853C95.7081 70.965 95.9601 71.133 96.0721 71.175C96.6181 71.427 97.2061 71.469 97.6961 71.399C97.8501 71.371 98.0321 71.315 98.1721 71.259L98.1301 71.217C97.9621 71.077 97.7661 70.951 97.5561 70.825C96.8281 70.391 95.9881 69.957 95.4281 69.369C94.7561 68.669 94.3641 67.787 94.6161 66.555C95.0221 64.651 96.5621 63.503 97.8921 63.447C98.6761 63.419 99.4321 63.699 99.9921 64.371C100.44 64.917 100.79 65.771 100.79 67.003C100.79 67.003 100.776 67.339 100.762 67.563C100.748 67.717 100.664 67.857 100.524 67.913C99.9501 68.123 99.1241 68.025 98.7181 67.759C98.6061 67.675 98.5361 67.549 98.5501 67.409C98.5501 67.241 98.5641 67.003 98.5641 67.003C98.5641 66.527 98.5081 66.163 98.3541 65.911C98.2701 65.743 98.1441 65.659 97.9901 65.673C97.4581 65.687 96.9541 66.247 96.8001 67.003C96.6461 67.731 97.2201 68.039 97.7381 68.361C98.4521 68.795 99.2081 69.173 99.6981 69.649C100.3 70.237 100.608 70.937 100.426 71.847C100.342 72.253 100.09 72.659 99.6421 72.995C99.2221 73.289 98.5781 73.541 97.8221 73.625C96.7161 73.737 95.3861 73.499 94.2661 72.687ZM101.942 66.037C101.774 66.037 101.634 65.953 101.578 65.813C101.27 65.155 101.298 64.581 101.536 64.049C101.606 63.909 101.746 63.825 101.886 63.811C103.048 63.797 108.088 63.741 108.312 63.727C108.48 63.727 108.648 63.853 108.69 64.021C108.858 64.567 108.858 65.127 108.718 65.659C108.676 65.827 108.522 65.953 108.34 65.953C108.34 65.953 107.416 65.967 106.268 65.981C106.198 67.773 106.016 71.889 105.974 72.981C105.974 73.149 105.848 73.303 105.68 73.345C105.12 73.513 104.546 73.499 104 73.289C103.846 73.219 103.748 73.065 103.762 72.897L104.042 66.009C102.978 66.023 102.096 66.037 101.942 66.037ZM109.855 72.799C109.435 72.281 109.393 71.567 109.393 71.567C109.393 71.539 109.393 71.497 109.393 71.469C109.393 71.469 109.589 66.583 109.631 64.609C109.645 63.993 110.009 63.797 110.457 63.797C112.011 63.783 115.259 63.741 115.483 63.741C115.665 63.727 115.819 63.853 115.875 64.021C116.029 64.567 116.043 65.127 115.903 65.659C115.861 65.827 115.707 65.953 115.525 65.953L111.801 66.009L111.731 67.927C112.613 67.787 113.537 67.633 113.915 67.577C114.083 67.549 114.251 67.633 114.321 67.787C114.573 68.305 114.657 68.851 114.573 69.439C114.559 69.607 114.419 69.747 114.251 69.775L111.661 70.181L111.619 71.343C111.969 71.399 112.571 71.329 113.187 71.245C113.831 71.147 114.489 71.007 115.021 70.839C115.147 70.797 115.287 70.825 115.385 70.909C115.889 71.301 116.085 71.875 115.987 72.631C115.959 72.771 115.861 72.897 115.721 72.953C114.937 73.191 113.929 73.401 113.005 73.499C112.067 73.597 111.227 73.555 110.751 73.401C110.359 73.289 110.065 73.065 109.855 72.799Z" fill="white"/>
</g>
<defs>
<filter id="filter0_d_1491_22952" x="0.213556" y="2.2627" width="131.02" height="148.339" filterUnits="userSpaceOnUse" color-interpolation-filters="sRGB">
<feFlood flood-opacity="0" result="BackgroundImageFix"/>
<feColorMatrix in="SourceAlpha" type="matrix" values="0 0 0 0 0 0 0 0 0 0 0 0 0 0 0 0 0 0 127 0" result="hardAlpha"/>
<feOffset dx="-1.78644" dy="7.14578"/>
<feComposite in2="hardAlpha" operator="out"/>
<feColorMatrix type="matrix" values="0 0 0 0 0.0392157 0 0 0 0 0.384314 0 0 0 0 0.30149 0 0 0 1 0"/>
<feBlend mode="normal" in2="BackgroundImageFix" result="effect1_dropShadow_1491_22952"/>
<feBlend mode="normal" in="SourceGraphic" in2="effect1_dropShadow_1491_22952" result="shape"/>
</filter>
</defs>
</svg>
