<svg width="60" height="60" viewBox="0 0 60 60" fill="none" xmlns="http://www.w3.org/2000/svg">
<rect width="60" height="60" rx="30" fill="#787878"/>
<rect x="1.53846" y="1.53846" width="56.9231" height="56.9231" rx="28.4615" stroke="black" stroke-opacity="0.45" stroke-width="3.07692"/>
<path d="M21.4435 46.2584C18.3936 46.2584 16.8311 44.7109 16.8311 41.616V18.7794C16.8311 15.6394 18.3786 14.0619 21.4886 14.0619H37.4441C40.5541 14.0619 42.1016 15.6544 42.1016 18.7794V36.012C42.1016 37.5144 41.4105 38.2506 40.8395 38.8215C38.9766 40.6995 39.3672 43.1484 41.2602 43.8996C41.741 44.0649 42.1016 44.5306 42.1016 45.0565C42.1016 45.7326 41.5607 46.2584 40.8996 46.2584H21.4435ZM37.3239 16.4808H22.991V36.9585H38.3756C39.2169 36.9585 39.6827 36.4928 39.6827 35.6815V18.8245C39.6827 17.3221 38.8864 16.4808 37.3239 16.4808ZM19.25 37.5745C19.7608 37.259 20.3317 37.0637 21.0228 36.9886V16.5258C19.851 16.7212 19.25 17.5174 19.25 18.8245V37.5745ZM25.6803 23.6923C25.1394 23.6923 24.7037 23.2416 24.7037 22.7007C24.7037 22.1599 25.1394 21.7242 25.6803 21.7242H36.9483C37.4892 21.7242 37.9249 22.1599 37.9249 22.7007C37.9249 23.2416 37.4892 23.6923 36.9483 23.6923H25.6803ZM25.6803 27.8239C25.1394 27.8239 24.7037 27.3732 24.7037 26.8323C24.7037 26.2915 25.1394 25.8558 25.6803 25.8558H34.229C34.7698 25.8558 35.2055 26.2915 35.2055 26.8323C35.2055 27.3732 34.7698 27.8239 34.229 27.8239H25.6803ZM21.5787 43.8395H37.8648C37.0685 42.5475 36.9483 40.8948 37.6544 39.3323C37.5042 39.3624 37.3239 39.3774 37.1286 39.3774H21.7139C20.2115 39.3774 19.25 40.2488 19.25 41.601C19.25 43.0282 20.0613 43.8395 21.5787 43.8395Z" fill="#FCFCFE"/>
</svg>
