<svg width="60" height="60" viewBox="0 0 60 60" fill="none" xmlns="http://www.w3.org/2000/svg">
<rect x="2.15385" y="2.15385" width="55.6923" height="55.6923" rx="27.8462" fill="#2D8F55" stroke="#0A6249" stroke-width="4.30769"/>
<path d="M29.2595 32.345C28.7 32.345 28.2316 31.8766 28.2316 31.3301V17.9673L28.3097 16.0156L27.4249 16.9394L25.4602 19.0473C25.278 19.2554 24.9918 19.3595 24.7445 19.3595C24.1981 19.3595 23.8077 18.9692 23.8077 18.4357C23.8077 18.1625 23.9118 17.9543 24.107 17.7591L28.5049 13.5174C28.7781 13.2571 28.9993 13.166 29.2595 13.166C29.5328 13.166 29.754 13.2571 30.0142 13.5174L34.4121 17.7591C34.6073 17.9543 34.7244 18.1625 34.7244 18.4357C34.7244 18.9692 34.308 19.3595 33.7745 19.3595C33.5143 19.3595 33.2541 19.2554 33.0719 19.0473L31.0942 16.9394L30.2224 16.0156L30.3005 17.9673V31.3301C30.3005 31.8766 29.819 32.345 29.2595 32.345ZM21.8039 42.533C19.0845 42.533 17.7183 41.1798 17.7183 38.4995V25.514C17.7183 22.8336 19.0845 21.4804 21.8039 21.4804H25.4342V23.5753H21.83C20.5288 23.5753 19.8132 24.2779 19.8132 25.6311V38.3824C19.8132 39.7356 20.5288 40.4382 21.83 40.4382H36.6891C37.9772 40.4382 38.7189 39.7356 38.7189 38.3824V25.6311C38.7189 24.2779 37.9772 23.5753 36.6891 23.5753H33.0979V21.4804H36.7281C39.4475 21.4804 40.8138 22.8336 40.8138 25.514V38.4995C40.8138 41.1798 39.4475 42.533 36.7281 42.533H21.8039Z" fill="#FCFCFE"/>
</svg>
