<svg width="104" height="92" viewBox="0 0 104 92" fill="none" xmlns="http://www.w3.org/2000/svg">
<g filter="url(#filter0_d_1491_22955)">
<path d="M79.7917 75.2004L45.6192 77.4153C45.0922 77.4495 44.5868 77.6378 44.1659 77.9568L36.6751 83.6354C35.4298 84.5794 33.6453 84.2694 32.7913 82.9609L24.4632 70.2001C24.1195 69.6735 23.6024 69.2837 23.0015 69.0982L3.78166 63.167C1.96598 62.6067 1.28529 60.3934 2.47232 58.9096L11.6505 47.4369C11.881 47.1487 12.1684 46.911 12.4946 46.7384L43.7732 30.1952C44.4351 29.8451 44.9215 29.2353 45.1156 28.512L52.0028 2.85227C52.3004 1.74354 53.2679 0.94515 54.413 0.86336L65.7806 0.0513842C66.2519 0.0177207 66.7238 0.108591 67.1488 0.314879L99.2418 15.8894C100.031 16.2722 100.584 17.0149 100.725 17.8804L103.839 37.0102C103.943 37.6487 103.814 38.3032 103.475 38.8542L81.9125 73.923C81.4546 74.6677 80.664 75.1439 79.7917 75.2004Z" fill="#009F64"/>
<path d="M35.8735 51.175C35.8735 51.175 35.7835 51.1 35.6785 51.025C35.5435 50.905 35.4835 50.695 35.5585 50.53C35.8135 49.945 36.2335 49.495 36.8185 49.18C36.9535 49.12 37.1035 49.12 37.2385 49.21C37.4185 49.33 37.6885 49.51 37.8085 49.555C38.3935 49.825 39.0235 49.87 39.5485 49.795C39.7135 49.765 39.9085 49.705 40.0585 49.645L40.0135 49.6C39.8335 49.45 39.6235 49.315 39.3985 49.18C38.6185 48.715 37.7185 48.25 37.1185 47.62C36.3985 46.87 35.9785 45.925 36.2485 44.605C36.6835 42.565 38.3335 41.335 39.7585 41.275C40.5985 41.245 41.4085 41.545 42.0085 42.265C42.4885 42.85 42.8635 43.765 42.8635 45.085C42.8635 45.085 42.8485 45.445 42.8335 45.685C42.8185 45.85 42.7285 46 42.5785 46.06C41.9635 46.285 41.0785 46.18 40.6435 45.895C40.5235 45.805 40.4485 45.67 40.4635 45.52C40.4635 45.34 40.4785 45.085 40.4785 45.085C40.4785 44.575 40.4185 44.185 40.2535 43.915C40.1635 43.735 40.0285 43.645 39.8635 43.66C39.2935 43.675 38.7535 44.275 38.5885 45.085C38.4235 45.865 39.0385 46.195 39.5935 46.54C40.3585 47.005 41.1685 47.41 41.6935 47.92C42.3385 48.55 42.6685 49.3 42.4735 50.275C42.3835 50.71 42.1135 51.145 41.6335 51.505C41.1835 51.82 40.4935 52.09 39.6835 52.18C38.4985 52.3 37.0735 52.045 35.8735 51.175ZM47.233 52C46.153 51.97 45.343 51.58 44.728 50.98C43.918 50.17 43.498 48.94 43.468 47.575C43.468 47.575 43.678 43.18 43.738 41.935C43.738 41.74 43.888 41.575 44.083 41.53C44.668 41.44 45.238 41.485 45.793 41.635C45.988 41.695 46.108 41.875 46.108 42.07C46.048 43.285 45.838 47.515 45.838 47.515C45.853 48.115 45.973 48.685 46.258 49.105C46.468 49.42 46.813 49.615 47.308 49.615C47.518 49.63 47.713 49.555 47.878 49.45C48.088 49.315 48.253 49.105 48.373 48.88C48.628 48.415 48.688 47.455 48.718 46.375C48.778 44.92 48.748 43.3 48.763 42.085C48.763 41.89 48.898 41.725 49.093 41.68C49.633 41.56 50.203 41.59 50.818 41.74C50.998 41.785 51.133 41.965 51.133 42.16C51.118 43.6 51.178 45.64 51.058 47.29C50.968 48.46 50.773 49.45 50.473 50.02C50.158 50.59 49.723 51.085 49.198 51.43C48.643 51.805 47.983 52.015 47.233 52ZM52.0143 51.82C51.8493 51.745 51.7443 51.58 51.7443 51.4C51.7443 51.4 52.0293 44.71 52.1193 42.37C52.1493 41.92 52.5093 41.56 52.9743 41.545C53.6043 41.53 54.3393 41.56 55.0443 41.635C55.9593 41.74 57.3843 42.19 58.3743 43.21C59.1693 44.035 59.7243 45.22 59.4843 46.9C59.2593 48.58 58.2393 50.065 56.7093 50.98C55.6593 51.61 54.3843 52.015 52.9743 52C52.6443 52 52.3293 51.94 52.0143 51.82ZM54.4443 43.96C54.3843 45.295 54.2793 47.665 54.2043 49.45C54.6693 49.345 55.1043 49.18 55.4793 48.94C56.3793 48.4 57.0093 47.56 57.1293 46.585C57.2343 45.805 57.0243 45.25 56.6643 44.86C56.1093 44.29 55.2843 44.05 54.7743 43.99C54.6693 43.99 54.5493 43.975 54.4443 43.96ZM60.6329 51.295C60.1829 50.74 60.1379 49.975 60.1379 49.975C60.1379 49.945 60.1379 49.9 60.1379 49.87C60.1379 49.87 60.3479 44.635 60.3929 42.52C60.4079 41.86 60.7979 41.65 61.2779 41.65C62.9429 41.635 66.4229 41.59 66.6629 41.59C66.8579 41.575 67.0229 41.71 67.0829 41.89C67.2479 42.475 67.2629 43.075 67.1129 43.645C67.0679 43.825 66.9029 43.96 66.7079 43.96L62.7179 44.02L62.6429 46.075C63.5879 45.925 64.5779 45.76 64.9829 45.7C65.1629 45.67 65.3429 45.76 65.4179 45.925C65.6879 46.48 65.7779 47.065 65.6879 47.695C65.6729 47.875 65.5229 48.025 65.3429 48.055L62.5679 48.49L62.5229 49.735C62.8979 49.795 63.5429 49.72 64.2029 49.63C64.8929 49.525 65.5979 49.375 66.1679 49.195C66.3029 49.15 66.4529 49.18 66.5579 49.27C67.0979 49.69 67.3079 50.305 67.2029 51.115C67.1729 51.265 67.0679 51.4 66.9179 51.46C66.0779 51.715 64.9979 51.94 64.0079 52.045C63.0029 52.15 62.1029 52.105 61.5929 51.94C61.1729 51.82 60.8579 51.58 60.6329 51.295ZM68.1733 51.175C68.1733 51.175 68.0833 51.1 67.9783 51.025C67.8433 50.905 67.7833 50.695 67.8583 50.53C68.1133 49.945 68.5333 49.495 69.1183 49.18C69.2533 49.12 69.4033 49.12 69.5383 49.21C69.7183 49.33 69.9883 49.51 70.1083 49.555C70.6933 49.825 71.3233 49.87 71.8483 49.795C72.0133 49.765 72.2083 49.705 72.3583 49.645L72.3133 49.6C72.1333 49.45 71.9233 49.315 71.6983 49.18C70.9183 48.715 70.0183 48.25 69.4183 47.62C68.6983 46.87 68.2783 45.925 68.5483 44.605C68.9833 42.565 70.6333 41.335 72.0583 41.275C72.8983 41.245 73.7083 41.545 74.3083 42.265C74.7883 42.85 75.1633 43.765 75.1633 45.085C75.1633 45.085 75.1483 45.445 75.1333 45.685C75.1183 45.85 75.0283 46 74.8783 46.06C74.2633 46.285 73.3783 46.18 72.9433 45.895C72.8233 45.805 72.7483 45.67 72.7633 45.52C72.7633 45.34 72.7783 45.085 72.7783 45.085C72.7783 44.575 72.7183 44.185 72.5533 43.915C72.4633 43.735 72.3283 43.645 72.1633 43.66C71.5933 43.675 71.0533 44.275 70.8883 45.085C70.7233 45.865 71.3383 46.195 71.8933 46.54C72.6583 47.005 73.4683 47.41 73.9933 47.92C74.6383 48.55 74.9683 49.3 74.7733 50.275C74.6833 50.71 74.4133 51.145 73.9333 51.505C73.4833 51.82 72.7933 52.09 71.9833 52.18C70.7983 52.3 69.3733 52.045 68.1733 51.175ZM76.3978 44.05C76.2178 44.05 76.0678 43.96 76.0078 43.81C75.6778 43.105 75.7078 42.49 75.9628 41.92C76.0378 41.77 76.1878 41.68 76.3378 41.665C77.5828 41.65 82.9828 41.59 83.2228 41.575C83.4028 41.575 83.5828 41.71 83.6278 41.89C83.8078 42.475 83.8078 43.075 83.6578 43.645C83.6128 43.825 83.4478 43.96 83.2528 43.96C83.2528 43.96 82.2628 43.975 81.0328 43.99C80.9578 45.91 80.7628 50.32 80.7178 51.49C80.7178 51.67 80.5828 51.835 80.4028 51.88C79.8028 52.06 79.1878 52.045 78.6028 51.82C78.4378 51.745 78.3328 51.58 78.3478 51.4L78.6478 44.02C77.5078 44.035 76.5628 44.05 76.3978 44.05ZM84.8761 51.295C84.4261 50.74 84.3811 49.975 84.3811 49.975C84.3811 49.945 84.3811 49.9 84.3811 49.87C84.3811 49.87 84.5911 44.635 84.6361 42.52C84.6511 41.86 85.0411 41.65 85.5211 41.65C87.1861 41.635 90.6661 41.59 90.9061 41.59C91.1011 41.575 91.2661 41.71 91.3261 41.89C91.4911 42.475 91.5061 43.075 91.3561 43.645C91.3111 43.825 91.1461 43.96 90.9511 43.96L86.9611 44.02L86.8861 46.075C87.8311 45.925 88.8211 45.76 89.2261 45.7C89.4061 45.67 89.5861 45.76 89.6611 45.925C89.9311 46.48 90.0211 47.065 89.9311 47.695C89.9161 47.875 89.7661 48.025 89.5861 48.055L86.8111 48.49L86.7661 49.735C87.1411 49.795 87.7861 49.72 88.4461 49.63C89.1361 49.525 89.8411 49.375 90.4111 49.195C90.5461 49.15 90.6961 49.18 90.8011 49.27C91.3411 49.69 91.5511 50.305 91.4461 51.115C91.4161 51.265 91.3111 51.4 91.1611 51.46C90.3211 51.715 89.2411 51.94 88.2511 52.045C87.2461 52.15 86.3461 52.105 85.8361 51.94C85.4161 51.82 85.1011 51.58 84.8761 51.295Z" fill="white"/>
</g>
<defs>
<filter id="filter0_d_1491_22955" x="0.0939271" y="0.0449219" width="103.78" height="91.2835" filterUnits="userSpaceOnUse" color-interpolation-filters="sRGB">
<feFlood flood-opacity="0" result="BackgroundImageFix"/>
<feColorMatrix in="SourceAlpha" type="matrix" values="0 0 0 0 0 0 0 0 0 0 0 0 0 0 0 0 0 0 127 0" result="hardAlpha"/>
<feOffset dx="-1.78644" dy="7.14578"/>
<feComposite in2="hardAlpha" operator="out"/>
<feColorMatrix type="matrix" values="0 0 0 0 0.0392157 0 0 0 0 0.384314 0 0 0 0 0.30149 0 0 0 1 0"/>
<feBlend mode="normal" in2="BackgroundImageFix" result="effect1_dropShadow_1491_22955"/>
<feBlend mode="normal" in="SourceGraphic" in2="effect1_dropShadow_1491_22955" result="shape"/>
</filter>
</defs>
</svg>
