<svg width="124" height="163" viewBox="0 0 124 163" fill="none" xmlns="http://www.w3.org/2000/svg">
<g filter="url(#filter0_d_1491_22946)">
<path d="M81.283 106.982L72.3139 148.331C71.6813 151.248 67.4801 151.125 67.0191 148.176L64.1826 130.033C64.0468 129.164 63.4957 128.416 62.7062 128.029L30.8497 112.42C30.4806 112.239 30.0751 112.145 29.6642 112.145H19.0482C17.3445 112.145 16.0685 110.583 16.4081 108.914L19.1753 95.3063L22.0648 75.7218C22.1563 75.1022 22.0289 74.47 21.7047 73.9341L5.96822 47.9207C5.79394 47.6326 5.67521 47.3144 5.61817 46.9826L2.15876 26.8551C2.05594 26.2569 2.15814 25.6415 2.4488 25.1086L15.0535 2.00003C15.6833 0.845408 17.0547 0.314262 18.2979 0.743465L44.0059 9.61887C44.2888 9.71652 44.5859 9.76637 44.8852 9.76637H72.4448C73.06 9.76637 73.6567 9.97692 74.1357 10.363L105.659 35.7746C106.138 36.1607 106.735 36.3713 107.35 36.3713H115.907C117.223 36.3713 118.346 37.3213 118.564 38.6185L123.502 67.9734C123.657 68.8927 123.325 69.8266 122.626 70.4426L96.2959 93.6224L82.182 105.491C81.7256 105.875 81.4094 106.399 81.283 106.982Z" fill="#009F64"/>
<path d="M32.234 64.7601C32.058 64.6801 31.946 64.5041 31.946 64.3121C32.01 62.7921 32.298 55.8801 32.378 54.2321C32.378 54.0081 32.538 53.8321 32.762 53.8001C33.274 53.7201 33.77 53.7361 34.234 53.8001C34.57 53.8641 34.826 54.1201 34.89 54.4401C35.194 54.9681 35.93 56.9841 36.778 58.9041C37.034 59.4001 37.306 59.8961 37.594 60.3761C37.706 57.9601 37.818 55.1921 37.866 54.2321C37.866 54.0081 38.026 53.8321 38.234 53.8001C38.874 53.7041 39.482 53.7361 40.042 53.8641C40.25 53.9121 40.394 54.1041 40.394 54.3281C40.314 55.9761 40.026 62.8561 39.962 64.4081C39.962 64.6001 39.818 64.7761 39.642 64.8241C38.986 65.0161 38.346 65.0001 37.722 64.7601C37.626 64.7281 37.562 64.6641 37.514 64.6001C36.378 63.2721 35.434 61.8001 34.65 60.3121C34.586 62.1041 34.506 63.7521 34.474 64.4081C34.474 64.6001 34.346 64.7761 34.154 64.8241C33.498 65.0161 32.858 65.0001 32.234 64.7601ZM44.9597 65.1761C42.3197 65.1121 41.1197 63.1601 41.0397 60.7121C40.9757 58.7921 41.6637 56.6001 42.6877 55.2401C43.4397 54.2321 44.3837 53.6401 45.3277 53.5761C46.5117 53.4961 47.3757 53.9601 48.0157 54.6161C49.1677 55.8321 49.3917 57.9281 49.3917 57.9281C49.3917 57.9281 49.5677 59.1921 49.3437 60.6481C49.2637 61.2881 49.0877 61.9441 48.8157 62.5521C48.5117 63.2081 48.0317 63.8801 47.3757 64.3761C46.7197 64.8881 45.9037 65.2081 44.9597 65.1761ZM43.6317 59.6561C43.5517 60.3121 43.5517 60.9521 43.6957 61.5121C43.8717 62.1361 44.2717 62.6161 45.0237 62.6481C45.3437 62.6481 45.6157 62.5361 45.8237 62.3601C46.1437 62.1361 46.3677 61.8001 46.5117 61.4801C46.7357 61.0001 46.8317 60.4401 46.8797 59.9441C46.9757 59.0001 46.8637 58.1681 46.8637 58.1521C46.8637 58.1521 46.7997 57.2401 46.3357 56.5681C46.1597 56.3121 45.9037 56.0881 45.5037 56.1041C45.1517 56.1361 44.8317 56.4721 44.5757 56.8721C44.0637 57.6081 43.7597 58.6481 43.6317 59.6561ZM50.4059 64.7761C50.2299 64.6961 50.1019 64.5201 50.1179 64.3281C50.1659 63.3201 50.5659 54.6961 50.5659 54.5041C50.5819 54.1361 50.8859 53.8481 51.2539 53.8321C51.5419 53.8161 51.8299 53.8161 51.9579 53.8161C52.9659 53.8161 54.1019 53.8801 55.0459 54.1201C56.3899 54.4561 57.3659 55.1601 57.7499 56.1361C58.1499 57.1761 57.8619 58.2961 57.0299 59.3201C56.8059 59.6081 56.5339 59.8961 56.2299 60.1521C56.6299 60.5681 56.9979 61.0321 57.3339 61.5281C57.8779 62.3281 58.1339 62.7921 58.4859 63.7201C58.5499 63.8801 58.5179 64.0721 58.3739 64.2001C57.8619 64.6961 57.2379 64.9201 56.5339 64.9041C56.3579 64.9041 56.1819 64.7921 56.1179 64.6161C55.9739 64.2481 55.6539 63.5281 55.2379 62.9521C54.9019 62.4881 54.5499 62.0721 54.1659 61.6881C53.4939 62.1041 52.9499 62.4081 52.7419 62.5041C52.6939 63.3521 52.6619 64.0561 52.6459 64.4241C52.6459 64.6161 52.5179 64.7921 52.3259 64.8401C51.6699 65.0321 51.0299 65.0161 50.4059 64.7761ZM53.0299 56.3761L52.8859 59.5121C53.3179 59.2401 53.7979 58.9041 54.2299 58.5361C54.6139 58.2321 54.9659 57.8961 55.1899 57.5441C55.3019 57.3681 55.4459 57.2241 55.3819 57.0481C55.3019 56.8241 54.9979 56.7601 54.7099 56.6641C54.2299 56.5041 53.6859 56.4241 53.1259 56.3761C53.0939 56.3761 53.0619 56.3761 53.0299 56.3761ZM59.4684 64.7601C59.2924 64.6801 59.1804 64.5041 59.1804 64.3121C59.1804 64.3121 59.4844 57.1761 59.5804 54.6801C59.6124 54.2001 59.9964 53.8161 60.4924 53.8001C61.1644 53.7841 61.9484 53.8161 62.7004 53.8961C63.6764 54.0081 65.1964 54.4881 66.2524 55.5761C67.1004 56.4561 67.6924 57.7201 67.4364 59.5121C67.1964 61.3041 66.1084 62.8881 64.4764 63.8641C63.3564 64.5361 61.9964 64.9681 60.4924 64.9521C60.1404 64.9521 59.8044 64.8881 59.4684 64.7601ZM62.0604 56.3761C61.9964 57.8001 61.8844 60.3281 61.8044 62.2321C62.3004 62.1201 62.7644 61.9441 63.1644 61.6881C64.1244 61.1121 64.7964 60.2161 64.9244 59.1761C65.0364 58.3441 64.8124 57.7521 64.4284 57.3361C63.8364 56.7281 62.9564 56.4721 62.4124 56.4081C62.3004 56.4081 62.1724 56.3921 62.0604 56.3761ZM68.6615 64.2001C68.1815 63.6081 68.1335 62.7921 68.1335 62.7921C68.1335 62.7601 68.1335 62.7121 68.1335 62.6801C68.1335 62.6801 68.3575 57.0961 68.4055 54.8401C68.4215 54.1361 68.8375 53.9121 69.3495 53.9121C71.1255 53.8961 74.8375 53.8481 75.0935 53.8481C75.3015 53.8321 75.4775 53.9761 75.5415 54.1681C75.7175 54.7921 75.7335 55.4321 75.5735 56.0401C75.5255 56.2321 75.3495 56.3761 75.1415 56.3761L70.8855 56.4401L70.8055 58.6321C71.8135 58.4721 72.8695 58.2961 73.3015 58.2321C73.4935 58.2001 73.6855 58.2961 73.7655 58.4721C74.0535 59.0641 74.1495 59.6881 74.0535 60.3601C74.0375 60.5521 73.8775 60.7121 73.6855 60.7441L70.7255 61.2081L70.6775 62.5361C71.0775 62.6001 71.7655 62.5201 72.4695 62.4241C73.2055 62.3121 73.9575 62.1521 74.5655 61.9601C74.7095 61.9121 74.8695 61.9441 74.9815 62.0401C75.5575 62.4881 75.7815 63.1441 75.6695 64.0081C75.6375 64.1681 75.5255 64.3121 75.3655 64.3761C74.4695 64.6481 73.3175 64.8881 72.2615 65.0001C71.1895 65.1121 70.2295 65.0641 69.6855 64.8881C69.2375 64.7601 68.9015 64.5041 68.6615 64.2001ZM76.7046 64.0721C76.7046 64.0721 76.6086 63.9921 76.4966 63.9121C76.3526 63.7841 76.2886 63.5601 76.3686 63.3841C76.6406 62.7601 77.0886 62.2801 77.7126 61.9441C77.8566 61.8801 78.0166 61.8801 78.1606 61.9761C78.3526 62.1041 78.6406 62.2961 78.7686 62.3441C79.3926 62.6321 80.0646 62.6801 80.6246 62.6001C80.8006 62.5681 81.0086 62.5041 81.1686 62.4401L81.1206 62.3921C80.9286 62.2321 80.7046 62.0881 80.4646 61.9441C79.6326 61.4481 78.6726 60.9521 78.0326 60.2801C77.2646 59.4801 76.8166 58.4721 77.1046 57.0641C77.5686 54.8881 79.3286 53.5761 80.8486 53.5121C81.7446 53.4801 82.6086 53.8001 83.2486 54.5681C83.7606 55.1921 84.1606 56.1681 84.1606 57.5761C84.1606 57.5761 84.1446 57.9601 84.1286 58.2161C84.1126 58.3921 84.0166 58.5521 83.8566 58.6161C83.2006 58.8561 82.2566 58.7441 81.7926 58.4401C81.6646 58.3441 81.5846 58.2001 81.6006 58.0401C81.6006 57.8481 81.6166 57.5761 81.6166 57.5761C81.6166 57.0321 81.5526 56.6161 81.3766 56.3281C81.2806 56.1361 81.1366 56.0401 80.9606 56.0561C80.3526 56.0721 79.7766 56.7121 79.6006 57.5761C79.4246 58.4081 80.0806 58.7601 80.6726 59.1281C81.4886 59.6241 82.3526 60.0561 82.9126 60.6001C83.6006 61.2721 83.9526 62.0721 83.7446 63.1121C83.6486 63.5761 83.3606 64.0401 82.8486 64.4241C82.3686 64.7601 81.6326 65.0481 80.7686 65.1441C79.5046 65.2721 77.9846 65.0001 76.7046 64.0721ZM85.4774 56.4721C85.2854 56.4721 85.1254 56.3761 85.0614 56.2161C84.7094 55.4641 84.7414 54.8081 85.0134 54.2001C85.0934 54.0401 85.2534 53.9441 85.4134 53.9281C86.7414 53.9121 92.5014 53.8481 92.7574 53.8321C92.9494 53.8321 93.1414 53.9761 93.1894 54.1681C93.3814 54.7921 93.3814 55.4321 93.2214 56.0401C93.1734 56.2321 92.9974 56.3761 92.7894 56.3761C92.7894 56.3761 91.7334 56.3921 90.4214 56.4081C90.3414 58.4561 90.1334 63.1601 90.0854 64.4081C90.0854 64.6001 89.9414 64.7761 89.7494 64.8241C89.1094 65.0161 88.4534 65.0001 87.8294 64.7601C87.6534 64.6801 87.5414 64.5041 87.5574 64.3121L87.8774 56.4401C86.6614 56.4561 85.6534 56.4721 85.4774 56.4721ZM94.5209 64.2001C94.0409 63.6081 93.9929 62.7921 93.9929 62.7921C93.9929 62.7601 93.9929 62.7121 93.9929 62.6801C93.9929 62.6801 94.2169 57.0961 94.2649 54.8401C94.2809 54.1361 94.6969 53.9121 95.2089 53.9121C96.9849 53.8961 100.697 53.8481 100.953 53.8481C101.161 53.8321 101.337 53.9761 101.401 54.1681C101.577 54.7921 101.593 55.4321 101.433 56.0401C101.385 56.2321 101.209 56.3761 101.001 56.3761L96.7449 56.4401L96.6649 58.6321C97.6729 58.4721 98.7289 58.2961 99.1609 58.2321C99.3529 58.2001 99.5449 58.2961 99.6249 58.4721C99.9129 59.0641 100.009 59.6881 99.9129 60.3601C99.8969 60.5521 99.7369 60.7121 99.5449 60.7441L96.5849 61.2081L96.5369 62.5361C96.9369 62.6001 97.6249 62.5201 98.3289 62.4241C99.0649 62.3121 99.8169 62.1521 100.425 61.9601C100.569 61.9121 100.729 61.9441 100.841 62.0401C101.417 62.4881 101.641 63.1441 101.529 64.0081C101.497 64.1681 101.385 64.3121 101.225 64.3761C100.329 64.6481 99.1769 64.8881 98.1209 65.0001C97.0489 65.1121 96.0889 65.0641 95.5449 64.8881C95.0969 64.7601 94.7609 64.5041 94.5209 64.2001Z" fill="white"/>
</g>
<defs>
<filter id="filter0_d_1491_22946" x="0.333185" y="0.595703" width="123.206" height="157.004" filterUnits="userSpaceOnUse" color-interpolation-filters="sRGB">
<feFlood flood-opacity="0" result="BackgroundImageFix"/>
<feColorMatrix in="SourceAlpha" type="matrix" values="0 0 0 0 0 0 0 0 0 0 0 0 0 0 0 0 0 0 127 0" result="hardAlpha"/>
<feOffset dx="-1.78644" dy="7.14578"/>
<feComposite in2="hardAlpha" operator="out"/>
<feColorMatrix type="matrix" values="0 0 0 0 0.0392157 0 0 0 0 0.384314 0 0 0 0 0.30149 0 0 0 1 0"/>
<feBlend mode="normal" in2="BackgroundImageFix" result="effect1_dropShadow_1491_22946"/>
<feBlend mode="normal" in="SourceGraphic" in2="effect1_dropShadow_1491_22946" result="shape"/>
</filter>
</defs>
</svg>
