<svg width="393" height="709" viewBox="0 0 393 709" fill="none" xmlns="http://www.w3.org/2000/svg">
<ellipse cx="188.5" cy="372" rx="549.5" ry="372" fill="#36469D"/>
<path d="M86.2254 473.309C68.6782 431.944 18.2111 354.51 -4.41284 362.445V624.322L405.831 655.239L444.326 362.445C418.798 329.471 399.247 387.319 312.634 473.309C260.738 524.832 155.11 635.695 86.2254 473.309Z" fill="#29336D"/>
<path d="M141.448 569.843V635.062C141.448 635.552 141.368 636.039 141.21 636.503L119.95 698.947C119.395 700.577 117.955 701.743 116.246 701.947L65.4727 708.014C63.9507 708.196 62.4415 707.586 61.4734 706.397L22.4219 658.46C22.2331 658.228 22.068 657.978 21.929 657.713L-7.90703 600.864C-8.24361 600.222 -8.41946 599.509 -8.41946 598.785V522.968C-8.41946 522.72 -8.39887 522.472 -8.35792 522.228L13.8123 389.944C14.106 388.191 13.3279 386.437 11.8696 385.422C-41.8327 348.016 -57.4038 258.216 -58.5032 216.635C-58.5176 216.093 -58.6319 215.582 -58.8174 215.072C-66.6624 193.506 -41.7171 160.316 -25.24 143.147C-23.3336 141.161 -23.5859 137.922 -25.7393 136.207C-80.5741 92.5158 -56.9924 50.4388 -37.5476 34.2772C-37.3375 34.1025 -37.1301 33.9613 -36.8894 33.8319C-20.7517 25.1592 23.9296 14.9202 48.7693 9.95978C51.5226 9.40996 54.0661 11.526 54.0661 14.3336V15.1867C54.0661 16.1877 53.7304 17.1598 53.1127 17.9474L24.451 54.4958C23.1128 56.2022 23.1912 58.6228 24.637 60.2391L52.7323 91.6483C53.581 92.5972 54.7937 93.1395 56.0667 93.1395H83.4714C84.0281 93.1395 84.5799 93.0356 85.0985 92.8331L139.221 71.7004C140.613 71.1569 142.184 71.3441 143.409 72.1994L189.919 104.669C190.093 104.791 190.259 104.925 190.414 105.07L225.732 138.104C226.637 138.95 227.15 140.133 227.15 141.372V171.074C227.15 172.56 227.889 173.95 229.121 174.782L259.81 195.498C260.068 195.672 260.344 195.819 260.633 195.936L285.758 206.118C286.292 206.334 286.862 206.445 287.438 206.445H312.637C313.595 206.445 314.527 206.752 315.297 207.322L347.984 231.498C348.754 232.068 349.686 232.375 350.644 232.375H357.692C359.747 232.375 361.537 233.775 362.033 235.769L368.191 260.53C368.604 262.191 368.033 263.942 366.721 265.04L325.23 299.769C324.514 300.369 324.003 301.179 323.77 302.084L314.297 338.867C314.174 339.344 313.973 339.797 313.703 340.209L287.892 379.459C287.064 380.717 285.66 381.475 284.154 381.475H255.399C254.496 381.475 253.614 381.748 252.869 382.258L229.095 398.553C227.878 399.388 227.15 400.768 227.15 402.244V420.431C227.15 421.565 226.72 422.656 225.947 423.484L190.678 461.261C190.349 461.613 190.079 462.017 189.878 462.456L164.974 517.008L141.848 567.995C141.585 568.575 141.448 569.205 141.448 569.843Z" fill="#112830"/>
<path d="M324.032 300.03L315.063 341.379C314.43 344.296 310.229 344.173 309.768 341.224L306.932 323.081C306.796 322.212 306.245 321.464 305.455 321.077L273.599 305.468C273.23 305.287 272.824 305.193 272.413 305.193H261.797C260.094 305.193 258.818 303.631 259.157 301.962L261.924 288.354L264.814 268.77C264.905 268.15 264.778 267.518 264.454 266.982L248.717 240.969C248.543 240.681 248.424 240.363 248.367 240.031L244.908 219.903C244.805 219.305 244.907 218.69 245.198 218.157L257.802 195.048C258.432 193.894 259.804 193.362 261.047 193.792L286.755 202.667C287.038 202.765 287.335 202.814 287.634 202.814H315.194C315.809 202.814 316.406 203.025 316.885 203.411L348.408 228.823C348.887 229.209 349.484 229.419 350.099 229.419H358.656C359.972 229.419 361.095 230.369 361.313 231.667L366.251 261.022C366.406 261.941 366.074 262.875 365.375 263.491L339.045 286.67L324.931 298.539C324.475 298.923 324.158 299.447 324.032 300.03Z" stroke="#009F64" stroke-width="5" stroke-linecap="round"/>
<path d="M227.26 174.245L256.738 191.663C257.996 192.407 258.432 194.018 257.72 195.295L244.974 218.151C244.668 218.7 244.563 219.338 244.678 219.956L248.411 240.023C248.47 240.338 248.585 240.641 248.75 240.916L264.502 267.171C264.824 267.707 264.949 268.338 264.857 268.956L262.381 285.46C262.168 286.882 260.876 287.886 259.445 287.741L225.159 284.269C223.687 284.12 222.61 282.812 222.748 281.339L224.261 265.069C224.395 263.633 223.373 262.346 221.944 262.15L178.409 256.193C177.527 256.072 176.762 255.524 176.364 254.728L171.815 245.629C170.953 243.906 168.613 243.618 167.359 245.081L160.806 252.726C160.295 253.323 159.547 253.667 158.761 253.667H134.694C133.206 253.667 132 254.873 132 256.361L132 267.64C132 268.76 132.692 269.763 133.739 270.16L143.985 274.046C145.374 274.573 146.075 276.126 145.55 277.517L140.647 290.499C140.114 291.91 138.526 292.609 137.126 292.049L104.325 278.928C103.302 278.519 102.631 277.529 102.631 276.427V266.647C102.631 264.766 100.753 263.464 98.9913 264.125L73.7584 273.587C73.261 273.773 72.7196 273.809 72.2021 273.688L60.5984 270.99C59.3781 270.706 58.5145 269.619 58.5145 268.366V260.43C58.5145 258.694 56.898 257.412 55.2081 257.806L49.9525 259.032C49.001 259.254 48.004 258.944 47.3468 258.221L32.6284 242.031C31.9759 241.313 31.7596 240.3 32.062 239.378L38.1264 220.896C38.4442 219.928 39.2817 219.221 40.2901 219.072L61.4565 215.925C62.6926 215.741 63.6401 214.732 63.745 213.486L66.2235 184.054C66.2478 183.765 66.2254 183.475 66.1572 183.193L61.542 164.156C61.1779 162.654 62.149 161.154 63.6684 160.872L83.1168 157.26C83.9531 157.105 84.8137 157.354 85.4382 157.931L96.6238 168.278C97.4093 169.005 98.5502 169.197 99.5308 168.77L114.182 162.376C115.46 161.819 116.101 160.378 115.66 159.055L111.307 145.996C110.807 144.496 111.7 142.89 113.238 142.523L144.753 135.006C146.082 134.689 147.439 135.418 147.908 136.702L159.084 167.289C159.543 168.544 160.852 169.273 162.161 169.003L177.95 165.736C178.861 165.547 179.611 164.902 179.933 164.029L183.192 155.182C183.709 153.779 185.27 153.065 186.67 153.592L206.065 160.901C206.882 161.208 207.797 161.101 208.521 160.613L221.003 152.196C222.75 151.017 225.113 152.212 225.201 154.317L225.939 172.037C225.977 172.949 226.474 173.78 227.26 174.245Z" stroke="#009F64" stroke-width="5" stroke-linecap="round"/>
<path d="M146.722 316.769L139.946 293.976C139.772 293.389 139.803 292.76 140.034 292.192L146.015 277.512C146.597 276.083 145.862 274.458 144.405 273.951L133.403 270.124C132.32 269.747 131.594 268.726 131.594 267.58V256.361C131.594 254.873 132.8 253.667 134.288 253.667H158.621C159.42 253.667 160.179 253.312 160.691 252.697L167.293 244.775C168.551 243.265 170.95 243.567 171.795 245.341L176.093 254.368C176.485 255.191 177.267 255.76 178.17 255.88L222.283 261.741C223.729 261.933 224.759 263.241 224.607 264.692L222.807 281.923C222.651 283.421 223.753 284.757 225.253 284.887L258.367 287.767C259.925 287.902 261.041 289.332 260.793 290.876L258.557 304.856L251.771 332.643C251.589 333.391 251.096 334.024 250.416 334.385L218.27 351.422C217.965 351.584 217.693 351.803 217.47 352.068L190.579 384.038C189.227 385.646 186.638 385.157 185.965 383.167L180.035 365.622C179.665 364.528 178.638 363.791 177.482 363.791H165.413C164.004 363.791 162.832 362.704 162.727 361.298L160.006 325.021C159.93 324.013 159.297 323.132 158.365 322.739L148.259 318.484C147.516 318.171 146.952 317.542 146.722 316.769Z" stroke="#009F64" stroke-width="5" stroke-linecap="round"/>
<path d="M285.792 380.2L251.619 382.415C251.092 382.449 250.587 382.638 250.166 382.957L242.675 388.635C241.43 389.579 239.645 389.269 238.791 387.961L230.463 375.2C230.12 374.673 229.602 374.284 229.001 374.098L209.782 368.167C207.966 367.607 207.285 365.393 208.472 363.91L217.65 352.437C217.881 352.149 218.168 351.911 218.495 351.738L249.773 335.195C250.435 334.845 250.921 334.235 251.116 333.512L258.003 307.852C258.3 306.744 259.268 305.945 260.413 305.863L271.781 305.051C272.252 305.018 272.724 305.109 273.149 305.315L305.242 320.889C306.031 321.272 306.584 322.015 306.725 322.88L309.839 342.01C309.943 342.649 309.814 343.303 309.475 343.854L287.912 378.923C287.455 379.668 286.664 380.144 285.792 380.2Z" fill="#009F64" stroke="#009F64" stroke-width="5" stroke-linecap="round"/>
<path d="M191.608 407.034L188.913 391.46C188.868 391.201 188.785 390.95 188.668 390.715L187.668 388.716C187.162 387.703 187.343 386.481 188.122 385.658L203.825 369.083C204.547 368.321 205.648 368.048 206.643 368.384L229.096 375.969C229.638 376.153 230.109 376.504 230.438 376.974L239.459 389.821C240.328 391.06 240.007 392.771 238.748 393.611L230.941 398.815C230.299 399.244 229.871 399.927 229.766 400.691L226.697 423.097C226.611 423.727 226.304 424.307 225.832 424.733L190.808 456.317C189.718 457.3 188.041 457.229 187.038 456.158L165.892 433.583C164.827 432.446 164.946 430.645 166.151 429.657L190.661 409.577C191.412 408.962 191.774 407.99 191.608 407.034Z" stroke="#009F64" stroke-width="5" stroke-linecap="round"/>
</svg>
