<svg width="52" height="60" viewBox="0 0 52 60" fill="none" xmlns="http://www.w3.org/2000/svg">
<path fill-rule="evenodd" clip-rule="evenodd" d="M41.3664 14.431H7.94889C5.43217 14.431 3.39196 16.4712 3.39196 18.988V52.4055C3.39196 54.9222 5.43217 56.9624 7.94889 56.9624H41.3664C43.8831 56.9624 45.9233 54.9222 45.9233 52.4055V18.988C45.9233 16.4712 43.8831 14.431 41.3664 14.431ZM7.94889 11.3931C3.75435 11.3931 0.354004 14.7934 0.354004 18.988V52.4055C0.354004 56.6 3.75435 60.0004 7.94889 60.0004H41.3664C45.561 60.0004 48.9613 56.6 48.9613 52.4055V18.988C48.9613 14.7934 45.561 11.3931 41.3664 11.3931H7.94889Z" fill="#353535"/>
<path fill-rule="evenodd" clip-rule="evenodd" d="M50.105 0.511666C51.92 1.56247 52.5396 3.8857 51.4887 5.70073L23.3975 54.222L19.999 49.2243C17.8386 46.0473 14.5585 41.1653 11.7373 36.8412C10.3285 34.6819 9.02061 32.641 8.02028 31.0133C7.52162 30.2019 7.08341 29.4673 6.74213 28.8592C6.46044 28.3573 6.07377 27.648 5.86582 27.0241C5.20261 25.0345 6.27789 22.8839 8.26754 22.2207C10.2538 21.5586 12.4005 22.6291 13.0676 24.6123C13.054 24.5718 13.0457 24.5494 13.0469 24.5489C13.0501 24.5475 13.1269 24.7175 13.3653 25.1423C13.6362 25.625 14.0156 26.2634 14.4909 27.0366C15.4383 28.5783 16.7032 30.5531 18.0981 32.6912C19.6429 35.059 21.3307 37.6016 22.8933 39.9345L44.9159 1.89542C45.9667 0.0803837 48.29 -0.539143 50.105 0.511666Z" fill="#E20606"/>
</svg>
