<svg width="40" height="40" viewBox="0 0 40 40" fill="none" xmlns="http://www.w3.org/2000/svg">
<circle cx="20" cy="20" r="20" fill="#248947"/>
<path d="M18.3202 24.3313C18.2203 23.9817 18.1703 23.5988 18.1703 23.1826C18.1703 22.3835 18.3618 21.7259 18.7447 21.2098C19.1443 20.6937 19.7269 20.1277 20.4928 19.5117C21.2086 18.929 21.7414 18.4046 22.091 17.9385C22.4572 17.4723 22.6404 16.898 22.6404 16.2154C22.6404 15.5328 22.399 14.9751 21.9162 14.5423C21.45 14.0928 20.7924 13.868 19.9434 13.868C19.4273 13.868 18.9778 13.9762 18.5949 14.1926C18.212 14.3924 17.904 14.6338 17.6709 14.9168C17.4545 15.1832 17.313 15.4246 17.2464 15.641L14.7492 14.3924C15.0155 13.9263 15.2902 13.5017 15.5732 13.1188C15.8729 12.7359 16.4056 12.3447 17.1715 11.9452C17.9373 11.5456 18.9112 11.3458 20.0932 11.3458C21.1587 11.3458 22.1076 11.5539 22.94 11.9701C23.7891 12.3697 24.4467 12.9274 24.9128 13.6433C25.379 14.3425 25.612 15.1166 25.612 15.9657C25.612 16.7481 25.4789 17.4224 25.2125 17.9884C24.9461 18.5544 24.6215 19.0289 24.2386 19.4118C23.8723 19.7781 23.3895 20.1943 22.7902 20.6604C22.1243 21.1765 21.6415 21.6094 21.3418 21.959C21.0421 22.3086 20.8923 22.7414 20.8923 23.2575C20.8923 23.5905 20.909 23.9484 20.9423 24.3313H18.3202ZM19.8684 30.2497C19.3524 30.2497 18.9195 30.0832 18.5699 29.7503C18.2369 29.4007 18.0705 28.9761 18.0705 28.4767C18.0705 27.9606 18.2369 27.5361 18.5699 27.2031C18.9195 26.8535 19.3524 26.6787 19.8684 26.6787C20.3679 26.6787 20.7924 26.8535 21.142 27.2031C21.4916 27.5361 21.6664 27.9606 21.6664 28.4767C21.6664 28.9761 21.4916 29.4007 21.142 29.7503C20.7924 30.0832 20.3679 30.2497 19.8684 30.2497Z" fill="#FCFCFE"/>
</svg>
