<svg width="50" height="50" viewBox="0 0 50 50" fill="none" xmlns="http://www.w3.org/2000/svg">
<circle cx="25" cy="25" r="25" fill="#E2062D"/>
<path d="M17.7311 34.0476C17.8943 32.7686 18.5475 31.027 19.6088 29.3942C20.3163 28.224 21.2416 26.9722 22.194 25.6932C21.1871 24.1421 20.2075 22.5909 19.4727 21.1486C18.7379 19.7063 18.2481 18.3457 18.0304 17.1483C17.976 16.7401 18.2753 16.3591 18.6563 16.3047C19.6904 16.1142 20.7245 16.087 21.7314 16.223C22.0307 16.2775 22.3029 16.5224 22.3573 16.8489C22.3845 17.0122 22.4117 17.2027 22.4661 17.366C22.8199 18.5089 23.5547 19.8424 24.4255 21.2575C24.5888 21.5296 24.7521 21.8017 24.9425 22.0739C25.4868 21.3391 26.0039 20.5771 26.4665 19.8696C27.174 18.7266 27.7727 17.747 27.936 16.9034C27.9632 16.604 28.1809 16.3591 28.4803 16.2775C29.4871 15.9781 30.5485 16.0325 31.637 16.2502C32.018 16.3319 32.2901 16.6857 32.2357 17.0666C32.2085 17.2843 32.2085 17.5021 32.154 17.6653C31.9363 18.8083 31.4193 20.1145 30.6029 21.4752C29.7593 22.8903 28.6435 24.4414 27.4734 25.9926C28.317 27.2444 29.1062 28.469 29.7321 29.5847C30.6029 31.1358 31.256 32.7958 31.4737 34.0204C31.5553 34.4286 31.256 34.7824 30.875 34.864C29.7865 35.0545 28.7252 35.0545 27.7455 34.8096C27.4734 34.7552 27.2285 34.5103 27.174 34.2381C26.9835 33.3401 26.3032 32.0883 25.5957 30.9453C25.3507 30.5099 25.0514 30.0473 24.7521 29.5847C24.3983 30.1017 24.0173 30.6188 23.6907 31.1086C23.1465 31.9522 22.6566 32.7142 22.3573 33.4217C22.2484 33.6394 22.1396 33.9388 22.0852 34.2381C22.0307 34.5375 21.7858 34.7824 21.4593 34.8368C20.3707 35.0273 19.3366 35.0545 18.3298 34.8913C17.9488 34.8096 17.7038 34.4558 17.7311 34.0476Z" fill="#FCFCFE"/>
</svg>
