<svg width="186" height="133" viewBox="0 0 186 133" fill="none" xmlns="http://www.w3.org/2000/svg">
<g filter="url(#filter0_d_1135_1211)">
<path d="M154.511 32.6078L177.183 46.005C178.151 46.577 178.486 47.8164 177.938 48.7983L168.135 66.3777C167.899 66.7998 167.819 67.2909 167.907 67.766L170.779 83.2002C170.824 83.443 170.912 83.6757 171.039 83.8874L183.155 104.081C183.402 104.493 183.499 104.979 183.427 105.454L181.523 118.148C181.359 119.242 180.365 120.014 179.265 119.902L152.894 117.232C151.762 117.117 150.934 116.111 151.04 114.978L152.204 102.464C152.307 101.359 151.521 100.37 150.421 100.219L116.937 95.6371C116.259 95.5444 115.671 95.1228 115.364 94.5108L111.865 87.5124C111.202 86.1868 109.403 85.9653 108.439 87.0905L103.398 92.9706C103.005 93.4299 102.43 93.6943 101.825 93.6943H83.3145C82.1701 93.6943 81.2423 94.622 81.2423 95.7665L81.2423 104.442C81.2423 105.303 81.7747 106.074 82.5796 106.379L90.4602 109.369C91.5291 109.774 92.0677 110.969 91.6638 112.038L87.8929 122.023C87.483 123.109 86.262 123.646 85.1848 123.215L59.9565 113.124C59.1698 112.809 58.6539 112.047 58.6539 111.2V103.678C58.6539 102.231 57.2088 101.23 55.8541 101.738L36.4465 109.016C36.064 109.159 35.6475 109.186 35.2496 109.094L26.3247 107.018C25.3861 106.8 24.7219 105.963 24.7219 105V98.8959C24.7219 97.5612 23.4786 96.5746 22.1788 96.8779L18.1365 97.8211C17.4047 97.9918 16.6379 97.753 16.1324 97.197L4.81192 84.7445C4.3101 84.1925 4.14373 83.4134 4.37631 82.7045L9.04065 68.4894C9.28512 67.7443 9.92923 67.2011 10.7049 67.0858L26.9847 64.6658C27.9354 64.5245 28.6642 63.7479 28.7449 62.79L30.6512 40.1526C30.6699 39.9306 30.6526 39.707 30.6001 39.4905L27.0504 24.848C26.7704 23.6929 27.5174 22.5394 28.6859 22.3224L43.6444 19.5444C44.2877 19.4249 44.9496 19.6163 45.4299 20.0606L54.0332 28.0186C54.6373 28.5774 55.5148 28.7258 56.2691 28.3967L67.5378 23.4794C68.5208 23.0505 69.014 21.9424 68.6749 20.9249L65.3268 10.8807C64.9423 9.72708 65.6291 8.49187 66.8119 8.20974L91.0509 2.42796C92.0737 2.18398 93.1171 2.74477 93.478 3.73244L102.074 27.2579C102.427 28.2232 103.434 28.7842 104.44 28.5759L116.584 26.0633C117.285 25.9183 117.862 25.422 118.109 24.7504L120.616 17.9461C121.014 16.8666 122.214 16.3177 123.291 16.7233L138.208 22.3444C138.837 22.5812 139.541 22.4988 140.098 22.1233L149.697 15.6493C151.042 14.7428 152.859 15.6613 152.926 17.281L153.494 30.9101C153.524 31.6116 153.906 32.2506 154.511 32.6078Z" fill="#009F64" stroke="#009F64" stroke-width="3.84569" stroke-linecap="round"/>
<path d="M72.1983 68.6574C71.9952 68.5651 71.866 68.362 71.866 68.1405C71.9399 66.3869 72.2721 58.4125 72.3644 56.5112C72.3644 56.2527 72.549 56.0497 72.8074 56.0128C73.3981 55.9205 73.9704 55.9389 74.5057 56.0128C74.8933 56.0866 75.1887 56.382 75.2625 56.7511C75.6133 57.3603 76.4624 59.6862 77.4407 61.9013C77.7361 62.4735 78.0499 63.0458 78.3822 63.5995C78.5114 60.8122 78.6406 57.6187 78.696 56.5112C78.696 56.2527 78.8806 56.0497 79.1205 56.0128C79.8589 55.902 80.5603 55.9389 81.2064 56.0866C81.4464 56.142 81.6125 56.3635 81.6125 56.6219C81.5202 58.5232 81.188 66.4607 81.1141 68.2513C81.1141 68.4728 80.948 68.6759 80.7449 68.7312C79.9881 68.9527 79.2497 68.9343 78.5298 68.6574C78.4191 68.6205 78.3452 68.5466 78.2899 68.4728C76.9792 66.9407 75.8901 65.2424 74.9856 63.5257C74.9118 65.5932 74.8195 67.4945 74.7826 68.2513C74.7826 68.4728 74.6349 68.6759 74.4134 68.7312C73.6566 68.9527 72.9182 68.9343 72.1983 68.6574ZM86.8801 69.1373C83.8343 69.0635 82.4498 66.8115 82.3575 63.9872C82.2837 61.7721 83.0774 59.2432 84.2588 57.6741C85.1264 56.5112 86.2155 55.8282 87.3046 55.7543C88.6706 55.6621 89.6674 56.1974 90.4058 56.9542C91.7349 58.3571 91.9933 60.7753 91.9933 60.7753C91.9933 60.7753 92.1963 62.2336 91.9379 63.9134C91.8456 64.6517 91.6426 65.4086 91.3288 66.11C90.978 66.8668 90.4242 67.6421 89.6674 68.2144C88.9106 68.8051 87.9692 69.1743 86.8801 69.1373ZM85.3479 62.7689C85.2556 63.5257 85.2556 64.2641 85.4218 64.9102C85.6248 65.6301 86.0863 66.1838 86.9539 66.2208C87.3231 66.2208 87.6369 66.0916 87.8769 65.8885C88.246 65.6301 88.5045 65.2424 88.6706 64.8732C88.929 64.3195 89.0398 63.6734 89.0952 63.1011C89.2059 62.012 89.0767 61.0522 89.0767 61.0337C89.0767 61.0337 89.0029 59.9815 88.4676 59.2062C88.2645 58.9109 87.9692 58.6525 87.5077 58.6709C87.1016 58.7078 86.7324 59.0955 86.437 59.557C85.8463 60.4061 85.4956 61.6059 85.3479 62.7689ZM93.1633 68.6759C92.9602 68.5836 92.8126 68.3805 92.831 68.159C92.8864 66.9961 93.3479 57.0465 93.3479 56.825C93.3663 56.4004 93.7171 56.0682 94.1416 56.0497C94.4739 56.0312 94.8062 56.0312 94.9538 56.0312C96.1168 56.0312 97.4274 56.1051 98.5165 56.382C100.067 56.7696 101.193 57.5818 101.636 58.7078C102.098 59.9077 101.765 61.1998 100.805 62.3812C100.547 62.7135 100.233 63.0458 99.8825 63.3411C100.344 63.8211 100.769 64.3564 101.156 64.9286C101.784 65.8516 102.079 66.3869 102.485 67.4575C102.559 67.6421 102.522 67.8636 102.356 68.0113C101.765 68.5836 101.045 68.842 100.233 68.8235C100.03 68.8235 99.8271 68.6943 99.7533 68.4913C99.5871 68.0667 99.2179 67.236 98.738 66.5715C98.3503 66.0362 97.9442 65.5562 97.5012 65.1132C96.7259 65.5932 96.0983 65.9439 95.8583 66.0546C95.803 67.033 95.766 67.8452 95.7476 68.2697C95.7476 68.4913 95.5999 68.6943 95.3784 68.7497C94.6216 68.9712 93.8832 68.9527 93.1633 68.6759ZM96.1906 58.9847L96.0245 62.6027C96.5229 62.2889 97.0767 61.9013 97.5751 61.4767C98.0181 61.126 98.4242 60.7384 98.6826 60.3323C98.8118 60.1292 98.978 59.9631 98.9041 59.76C98.8118 59.5016 98.4611 59.4277 98.1288 59.317C97.5751 59.1324 96.9474 59.0401 96.3014 58.9847C96.2644 58.9847 96.2275 58.9847 96.1906 58.9847ZM103.07 59.0955C102.849 59.0955 102.664 58.9847 102.59 58.8001C102.184 57.9325 102.221 57.1757 102.535 56.4743C102.627 56.2897 102.812 56.1789 102.996 56.1605C104.529 56.142 111.174 56.0682 111.469 56.0497C111.691 56.0497 111.912 56.2158 111.968 56.4373C112.189 57.1573 112.189 57.8956 112.005 58.5971C111.949 58.8186 111.746 58.9847 111.506 58.9847C111.506 58.9847 110.288 59.0032 108.774 59.0216C108.682 61.3844 108.442 66.8115 108.387 68.2513C108.387 68.4728 108.22 68.6759 107.999 68.7312C107.261 68.9527 106.504 68.9343 105.784 68.6574C105.581 68.5651 105.452 68.362 105.47 68.1405L105.839 59.0586C104.436 59.077 103.273 59.0955 103.07 59.0955ZM113.504 68.0113C112.95 67.3283 112.895 66.3869 112.895 66.3869C112.895 66.35 112.895 66.2946 112.895 66.2577C112.895 66.2577 113.153 59.8154 113.208 57.2126C113.227 56.4004 113.707 56.142 114.298 56.142C116.347 56.1235 120.629 56.0682 120.924 56.0682C121.164 56.0497 121.368 56.2158 121.441 56.4373C121.644 57.1573 121.663 57.8956 121.478 58.5971C121.423 58.8186 121.22 58.9847 120.98 58.9847L116.07 59.0586L115.977 61.5875C117.14 61.4029 118.359 61.1998 118.857 61.126C119.079 61.0891 119.3 61.1998 119.392 61.4029C119.725 62.0859 119.835 62.8058 119.725 63.5811C119.706 63.8026 119.522 63.9872 119.3 64.0241L115.885 64.5594L115.83 66.0916C116.291 66.1654 117.085 66.0731 117.897 65.9623C118.746 65.8331 119.614 65.6485 120.315 65.427C120.481 65.3716 120.666 65.4086 120.795 65.5193C121.46 66.0362 121.718 66.793 121.589 67.7898C121.552 67.9744 121.423 68.1405 121.238 68.2144C120.205 68.5282 118.875 68.8051 117.657 68.9343C116.42 69.0635 115.313 69.0081 114.685 68.8051C114.168 68.6574 113.781 68.362 113.504 68.0113Z" fill="white"/>
</g>
<defs>
<filter id="filter0_d_1135_1211" x="0.563654" y="0.447998" width="184.809" height="131.985" filterUnits="userSpaceOnUse" color-interpolation-filters="sRGB">
<feFlood flood-opacity="0" result="BackgroundImageFix"/>
<feColorMatrix in="SourceAlpha" type="matrix" values="0 0 0 0 0 0 0 0 0 0 0 0 0 0 0 0 0 0 127 0" result="hardAlpha"/>
<feOffset dx="-1.78644" dy="7.14578"/>
<feComposite in2="hardAlpha" operator="out"/>
<feColorMatrix type="matrix" values="0 0 0 0 0.0392157 0 0 0 0 0.384314 0 0 0 0 0.30149 0 0 0 1 0"/>
<feBlend mode="normal" in2="BackgroundImageFix" result="effect1_dropShadow_1135_1211"/>
<feBlend mode="normal" in="SourceGraphic" in2="effect1_dropShadow_1135_1211" result="shape"/>
</filter>
</defs>
</svg>
