<svg width="236" height="165" viewBox="0 0 236 165" fill="none" xmlns="http://www.w3.org/2000/svg">
<g filter="url(#filter0_d_1491_22949)">
<path d="M197.688 39.795L227.165 57.2135C228.423 57.9571 228.859 59.5686 228.147 60.8452L215.401 83.7011C215.095 84.2499 214.99 84.8884 215.105 85.5062L218.838 105.573C218.897 105.889 219.012 106.191 219.177 106.466L234.93 132.721C235.251 133.257 235.377 133.888 235.284 134.507L232.808 151.011C232.595 152.433 231.303 153.436 229.872 153.292L195.586 149.82C194.114 149.67 193.038 148.363 193.175 146.89L194.688 130.619C194.822 129.183 193.8 127.896 192.371 127.7L148.836 121.743C147.954 121.622 147.189 121.074 146.791 120.279L142.242 111.18C141.38 109.456 139.041 109.168 137.787 110.631L131.234 118.276C130.722 118.873 129.975 119.217 129.188 119.217H105.121C103.633 119.217 102.427 120.423 102.427 121.911L102.427 133.191C102.427 134.31 103.119 135.313 104.166 135.71L114.412 139.596C115.802 140.123 116.502 141.676 115.977 143.067L111.074 156.049C110.541 157.461 108.954 158.159 107.553 157.599L74.7523 144.479C73.7294 144.07 73.0587 143.079 73.0587 141.977V132.198C73.0587 130.316 71.1799 129.014 69.4186 129.675L44.1856 139.137C43.6882 139.324 43.1468 139.359 42.6294 139.239L31.0256 136.54C29.8053 136.256 28.9417 135.169 28.9417 133.916V125.98C28.9417 124.245 27.3252 122.962 25.6353 123.356L20.3797 124.583C19.4283 124.805 18.4312 124.494 17.774 123.771L3.05562 107.581C2.40318 106.863 2.18687 105.85 2.48926 104.929L8.55364 86.4467C8.8715 85.478 9.70894 84.7717 10.7174 84.6218L31.8837 81.4755C33.1199 81.2917 34.0674 80.282 34.1722 79.0366L36.6507 49.6044C36.675 49.3158 36.6526 49.0251 36.5844 48.7436L31.9692 29.706C31.6051 28.2042 32.5763 26.7045 34.0956 26.4223L53.544 22.8105C54.3804 22.6552 55.241 22.904 55.8654 23.4816L67.0511 33.8283C67.8365 34.5549 68.9774 34.7478 69.9581 34.3199L84.6092 27.9266C85.8872 27.369 86.5285 25.9282 86.0876 24.6054L81.7345 11.5463C81.2346 10.0464 82.1275 8.44046 83.6653 8.07364L115.18 0.55641C116.51 0.239199 117.866 0.968318 118.336 2.25244L129.511 32.8392C129.97 34.0943 131.279 34.8236 132.588 34.5529L148.378 31.2861C149.289 31.0975 150.038 30.4522 150.36 29.5792L153.619 20.7324C154.136 19.3289 155.697 18.6153 157.097 19.1427L176.492 26.4509C177.309 26.7588 178.225 26.6516 178.949 26.1635L191.43 17.7462C193.177 16.5677 195.54 17.7618 195.628 19.8677L196.366 37.5877C196.404 38.4998 196.902 39.3306 197.688 39.795Z" fill="#009F64"/>
<path d="M90.515 87.2623C90.251 87.1423 90.083 86.8783 90.083 86.5903C90.179 84.3103 90.611 73.9423 90.731 71.4703C90.731 71.1343 90.971 70.8703 91.307 70.8223C92.075 70.7023 92.819 70.7263 93.515 70.8223C94.019 70.9183 94.403 71.3023 94.499 71.7823C94.955 72.5743 96.059 75.5983 97.331 78.4783C97.715 79.2223 98.123 79.9663 98.555 80.6863C98.723 77.0623 98.891 72.9103 98.963 71.4703C98.963 71.1343 99.203 70.8703 99.515 70.8223C100.475 70.6783 101.387 70.7263 102.227 70.9183C102.539 70.9903 102.755 71.2783 102.755 71.6143C102.635 74.0863 102.203 84.4063 102.107 86.7343C102.107 87.0223 101.891 87.2863 101.627 87.3583C100.643 87.6463 99.683 87.6223 98.747 87.2623C98.603 87.2143 98.507 87.1183 98.435 87.0223C96.731 85.0303 95.315 82.8223 94.139 80.5903C94.043 83.2783 93.923 85.7503 93.875 86.7343C93.875 87.0223 93.683 87.2863 93.395 87.3583C92.411 87.6463 91.451 87.6223 90.515 87.2623ZM109.604 87.8863C105.644 87.7903 103.844 84.8623 103.724 81.1903C103.628 78.3103 104.66 75.0223 106.196 72.9823C107.324 71.4703 108.74 70.5823 110.156 70.4863C111.932 70.3663 113.228 71.0623 114.188 72.0463C115.916 73.8703 116.252 77.0143 116.252 77.0143C116.252 77.0143 116.516 78.9103 116.18 81.0943C116.06 82.0543 115.796 83.0383 115.388 83.9503C114.932 84.9343 114.212 85.9423 113.228 86.6863C112.244 87.4543 111.02 87.9343 109.604 87.8863ZM107.612 79.6063C107.492 80.5903 107.492 81.5503 107.708 82.3903C107.972 83.3263 108.572 84.0463 109.7 84.0943C110.18 84.0943 110.588 83.9263 110.9 83.6623C111.38 83.3263 111.716 82.8223 111.932 82.3423C112.268 81.6223 112.412 80.7823 112.484 80.0383C112.628 78.6223 112.46 77.3743 112.46 77.3503C112.46 77.3503 112.364 75.9823 111.668 74.9743C111.404 74.5903 111.02 74.2543 110.42 74.2783C109.892 74.3263 109.412 74.8303 109.028 75.4303C108.26 76.5343 107.804 78.0943 107.612 79.6063ZM117.773 87.2863C117.509 87.1663 117.317 86.9023 117.341 86.6143C117.413 85.1023 118.013 72.1663 118.013 71.8783C118.037 71.3263 118.493 70.8943 119.045 70.8703C119.477 70.8463 119.909 70.8463 120.101 70.8463C121.613 70.8463 123.317 70.9423 124.733 71.3023C126.749 71.8063 128.213 72.8623 128.789 74.3263C129.389 75.8863 128.957 77.5663 127.709 79.1023C127.373 79.5343 126.965 79.9663 126.509 80.3503C127.109 80.9743 127.661 81.6703 128.165 82.4143C128.981 83.6143 129.365 84.3103 129.893 85.7023C129.989 85.9423 129.941 86.2303 129.725 86.4223C128.957 87.1663 128.021 87.5023 126.965 87.4783C126.701 87.4783 126.437 87.3103 126.341 87.0463C126.125 86.4943 125.645 85.4143 125.021 84.5503C124.517 83.8543 123.989 83.2303 123.413 82.6543C122.405 83.2783 121.589 83.7343 121.277 83.8783C121.205 85.1503 121.157 86.2063 121.133 86.7583C121.133 87.0463 120.941 87.3103 120.653 87.3823C119.669 87.6703 118.709 87.6463 117.773 87.2863ZM121.709 74.6863L121.493 79.3903C122.141 78.9823 122.861 78.4783 123.509 77.9263C124.085 77.4703 124.613 76.9663 124.949 76.4383C125.117 76.1743 125.333 75.9583 125.237 75.6943C125.117 75.3583 124.661 75.2623 124.229 75.1183C123.509 74.8783 122.693 74.7583 121.853 74.6863C121.805 74.6863 121.757 74.6863 121.709 74.6863ZM130.654 74.8303C130.366 74.8303 130.126 74.6863 130.03 74.4463C129.502 73.3183 129.55 72.3343 129.958 71.4223C130.078 71.1823 130.318 71.0383 130.558 71.0143C132.55 70.9903 141.19 70.8943 141.574 70.8703C141.862 70.8703 142.15 71.0863 142.222 71.3743C142.51 72.3103 142.51 73.2703 142.27 74.1823C142.198 74.4703 141.934 74.6863 141.622 74.6863C141.622 74.6863 140.038 74.7103 138.07 74.7343C137.95 77.8063 137.638 84.8623 137.566 86.7343C137.566 87.0223 137.35 87.2863 137.062 87.3583C136.102 87.6463 135.118 87.6223 134.182 87.2623C133.918 87.1423 133.75 86.8783 133.774 86.5903L134.254 74.7823C132.43 74.8063 130.918 74.8303 130.654 74.8303ZM144.219 86.4223C143.499 85.5343 143.427 84.3103 143.427 84.3103C143.427 84.2623 143.427 84.1903 143.427 84.1423C143.427 84.1423 143.763 75.7663 143.835 72.3823C143.859 71.3263 144.483 70.9903 145.251 70.9903C147.915 70.9663 153.483 70.8943 153.867 70.8943C154.179 70.8703 154.443 71.0863 154.539 71.3743C154.803 72.3103 154.827 73.2703 154.587 74.1823C154.515 74.4703 154.251 74.6863 153.939 74.6863L147.555 74.7823L147.435 78.0703C148.947 77.8303 150.531 77.5663 151.179 77.4703C151.467 77.4223 151.755 77.5663 151.875 77.8303C152.307 78.7183 152.451 79.6543 152.307 80.6623C152.283 80.9503 152.043 81.1903 151.755 81.2383L147.315 81.9343L147.243 83.9263C147.843 84.0223 148.875 83.9023 149.931 83.7583C151.035 83.5903 152.163 83.3503 153.075 83.0623C153.291 82.9903 153.531 83.0383 153.699 83.1823C154.563 83.8543 154.899 84.8383 154.731 86.1343C154.683 86.3743 154.515 86.5903 154.275 86.6863C152.931 87.0943 151.203 87.4543 149.619 87.6223C148.011 87.7903 146.571 87.7183 145.755 87.4543C145.083 87.2623 144.579 86.8783 144.219 86.4223Z" fill="white"/>
</g>
<defs>
<filter id="filter0_d_1491_22949" x="0.568537" y="0.482422" width="234.745" height="164.456" filterUnits="userSpaceOnUse" color-interpolation-filters="sRGB">
<feFlood flood-opacity="0" result="BackgroundImageFix"/>
<feColorMatrix in="SourceAlpha" type="matrix" values="0 0 0 0 0 0 0 0 0 0 0 0 0 0 0 0 0 0 127 0" result="hardAlpha"/>
<feOffset dx="-1.78644" dy="7.14578"/>
<feComposite in2="hardAlpha" operator="out"/>
<feColorMatrix type="matrix" values="0 0 0 0 0.0392157 0 0 0 0 0.384314 0 0 0 0 0.30149 0 0 0 1 0"/>
<feBlend mode="normal" in2="BackgroundImageFix" result="effect1_dropShadow_1491_22949"/>
<feBlend mode="normal" in="SourceGraphic" in2="effect1_dropShadow_1491_22949" result="shape"/>
</filter>
</defs>
</svg>
