<svg width="61" height="60" viewBox="0 0 61 60" fill="none" xmlns="http://www.w3.org/2000/svg">
<rect x="0.5" width="60" height="60" rx="30" fill="#787878"/>
<rect x="2.03846" y="1.53846" width="56.9231" height="56.9231" rx="28.4615" stroke="black" stroke-opacity="0.45" stroke-width="3.07692"/>
<path d="M15.8697 18.1827C15.8697 16.6352 16.8312 15.6887 18.4388 15.6887H21.3535C21.5939 14.1412 22.6906 13.2248 24.4935 13.2248H36.6329C38.4508 13.2248 39.5326 14.1562 39.7729 15.6887H42.6876C44.2952 15.6887 45.2567 16.6352 45.2567 18.1827C45.2567 24.3876 42.297 28.2338 36.3625 30.0817C35.5812 31.0733 34.6798 31.8696 33.8385 32.4255V38.8708H35.6864C37.8048 38.8708 38.9166 40.0877 38.9166 42.0859V45.0156C38.9166 45.6917 38.3907 46.1574 37.7597 46.1574H23.3667C22.7357 46.1574 22.2098 45.6917 22.2098 45.0156V42.0859C22.2098 40.0877 23.3066 38.8708 25.425 38.8708H27.288V32.4104C26.4466 31.8546 25.5602 31.0733 24.779 30.0817C18.8294 28.2488 15.8697 24.3876 15.8697 18.1827ZM23.547 21.3227C23.547 26.6713 28.4749 31.4639 30.5632 31.4639C32.6516 31.4639 37.5794 26.6713 37.5794 21.3227V16.4399C37.5794 15.884 37.1888 15.4934 36.6329 15.4934H24.4935C23.9376 15.4934 23.547 15.884 23.547 16.4399V21.3227ZM18.0181 18.393C18.0181 22.6749 19.6708 25.5895 22.8108 27.1671C21.8793 25.3341 21.2784 23.2007 21.2784 20.902V17.9573H18.4538C18.1984 17.9573 18.0181 18.1526 18.0181 18.393ZM38.3156 27.1671C41.4556 25.5895 43.1083 22.6749 43.1083 18.393C43.1083 18.1526 42.928 17.9573 42.6726 17.9573H39.8481V20.902C39.8481 23.2007 39.2471 25.3341 38.3156 27.1671ZM29.5566 38.8708H31.5698V33.5673C31.2092 33.6725 30.8787 33.7175 30.5632 33.7175C30.2477 33.7175 29.9172 33.6725 29.5566 33.5673V38.8708ZM24.4785 43.8888H36.6479V42.0859C36.6479 41.515 36.2723 41.1394 35.6864 41.1394H25.425C24.8541 41.1394 24.4785 41.515 24.4785 42.0859V43.8888Z" fill="#FCFCFE"/>
</svg>
