<svg width="52" height="52" viewBox="0 0 52 52" fill="none" xmlns="http://www.w3.org/2000/svg">
<circle cx="26" cy="26" r="26" fill="#405592"/>
<circle cx="26" cy="26" r="24" stroke="black" stroke-opacity="0.25" stroke-width="4"/>
<path d="M17.5068 18.4961C17.5068 14.1162 21.252 10.6758 26 10.6758C30.748 10.6758 34.4932 14.1162 34.4932 18.4961C34.4932 23.3711 31.5859 24.5771 30.7734 33.0449C30.7227 33.502 30.4688 33.7939 29.9736 33.7939H22.0264C21.5439 33.7939 21.29 33.502 21.2393 33.0449C20.4268 24.5771 17.5068 23.3711 17.5068 18.4961ZM19.4238 18.4961C19.4238 22.1396 21.8359 23.0029 22.9912 31.877H29.0215C30.1641 23.0029 32.5762 22.1396 32.5762 18.4961C32.5762 15.0684 29.5674 12.5928 26 12.5928C22.4326 12.5928 19.4238 15.0684 19.4238 18.4961ZM21.9883 36.5361C21.5693 36.5361 21.2393 36.2061 21.2393 35.7871C21.2393 35.3809 21.5693 35.0508 21.9883 35.0508H30.0244C30.4434 35.0508 30.7607 35.3809 30.7607 35.7871C30.7607 36.2061 30.4434 36.5361 30.0244 36.5361H21.9883ZM26 40.2178C24.0195 40.2178 22.3691 39.2529 22.2803 37.793H29.7324C29.6055 39.2529 27.9678 40.2178 26 40.2178Z" fill="#FCFCFE"/>
</svg>
